<svg width="100" height="100" viewBox="0 0 100 100" fill="none" xmlns="http://www.w3.org/2000/svg">
<mask id="mask0" mask-type="alpha" maskUnits="userSpaceOnUse" x="0" y="0" width="100" height="100">
<rect width="100" height="100" fill="#C4C4C4"/>
</mask>
<g mask="url(#mask0)">
</g>
<g clip-path="url(#clip0)">
<path d="M79.0368 34.4983C77.2862 34.4983 75.6751 35.1029 74.3975 36.1118C73.8976 32.4581 70.7579 29.6331 66.9691 29.6331C64.9598 29.6331 63.1326 30.4273 61.7847 31.7185C60.6304 29.06 57.9795 27.1963 54.9014 27.1963C53.1833 27.1963 51.5995 27.7784 50.3336 28.7539V14.3169C50.3336 10.1816 46.9693 6.81714 42.8338 6.81714C38.6982 6.81714 35.334 10.1816 35.334 14.3169V38.5701C35.334 39.3797 35.9903 40.0361 36.7999 40.0361C37.6095 40.0361 38.2659 39.3797 38.2659 38.5701V14.3169C38.2659 11.7982 40.3151 9.74903 42.8338 9.74903C45.3525 9.74903 47.4017 11.7982 47.4017 14.3169V47.1952C47.4017 48.0047 48.058 48.6611 48.8676 48.6611C49.6772 48.6611 50.3336 48.0047 50.3336 47.1952V34.6959C50.3336 32.1772 52.3827 30.128 54.9014 30.128C57.4201 30.128 59.4693 32.177 59.4693 34.6959V47.1952C59.4693 48.0047 60.1257 48.6611 60.9353 48.6611C61.7449 48.6611 62.4012 48.0047 62.4012 47.1952V37.1329C62.4012 34.6142 64.4502 32.565 66.9691 32.565C69.488 32.565 71.537 34.6142 71.537 37.1329V47.1952C71.537 48.0047 72.1933 48.6611 73.0029 48.6611C73.8125 48.6611 74.4689 48.0047 74.4689 47.1952V41.9979C74.4689 39.4792 76.5181 37.43 79.0368 37.43C81.5555 37.43 83.6047 39.479 83.6047 41.9979V63.5966L83.5976 69.8253C83.5269 74.9449 82.5451 79.9524 80.6792 84.7087L80.2119 85.9C79.8997 86.696 79.7414 87.5329 79.7414 88.3881V98.534C79.7414 99.3436 80.3978 99.9999 81.2074 99.9999C82.0169 99.9999 82.6733 99.3436 82.6733 98.534V88.3881C82.6733 87.901 82.7634 87.4242 82.9413 86.971L83.4086 85.7794C85.4037 80.6936 86.4537 75.3394 86.5293 69.8472L86.5364 63.5981V41.9979C86.5366 37.8626 83.1721 34.4983 79.0368 34.4983Z" fill="#F96C05"/>
<path d="M43.1604 85.03C39.0272 84.1227 35.4353 81.6993 33.0465 78.2067L17.263 55.1294C15.825 53.0266 16.2183 50.2136 18.1779 48.586C20.1898 46.9148 23.153 47.114 24.9233 49.0394L34.2029 59.1308C34.8604 59.846 35.8705 60.0802 36.7757 59.7272C37.6809 59.3742 38.2659 58.5182 38.2659 57.5466V44.8175C38.2659 44.0079 37.6095 43.3516 36.8 43.3516C35.9904 43.3516 35.334 44.0079 35.334 44.8175V56.0295L27.0815 47.0547C24.253 43.979 19.5194 43.6604 16.3045 46.3306C13.1736 48.9308 12.5452 53.425 14.8428 56.7843L30.6262 79.8614C33.3427 83.8334 37.3805 86.6302 42.0381 87.7783V98.5337C42.0381 99.3433 42.6944 99.9996 43.504 99.9996C44.3136 99.9996 44.97 99.3433 44.97 98.5337V87.2799C44.9702 86.2064 44.209 85.2602 43.1604 85.03Z" fill="#F96C05"/>
<path d="M56.3058 16.3179C56.3058 18.4724 55.806 20.5328 54.8203 22.4416C54.4489 23.1611 54.7308 24.0454 55.4503 24.4167C55.6655 24.5278 55.8952 24.5803 56.1217 24.5803C56.6526 24.5803 57.165 24.2911 57.4254 23.7868C58.6279 21.4579 59.2377 18.945 59.2377 16.3179C59.2377 12.7451 58.1029 9.3513 55.9559 6.50366C55.4687 5.85727 54.5494 5.72827 53.9028 6.21555C53.2564 6.70302 53.1274 7.62208 53.6147 8.26866C55.3754 10.6038 56.3058 13.3872 56.3058 16.3179Z" fill="#F96C05"/>
<path d="M29.7188 24.5804C29.9453 24.5804 30.175 24.5276 30.3902 24.4166C31.1094 24.0452 31.3915 23.1608 31.0199 22.4415C30.0342 20.5328 29.5344 18.4725 29.5344 16.3177C29.5344 8.9368 35.5393 2.93189 42.9203 2.93189C45.1653 2.93189 47.3869 3.49931 49.3448 4.57277C50.0545 4.96213 50.9458 4.70197 51.335 3.99206C51.7244 3.28216 51.4644 2.39125 50.7543 2.0019C48.3656 0.692317 45.6567 0 42.9203 0C33.9225 0 26.6025 7.32015 26.6025 16.3177C26.6025 18.9451 27.2124 21.4579 28.415 23.7866C28.6754 24.2911 29.1879 24.5804 29.7188 24.5804Z" fill="#F96C05"/>
<path d="M21.5091 27.9426C21.72 27.9426 21.9342 27.8969 22.1373 27.8003C22.8685 27.4528 23.1795 26.5783 22.8319 25.8469C21.4109 22.8575 20.6907 19.6514 20.6907 16.3177C20.6907 12.9839 21.4111 9.77777 22.8319 6.78842C23.1795 6.0572 22.8685 5.18272 22.1373 4.83499C21.4057 4.48727 20.5316 4.79844 20.1839 5.52966C18.5746 8.91541 17.7588 12.5449 17.7588 16.3175C17.7588 20.09 18.5746 23.7197 20.1839 27.1053C20.435 27.6336 20.9608 27.9426 21.5091 27.9426Z" fill="#F96C05"/>
<path d="M63.7043 27.8005C63.9074 27.897 64.1216 27.9428 64.3325 27.9428C64.8808 27.9428 65.4065 27.6337 65.6575 27.1056C67.2667 23.7197 68.0826 20.0902 68.0826 16.3178C68.0826 12.5454 67.2667 8.91595 65.6575 5.53001C65.31 4.7986 64.4355 4.48762 63.7043 4.83515C62.9731 5.18268 62.6619 6.05716 63.0094 6.78837C64.4302 9.77793 65.1507 12.984 65.1507 16.3176C65.1507 19.6512 64.4302 22.8573 63.0094 25.8468C62.6619 26.5784 62.9731 27.4529 63.7043 27.8005Z" fill="#F96C05"/>
</g>
<defs>
<clipPath id="clip0">
<rect width="100" height="100" fill="white"/>
</clipPath>
</defs>
</svg>
