<svg width="100" height="100" viewBox="0 0 100 100" fill="none" xmlns="http://www.w3.org/2000/svg">
<mask id="mask0" mask-type="alpha" maskUnits="userSpaceOnUse" x="0" y="0" width="100" height="100">
<rect width="100" height="100" fill="#C4C4C4"/>
</mask>
<g mask="url(#mask0)">
<path d="M74.3856 40.8921C74.1738 40.4539 74.083 39.9661 74.1231 39.4812L75.5315 22.4606C75.6898 20.545 74.9805 18.6881 73.5852 17.366C72.1904 16.0439 70.2964 15.4356 68.3937 15.6961C66.929 15.897 65.5115 16.375 64.2268 17.0955C64.1254 16.9564 64.0209 16.8191 63.9093 16.6859C61.2586 13.5235 56.5299 13.1067 53.3679 15.7562L41.9134 25.3426V23.198C41.9134 23.0381 41.961 22.884 42.0513 22.752L44.427 19.2756C44.8828 18.6085 44.7116 17.6983 44.0446 17.2425C43.3772 16.7864 42.4671 16.958 42.0115 17.625L39.6359 21.1014C39.2121 21.7216 38.988 22.4466 38.988 23.198V27.791L29.8722 35.4203V21.643C29.8722 20.0662 30.3424 18.5446 31.2321 17.2427L39.5986 4.99864C40.2855 3.99345 41.3227 3.31591 42.5192 3.09084C43.7157 2.86577 44.9281 3.1199 45.9334 3.807C46.9386 4.4937 47.6162 5.53108 47.8412 6.7276C48.0663 7.92392 47.8122 9.13663 47.1253 10.1416L45.5902 12.3884C45.1344 13.0556 45.3058 13.9656 45.9726 14.4214C46.6393 14.8772 47.5499 14.7058 48.0055 14.0389L49.5406 11.7922C50.6682 10.1418 51.0858 8.15114 50.7162 6.18678C50.3466 4.22242 49.2342 2.5192 47.5838 1.39153C45.9336 0.263856 43.9429 -0.153707 41.9782 0.215878C40.0138 0.585463 38.3108 1.69792 37.1831 3.34828L28.8167 15.5924C27.5934 17.3828 26.9467 19.4751 26.9467 21.6432V37.8689L22.5597 41.5404C19.4066 44.1794 17.7166 48.2021 18.039 52.3011L18.9703 64.1407C19.0306 64.9071 19.671 65.4889 20.427 65.4887C20.4654 65.4887 20.5042 65.4872 20.5432 65.4842C21.3485 65.421 21.9502 64.7166 21.8868 63.9115L20.9555 52.0719C20.7073 48.9147 22.0089 45.8164 24.4374 43.784L55.2462 17.9993C57.1723 16.385 60.053 16.6389 61.6672 18.5651C63.2813 20.4914 63.0276 23.3718 61.1013 24.9861L45.064 38.4259C44.0678 38.6668 43.1141 39.146 42.2875 39.8651L34.4488 46.688C33.8395 47.2185 33.7756 48.1424 34.3058 48.7517C34.8363 49.361 35.76 49.4247 36.3697 48.8946L44.2084 42.0716C45.5717 40.8845 47.5608 40.8732 48.9379 42.0445L60.7935 52.1287C61.7209 52.9176 62.2855 54.0203 62.3834 55.2338C62.4815 56.4474 62.101 57.6264 61.3121 58.5536C60.7354 59.2315 59.9732 59.7191 59.1281 59.9683L50.8334 52.9131C48.3456 50.7968 44.7515 50.8175 42.2877 52.9618L34.449 59.7848C33.8397 60.3153 33.7757 61.2392 34.306 61.8484C34.8365 62.4579 35.7602 62.5217 36.3699 61.9914L44.2086 55.1684C45.5718 53.9815 47.561 53.9698 48.9381 55.1413L60.7937 65.2254C61.7211 66.0143 62.2857 67.117 62.3836 68.3305C62.4817 69.5442 62.1012 70.7232 61.3123 71.6504C60.5236 72.5777 59.4209 73.1423 58.2074 73.2403C56.9921 73.338 55.8145 72.9577 54.8875 72.1689L47.5489 65.9268C46.9681 65.4327 46.1058 65.4677 45.5668 66.0065L43.3889 68.1844C42.8176 68.7559 42.8176 69.6819 43.3889 70.2532C43.9601 70.8242 44.8863 70.8242 45.4574 70.2532L46.6812 69.0293L52.9918 74.3972C54.3573 75.5588 56.055 76.1809 57.8282 76.1809C58.032 76.1809 58.2372 76.1726 58.4426 76.156C60.4348 75.9953 62.2453 75.0681 63.5405 73.5455C64.8357 72.0229 65.4604 70.0872 65.2995 68.0947C65.1388 66.1023 64.2116 64.2918 62.689 62.9966L61.5986 62.0692C62.3274 61.6458 62.9862 61.1001 63.5405 60.4485C66.214 57.3056 65.8321 52.5733 62.689 49.8996L57.4327 45.4287L60.6096 29.2144L62.9806 27.2274C64.5126 25.9437 65.453 24.14 65.6285 22.1488C65.6999 21.3382 65.6389 20.5368 65.4575 19.7672C66.4759 19.1597 67.612 18.7554 68.7914 18.5939C69.8114 18.4535 70.8257 18.7802 71.5735 19.4887C72.321 20.1973 72.7012 21.1921 72.6163 22.2188L71.208 39.2394C71.1247 40.2446 71.3131 41.2564 71.7523 42.1649L74.357 47.5518C77.6388 54.3395 77.7498 62.1771 74.6614 69.0551L72.9867 72.7849C72.6557 73.5219 72.9849 74.3876 73.722 74.7184C73.9166 74.8058 74.12 74.8471 74.3203 74.8471C74.8785 74.8471 75.4119 74.5257 75.6555 73.9831L77.3302 70.2533C80.7737 62.5849 80.6499 53.8463 76.9909 46.2783L74.3856 40.8921ZM54.877 43.2561L50.833 39.8163C50.3242 39.3835 49.7687 39.0416 49.1866 38.7875L57.0423 32.2044L54.877 43.2561Z" fill="#F96C05"/>
<path d="M72.353 77.7657C71.6159 77.4349 70.7504 77.7635 70.4194 78.5009L66.6733 86.8434C66.5886 87.0318 66.5449 87.236 66.5449 87.4426V98.5371C66.5449 99.3452 67.1996 99.9999 68.0077 99.9999C68.8157 99.9999 69.4704 99.3452 69.4704 98.5371V87.756L73.0882 79.6992C73.4192 78.9624 73.0898 78.0966 72.353 77.7657Z" fill="#F96C05"/>
<path d="M63.8602 9.10291C64.6682 9.10291 65.3229 8.44819 65.3229 7.64017V1.46274C65.3229 0.654722 64.6682 0 63.8602 0C63.0522 0 62.3975 0.654722 62.3975 1.46274V7.64017C62.3975 8.448 63.0524 9.10291 63.8602 9.10291Z" fill="#F96C05"/>
<path d="M70.1047 10.558C70.3301 10.6836 70.5741 10.7428 70.8152 10.7428C71.3287 10.7428 71.827 10.4719 72.0946 9.99158L75.1002 4.59466C75.4932 3.88884 75.2397 2.99794 74.534 2.60495C73.8282 2.21196 72.9373 2.4655 72.5443 3.17113L69.5387 8.56805C69.1455 9.27406 69.399 10.1648 70.1047 10.558Z" fill="#F96C05"/>
<path d="M82.592 10.0742C82.1667 9.38752 81.2654 9.17571 80.5783 9.60088L75.3265 12.8534C74.6398 13.2788 74.4278 14.1804 74.8532 14.8671C75.1299 15.3139 75.6083 15.5599 76.0981 15.5599C76.361 15.5599 76.627 15.4891 76.8669 15.3405L82.1187 12.0879C82.8056 11.6628 83.0176 10.7611 82.592 10.0742Z" fill="#F96C05"/>
<path d="M26.6391 80.0784C24.3449 77.1954 22.8801 73.7361 22.4026 70.0748C22.2981 69.274 21.565 68.7107 20.763 68.8133C19.962 68.9179 19.3972 69.652 19.5017 70.453C20.0478 74.642 21.7243 78.6004 24.3498 81.8998L30.3849 89.4844V98.442C30.3849 99.25 31.0398 99.9047 31.8476 99.9047C32.6554 99.9047 33.3104 99.25 33.3104 98.442V88.9734C33.3104 88.6426 33.1982 88.3214 32.9923 88.0626L26.6391 80.0784Z" fill="#F96C05"/>
</g>
</svg>
