<svg width="100" height="100" viewBox="0 0 100 100" fill="none" xmlns="http://www.w3.org/2000/svg">
<mask id="mask0" mask-type="alpha" maskUnits="userSpaceOnUse" x="0" y="0" width="100" height="100">
<rect width="100" height="100" fill="#C4C4C4"/>
</mask>
<g mask="url(#mask0)">
<path d="M86.9645 62.3903C86.2024 62.3287 85.5261 62.8979 85.4633 63.6646C85.2127 66.7268 84.46 69.703 83.2256 72.5106L82.1773 74.8956C81.9844 75.3345 81.8867 75.8 81.8867 76.2791V95.6077C81.8867 96.3767 82.51 97.0001 83.2791 97.0001C84.0483 97.0001 84.6715 96.3767 84.6715 95.6077V76.2789C84.6715 76.188 84.6903 76.0994 84.7268 76.0161L85.7752 73.631C87.1342 70.5395 87.9631 67.2626 88.2388 63.8913C88.3014 63.1251 87.7309 62.4531 86.9645 62.3903Z" fill="#F96C05"/>
<path d="M81.2161 26.7374C79.5146 26.7374 77.9513 27.3378 76.7248 28.3368C76.0463 25.1107 73.1791 22.6811 69.7542 22.6811C68.0469 22.6811 66.4785 23.2852 65.2502 24.2903C64.5513 21.0912 61.6978 18.6881 58.292 18.6881C56.302 18.6881 54.5012 19.5092 53.2074 20.8292C52.9599 20.3968 52.6551 19.9938 52.2942 19.6316L36.8074 4.09453C35.4641 2.74688 33.6764 2.00316 31.7737 2H31.7618C29.8635 2 28.0781 2.73778 26.7334 4.07819C25.3857 5.42138 24.6418 7.20902 24.6387 9.11177C24.6355 11.0145 25.3737 12.8046 26.7169 14.152L31.5546 19.0057C32.0974 19.5504 32.9791 19.5517 33.5236 19.0091C34.0683 18.4662 34.0698 17.5846 33.527 17.04L28.6892 12.1864C27.8711 11.3656 27.4214 10.2754 27.4235 9.11641C27.4255 7.95739 27.8785 6.86872 28.6993 6.05056C29.5184 5.23406 30.6055 4.78478 31.762 4.78478H31.7692C32.928 4.78664 34.0169 5.23963 34.8351 6.0604L50.3218 21.5974C50.8678 22.1453 51.1685 22.873 51.1685 23.6465V37.6834C51.1685 38.4524 51.7918 39.0758 52.5609 39.0758C53.3301 39.0758 53.9533 38.4524 53.9533 37.6834V25.8114C53.9533 23.419 55.8995 21.4727 58.292 21.4727C60.6845 21.4727 62.6307 23.4189 62.6307 25.8114V37.6834C62.6307 38.4524 63.2539 39.0758 64.0231 39.0758C64.7922 39.0758 65.4155 38.4524 65.4155 37.6834V29.8044C65.4155 27.4121 67.3617 25.4657 69.7542 25.4657C72.1467 25.4657 74.0928 27.4119 74.0928 29.8044V37.6834C74.0928 38.4524 74.7161 39.0758 75.4852 39.0758C76.2544 39.0758 76.8776 38.4524 76.8776 37.6834V33.8609C76.8776 31.4685 78.8238 29.5222 81.2161 29.5222C83.6086 29.5222 85.5548 31.4685 85.5548 33.8609V57.8439C85.5548 58.6129 86.1781 59.2363 86.9472 59.2363C87.7164 59.2363 88.3396 58.6129 88.3396 57.8439V33.8609C88.3396 29.933 85.1442 26.7374 81.2161 26.7374Z" fill="#F96C05"/>
<path d="M22.5417 45.2194C21.1758 43.2222 21.5494 40.5504 23.4107 39.0043C25.3218 37.417 28.1357 37.606 29.8178 39.4349L37.4028 47.6838C38.2263 48.5792 39.4908 48.8721 40.6246 48.4304C41.7581 47.9884 42.4907 46.9166 42.4907 45.6999V27.7072C42.4907 26.6277 42.071 25.6118 41.3087 24.8471L37.718 21.2449C37.175 20.7002 36.2933 20.6989 35.7488 21.2417C35.2041 21.7846 35.2028 22.6662 35.7456 23.2109L39.3363 26.8131C39.5747 27.0522 39.706 27.3699 39.706 27.7074V45.7001C39.706 45.7398 39.706 45.7998 39.6131 45.836C39.5201 45.8722 39.4796 45.828 39.4527 45.7988L31.8677 37.5499C29.181 34.6281 24.6848 34.3261 21.6316 36.8621C18.6578 39.332 18.061 43.6005 20.2433 46.7913L35.1883 68.6427C35.458 69.0373 35.8945 69.2493 36.3388 69.2493C36.6095 69.2493 36.8833 69.1706 37.1235 69.0061C37.7583 68.572 37.9209 67.7056 37.4869 67.0708L22.5417 45.2194Z" fill="#F96C05"/>
<path d="M47.1408 73.6198C45.0227 73.1549 43.0533 72.2701 41.2878 70.9904C40.6651 70.5391 39.7946 70.6781 39.3432 71.3006C38.8919 71.9233 39.0308 72.7938 39.6535 73.2452C41.6004 74.6563 43.7586 75.6592 46.0752 76.2306V95.4098C46.0752 96.1788 46.6986 96.8022 47.4676 96.8022C48.2365 96.8022 48.86 96.1788 48.86 95.4098V75.7572C48.86 74.7372 48.137 73.8385 47.1408 73.6198Z" fill="#F96C05"/>
<path d="M20.2548 32.1757C19.711 31.6319 18.8293 31.6319 18.2858 32.1757L17.7238 32.7376V8.51415L18.2858 9.07611C18.8295 9.61989 19.7112 9.61989 20.2548 9.07611C20.7986 8.53234 20.7986 7.65068 20.2548 7.10709L17.7912 4.64349C17.4011 4.25343 16.8828 4.03882 16.3314 4.03882C15.7798 4.03882 15.2613 4.25362 14.8716 4.64349L12.4078 7.10709C11.8641 7.65086 11.8641 8.53234 12.4078 9.07611C12.6796 9.34809 13.0361 9.48399 13.3923 9.48399C13.7486 9.48399 14.1051 9.34809 14.3769 9.07611L14.9388 8.51415V32.7376L14.3769 32.1757C13.8331 31.6317 12.9514 31.6319 12.4078 32.1757C11.8641 32.7195 11.8641 33.6011 12.4078 34.1447L14.8714 36.6081C15.2613 36.9982 15.7798 37.213 16.3314 37.213C16.8828 37.213 17.4013 36.9982 17.7912 36.6083L20.2548 34.1447C20.7986 33.6009 20.7986 32.7193 20.2548 32.1757Z" fill="#F96C05"/>
</g>
</svg>
