<svg width="101" height="100" viewBox="0 0 101 100" fill="none" xmlns="http://www.w3.org/2000/svg">
<path d="M93.9885 78.1641C93.8909 78.457 93.8518 78.7695 93.6956 79.0234C93.4612 79.4141 93.2073 79.8047 92.9143 80.1563C88.5002 85.3906 84.0666 90.6055 79.6526 95.8399C79.2034 96.3672 78.7737 96.8945 78.3245 97.4024C77.6799 98.125 76.8596 98.4961 75.8635 98.418C75.219 98.3594 74.6526 98.1055 74.1448 97.6953C72.5628 96.4258 70.9807 95.1563 69.3987 93.8867C67.7385 92.5586 66.0784 91.2109 64.4182 89.8828C64.301 89.8047 64.1448 89.7461 63.9885 89.7461C61.3127 89.6289 58.7542 89.0039 56.4495 87.6367C55.2385 86.9141 54.1057 86.0742 52.9534 85.2344C51.5471 84.2188 50.1604 83.1445 48.7737 82.1094C48.676 82.0313 48.5784 81.9727 48.5002 81.9141C47.9143 82.3633 47.3479 82.8125 46.7424 83.2227C44.9846 84.3945 43.051 85.1172 40.9612 85.4492C40.6291 85.5078 40.3948 85.6445 40.1799 85.8984C37.0159 89.8438 33.8518 93.7891 30.6877 97.7344C30.0823 98.4961 29.2815 98.9258 28.2854 98.8477C27.6409 98.7891 27.1135 98.5156 26.6252 98.1055C25.0627 96.7773 23.5198 95.4492 21.9573 94.1211C17.2893 90.1172 12.6409 86.1328 7.9729 82.1289C7.42603 81.6602 7.05493 81.0742 6.87915 80.3711C6.87915 80.0977 6.87915 79.8438 6.87915 79.5703C7.05493 78.7109 7.60181 78.0664 8.12915 77.4219C11.3909 73.3789 14.6331 69.3359 17.8948 65.293C18.051 65.1172 18.1096 64.9219 18.1291 64.6875C18.2659 62.7148 18.4416 60.7422 18.5784 58.75C18.676 57.3438 18.8127 55.957 19.1252 54.5703C19.6721 52.2656 20.6096 50.1367 21.9182 48.1641C22.1331 47.832 22.3088 47.4805 22.6213 47.1875C22.8752 46.9531 22.9924 46.5625 23.2268 46.2891C24.1252 45.3516 25.0432 44.3945 26.0002 43.5156C26.2737 43.2813 26.3323 43.0664 26.3518 42.7539C26.5276 40.5078 27.9143 38.8672 30.2385 38.4961C30.6096 38.4375 31.0002 38.4375 31.3713 38.418C30.9026 36.8555 31.176 35.4102 32.1526 34.1016C33.1487 32.7734 34.5745 32.3438 36.176 32.3828C36.1174 32.0508 36.0198 31.7188 36.0198 31.3867C35.9417 29.4727 36.6057 27.9297 38.3245 26.9531C39.9651 26.0156 41.9377 26.1914 43.4026 27.3438C44.3791 28.125 45.3557 28.9063 46.3323 29.6875C47.9534 27.8125 49.926 27.1289 52.2502 28.1445C54.3596 29.082 55.219 30.8594 55.1018 33.125C58.4807 31.875 61.9963 34.7656 61.5471 38.3203C63.2268 37.8125 64.8088 37.9883 66.2151 39.1211C67.6018 40.2539 68.1487 41.7383 68.012 43.4766C68.4807 43.3984 68.969 43.2617 69.4377 43.2617C71.469 43.2031 73.012 44.0625 73.9299 45.8594C74.8674 47.6563 74.6721 49.4336 73.4417 51.0547C72.8362 51.8555 72.1917 52.6172 71.5667 53.3984C71.5081 53.457 71.469 53.5352 71.4104 53.6133C71.9963 54.043 72.5823 54.4531 73.1682 54.8828C74.2229 55.6836 75.0628 56.6406 75.7073 57.793C76.6057 59.375 77.4651 60.957 78.3245 62.5391C78.4221 62.7148 78.4612 62.9297 78.5393 63.125C78.5588 63.1836 78.5588 63.2422 78.5979 63.2617C78.969 63.5156 79.1057 63.9258 79.301 64.2969C79.4573 64.5898 79.6721 64.8438 79.9455 65.0586C84.2229 68.4961 88.5002 71.9336 92.7776 75.3711C93.4026 75.8789 93.8323 76.5039 93.969 77.3242C93.969 77.3438 93.9885 77.3633 94.0081 77.3828C93.9885 77.6758 93.9885 77.9297 93.9885 78.1641ZM23.1487 48.4766C23.1096 48.5352 23.0706 48.5742 23.0315 48.6133C22.5237 49.4922 21.9768 50.3516 21.5276 51.25C20.3752 53.5742 19.9065 56.0742 19.7502 58.6524C19.6135 60.8008 19.4377 62.9688 19.262 65.1172C19.2424 65.3125 19.1838 65.5273 19.0666 65.6836C16.0002 69.5313 12.9143 73.3594 9.82837 77.1875C9.37915 77.7539 8.92993 78.3008 8.48071 78.8672C8.16821 79.2773 7.9729 79.7266 8.09009 80.2539C8.18774 80.6641 8.44165 80.957 8.75415 81.2109C14.2815 85.957 19.8284 90.6836 25.3557 95.4297C26.0393 96.0156 26.7229 96.6016 27.4065 97.1875C28.1877 97.8516 29.0276 97.7734 29.7112 97.0117C29.7502 96.9727 29.7893 96.9336 29.8088 96.8945C32.9534 92.9883 36.0784 89.082 39.2229 85.1563C39.6331 84.6289 40.1604 84.3555 40.8245 84.2383C43.5002 83.8086 45.8635 82.6758 47.8362 80.8008C47.9143 80.7422 47.9534 80.6445 48.012 80.5664C48.1096 80.3906 48.1877 80.1953 48.3245 80.0391C50.7268 77.0508 53.1096 74.082 55.512 71.0938C56.9963 69.2578 58.4807 67.4024 59.9651 65.5664C60.1018 65.3906 60.1213 65.2734 60.0237 65.0781C58.9885 63.0274 58.4417 60.8398 58.3831 58.5352C58.3635 58.0664 58.344 57.5977 58.3245 57.1094C55.5315 56.4648 52.7385 55.8203 49.9651 55.1758C47.6018 54.6289 46.2151 52.4219 46.469 50.1172C46.7034 48.0078 48.6174 46.2695 50.844 46.2305C51.7815 46.2109 52.719 46.1914 53.6565 46.1914C55.4534 46.1914 57.2502 46.1914 59.0471 46.1914C60.4143 46.1914 61.6448 46.582 62.7385 47.3828C65.2385 49.1797 67.7385 50.9766 70.2385 52.7734C70.2971 52.8125 70.3752 52.8711 70.4534 52.9297C71.176 52.0313 71.8792 51.1719 72.5627 50.2734C73.6565 48.8281 73.5198 46.8359 72.2502 45.5469C71.0002 44.2578 69.0667 44.1016 67.5627 45.1563C67.2893 45.3516 67.0159 45.5664 66.7424 45.7813C66.6252 45.6836 66.5081 45.6055 66.4104 45.5078C66.2932 45.4102 66.176 45.3125 66.0784 45.2344C67.4456 43.2813 66.8206 41.25 65.6487 40.2148C64.9846 39.6289 64.2034 39.3164 63.3245 39.2969C62.1331 39.2773 61.1565 39.7461 60.3752 40.6445C60.1213 40.4297 59.887 40.2344 59.6526 40.0391C61.0784 38.0469 60.3362 35.9766 59.2034 35C58.5979 34.4922 57.9143 34.1602 57.1135 34.1016C55.844 34.0234 54.7893 34.4922 53.9495 35.4492C53.6956 35.2344 53.4417 35.0391 53.2073 34.8438C53.3245 34.6484 53.4221 34.4727 53.5198 34.2969C53.8909 33.6523 54.0471 32.9492 53.9885 32.207C53.8323 30.1563 51.762 28.5742 49.7502 28.9649C48.5393 29.1797 47.7385 29.9219 47.0549 30.8789C47.0354 30.918 47.0159 30.957 46.9963 31.0156C46.8987 31.2305 46.8206 31.4648 46.6838 31.6406C45.6877 32.8906 44.7112 34.1406 43.6956 35.3711C43.1877 35.9766 42.7971 36.6797 42.1526 37.1484C42.1331 37.168 42.1331 37.207 42.1135 37.2266C41.9963 37.4023 41.9182 37.5781 41.7815 37.7344C41.2542 38.3984 40.7268 39.0625 40.1995 39.707C39.6721 40.3711 39.1252 41.0156 38.5979 41.6992C38.0901 42.3633 37.5237 42.9688 37.0159 43.6328C35.6877 45.3516 34.301 47.0508 32.9338 48.75C32.6799 49.0625 32.426 49.3555 32.1916 49.6875C31.6057 50.4883 30.9807 51.25 30.3557 52.0313C30.2581 52.168 30.1018 52.2656 29.9651 52.3633C29.8479 52.4414 29.7307 52.5 29.6135 52.5781C29.5354 52.5586 29.4377 52.5195 29.3206 52.4805C29.1252 52.4023 28.9104 52.3828 28.7346 52.2656C27.4456 51.4063 26.1565 50.5273 24.887 49.6484C24.262 49.2188 23.7151 48.8477 23.1487 48.4766ZM49.1448 80.8984C49.301 81.0156 49.4182 81.1133 49.5549 81.2109C51.3713 82.5781 53.2073 83.9258 55.0042 85.293C57.6995 87.3438 60.7073 88.457 64.0862 88.5352C64.5159 88.5547 64.8479 88.6914 65.1799 88.9649C68.4026 91.5625 71.6252 94.1602 74.8479 96.7578C75.7659 97.5 76.7424 97.4024 77.5041 96.5039C82.426 90.6836 87.3674 84.8633 92.2893 79.043C93.051 78.1445 92.9534 77.1094 92.0159 76.3672C87.6604 72.8711 83.3245 69.375 78.9885 65.8789C78.7542 65.6836 78.5784 65.4297 78.4026 65.1953C78.2463 64.9805 78.1487 64.7461 78.012 64.5117C77.9534 64.5899 77.8948 64.6484 77.8557 64.707C75.9221 67.1875 73.9885 69.6875 72.0549 72.1484C71.4495 72.9102 70.9612 73.7695 70.1018 74.2773C69.9651 74.2383 69.7893 74.1797 69.6331 74.1211C69.4768 74.0625 69.3206 74.0234 69.1838 73.9258C67.9338 73.0664 66.7034 72.2266 65.4729 71.3477C63.637 70.0391 62.0354 68.4766 60.8049 66.5625C60.7854 66.543 60.7659 66.5234 60.7268 66.4844C56.8792 71.2891 53.012 76.0938 49.1448 80.8984ZM69.887 72.9688C69.9651 72.8711 70.0237 72.832 70.0823 72.7734C72.4651 69.707 74.8479 66.6406 77.2502 63.5742C77.3674 63.418 77.387 63.3008 77.2893 63.125C76.4299 61.582 75.5901 60.0391 74.7307 58.4961C74.1253 57.4023 73.3049 56.4844 72.2893 55.7617C68.8518 53.2813 65.4143 50.8008 61.9573 48.3398C61.1565 47.7734 60.2581 47.4414 59.262 47.4414C56.469 47.4414 53.676 47.4414 50.9026 47.4609C50.0823 47.4609 49.3596 47.7539 48.7542 48.3008C47.7581 49.1992 47.4065 50.332 47.7385 51.6406C48.0901 52.9688 48.969 53.7891 50.2971 54.1016C52.8167 54.6875 55.3167 55.2734 57.8362 55.8594C58.3831 55.9766 58.9299 56.1133 59.4768 56.2305C59.4768 56.3672 59.4963 56.4648 59.4963 56.582C59.5354 57.6172 59.5354 58.6524 59.6526 59.6875C59.9651 62.8125 61.2151 65.5469 63.3245 67.8711C64.0667 68.6914 64.887 69.4336 65.7659 70.0781C67.1135 71.0352 68.5002 71.9727 69.887 72.9688ZM45.7659 30.8008C45.7073 30.7422 45.6487 30.7031 45.6096 30.6641C44.6135 29.8633 43.6174 29.043 42.6018 28.2422C41.8596 27.6563 41.0002 27.4609 40.0627 27.6172C38.676 27.8711 37.7581 28.6523 37.3674 30.0195C36.9963 31.3672 37.3088 32.5195 38.3831 33.4375C39.2815 34.1992 40.219 34.9414 41.137 35.6836C41.2737 35.8008 41.4104 35.8984 41.5667 36.0352C42.9534 34.2969 44.3596 32.5586 45.7659 30.8008ZM40.7854 36.9727C40.5315 36.7578 40.2971 36.582 40.0627 36.3867C39.1252 35.6055 38.1877 34.8242 37.2307 34.043C37.0745 33.9258 36.8987 33.7891 36.7229 33.75C34.594 33.1055 32.4651 34.6289 32.3479 36.875C32.2893 37.9688 32.7581 38.8477 33.5588 39.5508C34.4573 40.3125 35.3948 41.0352 36.2932 41.7773C36.4104 41.875 36.5276 41.9727 36.6643 42.0703C38.0706 40.3516 39.4182 38.6719 40.7854 36.9727ZM31.9573 47.9688C33.2854 46.3086 34.6135 44.6484 35.9417 42.9883C35.3557 42.5195 34.7893 42.0508 34.2229 41.6016C33.637 41.1133 33.0706 40.625 32.4846 40.1563C32.3284 40.0391 32.1721 39.8828 31.9963 39.8242C29.7307 39.0039 27.2307 41.0156 27.5627 43.3984C27.5823 43.4766 27.6018 43.5547 27.6409 43.6328C27.7385 43.8281 27.8557 44.0234 27.9729 44.2188C28.1292 44.4922 28.2659 44.8047 28.4612 45.0391C28.7151 45.332 29.0276 45.5859 29.3206 45.8203C30.1799 46.543 31.0588 47.2461 31.9573 47.9688ZM23.7932 47.4805C25.6682 48.75 27.5041 50 29.3596 51.25C29.9846 50.4688 30.5901 49.6875 31.2151 48.9258C31.1565 48.8867 31.1174 48.8477 31.0979 48.8086C30.1409 48.0273 29.1643 47.2461 28.2073 46.4648C27.6213 45.9961 27.1721 45.4102 26.8791 44.707C26.8401 44.6094 26.801 44.5313 26.7424 44.4336C25.7268 45.4297 24.6526 46.3477 23.7932 47.4805Z" fill="white"/>
<path d="M50.7268 1.25C51.1174 1.30859 51.5276 1.34766 51.9182 1.44531C52.5822 1.60156 53.2463 1.73828 53.8908 1.95312C55.0236 2.32422 55.4729 3.4375 54.9651 4.51172C53.8322 6.85547 52.6994 9.19922 51.5666 11.543C51.2346 12.2461 50.7072 12.7148 49.8869 12.7148C49.1057 12.7148 48.5588 12.3242 48.2072 11.6406C47.2893 9.74609 46.3908 7.85156 45.4729 5.97656C45.2385 5.50781 45.0236 5.03906 44.8088 4.57031C44.2424 3.37891 44.6916 2.32422 45.9416 1.91406C46.8791 1.60156 47.8361 1.38672 48.8127 1.30859C48.8518 1.30859 48.8908 1.28906 48.9494 1.26953C49.5354 1.25 50.1408 1.25 50.7268 1.25ZM49.8674 11.543C50.1799 11.543 50.3361 11.3477 50.4729 11.0742C51.3713 9.21875 52.2697 7.34375 53.1682 5.48828C53.4026 5 53.6369 4.51172 53.8713 4.00391C54.0861 3.53516 53.9494 3.20312 53.4611 3.02734C53.3635 2.98828 53.2658 2.96875 53.1682 2.92969C50.8635 2.22656 48.5783 2.22656 46.2932 3.00781C45.7658 3.18359 45.6291 3.47656 45.8635 4.00391C45.883 4.0625 45.9221 4.12109 45.9416 4.17969C46.5471 5.46875 47.1721 6.75781 47.7776 8.04688C48.2658 9.0625 48.7541 10.0781 49.2424 11.0938C49.3987 11.3672 49.5744 11.5234 49.8674 11.543Z" fill="white"/>
<path d="M32.4261 17.8516C32.4065 19.2187 31.1175 20.0781 29.8675 19.5117C27.4456 18.418 25.0433 17.3242 22.6409 16.2109C21.5081 15.6836 21.1565 14.5898 21.8011 13.5156C23.2659 11.0937 25.2972 9.37499 27.9534 8.3789C29.1253 7.94921 30.1214 8.49608 30.4339 9.70702C31.0589 12.207 31.7034 14.7266 32.3284 17.2461C32.387 17.4609 32.387 17.6562 32.4261 17.8516ZM31.2347 17.793C31.2151 17.7344 31.1956 17.5976 31.1761 17.4805C30.6878 15.5664 30.219 13.6523 29.7308 11.7383C29.5745 11.1328 29.4378 10.5469 29.262 9.94139C29.1448 9.51171 28.8518 9.35546 28.4417 9.49218C28.3636 9.51171 28.2854 9.55077 28.2073 9.5703C25.9417 10.4687 24.1839 11.9726 22.8753 14.0234C22.5237 14.5703 22.6214 14.8828 23.2073 15.1562C23.8518 15.4492 24.4768 15.7422 25.1214 16.0351C26.8597 16.8359 28.5979 17.6172 30.3362 18.3984C30.805 18.6328 31.2347 18.3594 31.2347 17.793Z" fill="white"/>
<path d="M71.098 8.22266C71.43 8.32031 71.7815 8.39844 72.094 8.53516C74.5745 9.55078 76.5081 11.2109 77.9144 13.4961C78.598 14.6094 78.2464 15.7227 77.055 16.25C74.6917 17.3242 72.3284 18.3984 69.9651 19.4727C68.8909 19.9609 67.6995 19.4531 67.4065 18.3789C67.3284 18.0664 67.3089 17.7148 67.387 17.4219C68.012 14.8633 68.6565 12.3242 69.3011 9.76563C69.5354 8.82813 70.219 8.26172 71.098 8.22266ZM77.0745 14.5117C77.0355 14.4336 76.9964 14.2969 76.9378 14.1602C75.6097 11.9922 73.7737 10.4492 71.4105 9.53125C70.9222 9.33594 70.5901 9.51172 70.4729 10.0391C69.8479 12.5586 69.2034 15.0977 68.5784 17.6172C68.5589 17.7148 68.5394 17.8125 68.5394 17.9102C68.5394 18.2812 68.969 18.6523 69.5159 18.3984C71.3714 17.5391 73.2269 16.6992 75.0823 15.8594C75.6097 15.625 76.137 15.3906 76.6644 15.1367C76.8792 15.0195 77.0745 14.8828 77.0745 14.5117Z" fill="white"/>
</svg>
