<svg width="70" height="70" viewBox="0 0 70 70" fill="none" xmlns="http://www.w3.org/2000/svg">
<path d="M37.5394 0C23.1158 0 11.3814 11.7343 11.3814 26.1578V28.8924L6.50465 41.084C6.15697 41.953 6.26279 42.9345 6.78738 43.7095C7.31197 44.4846 8.18424 44.9472 9.12021 44.9472H12.3089C12.61 44.9472 12.8551 45.1921 12.8551 45.4934V53.0872C12.8551 55.0997 14.4922 56.7368 16.5047 56.7368H22.7955C23.0024 56.7368 23.1708 56.9052 23.1708 57.1121V67.414C23.1708 68.8398 24.3309 69.9999 25.7567 69.9999H61.1112C62.5371 69.9999 63.6971 68.8398 63.6971 67.414V26.1577C63.6972 11.7343 51.9629 0 37.5394 0ZM61.4868 67.4141C61.4868 67.6209 61.3183 67.7894 61.1115 67.7894H25.7568C25.55 67.7894 25.3815 67.6209 25.3815 67.4141V57.1122C25.3815 55.6864 24.2215 54.5263 22.7956 54.5263H16.5048C15.7114 54.5263 15.0657 53.8807 15.0657 53.0872V45.4934C15.0657 43.9735 13.8291 42.7368 12.309 42.7368H9.12035C8.82982 42.7368 8.67232 42.5503 8.61818 42.4702C8.5639 42.3902 8.44947 42.1747 8.5572 41.905L13.5128 29.5155C13.5651 29.385 13.592 29.2455 13.592 29.105V26.1576C13.592 12.9529 24.3347 2.2102 37.5394 2.2102C50.7441 2.2102 61.4868 12.9529 61.4868 26.1576V67.4141Z" fill="#F96C05"/>
<path d="M39.0143 5.89478H36.0669C25.6898 5.89478 17.2773 14.3072 17.2773 24.6843V30.4313C17.2773 31.9372 18.4981 33.158 20.0041 33.158H21.6984V36.9967C19.879 37.5133 18.5763 39.2707 18.7702 41.2929C18.9578 43.2488 20.5643 44.8062 22.5249 44.9381C24.8852 45.097 26.8564 43.2219 26.8564 40.8949C26.8564 39.0435 25.6079 37.4793 23.909 36.9967V33.158H36.4353V48.7862C34.6159 49.3028 33.3132 51.0602 33.5071 53.0823C33.6947 55.0382 35.3011 56.5957 37.2617 56.7276C39.622 56.8865 41.5932 55.0114 41.5932 52.6844C41.5932 50.833 40.3447 49.2688 38.6458 48.7863V33.1579H40.6459C41.2563 33.1579 41.7511 32.6629 41.7511 32.0526C41.7511 31.4422 41.2562 30.9474 40.6459 30.9474H20.0041C19.7189 30.9474 19.4878 30.7163 19.4878 30.4311V27.2631H25.6648C27.87 27.2631 29.7364 25.5374 29.8019 23.3331C29.8698 21.0428 28.0263 19.1579 25.751 19.1579H24.3237C23.7184 19.1579 23.1907 19.6241 23.1727 20.2291C23.1538 20.855 23.6557 21.3683 24.2775 21.3683H25.6972C26.6558 21.3683 27.495 22.0783 27.5848 23.0329C27.6881 24.1281 26.8255 25.0526 25.7512 25.0526H19.4881V24.6842C19.4881 15.5278 26.9107 8.10524 36.067 8.10524H37.9092V17.2558C37.9092 18.2581 37.1342 19.1218 36.1328 19.1569C35.0981 19.193 34.2429 18.3708 34.2253 17.3483C34.2154 16.7761 33.802 16.2728 33.2326 16.2164C32.5715 16.1507 32.0144 16.6683 32.0144 17.316C32.0144 19.5914 33.8993 21.4348 36.1896 21.3668C38.3938 21.3013 40.1196 19.435 40.1196 17.2297V15.0291C40.6727 15.3126 41.2986 15.4738 41.9618 15.4738C44.1705 15.4738 45.9723 13.6976 46.0137 11.4986C46.0248 10.9108 45.6086 10.3807 45.0239 10.3217C44.362 10.2551 43.8039 10.7729 43.8039 11.4212C43.8039 12.4956 42.8794 13.3581 41.7842 13.2549C40.8296 13.1649 40.1196 12.3259 40.1196 11.3672V8.14298C46.8422 8.58772 52.4816 13.0569 54.645 19.1579H49.4164C47.2111 19.1579 45.3447 20.8835 45.2793 23.0878C45.2113 25.3782 47.0547 27.2631 49.3301 27.2631H50.7574C51.3627 27.2631 51.8904 26.7969 51.9085 26.1919C51.9273 25.566 51.4254 25.0526 50.8037 25.0526H49.384C48.4253 25.0526 47.5861 24.3426 47.4963 23.3881C47.3931 22.2928 48.2556 21.3683 49.33 21.3683H55.2247C55.2365 21.3683 55.2478 21.3668 55.2595 21.3666C55.4782 22.4388 55.593 23.5482 55.593 24.6842V30.4311C55.593 30.7163 55.362 30.9474 55.0768 30.9474H46.0296C45.4191 30.9474 44.9243 31.4423 44.9243 32.0526C44.9243 32.6631 45.4193 33.1579 46.0296 33.1579H51.172V36.9965C49.3525 37.5132 48.0499 39.2706 48.2437 41.2928C48.4313 43.2487 50.0379 44.806 51.9984 44.938C54.3587 45.0968 56.3298 43.2217 56.3298 40.8948C56.3298 39.0433 55.0813 37.4791 53.3824 36.9965V33.1579H55.0768C56.5828 33.1579 57.8035 31.9371 57.8035 30.4311V24.6842C57.8037 14.3071 49.3913 5.89478 39.0143 5.89478ZM39.3826 52.6842C39.3826 53.7 38.5562 54.5263 37.5404 54.5263C36.5246 54.5263 35.6983 53.7 35.6983 52.6842C35.6983 51.6683 36.5246 50.842 37.5404 50.842C38.5561 50.8422 39.3826 51.6683 39.3826 52.6842ZM24.6458 40.8948C24.6458 41.9106 23.8195 42.7369 22.8037 42.7369C21.7878 42.7369 20.9615 41.9106 20.9615 40.8948C20.9615 39.879 21.7878 39.0526 22.8037 39.0526C23.8195 39.0526 24.6458 39.879 24.6458 40.8948ZM54.1195 40.8948C54.1195 41.9106 53.2932 42.7369 52.2773 42.7369C51.2615 42.7369 50.4352 41.9106 50.4352 40.8948C50.4352 39.879 51.2615 39.0526 52.2773 39.0526C53.2932 39.0526 54.1195 39.879 54.1195 40.8948Z" fill="#F96C05"/>
</svg>
