<svg width="22" height="40" viewBox="0 0 22 40" fill="none" xmlns="http://www.w3.org/2000/svg">
<path d="M21.5914 10.4736C21.5902 10.4601 21.5884 10.4474 21.5861 10.4339C21.577 10.3714 21.5567 10.3111 21.5262 10.2559L21.5261 10.2556L21.5248 10.2541C21.4932 10.2026 21.4528 10.1569 21.4056 10.119C21.3922 10.1076 21.3782 10.0968 21.3637 10.0868C21.3534 10.0799 21.3453 10.0706 21.3344 10.0643L4.0118 0.0622112C3.99163 0.0538502 3.97085 0.0468175 3.94975 0.0412694C3.91701 0.0262664 3.88278 0.0147015 3.8477 0.00688739C3.7819 -0.00225511 3.71517 -0.00225511 3.64938 0.00688739C3.61398 0.0147796 3.57952 0.0264227 3.54662 0.041582C3.52584 0.04713 3.50536 0.0540064 3.48544 0.0622112L0.856929 1.57979C0.803558 1.61198 0.756439 1.65355 0.717838 1.70247C0.707836 1.7145 0.698771 1.72615 0.689941 1.73896C0.655012 1.78741 0.628601 1.8414 0.611957 1.89876L0.611254 1.90384C0.599845 1.94689 0.593984 1.99128 0.59375 2.03582V29.4731C0.593672 29.6612 0.694083 29.835 0.856929 29.9291L18.1785 39.9296L18.1805 39.9304C18.2098 39.9459 18.2406 39.9585 18.2722 39.9682C18.2842 39.9724 18.2953 39.9792 18.3074 39.9825C18.3372 39.9891 18.3675 39.993 18.3979 39.9943C18.4126 39.9956 18.427 40 18.4417 40H18.4419H18.4422C18.5344 40.0001 18.625 39.9758 18.7049 39.9296L21.3334 38.412C21.3493 38.3996 21.3645 38.3862 21.3788 38.372C21.4107 38.3498 21.4399 38.324 21.4659 38.2952C21.5065 38.2425 21.5395 38.1843 21.5641 38.1225C21.5736 38.0913 21.5801 38.0592 21.5834 38.0268C21.5899 38.0036 21.5947 37.98 21.5977 37.9561V10.5203C21.5976 10.5044 21.5928 10.4894 21.5914 10.4736ZM17.9152 38.5616L1.64639 29.1693V2.9478L17.9151 12.3407V38.5616H17.9152ZM18.4416 11.4288L2.17298 2.03582L3.74846 1.12618L20.0166 10.5191L18.4416 11.4288ZM20.5447 37.6514L18.968 38.5617V12.3408L20.5447 11.4302V37.6514Z" fill="#071529"/>
<path d="M7.03998 11.2658C7.20236 11.3608 7.40311 11.362 7.56658 11.2688L8.0169 11.0124V13.4177C8.0198 13.4389 8.02402 13.4599 8.02956 13.4805C8.03292 13.5169 8.04019 13.553 8.05121 13.5878C8.07614 13.6492 8.10942 13.7068 8.15014 13.7591C8.17459 13.7857 8.20179 13.8097 8.23132 13.8307C8.24664 13.8461 8.26289 13.8604 8.28008 13.8737L10.7549 15.3024C10.7673 15.3096 10.7809 15.3123 10.7937 15.3184C10.808 15.3253 10.8222 15.3307 10.8372 15.3363C10.8947 15.359 10.9558 15.3714 11.0176 15.3728H11.0179H11.0181L11.0191 15.3725C11.0807 15.3711 11.1416 15.3589 11.1989 15.3363C11.2137 15.3309 11.2276 15.3257 11.2416 15.3189C11.2959 15.2946 11.3457 15.261 11.3887 15.2199C11.3916 15.217 11.3933 15.2132 11.3961 15.2103C11.4261 15.18 11.4523 15.1462 11.4742 15.1096C11.4797 15.1001 11.4794 15.0894 11.4843 15.0796C11.5108 15.0146 11.529 14.9465 11.5384 14.877C11.539 14.8663 11.5446 14.8572 11.5446 14.8463V13.493L11.7996 13.9328C11.894 14.0956 12.068 14.1955 12.2561 14.1951C12.4443 14.1947 12.6179 14.094 12.7116 13.9308C12.8053 13.7678 12.8049 13.567 12.7105 13.4043L10.2363 9.13736C10.0908 8.88763 9.77149 8.80144 9.52018 8.94404L7.04522 10.3537C6.88175 10.4469 6.7804 10.6201 6.7793 10.8082C6.77829 10.9963 6.87761 11.1707 7.03998 11.2658ZM9.0697 10.4126L9.58739 10.1178L10.4916 11.6773V13.9346L9.0697 13.1137V10.4126Z" fill="#071529"/>
<path d="M3.33152 15.2741L9.10575 18.6074C9.35759 18.7526 9.67938 18.6662 9.82472 18.4145C9.97006 18.1627 9.88387 17.8408 9.63218 17.6954L3.85796 14.3621C3.60611 14.2169 3.28432 14.3032 3.13898 14.555C2.99364 14.8067 3.07983 15.1286 3.33152 15.2741Z" fill="#071529"/>
<path d="M3.33152 17.1659L7.45604 19.5472C7.70789 19.6923 8.02968 19.606 8.17502 19.3542C8.32036 19.1025 8.23417 18.7806 7.98248 18.6352L3.85796 16.2539C3.60611 16.1087 3.28432 16.1951 3.13898 16.4468C2.99364 16.6985 3.07983 17.0205 3.33152 17.1659Z" fill="#071529"/>
<path d="M3.33152 22.8429L7.45604 25.2236C7.61896 25.3178 7.81971 25.3179 7.98271 25.2238C8.14571 25.1297 8.24604 24.9558 8.24597 24.7677C8.24589 24.5795 8.14547 24.4056 7.98247 24.3116L3.85796 21.9309C3.60611 21.7857 3.28432 21.8721 3.13898 22.1238C2.99364 22.3756 3.07983 22.6975 3.33152 22.8429Z" fill="#071529"/>
<path d="M12.2986 19.7887C12.1526 19.5372 11.8304 19.4516 11.5788 19.5975C11.3273 19.7435 11.2416 20.0657 11.3876 20.3173L12.6251 22.4508C12.7077 22.5932 12.8523 22.6887 13.0158 22.7089C13.0373 22.7115 13.0589 22.7129 13.0805 22.713C13.2227 22.7129 13.3587 22.6555 13.4579 22.5537L15.5199 20.4331C15.7208 20.2244 15.7154 19.8926 15.5077 19.6906C15.3001 19.4886 14.9682 19.4923 14.7652 19.699L13.1874 21.3214L12.2986 19.7887Z" fill="#071529"/>
<path d="M3.33087 20.9506L9.1051 24.2839C9.35695 24.4291 9.67873 24.3427 9.82408 24.091C9.96942 23.8392 9.88323 23.5173 9.63154 23.3719L3.85731 20.0386C3.69439 19.9444 3.49364 19.9443 3.33064 20.0384C3.16764 20.1325 3.0673 20.3064 3.06738 20.4945C3.06738 20.6828 3.16779 20.8566 3.33087 20.9506Z" fill="#071529"/>
<path d="M14.7652 25.3753L13.1874 26.9983L12.2986 25.4653C12.1526 25.2138 11.8304 25.1282 11.5788 25.2741C11.3273 25.4201 11.2416 25.7423 11.3876 25.9939L12.6251 28.1278C12.7077 28.2703 12.8523 28.3658 13.0158 28.3859C13.0373 28.3886 13.0589 28.3899 13.0805 28.3901C13.2227 28.39 13.3587 28.3326 13.4579 28.2307L15.5199 26.1096C15.7208 25.9009 15.7154 25.5691 15.5077 25.3671C15.3 25.1651 14.9682 25.1687 14.7652 25.3753Z" fill="#071529"/>
<path d="M9.63218 29.0484L3.85796 25.7151C3.60611 25.5699 3.28432 25.6563 3.13898 25.908C2.99364 26.1598 3.07983 26.4817 3.33152 26.6271L9.10575 29.9604C9.35759 30.1056 9.67938 30.0193 9.82472 29.7675C9.97006 29.5157 9.88387 29.1939 9.63218 29.0484Z" fill="#071529"/>
<path d="M3.33087 28.5195L7.45539 30.9002C7.61832 30.9943 7.81906 30.9944 7.98206 30.9003C8.14506 30.8063 8.2454 30.6324 8.24532 30.4442C8.24524 30.2561 8.14483 30.0822 7.98183 29.9882L3.85731 27.6075C3.69439 27.5133 3.49364 27.5132 3.33064 27.6073C3.16764 27.7014 3.0673 27.8753 3.06738 28.0634C3.06738 28.2517 3.16787 28.4255 3.33087 28.5195Z" fill="#071529"/>
<path d="M14.7652 31.0519L13.1874 32.6749L12.2986 31.1424C12.1526 30.8908 11.8304 30.8052 11.5788 30.9511C11.3273 31.0971 11.2416 31.4193 11.3876 31.6709L12.6251 33.8043C12.7078 33.9469 12.8526 34.0424 13.0163 34.0624C13.0376 34.0651 13.0591 34.0665 13.0805 34.0666C13.2227 34.0665 13.3587 34.009 13.4579 33.9072L15.5199 31.7861C15.7204 31.5774 15.7148 31.2459 15.5073 31.0441C15.2998 30.8421 14.9683 30.8457 14.7652 31.0519Z" fill="#071529"/>
</svg>
