<svg width="24" height="24" viewBox="0 0 24 24" fill="none" xmlns="http://www.w3.org/2000/svg">
<path d="M6.22542 4.8112C5.83489 4.42068 5.20173 4.42068 4.8112 4.8112C4.42068 5.20173 4.42068 5.83489 4.8112 6.22542L10.5859 12.0001L4.81126 17.7748C4.42074 18.1653 4.42074 18.7985 4.81126 19.189C5.20179 19.5795 5.83495 19.5795 6.22547 19.189L12.0001 13.4143L17.7748 19.189C18.1653 19.5795 18.7985 19.5795 19.189 19.189C19.5795 18.7985 19.5795 18.1653 19.189 17.7748L13.4143 12.0001L19.1891 6.22542C19.5796 5.83489 19.5796 5.20173 19.1891 4.8112C18.7986 4.42068 18.1654 4.42068 17.7749 4.8112L12.0001 10.5859L6.22542 4.8112Z" fill="black"/>
</svg>
