<svg width="101" height="100" viewBox="0 0 101 100" fill="none" xmlns="http://www.w3.org/2000/svg">
<path d="M59.2816 0.976562C59.8284 1.03516 60.3753 1.05469 60.9026 1.17187C65.4534 2.08984 68.4417 4.76562 69.8675 9.19922C70.18 10.1953 70.2972 11.25 70.2972 12.2852C70.2972 19.1602 70.2972 26.0547 70.2972 32.9297C70.2972 38.2227 66.43 42.9102 61.2347 43.9062C60.512 44.043 59.7503 44.1211 59.0081 44.1211C52.3284 44.1406 45.6292 44.1406 38.9495 44.1211C38.7152 44.1211 38.6175 44.1992 38.5198 44.3945C37.7581 46.1133 36.9769 47.832 36.2152 49.5703C35.5706 51.0352 33.9886 51.1133 33.1683 50.5273C32.8167 50.2734 32.5628 49.9219 32.387 49.5313C31.6253 47.8125 30.8441 46.0742 30.0823 44.3555C30.0042 44.1797 29.9261 44.1211 29.7308 44.1211C28.6761 44.1406 27.6409 44.1406 26.5862 44.1406C25.2386 44.1406 23.9105 44.043 22.6019 43.6523C19.1058 42.6172 15.473 39.2578 14.8284 34.707C14.7308 34.082 14.6722 33.457 14.6722 32.8125C14.6526 25.9375 14.6722 19.082 14.6527 12.207C14.6331 6.26953 19.1253 2.20703 23.2073 1.26953C23.7542 1.15234 24.3401 1.09375 24.887 0.996093C24.9651 0.976562 25.0433 0.976562 25.1214 0.957031C36.5276 0.976562 47.9144 0.976562 59.2816 0.976562ZM69.1253 22.5391C69.1253 19.1211 69.1448 15.7031 69.1253 12.2656C69.1253 11.6211 69.0667 10.957 68.93 10.3125C67.9925 5.56641 63.8323 2.16797 58.9886 2.14844C50.9612 2.14844 42.9339 2.12891 34.9066 2.12891C31.8792 2.12891 28.8519 2.10938 25.805 2.12891C25.1605 2.12891 24.5159 2.20703 23.8909 2.32422C19.9847 3.04688 15.8441 6.83594 15.8441 12.1875C15.8636 19.0625 15.8441 25.9375 15.8636 32.8125C15.8636 33.5352 15.9417 34.2578 16.0784 34.9414C16.4886 37.0117 17.5237 38.75 19.0667 40.1758C20.3167 41.3477 21.7425 42.168 23.4026 42.5977C24.4378 42.8711 25.4925 42.9102 26.5472 42.9102C27.8362 42.9102 29.1253 42.9102 30.4144 42.8906C30.6683 42.8906 30.805 42.9688 30.9222 43.2227C31.7425 45.0781 32.5628 46.9141 33.3831 48.7695C33.4612 48.9648 33.5589 49.1602 33.6761 49.3164C33.8714 49.6094 34.223 49.707 34.5745 49.6094C34.887 49.5312 35.0433 49.2969 35.1605 49.0234C36.0003 47.1289 36.8597 45.2344 37.68 43.3398C37.8167 43.0078 37.9925 42.8906 38.3441 42.8906C45.2581 42.8906 52.1722 42.8906 59.0862 42.8906C59.6526 42.8906 60.2191 42.832 60.7855 42.7539C65.5511 41.9531 69.1253 37.6953 69.1253 32.8711C69.1253 29.4531 69.1253 25.9961 69.1253 22.5391Z" fill="white"/>
<path d="M97.2112 58.75C96.9377 56.875 95.9612 55.4883 94.2034 54.7657C92.4456 54.043 90.7854 54.336 89.301 55.5078C88.8323 55.8789 88.3831 56.2696 87.9338 56.6407C87.8948 56.6797 87.8362 56.6992 87.7971 56.7383C87.7385 56.3086 87.719 55.8789 87.6409 55.4688C87.0354 52.4024 83.6956 50.6836 80.8635 51.9727C80.1409 52.3047 79.5549 52.8125 78.9495 53.3203C78.5198 53.6719 78.1096 54.0235 77.6799 54.3946C77.6213 54.0039 77.6213 53.6133 77.5432 53.2422C76.7424 49.6485 72.4651 48.1836 69.6331 50.5469C68.7737 51.2696 67.9338 51.9922 67.0745 52.7149C64.1252 55.2149 61.1565 57.7344 58.1877 60.2344C58.1292 60.2735 58.0315 60.3125 57.9729 60.293C57.1331 59.961 56.2346 59.8633 55.3362 59.8633C51.4495 59.8633 47.5627 59.8828 43.676 59.8828C40.9417 59.8828 38.1877 59.8828 35.4534 59.8828C34.0471 59.8828 32.6604 60.0196 31.2932 60.2735C26.7815 61.1133 22.8557 63.125 19.5159 66.2696C19.4963 66.2891 19.4573 66.3086 19.4377 66.3477C19.4182 66.3672 18.5784 67.0313 17.5627 68.3594C17.5432 68.3789 17.5237 68.3985 17.5041 68.4375C16.0588 70.1758 14.926 72.1094 14.0276 74.1797C13.9104 74.4336 13.7737 74.6875 13.5979 74.9024C10.7463 78.5157 7.89478 82.1094 5.04321 85.7227C4.45728 86.4649 3.77368 87.1289 3.5979 88.125V88.8672C3.75415 89.2188 3.85181 89.6094 4.06665 89.9414C4.41821 90.4883 4.96509 90.8203 5.57056 91.0157C12.1721 93.125 18.7737 95.2539 25.3752 97.3633C27.0159 97.8907 28.6565 98.418 30.2971 98.9453C30.5706 99.043 30.8831 99.0821 31.1565 99.1407H31.5862C32.4065 99.0235 33.0315 98.5938 33.5588 97.9688C36.3909 94.5508 39.2424 91.1524 42.094 87.7539C42.1526 87.6953 42.2502 87.6367 42.3479 87.6172C44.5159 87.3438 46.7034 87.0899 48.8713 86.8164C51.3909 86.5235 53.9104 86.211 56.4299 85.918C59.5745 85.5274 62.7385 85.1563 65.8831 84.7657C68.8518 84.3946 71.5276 83.2813 73.8323 81.3867C76.5081 79.1797 79.1448 76.8946 81.801 74.6485C86.3713 70.7813 90.9416 66.8946 95.512 63.0274C96.2932 62.3633 96.8401 61.543 97.094 60.5274C97.1721 60.2149 97.2112 59.8828 97.2893 59.5703V58.9649C97.2307 58.8867 97.2112 58.8282 97.2112 58.75ZM77.3284 56.2696C78.344 55.4102 79.3596 54.5508 80.3557 53.6914C81.0588 53.1055 81.8401 52.7344 82.7581 52.7344C84.6331 52.7344 86.1956 54.0625 86.4885 55.918C86.6253 56.7383 86.5081 57.5 86.1174 58.2227C86.0002 58.4375 85.844 58.6524 85.6682 58.8086C82.3674 61.6211 79.0667 64.4141 75.7659 67.2266C75.0042 67.8711 74.1252 68.1446 73.1487 68.125C70.1604 68.125 67.1721 68.125 64.1838 68.125C64.1057 68.125 64.0471 68.125 63.9104 68.1055C64.3987 67.6953 64.8284 67.3242 65.2581 66.9531C68.7542 63.9844 72.2698 61.0157 75.7659 58.0469C76.2737 57.6172 76.7424 57.1289 77.0549 56.5235C77.1526 56.4258 77.2502 56.3477 77.3284 56.2696ZM60.4729 59.8633C63.7346 57.0899 67.0159 54.3164 70.2776 51.543C71.762 50.2735 73.7932 50.2735 75.2385 51.5235C76.8792 52.9688 76.8596 55.586 75.1995 56.9922C72.3479 59.4141 69.4963 61.8164 66.6448 64.2383C65.3166 65.3516 63.9885 66.4844 62.6799 67.6172C62.3284 67.9102 61.9768 68.1055 61.5081 68.086C61.3713 68.0664 61.2346 68.086 61.0784 68.086C62.0159 65.293 61.3909 62.9297 59.0471 61.0742C59.5159 60.6836 60.0042 60.2735 60.4729 59.8633ZM21.1956 66.3477C24.3206 63.6914 27.9143 62.0117 31.9768 61.3867C33.1292 61.211 34.301 61.1133 35.4534 61.0938C38.1877 61.0547 40.9026 61.0742 43.637 61.0742C47.6409 61.0742 51.6448 61.0742 55.6292 61.0742C56.3713 61.0742 57.0745 61.211 57.7385 61.5235C57.8557 61.5821 57.9338 61.6797 58.0315 61.7774C58.1682 61.8946 58.2854 62.0313 58.4221 62.1485C58.9885 62.5977 59.4573 63.086 59.7502 63.6524C59.7502 63.6524 59.7698 63.6719 59.7893 63.7305C59.8088 63.75 59.8088 63.7891 59.8284 63.8086C59.8479 63.8477 59.8674 63.9063 59.9065 63.9649C59.9456 64.0235 59.9651 64.1016 59.9846 64.1602C60.0042 64.1992 60.0237 64.2578 60.0432 64.2969V64.3164C60.3752 65.1953 60.7268 66.8164 59.7893 68.3789C59.7307 68.4961 59.6526 68.5938 59.5745 68.6914C58.676 69.8438 57.5042 70.4688 56.0588 70.586C55.7854 70.6055 55.4924 70.6055 55.219 70.6055C46.8401 70.6055 38.4612 70.6055 30.1018 70.6055C29.3987 70.6055 28.7541 70.3711 28.0901 70.1758C25.4338 69.375 22.7971 68.5742 20.1409 67.7735C20.0432 67.7344 19.926 67.7149 19.7502 67.6758C20.2776 67.168 20.7268 66.7383 21.1956 66.3477ZM94.8479 62.0117C93.2463 63.418 91.6057 64.7852 89.9846 66.1524C86.137 69.4141 82.2698 72.6953 78.4221 75.9571C76.6252 77.4805 74.8479 79.0235 73.0315 80.5078C70.8049 82.3242 68.2463 83.3203 65.3948 83.6328C63.4026 83.8477 61.4104 84.1211 59.4182 84.3555C57.5432 84.5899 55.6682 84.8047 53.7932 85.0391C52.0549 85.2539 50.3167 85.4688 48.5588 85.6836C46.801 85.8985 45.0627 86.0938 43.3049 86.3086C42.8362 86.3672 42.3674 86.4258 41.9182 86.4844C41.6838 86.5039 41.5081 86.6211 41.3713 86.7969C39.6135 88.9063 37.8557 91.0156 36.0979 93.1446C34.9456 94.5313 33.7932 95.918 32.6213 97.2852C32.0354 97.9688 31.5471 98.1055 30.6877 97.8321C24.4377 95.8203 18.1877 93.8282 11.9573 91.836C9.96509 91.1914 7.9729 90.5664 5.98071 89.9219C5.21899 89.668 4.78931 89.1406 4.80884 88.4571C4.82837 88.086 4.98462 87.7735 5.19946 87.4805C6.58618 85.7422 7.9729 84.0039 9.34009 82.2461C11.0979 80.0196 12.8752 77.793 14.6135 75.5469C14.8479 75.2344 15.0237 74.8633 15.1799 74.5117C16.1174 72.4219 17.2893 70.4688 18.8127 68.75C18.8713 68.6719 18.8713 68.6719 18.9495 68.6133L19.0081 68.6328C19.5745 68.8086 20.1213 69.0039 20.6877 69.1602C23.4026 69.9805 26.0979 70.8008 28.8127 71.6016C29.1838 71.6992 29.5549 71.7774 29.9456 71.7774C38.5002 71.7774 47.0549 71.7969 55.6096 71.7774C57.6409 71.7774 59.3206 71.0157 60.551 69.375C60.5706 69.3555 60.5901 69.336 60.6096 69.3164L64.1838 69.336H64.2815H64.6526C67.5432 69.336 70.4143 69.336 73.2854 69.336C74.6135 69.336 75.7463 68.8867 76.762 68.0274C80.0237 65.2539 83.2854 62.4805 86.5471 59.7071C86.7815 59.5117 86.9573 59.2383 87.1526 59.0039C87.2112 58.9453 87.2502 58.8672 87.3088 58.8086C88.2463 58.0274 89.1448 57.2071 90.1018 56.4649C91.2346 55.5664 92.5042 55.3516 93.8323 55.918C95.1604 56.4844 95.9221 57.5391 96.0588 58.9649C96.1565 60.1563 95.7659 61.211 94.8479 62.0117Z" fill="white"/>
<g clip-path="url(#clip0_38_255)">
<path d="M39.9478 26.8597L38.5544 28.4293C37.481 29.5008 36.1141 30.2301 34.6263 30.525C33.1386 30.82 31.5968 30.6673 30.1958 30.0862C28.7948 29.5052 27.5974 28.5219 26.7551 27.2606C25.9127 25.9994 25.4631 24.5167 25.4631 23C25.4631 21.4833 25.9127 20.0006 26.7551 18.7393C27.5974 17.478 28.7948 16.4948 30.1958 15.9137C31.5968 15.3327 33.1386 15.18 34.6263 15.4749C36.1141 15.7698 37.481 16.4991 38.5544 17.5707L48.1958 28.4293C49.2693 29.5008 50.6362 30.2301 52.124 30.525C53.6117 30.82 55.1535 30.6673 56.5545 30.0862C57.9555 29.5052 59.1528 28.5219 59.9952 27.2606C60.8376 25.9994 61.2871 24.5167 61.2871 23C61.2871 21.4833 60.8376 20.0006 59.9952 18.7393C59.1528 17.478 57.9555 16.4948 56.5545 15.9137C55.1535 15.3327 53.6117 15.18 52.124 15.4749C50.6362 15.7698 49.2693 16.4991 48.1958 17.5707L46.8025 19.1402" stroke="white" stroke-width="2" stroke-linecap="round" stroke-linejoin="round"/> 
</g>
<defs>
<clipPath id="clip0_38_255">
<rect width="41" height="41" fill="white" transform="translate(22.8752 2.5)"/>
</clipPath>
</defs>
</svg>
