<?xml version="1.0" standalone="no"?>
<!DOCTYPE svg PUBLIC "-//W3C//DTD SVG 20010904//EN"
 "http://www.w3.org/TR/2001/REC-SVG-20010904/DTD/svg10.dtd">
<svg version="1.0" xmlns="http://www.w3.org/2000/svg"
 width="280.000000pt" height="280.000000pt" viewBox="0 0 280.000000 280.000000"
 preserveAspectRatio="xMidYMid meet">

<g transform="translate(0.000000,280.000000) scale(0.100000,-0.100000)"
fill="#000000" stroke="none">
<path d="M150 2587 c-31 -15 -39 -66 -15 -91 14 -13 41 -16 169 -16 161 0 178
4 191 47 4 17 -1 29 -19 48 -24 24 -29 25 -163 25 -91 0 -147 -5 -163 -13z"/>
<path d="M770 2593 c-40 -14 -53 -69 -22 -96 16 -14 43 -17 175 -17 150 0 156
1 171 22 23 32 20 54 -10 77 -24 19 -40 21 -163 20 -75 0 -143 -3 -151 -6z"/>
<path d="M1367 2580 c-31 -24 -34 -46 -11 -78 15 -21 21 -22 173 -22 140 0
160 2 174 18 21 23 22 52 3 78 -13 17 -29 19 -163 22 -139 3 -150 2 -176 -18z"/>
<path d="M2520 2590 c-301 -30 -581 -189 -759 -429 -27 -36 -212 -365 -411
-731 -199 -366 -380 -690 -403 -720 -165 -222 -431 -367 -710 -387 -98 -7
-117 -17 -117 -63 0 -51 30 -62 146 -50 154 15 275 49 404 115 132 67 278 191
369 314 27 36 212 365 411 731 199 366 380 690 403 720 165 222 431 367 710
387 56 4 94 11 103 20 22 22 17 69 -8 87 -24 17 -24 17 -138 6z"/>
<path d="M136 1354 c-24 -23 -20 -70 6 -88 18 -13 52 -16 166 -16 139 0 144 1
168 25 18 19 23 31 19 48 -13 43 -30 47 -191 47 -125 0 -155 -3 -168 -16z"/>
<path d="M747 1352 c-23 -25 -21 -58 3 -82 18 -18 33 -20 164 -20 130 0 146 2
170 21 31 24 33 52 6 79 -18 18 -33 20 -173 20 -136 0 -156 -2 -170 -18z"/>
<path d="M1628 1358 c-30 -24 -31 -56 -4 -83 24 -24 29 -25 163 -25 91 0 147
5 163 13 31 16 39 61 14 88 -15 17 -32 19 -169 19 -106 0 -156 -4 -167 -12z"/>
<path d="M2236 1354 c-24 -23 -20 -70 6 -88 18 -13 52 -16 166 -16 139 0 144
1 168 25 18 19 23 31 19 48 -13 43 -30 47 -191 47 -125 0 -155 -3 -168 -16z"/>
<path d="M1004 295 c-10 -15 -14 -34 -10 -49 10 -39 49 -48 206 -44 127 3 143
5 156 22 19 27 18 60 -4 79 -16 14 -43 17 -175 17 -156 0 -157 0 -173 -25z"/>
<path d="M1628 308 c-30 -24 -31 -56 -4 -83 24 -24 29 -25 163 -25 91 0 147 5
163 13 31 16 39 61 14 88 -15 17 -32 19 -169 19 -106 0 -156 -4 -167 -12z"/>
<path d="M2236 304 c-24 -23 -20 -70 6 -88 18 -13 52 -16 166 -16 139 0 144 1
168 25 18 19 23 31 19 48 -13 43 -30 47 -191 47 -125 0 -155 -3 -168 -16z"/>
</g>
</svg>
