<svg width="70" height="70" viewBox="0 0 70 70" fill="none" xmlns="http://www.w3.org/2000/svg">
<path d="M8.47369 8.47375C9.28759 8.47375 9.94739 7.81396 9.94739 7.00006C9.94739 6.18616 9.28759 5.52637 8.47369 5.52637C7.6598 5.52637 7 6.18616 7 7.00006C7 7.81396 7.6598 8.47375 8.47369 8.47375Z" fill="#071529"/>
<path d="M14.3692 8.47375C15.1831 8.47375 15.8429 7.81396 15.8429 7.00006C15.8429 6.18616 15.1831 5.52637 14.3692 5.52637C13.5553 5.52637 12.8955 6.18616 12.8955 7.00006C12.8955 7.81396 13.5553 8.47375 14.3692 8.47375Z" fill="#071529"/>
<path d="M20.2618 8.47375C21.0757 8.47375 21.7355 7.81396 21.7355 7.00006C21.7355 6.18616 21.0757 5.52637 20.2618 5.52637C19.4479 5.52637 18.7881 6.18616 18.7881 7.00006C18.7881 7.81396 19.4479 8.47375 20.2618 8.47375Z" fill="#071529"/>
<path d="M12.8955 19.158H7.00074C6.39029 19.158 5.89551 19.6526 5.89551 20.2632C5.89551 20.8738 6.39043 21.3684 7.00074 21.3684H12.8955C13.506 21.3684 14.0007 20.8738 14.0007 20.2632C14.0007 19.6527 13.506 19.158 12.8955 19.158Z" fill="#071529"/>
<path d="M12.8955 25.0527H7.00074C6.39029 25.0527 5.89551 25.5474 5.89551 26.158C5.89551 26.7686 6.39043 27.2632 7.00074 27.2632H12.8955C13.506 27.2632 14.0007 26.7686 14.0007 26.158C14.0007 25.5475 13.506 25.0527 12.8955 25.0527Z" fill="#071529"/>
<path d="M12.8955 30.9473H7.00074C6.39029 30.9473 5.89551 31.4419 5.89551 32.0525C5.89551 32.6631 6.39043 33.1577 7.00074 33.1577H12.8955C13.506 33.1577 14.0007 32.6631 14.0007 32.0525C14.0007 31.4419 13.506 30.9473 12.8955 30.9473Z" fill="#071529"/>
<path d="M12.8955 36.842H7.00074C6.39029 36.842 5.89551 37.3367 5.89551 37.9473C5.89551 38.5579 6.39043 39.0525 7.00074 39.0525H12.8955C13.506 39.0525 14.0007 38.5579 14.0007 37.9473C14.0007 37.3367 13.506 36.842 12.8955 36.842Z" fill="#071529"/>
<path d="M12.8955 42.7368H7.00074C6.39029 42.7368 5.89551 43.2315 5.89551 43.8421C5.89551 44.4526 6.39043 44.9473 7.00074 44.9473H12.8955C13.506 44.9473 14.0007 44.4526 14.0007 43.8421C14.0007 43.2316 13.506 42.7368 12.8955 42.7368Z" fill="#071529"/>
<path d="M12.8955 48.6316H7.00074C6.39029 48.6316 5.89551 49.1262 5.89551 49.7368C5.89551 50.3474 6.39043 50.8421 7.00074 50.8421H12.8955C13.506 50.8421 14.0007 50.3474 14.0007 49.7368C14.0007 49.1264 13.506 48.6316 12.8955 48.6316Z" fill="#071529"/>
<path d="M40.8929 16.2104H23.2088C22.5983 16.2104 22.1035 16.7052 22.1035 17.3157V23.2105C22.1035 23.821 22.5984 24.3157 23.2088 24.3157H40.8929C41.5034 24.3157 41.9981 23.8209 41.9981 23.2105V17.3157C41.9981 16.7052 41.5034 16.2104 40.8929 16.2104ZM39.7877 22.1052H24.314V18.4211H39.7877V22.1052Z" fill="#071529"/>
<path d="M48.2627 39.7896H40.8943C40.2838 39.7896 39.7891 40.2843 39.7891 40.8948V46.7895C39.7891 47.4001 40.284 47.8948 40.8943 47.8948H48.2627C48.8732 47.8948 49.368 47.4001 49.368 46.7895V40.8948C49.368 40.2842 48.8731 39.7896 48.2627 39.7896ZM47.1575 45.6842H41.9997V42H47.1575V45.6842Z" fill="#071529"/>
<path d="M33.5256 39.7896H23.2097C22.5993 39.7896 22.1045 40.2843 22.1045 40.8948V46.7895C22.1045 47.4001 22.5994 47.8948 23.2097 47.8948H33.5256C34.136 47.8948 34.6308 47.4001 34.6308 46.7895V40.8948C34.6309 40.2842 34.136 39.7896 33.5256 39.7896ZM32.4203 45.6842H24.3151V42H32.4203V45.6842Z" fill="#071529"/>
<path d="M68.4434 31.9442C68.2769 31.3235 67.8789 30.8046 67.3223 30.4835L66.3546 29.9247C66.2876 29.8859 66.2488 29.8115 66.2582 29.7396C66.3188 29.278 66.3494 28.8071 66.3494 28.3397C66.3494 27.8734 66.3186 27.4027 66.2575 26.9406C66.2481 26.8684 66.2866 26.7937 66.3539 26.755L67.3223 26.1957C67.8787 25.8744 68.2769 25.3557 68.443 24.7352C68.6091 24.1146 68.5239 23.4663 68.2026 22.9098L66.6189 20.1666C65.9555 19.0179 64.4815 18.6229 63.3328 19.2861L62.364 19.8457C62.2968 19.8844 62.2131 19.8808 62.1553 19.8363C61.4097 19.2634 60.5937 18.7914 59.7295 18.4331C59.664 18.4059 59.62 18.3356 59.62 18.258V17.1422C59.62 15.8158 58.5408 14.7368 57.2145 14.7368H56.736V3.87379C56.7359 1.73783 54.9981 0 52.8621 0H5.34658C3.21049 0 1.47266 1.73783 1.47266 3.87379V66.1263C1.47266 68.2622 3.21049 70 5.34658 70H52.8621C54.9982 70 56.736 68.2622 56.736 66.1262V41.9424H57.2145C58.5408 41.9424 59.62 40.8635 59.62 39.537V38.421C59.62 38.3435 59.664 38.273 59.7295 38.2458C60.5952 37.8872 61.4115 37.4153 62.1561 36.8432C62.2137 36.7989 62.2975 36.7951 62.3649 36.8339L63.3332 37.3931C63.8897 37.7146 64.538 37.8001 65.1586 37.6335C65.7793 37.4672 66.298 37.0692 66.6193 36.5128L68.203 33.7695C68.5243 33.2132 68.6096 32.5648 68.4434 31.9442ZM5.34658 2.21047H52.8621C53.7793 2.21047 54.5254 2.95654 54.5254 3.87365V10.3157H3.6834V3.87379H3.68326C3.68326 2.95668 4.42934 2.21047 5.34658 2.21047ZM3.68326 12.5263H16.2096V56H3.68326V12.5263ZM54.5253 56H44.3303C43.7198 56 43.2251 56.4949 43.2251 57.1052C43.2251 57.7155 43.72 58.2105 44.3303 58.2105H54.5253V66.1262C54.5253 67.0448 53.7806 67.7894 52.8621 67.7894H5.34658C4.42797 67.7894 3.68326 67.0447 3.68326 66.1261V58.2105H37.4003C38.0107 58.2105 38.5055 57.7155 38.5055 57.1052C38.5055 56.4949 38.0106 56 37.4003 56H18.42V12.5263H54.5253V14.7368H54.0468C52.7183 14.7368 51.6413 15.8137 51.6413 17.1422V18.258C51.6413 18.3355 51.5974 18.4058 51.5317 18.4331C50.6664 18.7916 49.8499 19.2637 49.1052 19.8361C49.0474 19.8803 48.9637 19.8838 48.8964 19.8454L47.928 19.2862C46.7793 18.623 45.3054 19.018 44.642 20.1667L43.0583 22.91C42.6975 23.5346 42.6343 24.2754 42.8905 24.9624C43.0911 25.4998 43.4929 25.9384 43.9896 26.2254L44.9064 26.7548C44.9734 26.7936 45.0122 26.8681 45.0028 26.9399C44.957 27.2897 44.9284 27.6452 44.9172 28.0001H23.2096C22.5991 28.0001 22.1043 28.4951 22.1043 29.1054V35.0001C22.1043 35.6106 22.5993 36.1054 23.2096 36.1054H44.4069L44.642 36.5127C44.9633 37.0691 45.482 37.4674 46.1027 37.6333C46.7236 37.8 47.3717 37.7144 47.928 37.393L48.897 36.8335C48.9642 36.7948 49.048 36.7984 49.1057 36.8428C49.8514 37.416 50.6678 37.8882 51.5317 38.246C51.5972 38.273 51.6412 38.3435 51.6412 38.4211V39.537C51.6412 40.8655 52.7181 41.9424 54.0466 41.9424H54.5251V56H54.5253ZM43.0584 33.7694L43.1307 33.8948H24.3148V30.2106H44.4114L43.9387 30.4835C43.3823 30.8048 42.9842 31.3235 42.8181 31.9442C42.6517 32.5648 42.7371 33.2129 43.0584 33.7694ZM66.2886 32.664L64.7047 35.4071C64.6713 35.4651 64.6218 35.4885 64.5863 35.4981C64.5506 35.5074 64.496 35.5119 64.4383 35.4785L63.4698 34.9192C62.6242 34.4314 61.5798 34.4981 60.8091 35.0901C60.2181 35.5443 59.5702 35.9189 58.8835 36.2033C57.9881 36.5742 57.4095 37.4445 57.4095 38.4206V39.5366C57.4095 39.6441 57.322 39.7316 57.2145 39.7316H54.0469C53.9394 39.7316 53.8519 39.6441 53.8519 39.5366V38.4207C53.8519 37.4448 53.2735 36.5746 52.3781 36.2035C51.6929 35.9196 51.0451 35.545 50.453 35.0897C50.0253 34.7612 49.5133 34.5942 48.9977 34.5942C48.5842 34.5942 48.1685 34.7017 47.792 34.9189L46.8231 35.4784C46.765 35.5119 46.7107 35.5071 46.6752 35.4979C46.6396 35.4884 46.5901 35.4647 46.5568 35.407L44.973 32.6639C44.9395 32.6059 44.944 32.5515 44.9536 32.516C44.9632 32.4804 44.9865 32.4309 45.0445 32.3974L46.013 31.8382C46.8582 31.3502 47.3224 30.4128 47.1956 29.4499C47.1472 29.0829 47.1229 28.7094 47.1229 28.3393C47.1229 27.9677 47.1474 27.5933 47.1954 27.2267C47.3214 26.2645 46.8571 25.3276 46.0125 24.8399L45.0448 24.2811C44.9868 24.2476 44.9634 24.1983 44.9539 24.1626C44.9444 24.127 44.9401 24.0728 44.9733 24.0148L46.557 21.2715C46.6106 21.1786 46.73 21.1463 46.8235 21.2002L47.7919 21.7593C48.6378 22.2476 49.6822 22.1808 50.453 21.5886C51.0444 21.1343 51.6922 20.7595 52.3782 20.4753C53.2739 20.1045 53.8525 19.2341 53.8525 18.258V17.1422C53.8525 17.0347 53.94 16.9472 54.0474 16.9472H57.2149C57.3224 16.9472 57.4099 17.0347 57.4099 17.1422V18.258C57.4099 19.2339 57.9884 20.1041 58.8836 20.4751C59.5691 20.7592 60.2169 21.134 60.8087 21.5888C61.5793 22.1811 62.6238 22.2485 63.4701 21.7599L64.439 21.2003C64.5324 21.1466 64.6515 21.1788 64.7055 21.2717L66.2892 24.0149C66.3227 24.0729 66.3182 24.1272 66.3087 24.1627C66.2991 24.1984 66.2757 24.2478 66.2177 24.2812L65.2494 24.8406C64.4042 25.3287 63.94 26.2661 64.0667 27.2289C64.1151 27.5957 64.1395 27.9692 64.1395 28.3395C64.1395 28.7109 64.115 29.0854 64.067 29.4521C63.941 30.4143 64.4053 31.3511 65.2499 31.8387L66.2176 32.3974C66.2756 32.4309 66.2989 32.4804 66.3085 32.516C66.3174 32.5518 66.3219 32.6063 66.2886 32.664Z" fill="#071529"/>
<path d="M55.6308 22.8132C52.5835 22.8132 50.1045 25.2922 50.1045 28.3395C50.1045 31.3869 52.5835 33.8658 55.6308 33.8658C58.6781 33.8658 61.1571 31.3869 61.1571 28.3395C61.1571 25.2922 58.678 22.8132 55.6308 22.8132ZM55.6308 31.6554C53.8025 31.6554 52.315 30.1679 52.315 28.3395C52.315 26.5112 53.8023 25.0237 55.6308 25.0237C57.4593 25.0237 58.9466 26.5112 58.9466 28.3395C58.9466 30.1679 57.4591 31.6554 55.6308 31.6554Z" fill="#071529"/>
</svg>
