<svg width="101" height="100" viewBox="0 0 101 100" fill="none" xmlns="http://www.w3.org/2000/svg">
<path d="M99.3596 13.9648C98.7737 12.7344 97.7971 12.0703 96.4299 12.0313C95.6487 12.0117 94.8674 12.0313 94.0862 12.0313C93.4807 12.0117 92.9338 12.1875 92.4065 12.4805C92.3674 12.5 92.3088 12.5391 92.2307 12.5781C92.2307 12.2656 92.2502 11.9727 92.2307 11.6992C92.1916 11.3086 92.1526 10.8984 92.0159 10.5273C91.5862 9.33594 90.7073 8.65234 89.4768 8.41797C89.4182 8.41797 89.3792 8.37891 89.3206 8.37891C87.7581 8.37891 86.1956 8.37891 84.6331 8.37891C84.4768 8.41797 84.301 8.45703 84.1448 8.49609C82.6995 8.88672 81.7424 10.1563 81.7424 11.6602C81.7424 16.5039 81.7424 21.3477 81.7424 26.1914C81.7424 26.2891 81.7424 26.3867 81.7424 26.543C81.6253 26.543 81.5081 26.543 81.4104 26.543C77.3479 26.543 73.3049 26.543 69.2424 26.543H67.719C67.719 25.6641 67.7385 24.7656 67.7385 23.8867C67.7385 22.7344 67.7971 21.5625 67.719 20.4102C67.5627 18.0078 66.3127 16.3477 64.0471 15.5078C61.8987 14.7266 59.5354 15.4102 58.051 17.1875C57.9924 17.2461 57.9534 17.3047 57.8948 17.3633C56.7424 14.9023 54.8479 13.6914 52.1526 13.9063C50.1995 14.0625 48.3831 15.4102 47.6018 17.5781C46.3127 16.0156 44.6721 15.2734 42.6604 15.4688C40.6487 15.6836 39.2229 16.7773 38.3049 18.5742C37.8362 17.8906 37.2698 17.3633 36.6057 16.9336C34.6526 15.6641 32.3674 15.8984 30.551 17.1484C29.0276 18.2031 28.344 19.707 28.3049 21.5039C28.2659 22.8711 28.3049 24.2578 28.3049 25.625C28.3049 25.8789 28.344 26.1133 28.3635 26.3867C25.2971 26.3867 22.2307 26.3867 19.1252 26.3867C19.1252 26.25 19.1252 26.1523 19.1252 26.0352C19.1252 21.25 19.1252 16.4648 19.1252 11.6602C19.1252 9.94141 18.0706 8.67188 16.3713 8.35938C16.3518 8.35938 16.3127 8.33984 16.2932 8.32031C14.6721 8.32031 13.051 8.32031 11.4104 8.32031C11.3713 8.33984 11.3518 8.35938 11.3127 8.35938C9.76978 8.65234 8.67603 9.94141 8.63696 11.5234C8.63696 11.8555 8.63696 12.1875 8.63696 12.5195C8.2854 12.3828 7.95337 12.2266 7.60181 12.1094C7.3479 12.0313 7.07446 12.0117 6.82056 12.0117C6.01978 11.9922 5.21899 12.0117 4.41821 12.0117C2.83618 12.0117 1.54712 13.0859 1.25415 14.6484C1.25415 14.707 1.21509 14.7461 1.19556 14.7852C1.19556 25.918 1.19556 37.0312 1.19556 48.1641C1.21509 48.2422 1.25415 48.3203 1.27368 48.3984C1.60571 49.8242 2.73853 50.8008 4.18384 50.8984C5.10181 50.957 6.01978 50.9375 6.91821 50.918C7.50415 50.918 8.03149 50.7227 8.51978 50.4102C8.53931 50.3906 8.57837 50.3906 8.63696 50.3711C8.63696 50.6641 8.63696 50.918 8.63696 51.1914C8.6565 53.125 9.96509 54.4922 11.8987 54.5508C13.2463 54.5898 14.594 54.5703 15.9221 54.5703C16.0784 54.5703 16.2151 54.5703 16.3713 54.5508C17.9729 54.2969 19.1057 52.9688 19.1057 51.3281C19.1057 46.5234 19.1057 41.6992 19.1057 36.8945C19.1057 36.7969 19.1057 36.6797 19.1057 36.5625C22.3284 36.5625 25.512 36.5625 28.7346 36.5625C28.7346 36.6797 28.7346 36.7578 28.7346 36.8555C28.7346 39.9023 28.7346 42.9492 28.7346 45.9961C28.7346 46.4062 28.7542 46.8164 28.7737 47.207C28.9104 49.7461 29.594 52.1094 30.9807 54.2578C31.5667 55.1758 32.2307 56.0547 32.8752 56.9336C32.9729 57.0898 33.0315 57.2266 33.0315 57.4023C33.0315 67.7148 33.0315 78.0078 33.0315 88.3203C33.0315 88.3984 33.0315 88.4766 33.0315 88.5547C33.0706 90.332 34.4377 91.6992 36.2151 91.6992C43.7151 91.6992 51.2151 91.6992 58.7151 91.6992C59.1057 91.6992 59.5159 91.6211 59.8674 91.4648C61.137 90.9766 61.8596 89.8047 61.8596 88.3398C61.8596 79.3164 61.8596 70.3125 61.8596 61.2891C61.8596 61.1523 61.9182 61.0156 61.9573 60.8984C62.0354 60.5273 62.2893 60.293 62.5823 60.0781C62.6604 60.0195 62.719 59.9414 62.7776 59.8437C63.7932 58.5742 64.8088 57.2852 65.844 56.0156C67.719 53.7109 69.301 51.2305 70.4143 48.4766C71.801 45.0586 72.5042 41.5039 72.5237 37.832C72.5237 37.4219 72.5237 37.0312 72.5237 36.6211C75.6096 36.6211 78.6565 36.6211 81.7229 36.6211C81.7229 36.7383 81.7229 36.8359 81.7229 36.9336C81.7229 41.7188 81.7229 46.5039 81.7229 51.3086C81.7229 53.1641 83.1096 54.5703 84.9456 54.5898C86.2932 54.6094 87.6409 54.6094 88.969 54.5898C90.4143 54.5703 91.6252 53.6719 92.0549 52.3047C92.2307 51.7773 92.2112 51.2305 92.2112 50.6836C92.2112 50.5859 92.2112 50.4688 92.2112 50.332C92.7776 50.6836 93.344 50.8789 93.9495 50.8789C94.8284 50.8984 95.7073 50.8984 96.5667 50.8789C97.9338 50.8398 99.1057 49.9023 99.4768 48.5742C99.5159 48.3984 99.5745 48.2422 99.6135 48.0664C99.6135 36.9531 99.6135 25.8398 99.6135 14.7461C99.5549 14.5117 99.4963 14.2188 99.3596 13.9648ZM8.83228 47.6367C8.83228 48.9062 7.95337 49.7852 6.68384 49.7852C5.88306 49.7852 5.08228 49.8047 4.28149 49.7656C3.22681 49.707 2.42603 48.8477 2.38696 47.7734C2.38696 47.7148 2.38696 47.6562 2.38696 47.5781C2.38696 36.9141 2.38696 26.2305 2.38696 15.5664C2.38696 14.8633 2.52368 14.2383 3.07056 13.75C3.44165 13.418 3.87134 13.2422 4.35962 13.2422C5.1604 13.2422 5.96118 13.2422 6.74243 13.2422C7.93384 13.2422 8.83228 14.1211 8.83228 15.332C8.83228 20.5859 8.83228 25.8398 8.83228 31.0742C8.83228 31.2305 8.83228 31.3672 8.83228 31.5234C8.83228 36.8945 8.83228 42.2656 8.83228 47.6367ZM17.9534 50.918C17.9534 51.2695 17.9338 51.6406 17.8362 51.9727C17.6213 52.8125 16.8792 53.3789 16.0198 53.3984C14.6721 53.418 13.3245 53.418 11.9963 53.3984C10.6877 53.3789 9.86743 52.5195 9.8479 51.2109C9.82837 50.4492 9.8479 49.6875 9.8479 48.9453C9.8479 48.9062 9.82837 12.4609 9.8479 11.6797C9.8479 10.4492 10.7463 9.55078 11.9768 9.55078C13.2268 9.55078 14.4768 9.55078 15.7268 9.55078C17.1135 9.55078 17.9729 10.4102 17.9729 11.7969C17.9534 12.0898 17.9534 46.6602 17.9534 50.918ZM62.6799 16.4258C64.9651 16.6797 66.5471 18.4375 66.5667 20.7422C66.5862 22.5781 66.5667 24.4141 66.5667 26.25C66.5667 26.3672 66.5471 26.4844 66.5471 26.5625C63.7151 26.5625 60.9026 26.5625 58.051 26.5625C58.0315 26.4062 58.012 26.3086 58.012 26.1914C58.012 24.3164 58.012 22.4414 58.012 20.5664C58.0315 18.1445 60.2776 16.1523 62.6799 16.4258ZM52.3284 15.0781C54.3791 14.8438 56.3909 16.2109 56.9182 18.2422C56.9377 18.3008 56.9377 18.457 56.9377 18.6914V26.4258V26.5234C56.9377 26.5234 55.219 26.5039 54.4377 26.5234C51.762 26.6016 49.5354 28.5156 49.0081 31.1328C48.9885 31.1914 48.969 31.25 48.9495 31.3672C48.7151 30.8789 48.5979 30.4102 48.5393 29.9219C48.5198 29.8047 48.5198 29.6875 48.5198 29.5703C48.5198 26.1523 48.5198 22.7344 48.5198 19.3164C48.5393 17.1484 50.1604 15.3516 52.3284 15.0781ZM39.1643 21.5234C39.1643 21.2305 39.1057 20.9375 39.0862 20.6445C39.0667 20.4297 39.0471 20.2148 39.1057 20C39.5549 18.2031 40.6877 17.0703 42.5042 16.6992C44.5354 16.2891 46.6838 17.5977 47.2893 19.5703C47.3284 19.668 47.3284 19.7852 47.3284 19.9023C47.3284 21.1328 47.3284 22.3633 47.3284 23.6133C47.3284 24.8438 47.3284 26.0742 47.3284 27.2852C47.3284 27.4609 47.2893 27.6367 47.2307 27.793C46.4885 29.8047 44.5354 30.6641 42.9924 30.5469C41.0393 30.4102 39.4182 28.9844 39.0667 27.0898C39.0276 26.8555 39.0471 26.6211 39.0667 26.3672C39.0862 26.0938 39.1252 25.8398 39.1252 25.5664C39.1838 24.2188 39.1838 22.8711 39.1643 21.5234ZM34.301 17.3242C35.7854 17.4805 37.7581 18.8672 37.9338 21.0352C37.9924 21.8555 37.9534 22.6953 37.9534 23.5352C37.9534 24.3555 38.012 25.1562 37.9338 25.9766C37.7581 27.9297 36.0198 29.5898 34.0471 29.707C31.801 29.8438 29.926 28.3789 29.5159 26.1523C29.4768 25.9766 29.4573 25.7812 29.4573 25.5859C29.4573 24.2578 29.4377 22.9492 29.4377 21.6211C29.4963 18.9844 31.6838 17.0312 34.301 17.3242ZM18.9299 35.3711C18.9299 32.793 18.9299 30.2148 18.9299 27.5977C19.0081 27.5977 19.0862 27.5977 19.1643 27.5977C21.2737 27.5977 23.3635 27.5977 25.4729 27.5977C26.4885 27.5977 27.4846 27.6172 28.5002 27.6172C28.6956 27.6172 28.7737 27.6758 28.8518 27.832C29.6721 29.4336 30.9417 30.4883 32.719 30.8008C34.926 31.1914 36.7229 30.4297 38.1096 28.6719C38.1487 28.6133 38.1877 28.5547 38.2268 28.4961C38.2268 28.4766 38.2463 28.4766 38.2659 28.457C39.1252 30.1953 40.4924 31.3086 42.4065 31.6211C44.3206 31.9336 45.9417 31.2695 47.3284 29.8828C47.3674 30.1367 47.387 30.3711 47.4456 30.6055C47.5432 30.957 47.6213 31.3281 47.7776 31.6406C47.8948 31.8945 48.1096 32.1094 48.2854 32.3438C48.5393 32.6758 48.8909 32.9492 48.969 33.3984C49.0862 34.0234 49.3401 34.6094 49.6526 35.1562C49.6721 35.1953 49.6917 35.2539 49.7307 35.3125C39.4768 35.3711 29.2034 35.3711 18.9299 35.3711ZM59.5745 90.3125C59.3206 90.4492 58.9885 90.5273 58.6956 90.5273C51.1956 90.5469 43.7151 90.5469 36.2151 90.5273C35.0823 90.5273 34.2424 89.6484 34.2034 88.4766C34.2034 88.3984 34.2034 88.3398 34.2034 88.2617C34.2034 77.9102 34.2034 67.5391 34.2034 57.1875C34.2034 56.875 34.1252 56.6406 33.9495 56.3867C33.2073 55.332 32.426 54.3164 31.762 53.2031C30.6292 51.3672 30.1018 49.3359 29.9846 47.1875C29.9456 46.5234 29.9456 45.8789 29.9456 45.2148C29.9456 42.4219 29.9456 39.6289 29.9456 36.8555C29.9456 36.7578 29.9456 36.6797 29.9456 36.543C30.0823 36.543 30.1995 36.543 30.2971 36.543C36.7424 36.543 43.2073 36.543 49.6526 36.543C49.8088 36.543 49.9846 36.543 50.1409 36.4844C50.3362 36.4063 50.4534 36.4648 50.5901 36.6016C51.6643 37.5977 52.9534 38.1055 54.4182 38.2031C54.5159 38.2031 54.6135 38.2031 54.6917 38.2227C54.6917 38.2227 54.6917 38.2422 54.7112 38.2422C54.2815 38.5547 53.8323 38.8672 53.4221 39.1992C50.844 41.3672 49.2229 44.1016 48.7932 47.4805C48.6565 48.5352 48.6565 49.6094 48.6565 50.6836C48.637 53.4961 48.6565 56.3281 48.676 59.1406C48.676 59.4336 48.7932 59.707 48.8518 60C48.8713 60.0977 48.8909 60.1758 48.9104 60.2344C49.594 60.6641 50.3557 60.5273 51.0784 60.5469C54.2034 60.5469 57.3284 60.5469 60.4534 60.5469C60.551 60.5469 60.6292 60.5469 60.7073 60.5469C60.7073 60.7617 60.7073 60.957 60.7073 61.1523C60.7073 70.2148 60.7073 79.2773 60.7073 88.3398C60.6877 89.2188 60.3752 89.9219 59.5745 90.3125ZM71.2346 40.2344C71.0002 43.0469 70.2971 45.7617 69.2034 48.3789C68.0706 51.0742 66.469 53.457 64.6331 55.7031C63.7151 56.8164 62.8167 57.9688 61.9182 59.1016C61.762 59.2969 61.6057 59.375 61.3518 59.375C57.6213 59.375 53.8909 59.375 50.1604 59.375C50.0627 59.375 49.9846 59.375 49.8674 59.375C49.8674 59.2773 49.8674 59.1992 49.8674 59.1211C49.8674 56.3281 49.8479 53.5352 49.8479 50.7617C49.8479 49.6484 49.8284 48.5156 50.0042 47.4023C50.3752 45.1367 51.3518 43.1641 52.8557 41.4453C53.8323 40.3125 55.0432 39.4727 56.3127 38.7109C56.5862 38.5352 56.8792 38.3789 57.1526 38.1836C57.2502 38.125 57.3284 37.9883 57.3479 37.8711C57.387 37.6172 57.4065 37.3438 57.426 37.0508C57.2893 37.0508 57.2112 37.0508 57.1135 37.0508C56.1565 37.0313 55.1995 37.0703 54.2424 37.0117C52.8362 36.9141 51.6057 36.2305 50.8635 35.0195C50.4729 34.3555 50.2385 33.5938 50.1018 32.832C49.9651 32.0703 50.1018 31.3477 50.4338 30.6445C50.7463 29.9609 51.1565 29.2969 51.7229 28.8086C52.2698 28.3398 52.9143 28.0078 53.6174 27.8516C53.8713 27.793 54.1448 27.7539 54.4182 27.7344C55.5315 27.6758 56.6448 27.6562 57.7581 27.6758C58.8323 27.6953 59.926 27.6953 61.0002 27.7148C62.2307 27.7344 63.4612 27.7148 64.6916 27.7344C65.3557 27.7344 66.0198 27.7344 66.7034 27.793C67.3479 27.8516 67.8557 28.2031 68.344 28.5938C68.9885 29.1016 69.6135 29.6289 70.1018 30.293C71.2737 31.875 71.0979 33.8281 71.3127 35.6836C71.3323 35.8984 71.3713 36.1328 71.3713 36.3477C71.4104 36.7578 71.4104 37.168 71.4104 37.5781C71.3713 38.457 71.3127 39.3555 71.2346 40.2344ZM81.9182 35.4492C78.7346 35.4492 75.551 35.4492 72.3479 35.4492C72.3479 35.1367 72.3479 34.8047 72.3479 34.4922C72.3479 33.6133 72.3284 32.7344 72.094 31.875C71.6643 30.2344 70.7073 28.9453 69.3596 27.9297C69.2815 27.8711 69.2229 27.832 69.1252 27.7539C73.4026 27.7539 77.6409 27.7539 81.9182 27.7539C81.9182 30.3125 81.9182 32.8711 81.9182 35.4492ZM91.0393 51.3086C91.0393 52.5586 90.1604 53.4375 88.9299 53.457C87.6409 53.4766 86.3323 53.4766 85.0432 53.457C83.7932 53.4375 82.9534 52.5781 82.9338 51.3086C82.9338 48.8086 82.9338 46.3281 82.9338 43.8281C82.9338 41.3281 82.9338 16.7578 82.9338 11.6992C82.9338 10.4492 83.7932 9.57031 85.0628 9.57031C86.3518 9.55078 87.6213 9.55078 88.9104 9.57031C90.1799 9.58984 91.0393 10.4688 91.0588 11.7383C91.0588 12.1875 91.0588 12.6367 91.0588 13.0664C91.0393 13.5938 91.0393 50.6836 91.0393 51.3086ZM98.4612 47.3437C98.4612 47.6172 98.4416 47.8906 98.383 48.1641C98.1682 49.1211 97.4065 49.7461 96.3909 49.7656C95.6096 49.7852 94.8479 49.7852 94.0667 49.7656C92.8362 49.7461 91.9963 48.8477 91.9963 47.6172C91.9963 43.7695 91.9963 39.9219 91.9963 36.0547C91.9963 29.1406 91.9963 22.2461 91.9963 15.332C91.9963 14.2383 92.6799 13.418 93.7541 13.2227C93.7737 13.2227 93.7932 13.2227 93.7932 13.2227C94.7698 13.2227 95.7268 13.1836 96.7034 13.2617C97.6799 13.3398 98.4026 14.1992 98.4612 15.1758C98.4612 15.293 98.4612 15.3906 98.4612 15.5078C98.4612 20.8203 98.4612 26.1523 98.4612 31.4648C98.4612 36.7578 98.4612 42.0508 98.4612 47.3437Z" fill="white"/>
</svg>
