<svg width="28" height="45" viewBox="0 0 28 45" fill="none" xmlns="http://www.w3.org/2000/svg">
<path d="M19.3595 11.1388C19.4244 11.0694 19.7282 10.8428 20.9212 10.8428L24.8325 10.8414C26.1049 10.8414 27.1396 9.86229 27.1396 8.6586V2.19177C27.1396 0.990143 26.1064 0.0109863 24.8361 0.00892635L19.0263 0C15.4405 0 12.3922 1.11889 10.211 3.23616C8.0396 5.34382 6.89164 8.28609 6.89164 11.7444V15.2322H2.44717C1.17473 15.2322 0.139648 16.2114 0.139648 17.415V24.3797C0.139648 25.5834 1.17473 26.5625 2.44717 26.5625H6.89164V42.8172C6.89164 44.0208 7.92673 45 9.19917 45H16.8171C18.0896 45 19.1246 44.0208 19.1246 42.8172V26.5629H24.5574C25.8298 26.5629 26.8645 25.5834 26.8645 24.3804L26.8675 17.4154C26.8675 16.6247 26.4127 15.8931 25.6803 15.5062C25.341 15.327 24.9461 15.2322 24.5389 15.2322H19.1246V12.4767C19.1246 11.5786 19.2524 11.2534 19.3595 11.1388Z" fill="#4A69A8"/>
</svg>
