<svg width="34" height="32" viewBox="0 0 34 32" fill="none" xmlns="http://www.w3.org/2000/svg">
<path d="M27.0083 0.0292969H6.99178C3.1365 0.0292969 0 3.1658 0 7.02108C0 10.8764 3.1365 14.0129 6.99178 14.0129H12.0827V19.6616L11.8341 19.4531C10.6054 18.422 8.68268 18.5058 7.5484 19.6402C6.35973 20.8289 6.43755 22.7181 7.73015 23.8026L12.0826 27.4548V30.9746C12.0826 31.5247 12.5286 31.9707 13.0787 31.9707H25.0318C25.5819 31.9707 26.0279 31.5247 26.0279 30.9746V19.7814C26.0279 18.2769 24.9021 17.0021 23.4091 16.8161L18.0592 16.1495V14.0127H27.0083C30.8636 14.0127 34 10.8762 34 7.02095C34 3.16566 30.8636 0.0292969 27.0083 0.0292969ZM14.0748 29.9785V27.9863H24.0357V29.9785H14.0748ZM23.1628 18.793C23.6605 18.855 24.0358 19.2799 24.0358 19.7814V25.9941H13.4413L9.01066 22.2765C8.61741 21.9465 8.59357 21.4124 8.95707 21.0488C9.36534 20.6406 10.1113 20.6081 10.5536 20.9791L12.4385 22.5607C13.085 23.1031 14.0749 22.643 14.0749 21.7977V9.06055C14.0749 8.5113 14.5217 8.06445 15.071 8.06445C15.6202 8.06445 16.0671 8.5113 16.0671 9.06055V17.0293C16.0671 17.5318 16.4414 17.9556 16.94 18.0178L23.1628 18.793ZM27.0083 12.0206H18.0592V9.06055C18.0592 7.41281 16.7186 6.07227 15.0709 6.07227C13.4232 6.07227 12.0826 7.41281 12.0826 9.06055V12.0206H6.99171C4.23499 12.0206 1.99219 9.7778 1.99219 7.02108C1.99219 4.26436 4.23499 2.02148 6.99178 2.02148H27.0083C29.765 2.02148 32.0078 4.26429 32.0078 7.02108C32.0078 9.77787 29.765 12.0206 27.0083 12.0206Z" fill="white"/>
<path d="M26.2498 4.30548L22.9698 7.58548L21.6819 6.29767C21.2929 5.90866 20.6622 5.90866 20.2732 6.29767C19.8842 6.68667 19.8842 7.31733 20.2732 7.70634L22.2654 9.69853C22.6543 10.0875 23.2851 10.0876 23.6741 9.69853L27.6584 5.71415C28.0474 5.32515 28.0474 4.69449 27.6584 4.30548C27.2695 3.9164 26.6388 3.9164 26.2498 4.30548Z" fill="white"/>
</svg>
