<svg width="30" height="40" viewBox="0 0 30 40" fill="none" xmlns="http://www.w3.org/2000/svg">
<path d="M29.5006 20.2316C29.4939 20.2055 29.4853 20.1801 29.4749 20.1554C29.4667 20.1153 29.4536 20.0764 29.436 20.0395L29.4304 20.0333L29.4292 20.03L19.957 4.51617L19.9558 4.51226L19.9523 4.50836L19.9486 4.50226C19.9156 4.4485 19.8733 4.40123 19.8234 4.36262C19.7977 4.34559 19.7704 4.33098 19.7421 4.31886C19.6866 4.27893 19.6194 4.25854 19.5511 4.26096C19.488 4.2469 19.4221 4.25252 19.3623 4.27706C19.3364 4.28112 19.3109 4.2873 19.2859 4.29534L15.4493 5.99797V5.57819L15.8544 5.34431C15.8673 5.33673 15.8747 5.32407 15.8869 5.31564C15.9263 5.28954 15.9618 5.25812 15.9927 5.22233C16.0321 5.16943 16.0639 5.11137 16.0875 5.0498C16.095 5.02362 16.1004 4.9969 16.1036 4.96994C16.1111 4.94392 16.1165 4.91727 16.1197 4.89039V2.83996C16.1183 2.82269 16.1159 2.8055 16.1128 2.78847C16.1118 2.77862 16.1104 2.76925 16.109 2.75948C16.0893 2.63226 16.0232 2.51685 15.9234 2.43566C15.912 2.42628 15.901 2.41761 15.8889 2.40925C15.8776 2.40143 15.8684 2.3912 15.8564 2.38424L11.8362 0.0622746C11.8141 0.0529758 11.7914 0.045318 11.7683 0.0393011C11.7377 0.0255482 11.706 0.0147647 11.6733 0.00718501C11.6067 -0.00227009 11.5389 -0.00242637 11.4723 0.0067943C11.4386 0.0144521 11.4059 0.0255482 11.3744 0.0397699C11.3519 0.0456305 11.3298 0.0530539 11.3083 0.0620402L2.55026 5.11864C2.49689 5.15084 2.44977 5.19241 2.41109 5.24132C2.40117 5.25336 2.3921 5.265 2.38319 5.27781C2.34834 5.32626 2.32193 5.38034 2.30521 5.43761L2.30458 5.44269C2.29318 5.48575 2.28731 5.53013 2.28708 5.57467V7.62409C2.287 7.81217 2.38734 7.98604 2.55026 8.08012L2.95691 8.31478V12.6851L0.975087 13.7081C0.80974 13.7937 0.701827 13.9601 0.691278 14.146C0.680729 14.3318 0.769107 14.5094 0.923671 14.6132L2.95691 15.9763V26.4118L2.23824 26.0914C2.0754 26.0186 1.88676 26.0333 1.7372 26.1304C1.58756 26.2275 1.49731 26.3938 1.49746 26.5722V29.3735C1.49738 29.5609 1.59709 29.7342 1.75916 29.8284L19.1091 39.9287L19.1115 39.9296C19.1401 39.9449 19.1701 39.9574 19.2012 39.967C19.2141 39.9715 19.2262 39.979 19.2394 39.9825C19.2709 39.9896 19.303 39.9938 19.3353 39.9951C19.3481 39.996 19.3609 40.0001 19.3739 40.0001H19.3741L19.3743 40.0002C19.4652 39.994 19.554 39.9702 19.636 39.9303L19.6363 39.93L19.637 39.9297L28.395 34.8731C28.414 34.8587 28.432 34.8428 28.4488 34.8258C28.4749 34.8068 28.4991 34.7854 28.5212 34.7619C28.5458 34.733 28.5671 34.7015 28.5847 34.6678C28.599 34.6439 28.6113 34.6187 28.6214 34.5927C28.6349 34.5524 28.6433 34.5107 28.6464 34.4684C28.6508 34.4516 28.6542 34.4344 28.6567 34.4172V31.6149C28.6567 31.6029 28.6533 31.5916 28.6525 31.5797C28.6514 31.562 28.6493 31.5445 28.6463 31.527C28.6371 31.4701 28.6186 31.4151 28.5915 31.3643C28.5895 31.3608 28.5898 31.3568 28.5878 31.3533C28.584 31.3466 28.5772 31.3432 28.573 31.3367C28.5422 31.2868 28.503 31.2424 28.4573 31.2056C28.4529 31.2022 28.4496 31.1977 28.4451 31.1944L28.4402 31.1898L26.8353 30.0187V22.149L29.2433 20.7587L29.2438 20.7582C29.2472 20.7562 29.2512 20.7557 29.2546 20.7535C29.2938 20.7263 29.329 20.6936 29.3591 20.6566C29.374 20.6441 29.3883 20.6309 29.4018 20.617C29.4245 20.5819 29.4429 20.5442 29.4567 20.5047C29.4692 20.4818 29.48 20.4582 29.489 20.4339C29.4946 20.4007 29.4969 20.3671 29.496 20.3335C29.5009 20.2997 29.5024 20.2655 29.5006 20.2316ZM14.4694 7.07178L10.5014 9.36281L6.68964 11.0538V10.4513L6.6941 10.4516C6.7395 10.4644 6.78646 10.4708 6.83358 10.4711C6.84811 10.4711 6.86257 10.4667 6.87718 10.4655C6.8907 10.4643 6.90328 10.4625 6.91664 10.4604C6.9797 10.4518 7.04065 10.4315 7.09629 10.4007L14.3963 6.18613V6.80774C14.3969 6.90065 14.422 6.99177 14.4694 7.07178ZM7.35955 9.03274V8.19952L15.0668 3.74961V4.58314L7.35955 9.03274ZM11.5724 1.12546L14.5385 2.83863L6.83311 7.28745L3.86639 5.57459L11.5724 1.12546ZM18.8473 38.558L2.55026 29.0704V27.3827L3.26893 27.703C3.43177 27.7758 3.62041 27.7611 3.76997 27.664C3.91961 27.5669 4.00986 27.4006 4.00971 27.2222V15.6951C4.00978 15.5196 3.92219 15.3555 3.7763 15.2579L2.24996 14.2347L3.72488 13.4736C3.89976 13.3831 4.00963 13.2027 4.00971 13.0058V8.01065C4.00978 7.82256 3.90937 7.6487 3.74653 7.55462L3.33988 7.31996V6.48635L6.30667 8.19928V9.05141C6.14789 9.00648 5.9773 9.0386 5.84572 9.13807C5.71413 9.23755 5.63684 9.39305 5.63684 9.558V11.8632C5.63684 12.0413 5.72694 12.2073 5.87627 12.3044C6.0256 12.4015 6.21384 12.4165 6.37669 12.3444L10.5331 10.5006L18.6963 23.8704L17.8156 23.362C17.6527 23.2679 17.452 23.268 17.2892 23.362C17.1264 23.4561 17.026 23.6298 17.026 23.8179V35.3449C17.026 35.3599 17.03 35.3741 17.0313 35.3889C17.0323 35.4021 17.0338 35.4148 17.0359 35.4281C17.0449 35.4879 17.0645 35.5458 17.0934 35.5989C17.095 35.6019 17.0947 35.6052 17.0964 35.6081C17.1024 35.6187 17.1114 35.6262 17.1181 35.6362C17.1335 35.66 17.1509 35.6825 17.17 35.7035C17.183 35.7168 17.1966 35.7295 17.2109 35.7414C17.2218 35.7508 17.2307 35.7621 17.2424 35.7706L18.8473 36.9401V38.558ZM19.9588 25.8152L19.9605 25.8158C20.0071 25.8417 20.0574 25.8604 20.1097 25.8711C20.1246 25.8744 20.1392 25.8749 20.1543 25.8769C20.1768 25.8813 20.1997 25.8842 20.2225 25.8857C20.2376 25.8857 20.2526 25.8812 20.2676 25.8799C20.2843 25.8785 20.3002 25.8766 20.3166 25.8736C20.3535 25.8665 20.3895 25.8555 20.424 25.8405C20.4388 25.8344 20.4538 25.8299 20.4681 25.8223C20.4737 25.8194 20.4797 25.8185 20.4853 25.8153L25.7824 22.7569V29.9853L18.0788 34.4331V24.73L19.9588 25.8152ZM27.6038 34.1138L19.9001 38.5616V36.9763L27.6038 32.529V34.1138ZM27.1681 31.5646L19.4071 36.045L18.5166 35.396L26.2779 30.915L27.1681 31.5646ZM20.4036 24.6464L11.4721 10.0183L19.3172 5.4888L28.2488 20.1169L20.4036 24.6464Z" fill="#071529"/>
<path d="M9.06908 15.0462C8.151 14.7882 7.16587 14.9469 6.37524 15.4801C4.77178 16.6098 4.59549 19.407 5.93874 22.2656L9.87409 31.46C9.94583 31.6278 10.0993 31.7464 10.2797 31.7736C10.3056 31.7773 10.3317 31.7791 10.3579 31.7792C10.5128 31.7792 10.6599 31.7109 10.7599 31.5926L14.668 26.9725C16.0622 25.5871 15.9892 22.6778 14.487 19.884C13.1345 17.3693 11.0586 15.5155 9.06908 15.0462ZM13.9138 26.2374C13.902 26.2492 13.8902 26.2615 13.8794 26.2744L10.5065 30.2622L6.89918 21.8347C5.8052 19.5064 5.84122 17.1444 6.99584 16.3312C7.33192 16.0982 7.73294 15.9773 8.1417 15.9857C8.37284 15.9875 8.60297 16.016 8.82747 16.0708C10.5065 16.4671 12.3639 18.1595 13.5596 20.3827C14.8068 22.7019 14.959 25.2189 13.9138 26.2374Z" fill="#071529"/>
<path d="M10.6215 18.5687C10.0308 18.1558 9.2615 18.0992 8.6166 18.4209C8.02077 18.8134 7.68758 19.5006 7.74829 20.2115C7.82885 21.8614 8.70341 23.3702 10.0951 24.2602C10.4567 24.4829 10.8705 24.6066 11.295 24.619C11.5773 24.6212 11.8552 24.5483 12.1001 24.4077C12.6959 24.0152 13.0291 23.3281 12.9684 22.6172C12.8876 20.9673 12.0131 19.4587 10.6215 18.5687ZM11.5737 23.4962C11.2518 23.6116 10.8932 23.5559 10.6216 23.3481C9.55719 22.6453 8.88345 21.4843 8.80125 20.2115C8.75741 19.8794 8.88634 19.5478 9.14311 19.3326C9.22891 19.2857 9.32557 19.2623 9.42333 19.2648C9.66205 19.2783 9.89335 19.3526 10.0953 19.4807C11.1594 20.1838 11.833 21.3444 11.9156 22.6171C11.9589 22.9493 11.8301 23.2806 11.5737 23.4962Z" fill="#071529"/>
</svg>
