<svg width="101" height="100" viewBox="0 0 101 100" fill="none" xmlns="http://www.w3.org/2000/svg">
<path d="M87.2372 46.9844C86.9622 42.682 85.8816 38.5957 84.035 34.6863C82.3847 31.1697 80.1451 28.0657 77.4537 25.276C74.6837 22.4078 71.9333 19.5199 69.1632 16.6516C67.3362 14.746 65.4895 12.8404 63.6625 10.9347C61.4818 8.65585 59.2815 6.35732 57.1008 4.07843C56.2168 3.15508 55.3327 2.23174 54.4291 1.3084C54.0558 0.915487 53.6039 0.660094 53.0735 0.54222C53.0342 0.54222 53.0146 0.50293 52.9753 0.50293C52.7002 0.50293 52.4448 0.50293 52.1698 0.50293C51.6787 0.640449 51.1875 0.836904 50.8535 1.21017C50.4213 1.68166 50.0284 2.1728 49.6355 2.66394C47.3173 5.5322 44.9795 8.4201 42.6613 11.2884C42.6417 11.308 42.622 11.3276 42.5828 11.3669C42.5435 11.308 42.5042 11.2687 42.4845 11.2098C42.2684 10.7972 42.0523 10.3847 41.8166 9.99175C41.4237 9.30415 40.8343 8.8916 40.0092 8.91124C39.4395 8.93089 38.968 9.18628 38.5751 9.59884C36.6694 11.5634 34.7638 13.5476 32.8778 15.5122C30.8543 17.6142 28.8112 19.7163 26.8073 21.8184C25.2357 23.4686 23.6248 25.0796 22.112 26.7887C18.1829 31.2679 15.629 36.4347 14.411 42.2695C14.0574 43.9786 13.8216 45.7074 13.743 47.4559C13.743 47.5148 13.7234 47.5541 13.7037 47.6131C13.7037 48.6346 13.7037 49.6562 13.7037 50.6778C13.7234 50.7367 13.743 50.7956 13.743 50.8546C13.8805 53.5657 14.2931 56.2375 15.0789 58.8503C17.456 66.7479 22.0138 73.0345 28.8505 77.6512C31.4437 79.3996 34.2923 80.6177 37.1016 81.9732C37.2784 82.0518 37.2981 82.1304 37.2981 82.3072C37.2981 86.8453 37.2981 91.3834 37.2981 95.9412C37.2981 98.004 38.7519 99.4971 40.7754 99.4971C47.337 99.4971 53.9183 99.4971 60.4799 99.4971C61.0889 99.4971 61.6783 99.3399 62.2087 99.0256C63.4071 98.3183 63.9179 97.2378 63.9179 95.9019C63.9179 91.462 63.9179 87.0025 63.9179 82.5626C63.9179 82.1697 64.0161 81.9732 64.3894 81.7964C65.8824 81.1284 67.3362 80.4016 68.79 79.6747C72.2083 77.9458 75.2534 75.7259 77.8662 72.9166C81.4221 69.1053 84.0742 64.744 85.6655 59.754C86.6282 56.7679 87.139 53.7032 87.2568 50.5795C87.2568 50.4224 87.2961 50.2849 87.2961 50.1277C87.2961 49.4597 87.2961 48.7721 87.2961 48.1042C87.2961 47.7309 87.2568 47.3577 87.2372 46.9844ZM62.7391 70.5788V88.024C62.7391 90.6762 62.7391 93.3087 62.7391 95.9609C62.7391 97.4146 61.7961 98.338 60.3424 98.338C53.8593 98.338 47.3566 98.338 40.8736 98.338C39.6556 98.338 38.7912 97.6307 38.5751 96.4716C38.5358 96.2752 38.5358 96.0787 38.5358 95.8823C38.5358 93.073 38.5358 90.244 38.5358 87.4347V67.0425C38.4572 66.8854 38.3786 66.7282 38.2607 66.5907C37.6124 65.687 36.9248 64.8029 36.3747 63.8403C35.3139 61.9543 34.8227 59.8915 34.8227 57.7305C34.8031 52.9174 34.8227 48.1042 34.8227 43.2714C34.8227 43.1928 34.8227 43.1142 34.8227 42.9963C36.0408 43.8215 37.357 44.0572 38.7519 43.9197C40.1663 43.7822 41.3254 43.1339 42.2488 42.0337C43.1721 43.4875 44.4491 44.3322 46.1583 44.5287C47.8478 44.7252 49.3212 44.234 50.5392 43.0356C50.6571 43.3696 50.775 43.7036 50.8928 44.0179C50.9911 44.3126 51.1875 44.5287 51.4233 44.7055C51.6001 44.8234 51.718 45.0198 51.7376 45.2556C51.9733 47.8292 53.879 49.833 56.4329 50.2456C56.649 50.2849 56.8651 50.2849 57.1598 50.3045C57.0616 50.3831 57.0026 50.4224 56.9437 50.4617C54.3308 52.328 52.6217 54.7837 51.993 57.9466C51.8358 58.7325 51.7965 59.5576 51.7769 60.363C51.7376 61.6989 51.7376 63.0545 51.7376 64.3904C51.7376 65.5495 51.7572 66.7086 51.7769 67.848C51.7769 68.0641 51.8555 68.2802 51.9144 68.4963C51.9537 68.6535 51.9733 68.791 51.993 68.9089C52.8181 69.2625 53.6825 69.1839 54.5273 69.1839C57.5331 69.1839 60.5388 69.1839 63.5643 69.1839C63.6428 69.1839 63.7411 69.1839 63.8589 69.1839C63.5839 69.5375 63.3481 69.8715 63.0731 70.1662C62.8963 70.3037 62.7981 70.4216 62.7391 70.5788ZM42.1113 39.0083C42.0916 40.8943 40.5593 42.5445 38.6929 42.741C37.6714 42.8392 36.6694 42.7606 35.7854 42.2105C34.587 41.4836 33.9387 40.4031 33.8994 39.0083C33.8601 37.5349 33.8798 36.0615 33.8994 34.6077C33.9387 32.5449 35.5693 30.8947 37.6321 30.8161C38.4965 30.7768 39.3609 30.8357 40.1074 31.2876C41.3647 32.0145 42.072 33.095 42.0916 34.588C42.1113 35.3149 42.0916 36.0418 42.0916 36.749C42.1113 37.4956 42.1113 38.2618 42.1113 39.0083ZM43.3293 34.7255C43.3096 34.3523 43.2704 33.979 43.1918 33.6058C43.1525 33.3307 42.9167 32.9771 43.0346 32.6824C43.624 31.2876 44.6848 30.4625 46.1779 30.2856C47.3173 30.1481 48.3782 30.3446 49.3015 31.0911C49.6945 31.4054 50.0284 31.818 50.2838 32.2502C50.5589 32.7021 50.4803 33.3897 50.5196 33.9201C50.5785 35.0202 50.5589 36.1007 50.5589 37.2009C50.5589 37.5152 50.5589 37.8492 50.5785 38.1635C50.5785 38.9101 50.5785 39.6566 50.4999 40.4031C50.3231 42.3873 48.3193 43.5071 46.4529 43.3893C45.0385 43.291 43.9579 42.6427 43.2311 41.4247C43.1918 41.3461 43.1525 41.2675 43.1132 41.1889C42.9757 40.9139 42.9757 40.6585 43.0542 40.3638C43.3686 39.2244 43.29 38.0457 43.3293 36.8669C43.3686 36.14 43.3882 35.4328 43.3293 34.7255ZM61.8354 40.6585C62.6605 40.6192 63.4857 40.6585 64.3108 40.6585C65.1359 40.6585 65.9807 40.6585 66.8058 40.6585C67.3362 40.6585 67.8666 40.6782 68.3971 40.6978C68.5542 40.6978 68.7114 40.7764 68.8686 40.8353C71.0885 41.7194 72.503 43.8018 72.503 46.1986C72.503 47.6523 72.5226 49.1061 72.4833 50.5599C72.4048 53.8211 71.6779 56.9251 70.3616 59.9112C69.4186 62.0722 68.1417 64.0171 66.6486 65.8442C66.1378 66.4532 65.6467 67.0818 65.1752 67.7105C65.018 67.9069 64.8609 67.9855 64.6055 67.9855C60.8335 67.9855 57.0419 67.9855 53.27 67.9855C53.1521 67.9855 53.0342 67.9659 52.877 67.9462C52.877 67.4551 52.877 66.9836 52.877 66.5318C52.877 64.9798 52.8378 63.4278 52.877 61.8954C52.8967 60.8149 52.9163 59.7344 53.0342 58.6539C53.27 56.6697 54.154 54.9605 55.4113 53.4282C56.3936 52.2298 57.6116 51.3457 58.9475 50.6188C59.0654 50.5599 59.1636 50.501 59.2815 50.442C59.6744 50.2259 59.8512 49.8919 59.7726 49.4401C59.753 49.3615 59.753 49.2633 59.753 49.1651C59.6744 49.1651 59.5958 49.1454 59.4976 49.1454C58.6332 49.1258 57.7492 49.1454 56.8847 49.1061C54.8613 49.0472 53.0146 47.2398 52.877 45.2163C52.8574 44.8627 52.8181 44.5091 53.0539 44.1751C53.1324 44.0572 53.1717 43.8804 53.211 43.7232C53.5843 42.1712 55.097 40.5603 57.3759 40.6192C58.0438 40.6389 58.6921 40.6389 59.3601 40.5996C60.1852 40.5799 61.0103 40.6978 61.8354 40.6585ZM60.362 33.979C60.4013 32.0341 61.9533 30.4035 63.8982 30.2464C65.8235 30.0892 67.6112 31.4054 68.0041 33.2914C68.0434 33.5272 68.0827 33.7629 68.0827 33.9987C68.0827 35.8453 68.0827 37.6724 68.0827 39.5191C65.5288 39.5191 62.9552 39.5191 60.362 39.5191C60.3424 39.3816 60.3424 39.303 60.3424 39.2047C60.3424 37.4563 60.3227 35.7078 60.362 33.979ZM59.3601 39.4601H59.144C58.9279 39.4601 58.7118 39.4601 58.476 39.4601H57.8081C57.6706 39.4601 57.5527 39.4601 57.4152 39.4798C56.9044 39.4994 56.3936 39.5191 55.9025 39.6369C53.9968 40.1281 52.7395 41.3461 52.1109 43.2321C52.0716 43.35 52.0323 43.4875 51.993 43.6054C51.9733 43.6054 51.9341 43.625 51.9144 43.625C51.8162 43.3107 51.6787 42.9963 51.659 42.6624C51.6001 42.073 51.5804 41.5033 51.6197 40.9139H51.6001C51.6001 39.3816 51.6001 37.8492 51.6001 36.3168C51.6001 35.0595 51.6001 33.7826 51.6001 32.5252C51.6001 32.4467 51.6001 32.3681 51.6197 32.2895C51.6983 31.9555 51.8162 31.6215 51.9537 31.3072C52.1305 30.9339 52.3859 30.5803 52.6806 30.2856C53.7611 29.1266 55.1363 28.7729 56.649 29.2248C57.3169 29.4212 57.9456 29.7945 58.4171 30.3249C58.6528 30.6 58.8493 30.8947 58.9868 31.2286C59.4976 32.3484 59.3601 33.4682 59.3601 34.647C59.3601 35.3739 59.3601 36.1007 59.3601 36.8473C59.3601 37.692 59.3601 38.5761 59.3601 39.4601ZM63.7214 73.447C63.7214 72.7791 63.7214 72.1111 63.7214 71.4432C63.7214 71.3056 63.7803 71.1288 63.8786 71.011C64.2518 70.5198 64.6251 70.068 64.9984 69.5768C65.2145 69.3018 65.4699 69.0464 65.7449 68.8107C66.0592 68.5553 66.3146 68.2016 66.57 67.8677C67.6505 66.4925 68.79 65.1566 69.7133 63.6635C71.5796 60.697 72.7977 57.4555 73.3674 53.9979C73.6031 52.5637 73.7014 51.11 73.7014 49.6562C73.7014 48.4971 73.721 47.338 73.7014 46.1986C73.6228 43.2124 72.2083 41.1104 69.5169 39.8334C69.34 39.7548 69.2811 39.6566 69.2811 39.4798C69.2811 37.692 69.2811 35.9043 69.2615 34.1362C69.2615 32.8003 68.8293 31.6412 67.9256 30.6589C66.0592 28.6354 62.8374 28.4979 60.7942 30.3446C60.5781 30.541 60.362 30.7178 60.1459 30.875C59.2422 29.0087 57.7491 27.8496 55.5292 27.8299C53.3289 27.8299 51.7769 28.9301 50.7946 30.8947C49.6355 29.4998 48.1228 28.9301 46.3351 29.048C44.5473 29.1658 43.1721 29.991 42.2488 31.4644C42.0327 31.2679 41.8166 31.0911 41.5808 30.875C40.4217 29.8142 39.0269 29.4998 37.4945 29.5784C35.864 29.6766 34.5477 30.3839 33.5851 31.7001C32.9957 32.5252 32.6617 33.4486 32.6617 34.4702C32.6421 36.0222 32.6421 37.5742 32.6617 39.1065C32.6814 39.9709 32.9368 40.7567 33.369 41.4836C33.4672 41.6408 33.5065 41.8373 33.5065 42.0141C33.5065 47.1416 33.5261 52.2691 33.5065 57.3769C33.5065 59.6558 33.9583 61.8365 34.9603 63.8993C35.4907 64.9798 36.1783 65.9424 36.9052 66.8854C37.0034 67.0229 37.1213 67.1408 37.1999 67.2783C37.2981 67.4748 37.416 67.6908 37.416 67.9069C37.4356 69.7929 37.4356 71.6789 37.416 73.5649C37.416 73.6042 37.416 73.6238 37.416 73.7024C37.0623 73.5452 36.748 73.3881 36.414 73.2309C33.6047 71.9147 31.0901 70.2251 28.9291 67.9855C25.2946 64.2332 22.8782 59.813 21.7781 54.6855C21.4441 53.0745 21.2673 51.4439 21.2476 49.7937C21.2084 46.6504 21.6013 43.5857 22.6228 40.5996C23.8605 36.9455 25.884 33.7433 28.4969 30.9339C29.8131 29.4998 31.1883 28.1246 32.5439 26.7101C34.5084 24.6474 36.4926 22.5846 38.4572 20.5414C38.5358 20.4432 38.6143 20.345 38.7322 20.2075C39.0269 20.7575 39.3019 21.2487 39.577 21.7398C39.8127 22.1524 40.0288 22.5649 40.2646 22.9775C40.6575 23.6454 41.2861 23.9205 41.9541 23.7044C42.2684 23.6061 42.5238 23.39 42.7203 23.1346C44.1937 21.3076 45.6868 19.4609 47.1602 17.6339C48.9086 15.4729 50.6374 13.3119 52.3859 11.1705C52.7199 10.7383 53.0539 10.7186 53.4271 11.1312C54.7434 12.5064 55.9614 13.803 57.1991 15.0996C58.8493 16.8284 60.4995 18.5376 62.1498 20.2664C64.6448 22.8596 67.1201 25.4332 69.6151 28.0264C70.8331 29.3034 72.0708 30.5607 73.2299 31.8966C76.4321 35.5507 78.4753 39.7941 79.32 44.6073C79.6147 46.2379 79.7719 47.8881 79.7326 49.558C79.5558 56.375 77.2769 62.3669 72.6405 67.3962C70.2241 70.0287 67.3755 72.0718 64.1143 73.5256C63.9964 73.5845 63.8786 73.6238 63.7214 73.7024C63.7411 73.5845 63.7214 73.5059 63.7214 73.447ZM83.0134 63.3099C81.4417 66.6496 79.3593 69.6554 76.8054 72.3272C74.0746 75.1955 70.8724 77.3958 67.2969 79.1049C66.1771 79.6354 65.0573 80.1855 63.9179 80.7355C63.8786 80.7552 63.8196 80.7748 63.7214 80.8141C63.7214 80.7159 63.7214 80.6373 63.7214 80.5784C63.7214 78.8692 63.7214 77.16 63.7214 75.4312C63.7214 75.1365 63.8393 74.9597 64.0947 74.8419C66.295 73.8596 68.3774 72.6808 70.283 71.1878C75.4105 67.1408 78.6717 61.9347 80.1844 55.5892C80.6363 53.7032 80.8917 51.8172 80.9113 49.8723C81.0095 43.0356 78.9664 36.9259 74.5854 31.6608C73.4853 30.3446 72.2869 29.1266 71.1082 27.8889C68.4167 25.0796 65.7253 22.2899 63.0338 19.4806C60.5978 16.8874 58.1224 14.3138 55.6667 11.7402C55.2149 11.2687 54.763 10.7776 54.2915 10.3061C53.4664 9.48096 52.2877 9.5399 51.5608 10.4436C48.3389 14.4317 45.117 18.4197 41.8952 22.3881C41.8559 22.4274 41.8166 22.4863 41.7773 22.5256C41.6398 22.6632 41.5219 22.6435 41.404 22.4863C41.3647 22.4274 41.3254 22.3488 41.2861 22.2899C40.8539 21.4844 40.4021 20.679 39.9699 19.8735C39.4788 18.9894 38.5358 18.8519 37.8482 19.5788C35.3728 22.172 32.8778 24.7652 30.4025 27.3585C28.988 28.8319 27.5146 30.2856 26.2376 31.8769C23.4479 35.3346 21.562 39.2244 20.6976 43.5857C20.1671 46.2182 20.0296 48.8704 20.2261 51.5618C20.5011 55.1373 21.4441 58.5164 23.055 61.6989C25.2161 65.9424 28.1825 69.4982 32.1509 72.17C33.7422 73.2505 35.4514 74.115 37.1999 74.9008C37.4749 75.0187 37.5731 75.1758 37.5731 75.4705C37.5535 77.16 37.5731 78.8692 37.5731 80.5587C37.5731 80.6373 37.5731 80.7355 37.5731 80.8338C37.5142 80.8141 37.4945 80.8141 37.4553 80.7945C35.6086 79.8908 33.7422 79.0264 31.9348 78.0637C29.3023 76.6492 26.9252 74.8615 24.7839 72.7791C22.2692 70.3037 20.2261 67.4944 18.6151 64.3707C17.0042 61.2471 15.9237 57.9663 15.3736 54.5087C14.2931 47.7113 15.2361 41.1889 18.1829 34.9613C19.676 31.818 21.6602 28.989 24.057 26.4744C26.2966 24.1366 28.5362 21.7987 30.7758 19.4609C33.31 16.8284 35.8247 14.2156 38.359 11.583C38.7322 11.1901 39.1055 10.7972 39.4788 10.4043C39.9699 9.89352 40.461 9.9721 40.8147 10.5811C41.3451 11.5241 41.8362 12.4671 42.347 13.4101C42.3667 13.4297 42.3667 13.4494 42.4059 13.4887C42.6613 13.1743 42.9167 12.86 43.1721 12.5457C45.9225 9.12734 48.6925 5.72866 51.4429 2.31032C51.5019 2.25139 51.5411 2.19245 51.6001 2.13351C52.2287 1.46556 52.9753 1.42627 53.6039 2.09422C54.3898 2.88005 55.1559 3.70516 55.9221 4.51063C57.8277 6.49483 59.7334 8.47904 61.6193 10.4632C63.7411 12.6832 65.8824 14.9031 68.0041 17.1231C69.5758 18.7733 71.1671 20.4039 72.7387 22.0541C74.4675 23.8615 76.216 25.61 77.8859 27.4763C81.54 31.5823 83.976 36.3365 85.253 41.6801C85.7834 43.9197 86.0781 46.1986 86.1174 48.5168C86.196 53.7032 85.2137 58.6342 83.0134 63.3099Z" fill="white"/>
</svg>
