<svg width="44" height="44" viewBox="0 0 44 44" fill="none" xmlns="http://www.w3.org/2000/svg">
<path fill-rule="evenodd" clip-rule="evenodd" d="M22.0505 0.508301C16.2001 0.508301 15.4659 0.533882 13.1681 0.63845C10.8748 0.743466 9.30939 1.10654 7.93969 1.63925C6.52286 2.18947 5.321 2.92548 4.12363 4.1233C2.92536 5.32067 2.18935 6.52253 1.63734 7.93891C1.10328 9.30906 0.739758 10.8749 0.636536 13.1673C0.533763 15.4651 0.506836 16.1998 0.506836 22.0502C0.506836 27.9006 0.532866 28.6326 0.636985 30.9304C0.74245 33.2237 1.10552 34.7891 1.63779 36.1588C2.18845 37.5756 2.92446 38.7775 4.12228 39.9748C5.3192 41.1731 6.52106 41.9109 7.93699 42.4611C9.3076 42.9938 10.8734 43.3569 13.1663 43.4619C15.4641 43.5665 16.1979 43.5921 22.0478 43.5921C27.8987 43.5921 28.6307 43.5665 30.9285 43.4619C33.2218 43.3569 34.789 42.9938 36.1596 42.4611C37.5759 41.9109 38.776 41.1731 39.9729 39.9748C41.1712 38.7775 41.9072 37.5756 42.4592 36.1592C42.9888 34.7891 43.3523 33.2233 43.46 30.9308C43.5632 28.633 43.5902 27.9006 43.5902 22.0502C43.5902 16.1998 43.5632 15.4656 43.46 13.1678C43.3523 10.8744 42.9888 9.30906 42.4592 7.93936C41.9072 6.52253 41.1712 5.32067 39.9729 4.1233C38.7747 2.92503 37.5764 2.18902 36.1582 1.63925C34.7849 1.10654 33.2186 0.743466 30.9253 0.63845C28.6275 0.533882 27.896 0.508301 22.0438 0.508301H22.0505ZM20.1179 4.39027C20.6915 4.38937 21.3315 4.39027 22.0504 4.39027C27.8021 4.39027 28.4838 4.41091 30.7551 4.51413C32.8555 4.61018 33.9954 4.96113 34.7548 5.25598C35.76 5.64643 36.4768 6.11317 37.2303 6.86714C37.9842 7.6211 38.451 8.33917 38.8423 9.34445C39.1372 10.1029 39.4886 11.2428 39.5842 13.3432C39.6874 15.614 39.7098 16.2962 39.7098 22.0452C39.7098 27.7942 39.6874 28.4763 39.5842 30.7472C39.4881 32.8476 39.1372 33.9875 38.8423 34.7459C38.4519 35.7512 37.9842 36.467 37.2303 37.2206C36.4763 37.9745 35.7605 38.4413 34.7548 38.8317C33.9963 39.1279 32.8555 39.478 30.7551 39.574C28.4843 39.6772 27.8021 39.6997 22.0504 39.6997C16.2983 39.6997 15.6166 39.6772 13.3457 39.574C11.2454 39.4771 10.1055 39.1261 9.34565 38.8313C8.34036 38.4408 7.6223 37.9741 6.86833 37.2201C6.11437 36.4661 5.64763 35.7499 5.25628 34.7441C4.96143 33.9857 4.61002 32.8458 4.51443 30.7454C4.41121 28.4746 4.39057 27.7924 4.39057 22.0398C4.39057 16.2872 4.41121 15.6087 4.51443 13.3378C4.61047 11.2374 4.96143 10.0975 5.25628 9.33817C5.64673 8.33288 6.11437 7.61482 6.86833 6.86085C7.6223 6.10689 8.34036 5.64015 9.34565 5.2488C10.105 4.9526 11.2454 4.60255 13.3457 4.50606C15.3329 4.4163 16.1031 4.38937 20.1179 4.38488V4.39027ZM33.5493 7.96713C32.1222 7.96713 30.9643 9.12366 30.9643 10.5513C30.9643 11.9784 32.1222 13.1363 33.5493 13.1363C34.9765 13.1363 36.1343 11.9784 36.1343 10.5513C36.1343 9.12411 34.9765 7.96713 33.5493 7.96713ZM22.0506 10.9875C15.9412 10.9875 10.9879 15.9408 10.9879 22.0501C10.9879 28.1595 15.9412 33.1105 22.0506 33.1105C28.1599 33.1105 33.1114 28.1595 33.1114 22.0501C33.1114 15.9408 28.1599 10.9875 22.0506 10.9875ZM22.0505 14.8695C26.016 14.8695 29.2311 18.0842 29.2311 22.0501C29.2311 26.0156 26.016 29.2308 22.0505 29.2308C18.0845 29.2308 14.8698 26.0156 14.8698 22.0501C14.8698 18.0842 18.0845 14.8695 22.0505 14.8695Z" fill="#071529"/>
</svg>
