<svg width="70" height="70" viewBox="0 0 70 70" fill="none" xmlns="http://www.w3.org/2000/svg">
<g clip-path="url(#clip0)">
<path d="M50.3789 41.4674L44.8047 37.2867C45.6246 35.3414 46.8048 33.5589 48.2953 32.0669C51.839 28.519 53.7908 23.8036 53.7908 18.7893C53.7908 13.7205 51.8028 8.96838 48.1929 5.40905C44.5838 1.85053 39.7967 -0.0676311 34.7302 0.00182203C29.8155 0.0712752 25.1857 2.04358 21.6934 5.55602C18.2013 9.06833 16.2548 13.7092 16.2126 18.6244C16.1692 23.6641 18.0955 28.4129 21.6368 31.9956C23.1716 33.5486 24.3699 35.3427 25.1968 37.2876L19.6237 41.4674C15.6418 44.4539 13.2646 49.2083 13.2646 54.1857V68.8948C13.2646 69.5054 13.7593 70 14.3699 70H55.6331C56.2437 70 56.7383 69.5054 56.7383 68.8948V54.1857C56.7379 49.2084 54.3605 44.4539 50.3789 41.4674ZM23.2086 30.4417C20.0843 27.2806 18.3846 23.0905 18.4228 18.6434C18.4996 9.7094 25.829 2.33835 34.7609 2.21215C39.2594 2.14489 43.4874 3.8562 46.6761 7.01864C49.7293 10.0467 51.4963 14.1698 51.5768 18.4692C51.662 23.0127 49.933 27.2988 46.7307 30.5047C43.5133 33.7257 41.5665 38.1332 41.2962 42.737H39.0532V25.7893H42.2762C45.2824 25.7893 47.8087 23.4261 47.8932 20.421C47.9822 17.249 45.3829 14.6497 42.2109 14.7387C39.2059 14.8231 36.8426 17.3494 36.8426 20.3557V23.5787H33.1585V20.3557C33.1585 17.3495 30.7953 14.8232 27.7902 14.7387C24.6182 14.6497 22.0189 17.249 22.1079 20.421C22.1922 23.426 24.7185 25.7893 27.7248 25.7893H30.9479V31.8752C30.9479 32.4856 31.4428 32.9804 32.0531 32.9804C32.6634 32.9804 33.1583 32.4855 33.1583 31.8752V25.7893H36.8425V42.7367H33.1583V37.2592C33.1583 36.6487 32.6634 36.154 32.0531 36.154C31.4428 36.154 30.9479 36.6489 30.9479 37.2592V42.7367H28.7057C28.4406 38.1149 26.5123 33.7843 23.2086 30.4417ZM39.7905 44.9474V45.3159C39.7905 47.9569 37.642 50.1054 35.001 50.1054C32.36 50.1054 30.2115 47.9569 30.2115 45.3159V44.9474H39.7905ZM39.0536 23.579V20.2631C39.0536 18.4349 40.5411 16.9473 42.3695 16.9473C44.1977 16.9473 45.6853 18.4348 45.6853 20.2631C45.6853 22.0915 44.1978 23.579 42.3695 23.579H39.0536ZM30.9484 20.2631V23.579H27.6326C25.8044 23.579 24.3167 22.0915 24.3167 20.2631C24.3167 18.4349 25.8042 16.9473 27.6326 16.9473C29.4609 16.9473 30.9484 18.4348 30.9484 20.2631ZM47.8958 67.7896V60.0527C47.8958 59.4421 47.401 58.9474 46.7906 58.9474C46.18 58.9474 45.6853 59.4422 45.6853 60.0527V67.7896H24.3169V60.0527C24.3169 59.4421 23.8222 58.9474 23.2116 58.9474C22.601 58.9474 22.1064 59.4422 22.1064 60.0527V67.7896H15.4748V54.1857C15.4748 49.9005 17.5217 45.8071 20.9497 43.2358L25.9539 39.4826C26.3317 40.8895 26.5275 42.3521 26.5275 43.8419C26.5275 44.4525 27.0221 44.9472 27.6327 44.9472H28.0012V45.3156C28.0012 49.1753 31.1414 52.3156 35.0012 52.3156C38.8609 52.3156 42.0012 49.1753 42.0012 45.3156V44.9472H42.3696C42.9802 44.9472 43.4748 44.4525 43.4748 43.8419C43.4748 42.3615 43.6732 40.8955 44.0508 39.4846L49.0524 43.2358C52.4806 45.807 54.5273 49.9005 54.5273 54.1857V67.7896H47.8958Z" fill="#071529"/>
</g>
<defs>
<clipPath id="clip0">
<rect width="70" height="70" fill="white"/>
</clipPath>
</defs>
</svg>
