<svg width="60" height="30" viewBox="0 0 60 30" fill="none" xmlns="http://www.w3.org/2000/svg">
<path d="M33.6353 10.4571C33.3333 10.2121 35.0986 7.8113 35.2166 7.63389C36.1393 6.25005 37.2213 4.98404 38.5053 3.92356C40.9799 1.8796 43.9819 0.867326 47.1766 1.12977C52.9046 1.59975 57.8612 5.79144 59.4425 11.3161C60.4699 14.9046 60.0652 18.8298 58.3285 22.1291C55.9785 26.5946 51.3852 29.604 46.3606 29.9682C42.7999 30.2259 39.4553 28.9003 36.7153 26.6635C34.2326 24.637 32.3106 21.9302 30.274 19.4752C28.9766 17.9113 27.696 16.3433 26.4493 14.7392C25.3953 13.3828 24.3433 12.0251 23.2913 10.6667C22.3773 9.48637 21.5007 8.28396 20.4007 7.26701C18.2434 5.27259 15.6294 4.22349 12.7034 4.62987C10.6747 4.91173 8.76139 5.82157 7.2234 7.17261C5.03474 9.09606 3.70475 11.9012 3.57608 14.8169C3.40875 18.6162 5.22008 22.2569 8.30273 24.4663C10.3394 25.9258 12.97 26.7486 15.4787 26.5537C19.0914 26.2732 21.8627 23.8517 24.264 21.3558C24.416 21.1978 26.154 19.3085 26.354 19.5609C26.4647 19.7001 26.08 20.2685 26.028 20.3623C25.6427 21.0519 25.1967 21.7086 24.7593 22.3654C22.8673 25.2027 20.168 27.6443 16.8234 28.5502C11.0301 30.1188 4.72474 26.8704 1.83609 21.7789C-2.29856 14.4915 0.848092 5.06906 8.28673 1.45715C11.5187 -0.112142 15.354 -0.503795 18.758 0.725393C21.934 1.87223 24.398 4.13378 26.522 6.69392C29.9793 10.8622 33.3693 15.0499 36.6853 19.3319C38.6846 21.9142 40.8733 24.629 44.2479 25.3239C46.4112 25.7691 48.7646 25.267 50.6972 24.2507C53.4086 22.8247 55.4259 20.1862 56.1232 17.1962C56.8945 13.8883 56.0825 10.3668 53.9766 7.71222C52.5872 5.96082 50.6632 4.63657 48.5366 3.96507C45.3946 2.97422 42.2613 3.47299 39.5086 5.2833C38.1513 6.1764 36.9959 7.29445 35.8806 8.46807C35.7446 8.61068 33.9213 10.6895 33.6353 10.4571C33.7766 10.5716 33.494 10.3433 33.6353 10.4571Z" fill="white"/>
</svg>
