<svg width="55" height="49" viewBox="0 0 55 49" fill="none" xmlns="http://www.w3.org/2000/svg">
<path d="M39.8249 1.66401L38.7787 2.70697L36.4744 0.404302L34.3004 2.5766L31.9929 0.269043L0 32.2668L16.3289 48.5957L18.5028 46.425L20.8104 48.7326L23.0087 46.5326L24.1609 47.6847L55 16.8391L39.8249 1.66401ZM16.3273 46.2882L2.30593 32.2668L31.9945 2.57334L33.1499 3.72875L4.48148 32.4004L17.349 45.268L16.3273 46.2882ZM8.98089 32.5064L21.8517 45.3756L20.8071 46.4218L6.78415 32.4004L36.4744 2.7086L37.6265 3.85912L8.98089 32.5064ZM37.1881 29.8713C34.3167 32.7443 29.6641 32.7443 26.7927 29.8713C23.9213 26.9999 23.9213 22.3489 26.7927 19.4775C29.6641 16.6045 34.3184 16.6061 37.1881 19.4775C40.0596 22.3489 40.0596 26.9999 37.1881 29.8713ZM30.1351 22.0164L31.9212 23.8025L32.1982 23.545C33.1434 22.6976 33.9044 22.2495 34.4797 22.199C35.0566 22.1484 35.6954 22.4727 36.3961 23.1735C37.1507 23.9264 37.5076 24.6271 37.4684 25.2741C37.4277 25.9194 36.9844 26.6658 36.1321 27.5213L35.891 27.7707L36.6895 28.5692L35.8779 29.384L35.0794 28.5855L34.8464 28.8104C33.9973 29.6594 33.2542 30.1124 32.6187 30.1662C31.9831 30.2184 31.3036 29.8859 30.5849 29.1705L30.347 28.9228L31.548 27.7201L31.6719 27.8407C32.1135 28.2824 32.4638 28.4926 32.7311 28.4812C32.9984 28.4714 33.3764 28.2221 33.8604 27.7364L34.0446 27.5637L32.1086 25.6277C31.1601 26.5762 30.3779 27.0879 29.7538 27.1563C29.1329 27.2296 28.4452 26.889 27.6923 26.1345C26.9639 25.4061 26.6379 24.7347 26.7129 24.1138C26.7927 23.4962 27.3044 22.7139 28.2496 21.7704L27.5554 21.0762L28.3686 20.2646L29.0628 20.9588C29.9673 20.056 30.712 19.5671 31.3036 19.4938C31.8919 19.4188 32.5388 19.7333 33.2396 20.4341L33.4041 20.597L32.239 21.7622L32.1053 21.6384C31.5773 21.1104 30.9841 21.1756 30.3176 21.8372L30.1351 22.0164ZM29.317 22.8247L29.1476 23.0024C28.4321 23.7162 28.3621 24.3566 28.9194 24.9221C29.5093 25.512 30.1693 25.455 30.8717 24.7461C30.8799 24.7363 30.9418 24.6809 31.0591 24.5766L29.317 22.8247ZM34.8594 26.7391L35.0338 26.5696C35.8078 25.7907 35.8616 25.0769 35.1967 24.4136C34.8333 24.0486 34.509 23.897 34.219 23.9524C33.9321 24.0095 33.515 24.3093 32.9707 24.8553L34.8594 26.7391Z" fill="black"/>
</svg>
