<svg width="101" height="100" viewBox="0 0 101 100" fill="none" xmlns="http://www.w3.org/2000/svg">
<path d="M96.5784 25.5273C96.3831 24.6289 95.7385 24.043 94.8401 23.9258C94.6252 23.9062 94.4104 23.8867 94.1956 23.8867C88.8049 23.8867 83.4143 23.8867 78.0237 23.8867C77.7307 23.8867 77.4182 23.9258 77.1252 24.0039C76.2073 24.2578 75.6799 25.0391 75.6799 26.0938C75.6799 28.1641 75.6799 30.2539 75.6799 32.3242C75.6799 32.4219 75.6799 32.5195 75.6799 32.5781C73.5315 32.5 71.3831 32.5586 69.2346 32.5391C69.1956 32.5391 69.137 32.5391 69.0588 32.5195C69.0979 32.4414 69.137 32.3633 69.176 32.3047C70.4651 30.1367 71.3245 27.8125 71.7151 25.332C72.0276 23.3398 72.0276 21.3477 71.7737 19.3555C71.4612 16.9922 70.8362 14.7266 69.8206 12.5781C68.2776 9.35547 65.9924 6.77734 63.0432 4.76563C60.719 3.18359 58.219 1.99219 55.4456 1.42578C54.5081 1.23047 53.5315 1.15234 52.5745 1.01562C52.5159 1.01562 52.4377 0.996094 52.3792 0.976562C51.5784 0.976562 50.7776 0.976562 49.9963 0.976562C49.9182 0.996094 49.8596 1.01562 49.7815 1.01562C47.8674 1.15234 46.012 1.50391 44.1956 2.12891C40.2698 3.47656 37.0667 5.82031 34.5276 9.08203C31.7346 12.5977 30.3088 16.6406 30.1135 21.1133C30.0159 23.3789 30.2893 25.5859 30.9338 27.7539C30.9534 27.8125 30.9534 27.8906 30.9729 27.9492C30.6799 27.9688 30.426 27.9687 30.1526 28.0078C28.2776 28.2812 26.8713 29.6289 26.4807 31.4648C26.4417 31.6016 26.4026 31.6797 26.2463 31.6602C25.9338 31.6406 25.6018 31.6602 25.2893 31.6602C23.8635 31.6602 22.6331 32.1484 21.6565 33.1641C19.9377 34.9414 18.2581 36.7383 16.5393 38.5156C15.4651 39.6289 14.5667 40.8594 13.9807 42.3242C13.3752 43.7891 13.1995 45.332 13.1995 46.9141C13.1995 48.2031 13.1995 49.4922 13.1995 50.7812C13.1995 50.918 13.1604 51.0547 13.1213 51.1914C10.4846 57.3438 7.86743 63.5156 5.23071 69.668C5.23071 69.8633 5.23071 70.0781 5.23071 70.2734C5.44556 70.9375 5.89477 71.3086 6.53931 71.3477C6.51977 71.9727 6.50024 72.5586 6.50024 73.1641C6.50024 81.3672 6.50024 89.5703 6.50024 97.7734C6.50024 98.6328 6.96899 99.1016 7.82837 99.1016C13.9221 99.1016 20.0159 99.1016 26.1096 99.1016C26.2854 99.1016 26.4807 99.0625 26.6565 99.043C26.7151 99.043 26.7542 99.0234 26.8127 99.0234C27.1252 99.043 27.4377 99.1016 27.7307 99.1016C32.2424 99.1016 36.7541 99.1016 41.2659 99.1016C41.3831 99.1016 41.5002 99.1016 41.6174 99.082C41.8127 99.0234 41.9885 99.0625 42.1448 99.1602C59.9768 99.1602 77.8088 99.1602 95.6213 99.1602C95.7971 99.082 96.012 99.0039 96.1682 98.8867C96.4417 98.7109 96.5393 98.418 96.637 98.125C96.637 74.043 96.637 49.9609 96.637 25.8984C96.637 25.7617 96.5979 25.6445 96.5784 25.5273ZM31.344 20.2148C31.637 16.9336 32.6135 13.9062 34.4299 11.1719C37.5354 6.50391 41.8323 3.53516 47.3792 2.5C51.5979 1.69922 55.6604 2.1875 59.5276 4.10156C63.3167 5.97656 66.344 8.63281 68.3557 12.3828C69.5081 14.5312 70.1917 16.8359 70.5432 19.2578C70.7776 20.918 70.8167 22.5781 70.6409 24.2383C70.3479 26.9141 69.508 29.3945 68.1409 31.6992C68.0432 31.875 67.926 32.0508 67.8284 32.2266C67.6721 32.4805 67.5354 32.7148 67.262 32.8711C67.1448 32.9492 67.0471 33.0664 66.9495 33.1836C65.719 34.8828 64.2542 36.4062 62.5549 37.6367C61.5784 38.3398 60.5237 38.9453 59.4495 39.4531C58.9026 39.707 58.3362 39.9609 57.7893 40.1758C57.2424 40.3906 56.7346 40.6641 56.1877 40.8594C55.387 41.1523 54.5471 41.3086 53.7073 41.4453C52.4768 41.6211 51.2268 41.6797 49.9963 41.6211C47.7307 41.5039 45.4846 40.9766 43.3752 40.0977C43.3362 40.0781 43.2971 40.0586 43.2776 40.0586C43.2581 40.0586 43.2581 40.0391 43.2385 40.0195C43.551 39.5898 43.8049 39.1211 43.9221 38.5938C44.469 36.2695 42.7502 34.1016 40.3674 34.1016C38.844 34.1016 37.3401 34.1211 35.8166 34.1406C35.6018 34.1406 35.4651 34.082 35.3479 33.9258C35.1135 33.6523 34.9963 33.3789 35.0549 32.9883C35.3479 30.9766 34.3323 29.1992 32.4963 28.3398C32.3987 28.3008 32.301 28.1836 32.262 28.0859C31.4416 25.5078 31.1096 22.8906 31.344 20.2148ZM38.4729 59.043C38.4729 59.1406 38.4729 59.2383 38.4729 59.3555C35.387 59.3555 32.3401 59.3555 29.2542 59.3555C29.4299 58.8867 29.5862 58.418 29.7424 57.9687C30.719 55.2539 31.676 52.5391 32.6526 49.8242C33.2385 48.2227 32.6331 46.6797 31.5784 45.8984C30.9729 45.4492 30.2893 45.2344 29.5471 45.2344C28.4729 45.2344 27.3987 45.2344 26.3049 45.2344C26.2268 45.2344 26.1291 45.1953 26.051 45.1758C26.0901 45.0977 26.1292 45.0195 26.1682 44.9609C27.1448 43.8672 28.1213 42.7539 29.0784 41.6602C29.2541 41.4648 29.469 41.4258 29.7034 41.4062C30.1721 41.4062 30.6409 41.4062 31.1096 41.4062C34.1565 41.4062 37.1838 41.4062 40.2307 41.4062C40.9143 41.4062 41.5393 41.25 42.1448 40.9375C42.2034 40.8984 42.301 40.8789 42.3792 40.918C43.1995 41.2305 43.9807 41.6016 44.801 41.875C47.3401 42.6953 49.9768 42.9883 52.6331 42.7539C53.7463 42.6562 54.8401 42.4219 55.9338 42.2461C55.9729 42.2461 56.0315 42.2266 56.0901 42.2266C56.0901 44.1016 56.0901 45.957 56.0901 47.832C55.9924 47.832 55.8948 47.832 55.7971 47.832C50.7581 47.832 45.719 47.832 40.6799 47.832C39.8206 47.832 39.137 48.1445 38.7268 48.9062C38.5315 49.2773 38.4729 49.668 38.4729 50.0781C38.4729 53.0664 38.4729 56.0547 38.4729 59.043ZM30.7776 29.1602C32.5159 29.1602 33.9417 30.6055 33.9417 32.3828C33.9417 34.1016 32.5159 35.5078 30.7385 35.5078C28.9612 35.5078 27.5745 34.1211 27.5745 32.3438C27.5745 30.5859 29.0198 29.1602 30.7776 29.1602ZM6.81274 70.1758C6.38306 70.1758 6.30493 70.0781 6.48071 69.668C8.00415 66.1133 9.52759 62.5586 11.051 59.0039C12.1057 56.5234 13.1799 54.0625 14.2151 51.582C14.3127 51.3672 14.3518 51.0938 14.3713 50.8594C14.3909 49.6289 14.3713 48.3984 14.3713 47.1484C14.3713 45.8984 14.4495 44.6484 14.8401 43.457C15.3479 41.8945 16.2268 40.5664 17.3596 39.3945C19.0588 37.6367 20.7385 35.8398 22.4377 34.0625C23.1995 33.2617 24.1565 32.8516 25.2698 32.8516C25.6604 32.8516 26.0315 32.8516 26.4416 32.8516C26.5393 33.5742 26.7737 34.2188 27.1643 34.8047C28.6877 37.0117 31.8518 37.3242 33.8049 35.4492C33.9221 35.332 34.0393 35.293 34.1956 35.293C35.5627 35.293 36.9104 35.293 38.2776 35.293C39.0979 35.293 39.8987 35.2344 40.719 35.3125C41.7542 35.4102 42.4377 36.0352 42.7502 37.0117C43.0627 37.9883 42.8088 38.8477 42.0667 39.5508C41.5588 40.0391 40.9338 40.2344 40.2502 40.2344C36.7932 40.2344 33.3362 40.2344 29.8596 40.2344C29.137 40.2344 28.551 40.4688 28.0823 41.0352C27.1643 42.1094 26.2073 43.1641 25.2698 44.2383C24.9573 44.5898 24.801 44.9805 24.9182 45.4492C25.0745 46.0742 25.5432 46.4453 26.1877 46.4453C27.301 46.4453 28.4143 46.4453 29.5081 46.4453C30.7385 46.4453 31.637 47.2656 31.7151 48.4961C31.7346 48.7891 31.676 49.082 31.5784 49.3555C30.4065 52.6562 29.2346 55.957 28.0432 59.2773C27.9651 59.5117 27.8088 59.6094 27.5549 59.6094C26.5002 59.6094 25.426 59.6094 24.3713 59.6094C23.9417 59.6094 23.8635 59.5117 24.0002 59.1016C24.6057 57.1484 25.2307 55.1953 25.8362 53.2227C26.1487 52.2461 25.6995 51.2891 24.7815 51.0547C24.6838 51.0352 24.5862 51.0156 24.4885 51.0156C23.4534 51.0156 22.4182 51.0156 21.3635 51.0156C20.6995 51.0156 20.2502 51.3477 19.9573 51.9336C17.7307 56.4453 15.4846 60.957 13.2581 65.4492C12.5354 66.9141 11.8127 68.3789 11.0901 69.8633C10.9924 70.0781 10.8362 70.1758 10.6018 70.1758C9.31274 70.1758 8.06274 70.1758 6.81274 70.1758ZM23.7854 55.6445C23.4729 56.6797 23.1409 57.6953 22.8284 58.7305C22.7502 58.9844 22.7502 59.2578 22.7112 59.5117C22.6917 59.5898 22.6526 59.6875 22.594 59.7266C21.9299 60.1953 21.637 60.8203 21.637 61.6211C21.637 64.2773 21.637 66.9531 21.637 69.6094C21.637 69.707 21.637 69.8047 21.637 69.9219C18.5315 69.9219 15.4651 69.9219 12.3401 69.9219C12.3791 69.8438 12.3987 69.7852 12.4182 69.707C13.8049 66.9141 15.1721 64.1211 16.5588 61.3477C18.0042 58.418 19.469 55.4883 20.9143 52.5391C21.051 52.2852 21.2073 52.1875 21.5002 52.1875C22.3792 52.207 23.2581 52.1875 24.1565 52.1875C24.6448 52.1875 24.801 52.4023 24.6448 52.8711C24.3713 53.7891 24.0784 54.707 23.7854 55.6445ZM25.9143 97.9102C19.9377 97.9102 13.9612 97.9102 7.98462 97.9102C7.88696 97.9102 7.78931 97.9102 7.65259 97.9102C7.65259 97.793 7.65259 97.7148 7.65259 97.6367C7.65259 89.6875 7.65259 81.7578 7.65259 73.8086V71.1328H11.9104C11.9104 71.1328 11.9104 71.1328 11.9299 71.1328C16.3049 71.1328 20.6799 71.1328 25.0549 71.1328C25.1526 71.1328 25.2502 71.1328 25.3284 71.1328C25.8557 71.1719 26.1682 71.4453 26.2268 71.9727C26.2463 72.0898 26.2463 72.207 26.2463 72.3242C26.2463 80.7422 26.2463 89.1602 26.2463 97.5977C26.2463 97.9297 26.3049 97.9102 25.9143 97.9102ZM41.4417 97.4219C41.4417 97.5781 41.4221 97.7344 41.4221 97.8906C36.7542 97.8906 32.1057 97.8906 27.4377 97.8906C27.4377 97.793 27.4377 97.6953 27.4377 97.5977C27.4377 89.1211 27.4377 80.6641 27.4377 72.1875C27.4377 71.4453 27.2229 70.8008 26.5979 70.3516C26.2659 70.0977 25.8752 69.9609 25.4456 69.9609C24.6643 69.9414 23.9026 69.9609 23.1213 69.9414C23.0432 69.9414 22.9456 69.9414 22.8479 69.9414C22.8479 69.8438 22.8284 69.7656 22.8284 69.6875C22.8284 67.0117 22.8284 64.3359 22.8284 61.6797C22.8284 61.6797 22.8284 61.6797 22.8284 61.6602V60.5664H29.2737C32.9651 60.5664 36.676 60.5664 40.3674 60.5664C41.1292 60.5664 41.4221 60.8594 41.4221 61.6211C41.4417 73.5547 41.4417 85.4883 41.4417 97.4219ZM58.2385 97.9492C53.0237 97.9492 47.8284 97.9492 42.6135 97.9492C42.6135 97.8125 42.6135 97.6758 42.6135 97.5586C42.6135 85.5469 42.6135 73.5352 42.6135 61.5039C42.6135 60.2148 41.7737 59.375 40.4846 59.3555C40.2112 59.3555 39.9573 59.3555 39.6643 59.3555C39.6643 59.2578 39.6448 59.1797 39.6448 59.1016C39.6448 56.0938 39.6448 53.0664 39.6448 50.0586C39.6448 49.2969 39.9573 48.9844 40.7385 48.9844C46.2073 48.9844 51.676 48.9844 57.1448 48.9844C57.9065 48.9844 58.2385 49.3164 58.2385 50.0781C58.2385 65.9375 58.2385 81.7773 58.2385 97.6367C58.2385 97.7539 58.2385 97.8516 58.2385 97.9492ZM75.8948 97.5781C75.8948 97.6953 75.8948 97.793 75.8948 97.9297C70.4065 97.9297 64.9377 97.9297 59.4495 97.9297C59.4495 97.8125 59.4495 97.6953 59.4495 97.5977C59.4495 81.7383 59.4495 65.8789 59.4495 50.0195C59.4495 48.9453 58.8635 48.125 57.9065 47.8906C57.7112 47.8516 57.5159 47.832 57.301 47.793C57.301 47.7148 57.301 47.6367 57.301 47.5391C57.301 45.6836 57.301 43.8281 57.301 41.9922C57.301 41.6406 57.3206 41.6211 57.6526 41.5039C60.6213 40.5078 63.219 38.9258 65.4651 36.7578C66.3635 35.8984 67.1838 34.9609 67.887 33.9453C68.0041 33.7891 68.1409 33.7109 68.3362 33.7109C70.5237 33.7109 72.7112 33.7109 74.8987 33.7109C75.5627 33.7109 75.8948 34.0625 75.8948 34.7266C75.8948 48.0859 75.8948 61.4648 75.8948 74.8242C75.8948 82.4023 75.8948 90 75.8948 97.5781ZM95.4456 97.9297C89.3128 97.9297 83.1995 97.9297 77.0667 97.9297C77.0667 97.9297 77.0667 97.9102 77.0667 97.8906H76.8518V31.7773C76.8518 29.9023 76.8518 28.0078 76.8518 26.1328C76.8518 25.4102 77.1643 25.0977 77.887 25.0781C77.9456 25.0781 78.0042 25.0781 78.0823 25.0781C83.4338 25.0781 88.8049 25.0781 94.1565 25.0781C94.3127 25.0781 94.469 25.0781 94.6252 25.0977C95.1331 25.1367 95.4065 25.4492 95.4456 25.957C95.4456 26.0352 95.4456 26.1328 95.4456 26.2109C95.4456 50.0195 95.4456 73.8086 95.4456 97.6172C95.4456 97.7148 95.4456 97.8125 95.4456 97.9297Z" fill="white"/>
</svg>
