<svg width="26" height="40" viewBox="0 0 26 40" fill="none" xmlns="http://www.w3.org/2000/svg">
<path d="M16.8262 32.3865C16.8266 32.5751 16.9279 32.749 17.0918 32.8424L17.3854 33.0115C17.637 33.155 17.9574 33.0681 18.1021 32.817C18.2467 32.5659 18.1611 32.2452 17.9108 32.0995L17.6172 31.9304C17.4542 31.8355 17.253 31.8351 17.0896 31.9294C16.9261 32.0235 16.8257 32.198 16.8262 32.3865Z" fill="#F96C05"/>
<path d="M16.4445 31.2528L16.1509 31.0832C15.8991 30.938 15.5773 31.0244 15.432 31.2761C15.2866 31.5279 15.3728 31.8498 15.6245 31.9952L15.9181 32.1649C16.1699 32.31 16.4917 32.2237 16.6371 31.9719C16.7824 31.7201 16.6962 31.3983 16.4445 31.2528Z" fill="#F96C05"/>
<path d="M14.9771 30.4056L14.6835 30.2365C14.5205 30.1417 14.3193 30.1413 14.1559 30.2355C13.9926 30.3297 13.8921 30.5041 13.8926 30.6926C13.893 30.8812 13.9943 31.0551 14.1582 31.1485L14.4518 31.3176C14.7034 31.4612 15.0238 31.3742 15.1685 31.1231C15.3131 30.8721 15.2275 30.5514 14.9771 30.4056Z" fill="#F96C05"/>
<path d="M13.5109 29.5594L13.2179 29.3898C12.9663 29.2441 12.6443 29.3299 12.4987 29.5815C12.353 29.833 12.4389 30.1551 12.6904 30.3007L12.9835 30.4704C13.0633 30.5169 13.1542 30.5415 13.2466 30.5413C13.4848 30.5415 13.6934 30.3817 13.7553 30.1517C13.8173 29.9217 13.717 29.6788 13.5109 29.5594Z" fill="#F96C05"/>
<path d="M12.0435 28.7116L11.7499 28.5425C11.5869 28.4477 11.3857 28.4473 11.2223 28.5415C11.059 28.6357 10.9585 28.8101 10.959 28.9986C10.9595 29.1872 11.0607 29.3611 11.2246 29.4545L11.5182 29.6236C11.6812 29.7185 11.8824 29.7189 12.0458 29.6246C12.2091 29.5305 12.3096 29.3561 12.3091 29.1675C12.3086 28.979 12.2074 28.805 12.0435 28.7116Z" fill="#F96C05"/>
<path d="M10.5773 27.8655L10.2842 27.6958C10.1215 27.6016 9.92087 27.6013 9.75787 27.6952C9.59487 27.789 9.49438 27.9627 9.49414 28.1507C9.49391 28.3387 9.59401 28.5126 9.7567 28.6068L10.0497 28.7764C10.1296 28.823 10.2205 28.8475 10.3129 28.8474C10.5511 28.8475 10.7597 28.6878 10.8216 28.4578C10.8837 28.2278 10.7834 27.9849 10.5773 27.8655Z" fill="#F96C05"/>
<path d="M9.10896 27.0177L8.81539 26.8486C8.56369 26.7051 8.24331 26.792 8.09867 27.0431C7.95403 27.2942 8.03952 27.6149 8.28996 27.7606L8.58354 27.9297C8.74654 28.0246 8.94776 28.025 9.11115 27.9307C9.27447 27.8365 9.37496 27.6622 9.37449 27.4736C9.3741 27.285 9.27283 27.1112 9.10896 27.0177Z" fill="#F96C05"/>
<path d="M6.82228 26.9128L7.11531 27.0825C7.19517 27.1291 7.28605 27.1536 7.37849 27.1534C7.61667 27.1537 7.82531 26.9939 7.88719 26.7638C7.94908 26.5339 7.84883 26.2909 7.64269 26.1715L7.34966 26.0019C7.09812 25.8562 6.7761 25.9421 6.63044 26.1936C6.48486 26.4452 6.57074 26.7672 6.82228 26.9128Z" fill="#F96C05"/>
<path d="M5.35637 26.0666L5.64995 26.2357C5.90164 26.3793 6.22202 26.2923 6.36666 26.0413C6.5113 25.7902 6.42574 25.4694 6.17537 25.3238L5.88179 25.1547C5.6301 25.0111 5.30972 25.0981 5.16508 25.3492C5.02044 25.6002 5.10593 25.9209 5.35637 26.0666Z" fill="#F96C05"/>
<path d="M3.00861 24.7115L3.91904 25.2368V26.2789C3.91904 26.5697 4.15471 26.8054 4.44548 26.8054C4.73624 26.8054 4.97192 26.5697 4.97192 26.2789V24.9331C4.972 24.745 4.87159 24.5711 4.70874 24.4771L3.53505 23.7995C3.37213 23.7053 3.17138 23.7053 3.00838 23.7993C2.84537 23.8934 2.74504 24.0673 2.74512 24.2554C2.74512 24.4437 2.84561 24.6175 3.00861 24.7115Z" fill="#F96C05"/>
<path d="M5.35639 9.24046L5.64997 9.40956C5.81297 9.50443 6.01419 9.50482 6.17758 9.41058C6.3409 9.31634 6.44139 9.14201 6.44092 8.95345C6.44045 8.76489 6.33918 8.59095 6.17532 8.49757L5.88174 8.32847C5.63005 8.18493 5.30966 8.2719 5.16503 8.52297C5.02046 8.77404 5.10595 9.09473 5.35639 9.24046Z" fill="#F96C05"/>
<path d="M6.82228 10.0867L7.11531 10.2563C7.19517 10.3029 7.28605 10.3274 7.37849 10.3273C7.61667 10.3274 7.82531 10.1677 7.88719 9.93766C7.94908 9.70761 7.84883 9.46475 7.64269 9.34535L7.34966 9.17571C7.09812 9.03005 6.7761 9.11593 6.63044 9.36746C6.48486 9.619 6.57074 9.94102 6.82228 10.0867Z" fill="#F96C05"/>
<path d="M8.28997 10.9344L8.58354 11.1035C8.83524 11.2471 9.15562 11.1601 9.30026 10.909C9.4449 10.658 9.35934 10.3373 9.10897 10.1915L8.81539 10.0224C8.5637 9.8789 8.24331 9.96587 8.09867 10.2169C7.95403 10.4679 8.03952 10.7887 8.28997 10.9344Z" fill="#F96C05"/>
<path d="M9.75666 11.7811L10.0497 11.9502C10.2126 12.0443 10.4134 12.0444 10.5764 11.9503C10.7394 11.8562 10.8397 11.6824 10.8396 11.4942C10.8395 11.3061 10.7391 11.1322 10.5761 11.0383L10.2831 10.8692C10.1202 10.775 9.91943 10.7749 9.75642 10.869C9.59342 10.9631 9.49309 11.137 9.49316 11.3251C9.49316 11.5133 9.59365 11.6871 9.75666 11.7811Z" fill="#F96C05"/>
<path d="M11.2235 12.6278L11.517 12.7975C11.7689 12.9427 12.0907 12.8563 12.236 12.6046C12.3813 12.3528 12.2952 12.0309 12.0435 11.8855L11.7499 11.7159C11.587 11.6217 11.3862 11.6216 11.2232 11.7157C11.0602 11.8098 10.9599 11.9836 10.96 12.1718C10.96 12.3601 11.0605 12.5338 11.2235 12.6278Z" fill="#F96C05"/>
<path d="M12.6912 13.475L12.9843 13.6441C13.1472 13.7383 13.3479 13.7384 13.5109 13.6443C13.6739 13.5502 13.7743 13.3763 13.7742 13.1882C13.7741 13 13.6737 12.8262 13.5107 12.7322L13.2177 12.5631C13.0547 12.469 12.854 12.4689 12.691 12.563C12.528 12.6571 12.4277 12.8309 12.4277 13.0191C12.4277 13.2072 12.5282 13.381 12.6912 13.475Z" fill="#F96C05"/>
<path d="M14.157 14.3218L14.4506 14.4914C14.7025 14.6366 15.0243 14.5503 15.1696 14.2985C15.315 14.0467 15.2288 13.7249 14.9771 13.5794L14.6835 13.4098C14.5206 13.3156 14.3198 13.3155 14.1568 13.4096C13.9938 13.5037 13.8935 13.6776 13.8936 13.8657C13.8936 14.0539 13.994 14.2278 14.157 14.3218Z" fill="#F96C05"/>
<path d="M15.6245 15.169L16.2111 15.5078C16.463 15.653 16.7847 15.5667 16.9301 15.3149C17.0754 15.0631 16.9892 14.7412 16.7375 14.5958L16.1509 14.257C15.8991 14.1118 15.5773 14.1982 15.4319 14.4499C15.2866 14.7016 15.3728 15.0235 15.6245 15.169Z" fill="#F96C05"/>
<path d="M17.3857 16.1853L17.6793 16.3544C17.8423 16.4493 18.0435 16.4497 18.2069 16.3554C18.3702 16.2612 18.4707 16.0869 18.4703 15.8983C18.4698 15.7097 18.3685 15.5358 18.2047 15.4424L17.9111 15.2733C17.7481 15.1785 17.5469 15.1781 17.3835 15.2723C17.2201 15.3665 17.1196 15.5409 17.1201 15.7294C17.1206 15.918 17.2219 16.0919 17.3857 16.1853Z" fill="#F96C05"/>
<path d="M3.00861 7.88533L4.1823 8.56289C4.34522 8.65697 4.54589 8.6569 4.70874 8.56289C4.87158 8.46889 4.97192 8.29502 4.97192 8.10694V6.76056C4.97192 6.46979 4.73624 6.23412 4.44548 6.23412C4.15471 6.23412 3.91904 6.46979 3.91904 6.76056V7.19494L3.53505 6.97333C3.37213 6.87917 3.17138 6.8791 3.00838 6.97318C2.84537 7.06726 2.74504 7.24113 2.74512 7.42929C2.74512 7.61753 2.84561 7.7914 3.00861 7.88533Z" fill="#F96C05"/>
<path d="M18.8521 17.032L20.0253 17.7096C20.1882 17.8038 20.3889 17.8038 20.5519 17.7098C20.7149 17.6157 20.8153 17.4418 20.8152 17.2537C20.8151 17.0655 20.7147 16.8916 20.5517 16.7976L19.6417 16.2723V15.2302C19.6417 14.9394 19.4061 14.7037 19.1153 14.7037C18.8245 14.7037 18.5889 14.9394 18.5889 15.2302V16.5761C18.5888 16.7642 18.6892 16.938 18.8521 17.032Z" fill="#F96C05"/>
<path d="M19.1153 19.1218C19.2549 19.1219 19.3889 19.0665 19.4877 18.9677C19.5864 18.8689 19.6418 18.735 19.6417 18.5953V18.2586C19.6417 17.9679 19.4061 17.7322 19.1153 17.7322C18.8245 17.7322 18.5889 17.9679 18.5889 18.2586V18.5953C18.5888 18.735 18.6442 18.8689 18.743 18.9677C18.8417 19.0665 18.9757 19.1219 19.1153 19.1218Z" fill="#F96C05"/>
<path d="M19.1153 20.8044C19.2549 20.8045 19.3889 20.7491 19.4877 20.6503C19.5864 20.5515 19.6418 20.4176 19.6417 20.278V19.9413C19.6417 19.6505 19.4061 19.4148 19.1153 19.4148C18.8245 19.4148 18.5889 19.6505 18.5889 19.9413V20.278C18.5888 20.4176 18.6442 20.5515 18.743 20.6503C18.8417 20.7491 18.9757 20.8045 19.1153 20.8044Z" fill="#F96C05"/>
<path d="M19.1153 22.487C19.2549 22.4871 19.3889 22.4317 19.4877 22.3329C19.5864 22.2342 19.6418 22.1002 19.6417 21.9606V21.6244C19.6417 21.3336 19.4061 21.0979 19.1153 21.0979C18.8245 21.0979 18.5889 21.3336 18.5889 21.6244V21.9606C18.5888 22.1002 18.6442 22.2342 18.743 22.3329C18.8417 22.4317 18.9757 22.4871 19.1153 22.487Z" fill="#F96C05"/>
<path d="M19.1153 24.1696C19.2549 24.1697 19.3889 24.1143 19.4877 24.0156C19.5864 23.9168 19.6418 23.7828 19.6417 23.6432V23.307C19.6417 23.0162 19.4061 22.7805 19.1153 22.7805C18.8245 22.7805 18.5889 23.0162 18.5889 23.307V23.6432C18.5888 23.7828 18.6442 23.9168 18.743 24.0156C18.8417 24.1143 18.9757 24.1697 19.1153 24.1696Z" fill="#F96C05"/>
<path d="M19.1153 25.8523C19.2549 25.8524 19.3889 25.797 19.4877 25.6982C19.5864 25.5995 19.6418 25.4655 19.6417 25.3259V24.9896C19.6417 24.6989 19.4061 24.4632 19.1153 24.4632C18.8245 24.4632 18.5889 24.6989 18.5889 24.9896V25.3259C18.5888 25.4655 18.6442 25.5995 18.743 25.6982C18.8417 25.7969 18.9757 25.8524 19.1153 25.8523Z" fill="#F96C05"/>
<path d="M19.1153 27.5349C19.2549 27.535 19.3889 27.4796 19.4877 27.3808C19.5864 27.282 19.6418 27.1481 19.6417 27.0085V26.6722C19.6417 26.3815 19.4061 26.1458 19.1153 26.1458C18.8245 26.1458 18.5889 26.3815 18.5889 26.6722V27.0085C18.5888 27.1481 18.6442 27.282 18.743 27.3808C18.8417 27.4795 18.9757 27.535 19.1153 27.5349Z" fill="#F96C05"/>
<path d="M19.1153 29.2175C19.2549 29.2176 19.3889 29.1622 19.4877 29.0634C19.5864 28.9647 19.6418 28.8307 19.6417 28.6911V28.3548C19.6417 28.0641 19.4061 27.8284 19.1153 27.8284C18.8245 27.8284 18.5889 28.0641 18.5889 28.3548V28.6911C18.5888 28.8307 18.6442 28.9647 18.743 29.0634C18.8417 29.1621 18.9757 29.2176 19.1153 29.2175Z" fill="#F96C05"/>
<path d="M19.1153 30.9002C19.2549 30.9003 19.3889 30.8448 19.4877 30.7461C19.5864 30.6473 19.6418 30.5134 19.6417 30.3737V30.0375C19.6417 29.7467 19.4061 29.511 19.1153 29.511C18.8245 29.511 18.5889 29.7467 18.5889 30.0375V30.3737C18.5888 30.5134 18.6442 30.6473 18.743 30.7461C18.8417 30.8448 18.9757 30.9003 19.1153 30.9002Z" fill="#F96C05"/>
<path d="M19.1153 32.5827C19.2549 32.5828 19.3889 32.5274 19.4877 32.4286C19.5864 32.3299 19.6418 32.1959 19.6417 32.0563V31.72C19.6417 31.4293 19.4061 31.1936 19.1153 31.1936C18.8245 31.1936 18.5889 31.4293 18.5889 31.72V32.0563C18.5888 32.1959 18.6442 32.3299 18.743 32.4286C18.8417 32.5274 18.9757 32.5828 19.1153 32.5827Z" fill="#F96C05"/>
<path d="M4.44539 8.92642C4.30575 8.92634 4.17181 8.98175 4.07304 9.08052C3.97427 9.17929 3.91887 9.31322 3.91895 9.45286V9.78957C3.91895 10.0803 4.15462 10.316 4.44539 10.316C4.73615 10.316 4.97183 10.0803 4.97183 9.78957V9.45286C4.97191 9.31322 4.9165 9.17929 4.81773 9.08052C4.71896 8.98175 4.58503 8.92634 4.44539 8.92642Z" fill="#F96C05"/>
<path d="M4.44539 10.609C4.30575 10.6089 4.17181 10.6643 4.07304 10.7631C3.97427 10.8618 3.91887 10.9958 3.91895 11.1354V11.4721C3.91895 11.7629 4.15462 11.9986 4.44539 11.9986C4.73615 11.9986 4.97183 11.7629 4.97183 11.4721V11.1354C4.97191 10.9958 4.9165 10.8618 4.81773 10.7631C4.71896 10.6643 4.58503 10.609 4.44539 10.609Z" fill="#F96C05"/>
<path d="M4.44539 12.2916C4.30575 12.2915 4.17181 12.3469 4.07304 12.4457C3.97427 12.5444 3.91887 12.6784 3.91895 12.818V13.1547C3.91895 13.4455 4.15462 13.6812 4.44539 13.6812C4.73615 13.6812 4.97183 13.4455 4.97183 13.1547V12.818C4.97191 12.6784 4.9165 12.5444 4.81773 12.4457C4.71896 12.347 4.58503 12.2915 4.44539 12.2916Z" fill="#F96C05"/>
<path d="M4.44539 13.9742C4.30575 13.9741 4.17181 14.0295 4.07304 14.1283C3.97427 14.2271 3.91887 14.361 3.91895 14.5006V14.8373C3.91895 15.1281 4.15462 15.3638 4.44539 15.3638C4.73615 15.3638 4.97183 15.1281 4.97183 14.8373V14.5006C4.97191 14.361 4.9165 14.2271 4.81773 14.1283C4.71896 14.0296 4.58503 13.9741 4.44539 13.9742Z" fill="#F96C05"/>
<path d="M4.44539 15.6569C4.30575 15.6568 4.17181 15.7122 4.07304 15.811C3.97427 15.9097 3.91887 16.0437 3.91895 16.1833V16.52C3.91895 16.8108 4.15462 17.0464 4.44539 17.0464C4.73615 17.0464 4.97183 16.8108 4.97183 16.52V16.1833C4.97191 16.0437 4.9165 15.9097 4.81773 15.811C4.71896 15.7122 4.58503 15.6568 4.44539 15.6569Z" fill="#F96C05"/>
<path d="M4.44539 17.3394C4.30575 17.3394 4.17181 17.3948 4.07304 17.4935C3.97427 17.5923 3.91887 17.7262 3.91895 17.8659V18.2026C3.91895 18.4934 4.15462 18.729 4.44539 18.729C4.73615 18.729 4.97183 18.4934 4.97183 18.2026V17.8659C4.97191 17.7262 4.9165 17.5923 4.81773 17.4935C4.71896 17.3948 4.58503 17.3394 4.44539 17.3394Z" fill="#F96C05"/>
<path d="M4.44539 19.0221C4.30575 19.022 4.17181 19.0774 4.07304 19.1762C3.97427 19.2749 3.91887 19.4089 3.91895 19.5485V19.8852C3.91895 20.176 4.15462 20.4117 4.44539 20.4117C4.73615 20.4117 4.97183 20.176 4.97183 19.8852V19.5485C4.97191 19.4089 4.9165 19.2749 4.81773 19.1762C4.71896 19.0774 4.58503 19.022 4.44539 19.0221Z" fill="#F96C05"/>
<path d="M4.44539 20.7047C4.30575 20.7046 4.17181 20.76 4.07304 20.8588C3.97427 20.9576 3.91887 21.0915 3.91895 21.2312V21.9041C3.91895 22.1949 4.15462 22.4305 4.44539 22.4305C4.73615 22.4305 4.97183 22.1949 4.97183 21.9041V21.2312C4.97191 21.0915 4.9165 20.9576 4.81773 20.8588C4.71896 20.76 4.58503 20.7046 4.44539 20.7047Z" fill="#F96C05"/>
<path d="M4.44539 22.724C4.30575 22.724 4.17181 22.7794 4.07304 22.8781C3.97427 22.9769 3.91887 23.1108 3.91895 23.2505V23.5867C3.91895 23.8775 4.15462 24.1132 4.44539 24.1132C4.73615 24.1132 4.97183 23.8775 4.97183 23.5867V23.2505C4.97191 23.1108 4.9165 22.9769 4.81773 22.8781C4.71896 22.7794 4.58503 22.724 4.44539 22.724Z" fill="#F96C05"/>
<path d="M19.1152 35.275C19.2549 35.275 19.3888 35.2196 19.4876 35.1209C19.5863 35.0221 19.6417 34.8882 19.6417 34.7485V34.3146L20.0252 34.5362C20.1881 34.6304 20.3889 34.6305 20.5519 34.5364C20.7149 34.4423 20.8152 34.2684 20.8151 34.0803C20.815 33.8921 20.7146 33.7182 20.5516 33.6243L19.3785 32.9467C19.2156 32.8527 19.0149 32.8527 18.852 32.9467C18.6892 33.0408 18.5889 33.2146 18.5889 33.4027V34.7486C18.5888 34.8882 18.6442 35.0222 18.743 35.1209C18.8417 35.2197 18.9756 35.275 19.1152 35.275Z" fill="#F96C05"/>
<path d="M25.7864 13.0053C25.7853 12.9935 25.7836 12.9824 25.7817 12.9706C25.7617 12.8458 25.6969 12.7325 25.5994 12.652C25.5865 12.6413 25.5741 12.6315 25.5604 12.6221C25.5496 12.6148 25.541 12.605 25.5296 12.5984L3.81557 0.0619487C3.79635 0.0541346 3.77674 0.0475707 3.75665 0.0421789C3.72266 0.0264725 3.68703 0.0145949 3.65046 0.0066245C3.58498 -0.00236178 3.51856 -0.0022055 3.45307 0.00709335C3.41783 0.0149857 3.38353 0.0264725 3.35071 0.0415538C3.33008 0.0470237 3.30984 0.053822 3.29015 0.0619487L0.661618 1.57954C0.608248 1.61173 0.561128 1.6533 0.522526 1.70222C0.512524 1.71425 0.50346 1.7259 0.49463 1.73871C0.4597 1.78716 0.433289 1.84115 0.416645 1.89851L0.415941 1.90351C0.404533 1.94657 0.398672 1.99095 0.398438 2.03549V26.9385C0.398359 27.1266 0.498771 27.3005 0.661618 27.3945L22.3727 39.9296L22.3752 39.9306C22.3994 39.9428 22.4245 39.9532 22.4504 39.9616C22.4876 39.9818 22.5294 39.9921 22.5718 39.9916C22.5929 39.9957 22.6144 39.9985 22.6359 40H22.6361H22.6364C22.7286 40 22.8192 39.9757 22.8991 39.9296L25.5282 38.412C25.5435 38.4 25.5581 38.3871 25.5719 38.3734C25.605 38.3505 25.6351 38.3239 25.6619 38.294C25.7024 38.241 25.7353 38.1826 25.7598 38.1206C25.7685 38.0912 25.7746 38.061 25.7779 38.0305C25.7849 38.006 25.7899 37.9811 25.7929 37.9559V13.0546C25.7929 13.0377 25.788 13.0219 25.7864 13.0053ZM22.1095 38.5616L1.45124 26.6347V2.94748L22.1094 14.8744V38.5616H22.1095ZM22.6359 13.9626L1.97784 2.03549L3.55286 1.12616L24.2114 13.0531L22.6359 13.9626ZM24.74 37.651L23.1623 38.5618V14.8746L24.74 13.9639V37.651Z" fill="#F96C05"/>
<path d="M16.0992 29.4715C16.2388 29.4716 16.3727 29.4161 16.4715 29.3174C16.5703 29.2186 16.6257 29.0847 16.6256 28.9451V18.2289C16.6257 18.0408 16.5253 17.8669 16.3624 17.7728L7.56892 12.6962C7.40599 12.6022 7.20532 12.6022 7.04248 12.6962C6.87963 12.7903 6.7793 12.9641 6.7793 13.1522V23.8684C6.77922 24.0564 6.87963 24.2303 7.04248 24.3244L15.836 29.401C15.916 29.4472 16.0068 29.4714 16.0992 29.4715ZM13.6028 19.2802C13.8044 19.4222 14.0777 19.4042 14.2591 19.2372C14.4405 19.0701 14.4808 18.7993 14.3559 18.5867L13.6968 17.4497L15.5727 18.5327V23.8363L14.9055 22.6861C14.7838 22.4734 14.5309 22.3736 14.2968 22.4458C14.0627 22.518 13.91 22.743 13.9294 22.9872L13.6027 22.7987V19.2802H13.6028ZM12.5499 24.4032C12.3481 24.2613 12.0748 24.2793 11.8933 24.4463C11.7119 24.6133 11.6715 24.8843 11.7962 25.0971L12.4555 26.2335L7.8321 23.5645V20.7827L8.49888 21.9328C8.62055 22.1455 8.87349 22.2454 9.10768 22.173C9.34179 22.1007 9.49448 21.8756 9.47495 21.6313L12.5499 23.4065V24.4032ZM12.8445 16.9624C12.8352 16.967 12.8249 16.9667 12.8157 16.9719L11.9911 17.4413C11.7384 17.5852 11.6503 17.9068 11.7942 18.1595C11.9381 18.4122 12.2597 18.5003 12.5124 18.3564L12.5499 18.335V22.1908L9.18832 20.2501L9.21505 20.2348C9.46776 20.0909 9.5559 19.7694 9.41196 19.5166C9.26803 19.2639 8.94647 19.1758 8.69376 19.3197L7.86968 19.7896C7.85968 19.7953 7.85367 19.8055 7.84413 19.8119C7.84038 19.8143 7.83585 19.8151 7.83218 19.8177V14.0642L12.8483 16.9599L12.8445 16.9624ZM15.5727 28.0331L13.306 26.7244C13.3162 26.7195 13.327 26.7175 13.337 26.7118L14.1611 26.2424C14.3246 26.1492 14.4259 25.976 14.427 25.7879C14.4281 25.5998 14.3287 25.4254 14.1663 25.3304C14.004 25.2354 13.8032 25.2342 13.6397 25.3273L13.6027 25.3484V24.0145L14.2163 24.3687L14.1893 24.3841C13.9366 24.528 13.8485 24.8496 13.9924 25.1023C14.1363 25.355 14.4579 25.4431 14.7106 25.2992L15.5352 24.8293L15.5391 24.8259C15.5512 24.8189 15.5612 24.8086 15.5727 24.8007V28.0331Z" fill="#F96C05"/>
</svg>
