<svg width="30" height="40" viewBox="0 0 30 40" fill="none" xmlns="http://www.w3.org/2000/svg">
<path d="M20.986 25.5433L16.8927 30.2225L14.9446 26.4156C14.8123 26.1566 14.4952 26.054 14.2362 26.1863C13.9773 26.3186 13.8747 26.6357 14.007 26.8947L16.3088 31.393C16.3882 31.5484 16.5396 31.6543 16.7128 31.6756C16.7343 31.6783 16.7559 31.6796 16.7776 31.6798C16.9295 31.6797 17.0739 31.6141 17.1739 31.4998L21.7786 26.2362C21.9658 26.0169 21.9418 25.6878 21.7247 25.4981C21.5076 25.3083 21.1783 25.3285 20.986 25.5433Z" fill="#071529"/>
<path d="M8.24537 17.6869C8.10012 17.4366 7.78001 17.3505 7.52881 17.4941L3.38058 19.867C3.25885 19.9365 3.16985 20.0517 3.13336 20.1871C3.09688 20.3225 3.11594 20.4669 3.18626 20.5882L4.31973 22.5425C4.45834 22.7807 4.75697 22.8719 5.00496 22.7518V25.3142C5.00496 25.5021 5.10505 25.6756 5.26764 25.7697L9.7999 28.3913C9.96273 28.4856 10.1635 28.4859 10.3266 28.3919C10.4897 28.2979 10.5901 28.124 10.59 27.9358V26.2421C10.7464 26.3189 10.9306 26.3131 11.0819 26.2267L12.2154 25.581C12.3373 25.5116 12.4266 25.3963 12.4631 25.2608C12.4997 25.1252 12.4806 24.9808 12.4102 24.8593L8.24537 17.6869ZM11.0139 25.0535L10.5184 24.2022C10.3989 23.9965 10.1561 23.8966 9.92632 23.9585C9.69653 24.0205 9.53698 24.229 9.53714 24.467V27.0232L6.05765 25.0103V21.8454C6.05772 21.6576 5.95771 21.484 5.79528 21.3898C5.63284 21.2956 5.4325 21.2951 5.2696 21.3884L4.96785 21.5612L4.36286 20.5177L7.59718 18.6677L11.2329 24.9286L11.0139 25.0535Z" fill="#071529"/>
<path d="M29.3368 16.3648C29.2693 14.9764 28.5322 13.7071 27.3598 12.9604C26.9868 12.7233 26.5439 12.6211 26.1046 12.6706L4.23355 0.0663422C4.21097 0.0568882 4.18768 0.0490749 4.16393 0.0429805C4.13315 0.029151 4.10111 0.0183686 4.0683 0.0108679C3.97141 -0.0106187 3.87023 -0.000148887 3.77983 0.0406365C3.75397 0.0471215 3.72865 0.0557162 3.70412 0.0662641L1.1187 1.55915L1.11128 1.5622C1.05674 1.59517 1.00869 1.63791 0.969622 1.68823C0.960871 1.69893 0.952823 1.70917 0.944931 1.72042C0.909537 1.76925 0.882894 1.82379 0.866174 1.88176L0.864689 1.89262C0.854142 1.93364 0.848516 1.97575 0.848047 2.0181V4.50554C0.847969 4.69361 0.94837 4.86745 1.1112 4.96153L2.87177 5.97765L1.11081 6.99447C1.10534 6.99759 1.10253 7.00314 1.09721 7.0065C1.05119 7.03572 1.01009 7.07198 0.975326 7.11393C0.963293 7.12792 0.95212 7.14261 0.941729 7.15784C0.910007 7.203 0.885551 7.25301 0.869455 7.30583L0.864924 7.32169C0.853751 7.36419 0.847891 7.40795 0.847656 7.45194V26.1201C0.847578 26.3081 0.947979 26.482 1.11081 26.5761L24.2392 39.9296L24.2417 39.9306C24.2659 39.9429 24.2911 39.9533 24.3169 39.9616C24.3541 39.9819 24.3959 39.9922 24.4383 39.9916C24.4594 39.9957 24.4808 39.9985 24.5024 40H24.5026H24.5029C24.5951 40.0001 24.6857 39.9758 24.7656 39.9296L27.3593 38.4322C27.3796 38.4169 27.3987 38.4001 27.4164 38.3819C27.4744 38.3408 27.521 38.2855 27.5516 38.2213C27.564 38.2001 27.5747 38.178 27.5839 38.1552C27.599 38.1115 27.6083 38.0658 27.6112 38.0196C27.6125 38.0046 27.62 37.9917 27.62 37.9762V19.3092C27.62 19.2993 27.6167 19.2902 27.6162 19.2804C27.6147 19.2551 27.6114 19.2299 27.6062 19.2051C27.5976 19.1641 27.5843 19.1243 27.5662 19.0866C27.5598 19.0728 27.5598 19.0579 27.5521 19.0445C27.5446 19.0316 27.532 19.0244 27.5236 19.0123C27.4994 18.977 27.471 18.9448 27.4389 18.9165C27.4206 18.9001 27.4011 18.8851 27.3805 18.8717C27.3718 18.8659 27.365 18.858 27.3558 18.8528L27.1511 18.7352L28.5098 17.9507C28.5141 17.9482 28.5163 17.9438 28.5205 17.9411C29.074 17.6171 29.3916 17.0037 29.3368 16.3648ZM3.96961 1.12887L24.9524 13.2211L23.6395 13.9789C23.6047 13.9941 23.5718 14.0131 23.5412 14.0357L23.3795 14.129L2.42797 2.01896L3.96961 1.12887ZM25.6892 17.8642C25.6985 18.0491 25.655 18.2328 25.564 18.394L25.5638 18.3941L25.5636 18.3947C25.54 18.4306 25.51 18.462 25.475 18.487L25.4289 18.5135C25.1995 18.5723 24.9558 18.5247 24.7655 18.3838C24.1872 18.0042 23.7467 17.4483 23.5092 16.7987L23.5089 16.798C23.3898 16.5081 23.3242 16.1989 23.3154 15.8856C23.2834 15.6463 23.371 15.4065 23.5498 15.2441C23.6061 15.214 23.6694 15.1991 23.7333 15.2009C23.9131 15.2121 24.0871 15.2687 24.2392 15.3654C25.0868 15.9257 25.6235 16.8503 25.6892 17.8642ZM1.90089 4.20176V2.93054L22.5266 14.8521C22.348 15.1669 22.2569 15.5238 22.2627 15.8858C22.2627 15.909 22.268 15.9335 22.2685 15.9569L1.90089 4.20176ZM19.1619 17.1139L6.67184 9.90281C6.86077 9.43808 7.09806 8.99451 7.37965 8.57939L19.8601 15.7826C19.5864 16.2035 19.3527 16.6493 19.1619 17.1139ZM19.5281 20.5058C20.121 20.9043 20.4977 21.5534 20.5494 22.2659C20.5494 22.4756 20.4939 22.6015 20.4394 22.6329C20.3818 22.6652 20.241 22.6498 20.0544 22.5419C19.4611 22.1437 19.0842 21.4945 19.0325 20.7819C19.0325 20.5722 19.088 20.4462 19.1425 20.4149C19.1649 20.4036 19.1899 20.3983 19.215 20.3995C19.3266 20.4084 19.4342 20.445 19.5281 20.5058ZM3.92492 6.58536L6.46518 8.05153C6.18695 8.46837 5.94731 8.90974 5.74917 9.37002L2.42547 7.45108L3.92492 6.58536ZM6.84381 14.3529C6.84381 14.5626 6.78826 14.6885 6.7338 14.7199C6.67676 14.7528 6.53589 14.7374 6.34829 14.6289C5.75519 14.2306 5.37827 13.5815 5.32639 12.8689C5.32639 12.6592 5.38194 12.5332 5.43695 12.5019C5.45922 12.4907 5.48399 12.4853 5.50891 12.4865C5.62048 12.4954 5.72807 12.532 5.82199 12.5929C6.41517 12.991 6.79209 13.6402 6.84381 14.3529ZM23.976 38.5617L1.90034 25.8163V8.36383L5.40046 10.3846C5.30655 10.7404 5.24506 11.104 5.21677 11.4709C5.1095 11.4956 5.00628 11.5356 4.91049 11.5899C4.48162 11.8689 4.23784 12.3585 4.27355 12.8688C4.32692 13.9575 4.90377 14.9531 5.82183 15.5407C6.07631 15.6951 6.36681 15.78 6.66434 15.7869C6.87311 15.7886 7.07868 15.7351 7.2601 15.6317C7.68851 15.3523 7.93205 14.8629 7.8965 14.3528C7.84344 13.264 7.26643 12.2683 6.34821 11.6809C6.31954 11.6643 6.29063 11.6571 6.2618 11.6421C6.27454 11.4044 6.30532 11.168 6.35376 10.9349L18.8258 18.1354C18.7121 18.5782 18.6527 19.0331 18.6488 19.4903C18.6384 19.4958 18.6263 19.497 18.616 19.5029C18.1876 19.7823 17.9441 20.2717 17.9796 20.7818C18.0327 21.8706 18.6097 22.8663 19.5279 23.4537C19.7823 23.6082 20.0729 23.6931 20.3704 23.6999C20.5791 23.7019 20.7845 23.6483 20.9656 23.5447C21.3942 23.2655 21.6377 22.776 21.602 22.2658C21.5489 21.1772 20.9722 20.1815 20.0543 19.5939C19.9429 19.5303 19.8255 19.4778 19.7038 19.4373C19.7088 19.1858 19.7354 18.9351 19.7831 18.6882L23.9758 21.1087V38.5617H23.976ZM24.5023 20.1971L20.0877 17.6484C20.2685 17.1793 20.4988 16.7307 20.7745 16.3103L22.6002 17.364C22.9355 18.1608 23.5077 18.8351 24.2391 19.2958C24.5519 19.486 24.9089 19.5908 25.2749 19.6001C25.387 19.5991 25.4987 19.5853 25.6077 19.559L24.5023 20.1971ZM26.5672 37.6737L25.0287 38.5619V21.109L26.5672 20.2208V37.6737ZM28.0306 17.0124C28.0127 17.0205 27.9952 17.0296 27.9782 17.0397L27.9531 17.0546L27.9483 17.059L26.7336 17.7604C26.6336 16.4416 25.9348 15.2414 24.8374 14.5032L26.129 13.7577C26.2784 13.6594 26.5397 13.6999 26.832 13.8712C27.6805 14.4284 28.2182 15.3517 28.2842 16.3647C28.2841 16.6989 28.1895 16.941 28.0306 17.0124Z" fill="#071529"/>
</svg>
