<svg width="54" height="54" viewBox="0 0 54 54" fill="none" xmlns="http://www.w3.org/2000/svg">
<path d="M11.3028 30.7441L5.60742 36.4428L17.9624 48.798L23.6595 43.101L11.3028 30.7441Z" fill="black"/>
<path d="M24.628 54.0001L30.4074 48.22C31.1818 47.4483 31.6912 46.4507 31.8622 45.3709L33.4258 35.6147L22.4473 46.5934L24.628 54.0001Z" fill="black"/>
<path d="M3.02197 42.0674L5.98277 39.1066L15.2571 48.3809L12.2963 51.3417L3.02197 42.0674Z" fill="black"/>
<path d="M28.7188 38.041L16.36 25.6824L12.4424 29.6036L24.7984 41.9608L28.7188 38.041Z" fill="black"/>
<path d="M18.8212 20.9373L9.00278 22.5108C7.92298 22.6818 6.92537 23.1913 6.15379 23.9658L0.374512 29.7459L7.82767 31.9396C12.1339 27.6311 15.7644 23.9974 18.8212 20.9373Z" fill="black"/>
<path d="M35.8562 6.1314C35.6866 6.31335 34.3172 7.70914 17.501 24.5414L29.8596 36.9006L48.2301 18.5304C51.1393 15.621 55.4546 8.67923 53.5133 0.860714C45.7054 -1.07851 38.7726 3.22224 35.8562 6.1314ZM45.1442 18.0802L35.4674 27.7566C35.3162 27.9078 35.1111 27.9927 34.8972 27.9927C34.6833 27.9927 34.4782 27.9078 34.327 27.7566L26.6174 20.0475C26.4661 19.8962 26.3811 19.6911 26.3811 19.4772C26.3811 19.2632 26.4661 19.0581 26.6174 18.9069L36.2944 9.23074C36.8755 8.64965 37.5654 8.18871 38.3246 7.87424C39.0839 7.55976 39.8976 7.39791 40.7194 7.39792C41.5412 7.39792 42.3549 7.55979 43.1141 7.87428C43.8733 8.18877 44.5632 8.64972 45.1443 9.23082C45.7254 9.81191 46.1863 10.5018 46.5008 11.261C46.8153 12.0202 46.9771 12.834 46.9771 13.6557C46.9771 14.4775 46.8152 15.2913 46.5007 16.0505C46.1862 16.8097 45.7253 17.4996 45.1442 18.0806V18.0802Z" fill="black"/>
<path d="M28.3203 19.48L30.5861 17.2142L37.1537 23.7817L34.8879 26.0475L28.3203 19.48Z" fill="black"/>
<path d="M40.7195 9.01027C39.5413 9.00735 38.4068 9.4556 37.5488 10.263C37.6525 10.2578 37.7571 10.2552 37.8618 10.2552C38.7102 10.255 39.5497 10.4274 40.3294 10.7619C41.109 11.0965 41.8124 11.5862 42.3968 12.2013C42.9811 12.8163 43.4342 13.5439 43.7284 14.3396C44.0226 15.1354 44.1518 15.9826 44.1082 16.8299C44.7275 16.1691 45.1401 15.3416 45.2951 14.4493C45.4501 13.557 45.3408 12.6389 44.9807 11.8079C44.6206 10.9769 44.0253 10.2694 43.2682 9.77238C42.5111 9.2754 41.6251 9.01066 40.7195 9.01075V9.01027Z" fill="black"/>
<path d="M37.8616 11.868C37.2518 11.8663 36.6477 11.9856 36.0842 12.2188C35.5208 12.4521 35.0092 12.7948 34.579 13.227L31.7354 16.0702L38.3042 22.6387L41.1466 19.7964C41.7957 19.1466 42.2375 18.3189 42.4164 17.4181C42.5953 16.5173 42.5032 15.5836 42.1516 14.7351C41.8001 13.8866 41.2049 13.1614 40.4413 12.651C39.6778 12.1406 38.78 11.868 37.8616 11.8677V11.868Z" fill="black"/>
<path d="M19.5848 16.8087C19.6908 16.8088 19.7957 16.788 19.8935 16.7474C19.9914 16.7069 20.0803 16.6474 20.1551 16.5723L30.1883 6.53909C30.2648 6.46455 30.3257 6.37558 30.3675 6.27733C30.4093 6.17908 30.4311 6.0735 30.4318 5.96673C30.4325 5.85996 30.412 5.75411 30.3715 5.65533C30.3309 5.55655 30.2712 5.4668 30.1957 5.3913C30.1202 5.31579 30.0304 5.25603 29.9317 5.21547C29.8329 5.17491 29.727 5.15438 29.6203 5.15505C29.5135 5.15571 29.4079 5.17758 29.3097 5.21937C29.2114 5.26116 29.1224 5.32204 29.0479 5.39849L19.0146 15.4317C18.9018 15.5445 18.825 15.6882 18.7938 15.8447C18.7627 16.0011 18.7787 16.1633 18.8397 16.3107C18.9007 16.4581 19.0041 16.5841 19.1367 16.6727C19.2694 16.7613 19.4253 16.8086 19.5848 16.8087Z" fill="black"/>
<path d="M32.2723 4.12031C32.3783 4.12045 32.4832 4.09964 32.581 4.05908C32.6789 4.01853 32.7678 3.95902 32.8426 3.884L33.5083 3.21828C33.5847 3.14375 33.6456 3.05478 33.6874 2.95653C33.7292 2.85828 33.7511 2.7527 33.7518 2.64593C33.7525 2.53915 33.732 2.43331 33.6914 2.33453C33.6509 2.23575 33.5911 2.146 33.5156 2.0705C33.4401 1.99499 33.3504 1.93522 33.2516 1.89467C33.1528 1.85411 33.047 1.83358 32.9402 1.83424C32.8335 1.83491 32.7279 1.85678 32.6296 1.89857C32.5314 1.94036 32.4424 2.00124 32.3678 2.07769L31.7021 2.7434C31.5893 2.85619 31.5125 2.99989 31.4813 3.15635C31.4502 3.31281 31.4662 3.47498 31.5272 3.62237C31.5882 3.76976 31.6916 3.89573 31.8242 3.98437C31.9569 4.073 32.1128 4.12031 32.2723 4.12031Z" fill="black"/>
</svg>
