<svg width="100" height="100" viewBox="0 0 100 100" fill="none" xmlns="http://www.w3.org/2000/svg">
<mask id="mask0" mask-type="alpha" maskUnits="userSpaceOnUse" x="0" y="0" width="100" height="100">
<rect width="100" height="100" fill="#C4C4C4"/>
</mask>
<g mask="url(#mask0)">
<path d="M3.39336 41.8255H15.0414C15.811 41.8255 16.4348 41.2017 16.4348 40.4322C16.4348 39.6627 15.811 39.0388 15.0414 39.0388H3.39336C2.62385 39.0388 2 39.6627 2 40.4322C2 41.2017 2.62385 41.8255 3.39336 41.8255Z" fill="#F96C05"/>
<path d="M49.3383 90.898H46.2342C40.2434 90.898 34.4076 89.194 29.3577 85.97L29.0686 85.7855C28.8446 85.6426 28.5847 85.5667 28.319 85.5667H3.39336C2.62385 85.5667 2 86.1905 2 86.96C2 87.7295 2.62385 88.3534 3.39336 88.3534H27.9123C33.3983 91.8412 39.7327 93.6847 46.2342 93.6847H49.3383C50.1078 93.6847 50.7316 93.0609 50.7316 92.2914C50.7316 91.5219 50.1078 90.898 49.3383 90.898Z" fill="#F96C05"/>
<path d="M94.9567 58.1932C94.9567 55.7259 93.8666 53.5095 92.1442 51.9963C95.0047 50.6996 97.0003 47.8192 97.0003 44.4796C97.0003 39.9306 93.2994 36.2295 88.7502 36.2295H71.9403C70.1583 36.2295 68.508 36.7993 67.1578 37.7635H60.9815C60.9939 37.6637 61.0123 37.5649 61.0374 37.4673L62.6868 31.0765C63.3563 28.4818 63.6959 25.8075 63.6959 23.1276C63.6959 18.9665 62.895 14.9044 61.3157 11.0545L61.1063 10.5441C60.2229 8.39113 58.1485 7 55.8214 7C53.2788 7 51.019 8.70844 50.3256 11.1544L48.3395 18.161C47.6578 20.5657 46.2955 22.6981 44.4 24.3272L27.592 38.773C27.3927 38.9443 27.1381 39.0387 26.8753 39.0387H21.0027C20.2332 39.0387 19.6094 39.6625 19.6094 40.432C19.6094 41.2015 20.2332 41.8254 21.0027 41.8254H26.8753C27.8042 41.8254 28.7039 41.4919 29.4084 40.8864L46.2164 26.4407C48.5278 24.4539 50.1893 21.8537 51.0205 18.921L53.0067 11.9145C53.3617 10.6617 54.5191 9.78671 55.8212 9.78671C57.0132 9.78671 58.0755 10.4992 58.5279 11.602L58.7373 12.1123C60.1784 15.6249 60.909 19.331 60.909 23.1278C60.909 25.5727 60.5993 28.0128 59.9883 30.3802L58.3389 36.7708C58.2312 37.1887 58.1764 37.6193 58.1764 38.0509V42.9897C58.1764 47.7243 56.9231 52.393 54.5522 56.4911L52.5647 59.9266C52.1794 60.5926 52.4068 61.445 53.073 61.8305C53.2928 61.9577 53.5326 62.0181 53.7695 62.0181C54.2505 62.0181 54.7186 61.7686 54.9769 61.3222L56.9643 57.8867C59.5805 53.365 60.9631 48.2136 60.9631 42.9897V40.5504H64.6873C64.0515 41.7193 63.69 43.058 63.69 44.4796C63.69 47.3345 65.148 49.8546 67.358 51.3364C65.148 52.8182 63.69 55.3383 63.69 58.1932C63.69 61.0481 65.148 63.5682 67.358 65.05C65.148 66.5318 63.69 69.0519 63.69 71.9068C63.69 74.7617 65.148 77.2819 67.358 78.7636C65.148 80.2454 63.69 82.7655 63.69 85.6204C63.69 87.6263 64.4103 89.4667 65.6048 90.8981H55.2994C54.5299 90.8981 53.906 91.522 53.906 92.2915C53.906 93.061 54.5299 93.6848 55.2994 93.6848C55.2994 93.6848 70.1267 93.6824 70.1724 93.6778C70.7422 93.8028 71.3334 93.8704 71.9401 93.8704H81.133C85.682 93.8704 89.3831 90.1695 89.3831 85.6202C89.3831 83.3394 88.4525 81.272 86.9514 79.7773C90.2953 78.7237 92.7272 75.594 92.7272 71.9067C92.7272 69.4696 91.6641 67.2766 89.9784 65.7651C92.9044 64.4958 94.9567 61.5802 94.9567 58.1932ZM66.4769 44.4796C66.4769 41.4672 68.9277 39.0162 71.9403 39.0162H88.7502C91.7626 39.0162 94.2136 41.467 94.2136 44.4796C94.2136 47.4922 91.7628 49.9431 88.7502 49.9431H71.9403C68.9279 49.9431 66.4769 47.4921 66.4769 44.4796ZM81.1331 91.0837H71.9403C68.9279 91.0837 66.4769 88.6329 66.4769 85.6202C66.4769 82.6076 68.9277 80.1568 71.9403 80.1568H81.1331C84.1456 80.1568 86.5966 82.6076 86.5966 85.6202C86.5966 88.6329 84.1458 91.0837 81.1331 91.0837ZM86.7066 63.6567H84.2152C83.4457 63.6567 82.8219 64.2805 82.8219 65.05C82.8219 65.8195 83.4457 66.4434 84.2152 66.4434H84.4772C87.4896 66.4434 89.9406 68.8942 89.9406 71.9068C89.9406 74.9195 87.4898 77.3703 84.4772 77.3703H71.9403C68.9279 77.3703 66.4769 74.9195 66.4769 71.9068C66.4769 68.8942 68.9277 66.4434 71.9403 66.4434H78.2543C79.0238 66.4434 79.6476 65.8195 79.6476 65.05C79.6476 64.2805 79.0238 63.6567 78.2543 63.6567H71.9403C68.9279 63.6567 66.4769 61.2059 66.4769 58.1932C66.4769 55.1808 68.9277 52.7298 71.9403 52.7298H86.7066C89.719 52.7298 92.17 55.1806 92.17 58.1932C92.17 61.2057 89.7192 63.6567 86.7066 63.6567Z" fill="#F96C05"/>
</g>
</svg>
