<svg width="54" height="40" viewBox="0 0 54 40" fill="none" xmlns="http://www.w3.org/2000/svg">
<path fill-rule="evenodd" clip-rule="evenodd" d="M47.8095 1.94946C50.1143 2.58192 51.9294 4.44544 52.5454 6.81195C53.6648 11.101 53.6648 20.05 53.6648 20.05C53.6648 20.05 53.6648 28.9988 52.5454 33.2882C51.9294 35.6547 50.1143 37.5182 47.8095 38.1509C43.6326 39.3 26.8822 39.3 26.8822 39.3C26.8822 39.3 10.1318 39.3 5.95465 38.1509C3.64983 37.5182 1.8347 35.6547 1.2187 33.2882C0.0996094 28.9988 0.0996094 20.05 0.0996094 20.05C0.0996094 20.05 0.0996094 11.101 1.2187 6.81195C1.8347 4.44544 3.64983 2.58192 5.95465 1.94946C10.1318 0.800049 26.8822 0.800049 26.8822 0.800049C26.8822 0.800049 43.6326 0.800049 47.8095 1.94946ZM21.8605 12.5173V29.2564L35.2518 20.8871L21.8605 12.5173Z" fill="#071529"/>
</svg>
