<svg width="272" height="152" viewBox="0 0 272 152" fill="none" xmlns="http://www.w3.org/2000/svg">
<path d="M45.5668 124.608V105.961H4.46476V90.9909L43.0718 33.9996H63.5571V90.203H73.6685V105.961H63.5571V124.608H45.5668ZM22.1925 90.203H45.5668V56.0608L22.1925 90.203Z" fill="#071529"/>
<path d="M228.216 122V103.353H187.114V88.383L225.721 31.3917H246.206V87.5951H256.317V103.353H246.206V122H228.216ZM204.841 87.5951H228.216V53.4528L204.841 87.5951Z" fill="#071529"/>
<g clip-path="url(#clip0)">
<rect x="108.306" y="98.1586" width="44.7669" height="23.0102" rx="3.04415" fill="#FB9850" stroke="#F96C05" stroke-width="3.58136"/>
<rect x="113.141" y="28.0541" width="35.0973" height="23.0102" rx="3.04415" fill="#FB9850" stroke="#F96C05" stroke-width="3.58136"/>
<rect x="86.5495" y="37.7233" width="88.2804" height="73.7759" rx="17.5486" fill="#FB9850" stroke="#F96C05" stroke-width="3.58136"/>
<g clip-path="url(#clip1)">
<path fill-rule="evenodd" clip-rule="evenodd" d="M142.462 96.9985C146.641 96.9985 150.029 93.6104 150.029 89.431C150.029 85.2515 146.641 81.8634 142.462 81.8634C140.535 81.8634 138.777 82.5831 137.441 83.7682C134.863 83.0917 131.853 82.7034 128.639 82.7034C119.091 82.7034 111.351 86.1297 111.351 90.3563C111.351 94.583 119.091 98.0093 128.639 98.0093C132.703 98.0093 136.439 97.3886 139.391 96.3496C140.329 96.7667 141.368 96.9985 142.462 96.9985Z" fill="#071529"/>
<mask id="mask0" mask-type="alpha" maskUnits="userSpaceOnUse" x="111" y="81" width="40" height="18">
<path fill-rule="evenodd" clip-rule="evenodd" d="M142.462 96.9985C146.641 96.9985 150.029 93.6104 150.029 89.431C150.029 85.2515 146.641 81.8634 142.462 81.8634C140.535 81.8634 138.777 82.5831 137.441 83.7682C134.863 83.0917 131.853 82.7034 128.639 82.7034C119.091 82.7034 111.351 86.1297 111.351 90.3563C111.351 94.583 119.091 98.0093 128.639 98.0093C132.703 98.0093 136.439 97.3886 139.391 96.3496C140.329 96.7667 141.368 96.9985 142.462 96.9985Z" fill="white"/>
</mask>
<g mask="url(#mask0)">
<ellipse cx="122.225" cy="97.1357" rx="10.8758" ry="5.60255" fill="#EB5757"/>
</g>
</g>
<circle cx="117.394" cy="70.986" r="6.04354" fill="#071529"/>
<circle cx="139.15" cy="70.986" r="6.04354" fill="#071529"/>
<path d="M106.516 64.4308C106.516 64.4308 111.476 54.9996 117.736 58.4486" stroke="#071529" stroke-width="2.41742"/>
<path d="M149.163 64.4308C149.163 64.4308 144.203 54.9996 137.942 58.4486" stroke="#071529" stroke-width="2.41742"/>
</g>
<defs>
<clipPath id="clip0">
<rect width="91.8618" height="96.6966" fill="white" transform="translate(84.7588 26.2633)"/>
</clipPath>
<clipPath id="clip1">
<rect width="38.6786" height="16.9219" fill="white" transform="translate(111.35 81.8641)"/>
</clipPath>
</defs>
</svg>
