<svg width="100" height="26" viewBox="0 0 100 26" fill="none" xmlns="http://www.w3.org/2000/svg">
<path d="M14.7973 11.8667C14.8081 11.0321 15.0298 10.2137 15.4418 9.48774C15.8538 8.76179 16.4428 8.15185 17.1539 7.71468C16.7021 7.06952 16.1062 6.53857 15.4134 6.16402C14.7205 5.78947 13.9499 5.58163 13.1627 5.557C11.4835 5.38074 9.85552 6.56183 8.99981 6.56183C8.12754 6.56183 6.81004 5.5745 5.39131 5.60369C4.47364 5.63333 3.57929 5.90019 2.79541 6.37825C2.01154 6.8563 1.36486 7.52926 0.918393 8.33155C-1.01561 11.68 0.426982 16.601 2.27959 19.3076C3.20649 20.633 4.28977 22.1134 5.70722 22.0609C7.09428 22.0034 7.61232 21.1765 9.28662 21.1765C10.9454 21.1765 11.4314 22.0609 12.8776 22.0276C14.366 22.0034 15.3038 20.6963 16.1981 19.3584C16.8641 18.4141 17.3766 17.3703 17.7166 16.2659C16.8518 15.9002 16.1139 15.288 15.5948 14.5057C15.0757 13.7234 14.7983 12.8056 14.7973 11.8667Z" fill="white"/>
<path d="M12.0659 3.77578C12.8774 2.80157 13.2772 1.54939 13.1804 0.285156C11.9406 0.415377 10.7953 1.00794 9.97283 1.94477C9.57069 2.40243 9.26269 2.93487 9.06645 3.51164C8.8702 4.08841 8.78956 4.6982 8.82912 5.30616C9.44926 5.31254 10.0628 5.17813 10.6234 4.91304C11.1841 4.64795 11.6773 4.2591 12.0659 3.77578Z" fill="white"/>
<path d="M32.3311 18.7027H27.5977L26.4609 22.0591H24.4561L28.9395 9.64111H31.0225L35.5059 22.0591H33.4668L32.3311 18.7027ZM28.0879 17.1538H31.8399L29.9903 11.7066H29.9385L28.0879 17.1538Z" fill="white"/>
<path d="M45.1885 17.5344C45.1885 20.3479 43.6826 22.1555 41.4102 22.1555C40.8345 22.1856 40.262 22.053 39.7582 21.7729C39.2544 21.4927 38.8397 21.0764 38.5616 20.5715H38.5186V25.0559H36.6602V13.007H38.459V14.5129H38.4932C38.7841 14.0104 39.2059 13.5962 39.7135 13.3144C40.2211 13.0326 40.7957 12.8936 41.376 12.9123C43.6738 12.9123 45.1885 14.7287 45.1885 17.5344ZM43.2783 17.5344C43.2783 15.7014 42.3311 14.4963 40.8858 14.4963C39.4658 14.4963 38.5108 15.7268 38.5108 17.5344C38.5108 19.3586 39.4658 20.5803 40.8858 20.5803C42.3311 20.5803 43.2783 19.384 43.2783 17.5344Z" fill="white"/>
<path d="M55.1533 17.5344C55.1533 20.3479 53.6475 22.1555 51.375 22.1555C50.7994 22.1856 50.2269 22.053 49.7231 21.7728C49.2193 21.4927 48.8046 21.0764 48.5264 20.5715H48.4834V25.0559H46.625V13.007H48.4238V14.5129H48.458C48.749 14.0104 49.1707 13.5962 49.6783 13.3144C50.186 13.0326 50.7605 12.8936 51.3408 12.9123C53.6387 12.9123 55.1533 14.7287 55.1533 17.5344ZM53.2432 17.5344C53.2432 15.7014 52.2959 14.4963 50.8506 14.4963C49.4307 14.4963 48.4756 15.7268 48.4756 17.5344C48.4756 19.3586 49.4307 20.5803 50.8506 20.5803C52.2959 20.5803 53.2432 19.384 53.2432 17.5344H53.2432Z" fill="white"/>
<path d="M61.7393 18.5992C61.877 19.8306 63.0733 20.6392 64.708 20.6392C66.2744 20.6392 67.4014 19.8306 67.4014 18.7202C67.4014 17.7564 66.7217 17.1792 65.1123 16.7837L63.503 16.396C61.2227 15.8452 60.1641 14.7788 60.1641 13.0483C60.1641 10.9058 62.0313 9.43408 64.6826 9.43408C67.3066 9.43408 69.1055 10.9058 69.166 13.0483H67.29C67.1777 11.8091 66.1533 11.061 64.6563 11.061C63.1592 11.061 62.1348 11.8179 62.1348 12.9194C62.1348 13.7974 62.7891 14.314 64.3897 14.7094L65.7578 15.0454C68.3057 15.6479 69.3643 16.6714 69.3643 18.4878C69.3643 20.811 67.5137 22.2661 64.5703 22.2661C61.8164 22.2661 59.957 20.8452 59.8369 18.5991L61.7393 18.5992Z" fill="white"/>
<path d="M73.375 10.8628V13.0054H75.0967V14.4771H73.375V19.4683C73.375 20.2437 73.7197 20.605 74.4766 20.605C74.6809 20.6014 74.885 20.5871 75.0879 20.562V22.0249C74.7476 22.0885 74.4018 22.1172 74.0557 22.1108C72.2227 22.1108 71.5078 21.4223 71.5078 19.6665V14.4771H70.1914V13.0054H71.5078V10.8628H73.375Z" fill="white"/>
<path d="M76.0938 17.5327C76.0938 14.6841 77.7715 12.894 80.3877 12.894C83.0127 12.894 84.6826 14.684 84.6826 17.5327C84.6826 20.3892 83.0215 22.1714 80.3877 22.1714C77.7548 22.1714 76.0938 20.3892 76.0938 17.5327ZM82.7891 17.5327C82.7891 15.5786 81.8935 14.4253 80.3877 14.4253C78.8818 14.4253 77.9873 15.5874 77.9873 17.5327C77.9873 19.4946 78.8818 20.6392 80.3877 20.6392C81.8935 20.6392 82.789 19.4946 82.789 17.5327H82.7891Z" fill="white"/>
<path d="M86.2149 13.007H87.9873V14.548H88.0303C88.1502 14.0667 88.4322 13.6413 88.8288 13.3435C89.2254 13.0456 89.7124 12.8933 90.208 12.9122C90.4222 12.9115 90.6358 12.9347 90.8448 12.9816V14.7198C90.5744 14.6372 90.2924 14.5993 90.0098 14.6075C89.7398 14.5966 89.4706 14.6442 89.2208 14.7471C88.971 14.85 88.7463 15.0057 88.5624 15.2036C88.3784 15.4015 88.2394 15.6368 88.155 15.8935C88.0706 16.1502 88.0427 16.4221 88.0732 16.6905V22.0607H86.2148L86.2149 13.007Z" fill="white"/>
<path d="M99.4131 19.3999C99.1631 21.0435 97.5625 22.1714 95.5146 22.1714C92.8809 22.1714 91.2461 20.4067 91.2461 17.5757C91.2461 14.7358 92.8896 12.894 95.4365 12.894C97.9414 12.894 99.5166 14.6147 99.5166 17.3599V17.9966H93.1221V18.1089C93.0926 18.4421 93.1343 18.7778 93.2445 19.0936C93.3546 19.4094 93.5308 19.6982 93.7611 19.9408C93.9915 20.1833 94.2708 20.3741 94.5805 20.5004C94.8903 20.6267 95.2233 20.6856 95.5576 20.6733C95.9968 20.7145 96.4375 20.6128 96.8142 20.3833C97.1909 20.1539 97.4835 19.809 97.6484 19.3999L99.4131 19.3999ZM93.1309 16.6978H97.6572C97.6739 16.3982 97.6285 16.0983 97.5238 15.8171C97.4191 15.5359 97.2575 15.2794 97.0489 15.0636C96.8404 14.8479 96.5895 14.6775 96.3121 14.5633C96.0346 14.4491 95.7365 14.3935 95.4365 14.3999C95.1339 14.3981 94.8339 14.4562 94.5539 14.571C94.2738 14.6857 94.0193 14.8548 93.8049 15.0684C93.5905 15.2821 93.4206 15.536 93.3049 15.8157C93.1892 16.0953 93.1301 16.3951 93.1309 16.6978V16.6978Z" fill="white"/>
<path d="M27.8545 0.295833C28.2441 0.267874 28.6351 0.326734 28.9992 0.468167C29.3633 0.6096 29.6915 0.83008 29.9601 1.11371C30.2286 1.39733 30.4309 1.73703 30.5523 2.1083C30.6737 2.47957 30.7112 2.87316 30.6621 3.26067C30.6621 5.16692 29.6318 6.26267 27.8545 6.26267H25.6992V0.295833H27.8545ZM26.626 5.41883H27.751C28.0294 5.43547 28.308 5.38983 28.5665 5.28521C28.8251 5.1806 29.057 5.01965 29.2455 4.81408C29.434 4.60852 29.5743 4.36351 29.6562 4.09689C29.738 3.83027 29.7594 3.54876 29.7187 3.27283C29.7564 2.998 29.7329 2.71823 29.6498 2.45356C29.5667 2.1889 29.426 1.9459 29.238 1.74197C29.0499 1.53804 28.8191 1.37823 28.562 1.27399C28.3049 1.16976 28.028 1.12367 27.751 1.13904H26.626V5.41883Z" fill="white"/>
<path d="M31.7093 4.00728C31.681 3.71136 31.7148 3.41279 31.8086 3.13072C31.9025 2.84865 32.0542 2.58931 32.2542 2.36933C32.4541 2.14935 32.6978 1.97358 32.9697 1.8533C33.2415 1.73303 33.5355 1.6709 33.8328 1.6709C34.1301 1.6709 34.4241 1.73303 34.6959 1.8533C34.9678 1.97358 35.2115 2.14935 35.4114 2.36933C35.6114 2.58931 35.7631 2.84865 35.857 3.13072C35.9508 3.41279 35.9846 3.71136 35.9563 4.00728C35.9852 4.3035 35.9517 4.60248 35.8581 4.885C35.7645 5.16753 35.6129 5.42735 35.4129 5.64776C35.2129 5.86818 34.969 6.04431 34.6969 6.16485C34.4248 6.28538 34.1304 6.34765 33.8328 6.34765C33.5352 6.34765 33.2408 6.28538 32.9687 6.16485C32.6966 6.04431 32.4527 5.86818 32.2527 5.64776C32.0527 5.42735 31.9011 5.16753 31.8075 4.885C31.7139 4.60248 31.6804 4.3035 31.7093 4.00728ZM35.0423 4.00728C35.0423 3.03121 34.6038 2.46041 33.8343 2.46041C33.0618 2.46041 32.6273 3.03121 32.6273 4.00729C32.6273 4.99118 33.0618 5.55758 33.8343 5.55758C34.6038 5.55757 35.0423 4.98726 35.0423 4.00728H35.0423Z" fill="white"/>
<path d="M41.6016 6.26074H40.6797L39.749 2.94433H39.6787L38.752 6.26074H37.8389L36.5977 1.75781H37.499L38.3057 5.19381H38.3721L39.2979 1.75781H40.1504L41.0762 5.19381H41.1465L41.9492 1.75781H42.8379L41.6016 6.26074Z" fill="white"/>
<path d="M43.8818 1.75932H44.7373V2.47465H44.8037C44.9164 2.21773 45.1064 2.00236 45.3472 1.85855C45.5881 1.71475 45.8679 1.64967 46.1475 1.6724C46.3666 1.65593 46.5866 1.68896 46.7912 1.76906C46.9958 1.84916 47.1797 1.97426 47.3294 2.1351C47.4791 2.29595 47.5907 2.48841 47.6559 2.69823C47.7211 2.90805 47.7382 3.12985 47.7061 3.3472V6.2622H46.8174V3.57036C46.8174 2.84673 46.5029 2.48686 45.8457 2.48686C45.6969 2.47993 45.5484 2.50525 45.4104 2.56108C45.2723 2.61691 45.148 2.70193 45.0459 2.81032C44.9437 2.9187 44.8663 3.04789 44.8187 3.18902C44.7712 3.33015 44.7547 3.47989 44.7705 3.62797V6.26225H43.8818L43.8818 1.75932Z" fill="white"/>
<path d="M49.1221 0H50.0107V6.26074H49.1221V0Z" fill="white"/>
<path d="M51.2463 4.00736C51.2181 3.71142 51.2519 3.41284 51.3458 3.13076C51.4397 2.84868 51.5914 2.58933 51.7914 2.36934C51.9914 2.14935 52.2351 1.97358 52.507 1.85331C52.7788 1.73303 53.0728 1.6709 53.3701 1.6709C53.6674 1.6709 53.9614 1.73303 54.2333 1.85331C54.5052 1.97358 54.7489 2.14935 54.9489 2.36934C55.1488 2.58933 55.3006 2.84868 55.3945 3.13076C55.4883 3.41284 55.5222 3.71142 55.4939 4.00736C55.5227 4.30359 55.4892 4.60258 55.3956 4.8851C55.302 5.16763 55.1503 5.42744 54.9503 5.64785C54.7503 5.86826 54.5064 6.04438 54.2342 6.16491C53.9621 6.28544 53.6678 6.34771 53.3701 6.34771C53.0725 6.34771 52.7782 6.28544 52.506 6.16491C52.2339 6.04438 51.99 5.86826 51.79 5.64785C51.59 5.42744 51.4383 5.16763 51.3446 4.8851C51.251 4.60258 51.2175 4.30359 51.2463 4.00736ZM54.5793 4.00736C54.5793 3.03129 54.1409 2.46049 53.3713 2.46049C52.5989 2.46049 52.1644 3.03129 52.1644 4.00737C52.1644 4.99126 52.5989 5.55766 53.3713 5.55766C54.1409 5.55765 54.5794 4.98734 54.5794 4.00736H54.5793Z" fill="white"/>
<path d="M56.4297 4.9873C56.4297 4.17675 57.0332 3.70947 58.1045 3.64306L59.3242 3.57275V3.18408C59.3242 2.70849 59.0098 2.43994 58.4023 2.43994C57.9063 2.43994 57.5625 2.62207 57.4639 2.94043H56.6035C56.6943 2.16699 57.4219 1.6709 58.4434 1.6709C59.5723 1.6709 60.209 2.2329 60.209 3.18408V6.26074H59.3535V5.62793H59.2832C59.1405 5.85492 58.9401 6.03997 58.7025 6.16418C58.4648 6.28839 58.1985 6.34731 57.9307 6.33493C57.7416 6.35459 57.5506 6.33442 57.3698 6.27573C57.1891 6.21703 57.0226 6.1211 56.8812 5.99413C56.7398 5.86716 56.6265 5.71197 56.5488 5.53855C56.471 5.36514 56.4304 5.17735 56.4297 4.9873ZM59.3242 4.60253V4.22607L58.2246 4.29638C57.6045 4.33788 57.3232 4.54882 57.3232 4.94579C57.3232 5.35106 57.6748 5.5869 58.1582 5.5869C58.2999 5.60124 58.443 5.58694 58.579 5.54484C58.715 5.50275 58.8411 5.43374 58.9499 5.34189C59.0587 5.25005 59.1479 5.13727 59.2122 5.01025C59.2765 4.88323 59.3146 4.74457 59.3242 4.60253Z" fill="white"/>
<path d="M61.376 4.00734C61.376 2.58449 62.1074 1.68312 63.2451 1.68312C63.5265 1.67015 63.8058 1.73756 64.0504 1.87745C64.2949 2.01735 64.4945 2.22395 64.626 2.47312H64.6924V0H65.5811V6.26074H64.7295V5.54931H64.6592C64.5176 5.7968 64.311 6.00083 64.0617 6.13932C63.8125 6.2778 63.5301 6.34545 63.2451 6.33495C62.0996 6.335 61.376 5.43361 61.376 4.00734ZM62.294 4.00734C62.294 4.96242 62.7442 5.53713 63.4971 5.53713C64.2461 5.53713 64.709 4.95413 64.709 4.01125C64.709 3.07277 64.2412 2.48146 63.4971 2.48146C62.749 2.48146 62.2939 3.06007 62.2939 4.00734H62.294Z" fill="white"/>
<path d="M69.2581 4.00728C69.2298 3.71136 69.2636 3.41279 69.3575 3.13072C69.4513 2.84865 69.6031 2.58931 69.803 2.36933C70.003 2.14935 70.2467 1.97358 70.5185 1.8533C70.7904 1.73303 71.0844 1.6709 71.3816 1.6709C71.6789 1.6709 71.9729 1.73303 72.2447 1.8533C72.5166 1.97358 72.7603 2.14935 72.9602 2.36933C73.1602 2.58931 73.3119 2.84865 73.4058 3.13072C73.4996 3.41279 73.5335 3.71136 73.5052 4.00728C73.534 4.3035 73.5006 4.60248 73.407 4.885C73.3134 5.16753 73.1617 5.42735 72.9617 5.64776C72.7617 5.86818 72.5178 6.04431 72.2457 6.16485C71.9736 6.28538 71.6793 6.34765 71.3816 6.34765C71.084 6.34765 70.7897 6.28538 70.5175 6.16485C70.2454 6.04431 70.0015 5.86818 69.8015 5.64776C69.6015 5.42735 69.4499 5.16753 69.3563 4.885C69.2627 4.60248 69.2292 4.3035 69.2581 4.00728ZM72.5911 4.00728C72.5911 3.03121 72.1526 2.46041 71.3831 2.46041C70.6106 2.46041 70.1761 3.03121 70.1761 4.00729C70.1761 4.99118 70.6107 5.55758 71.3831 5.55758C72.1526 5.55757 72.5911 4.98726 72.5911 4.00728Z" fill="white"/>
<path d="M74.6973 1.75932H75.5527V2.47465H75.6191C75.7318 2.21773 75.9218 2.00236 76.1627 1.85855C76.4035 1.71475 76.6833 1.64967 76.9629 1.6724C77.182 1.65593 77.402 1.68896 77.6066 1.76906C77.8112 1.84916 77.9951 1.97426 78.1448 2.1351C78.2945 2.29595 78.4061 2.48841 78.4713 2.69823C78.5365 2.90805 78.5536 3.12985 78.5215 3.3472V6.2622H77.6328V3.57036C77.6328 2.84673 77.3184 2.48686 76.6611 2.48686C76.5124 2.47993 76.3639 2.50525 76.2258 2.56108C76.0878 2.61691 75.9634 2.70193 75.8613 2.81032C75.7592 2.9187 75.6817 3.04789 75.6342 3.18902C75.5866 3.33015 75.5702 3.47989 75.5859 3.62797V6.26225H74.6973V1.75932Z" fill="white"/>
<path d="M83.5439 0.636719V1.77832H84.5195V2.52686H83.5439V4.84229C83.5439 5.31397 83.7383 5.52051 84.1807 5.52051C84.2939 5.52015 84.4071 5.5133 84.5195 5.5V6.24023C84.3599 6.26878 84.1982 6.28397 84.0361 6.28564C83.0479 6.28564 82.6543 5.93798 82.6543 5.06982V2.52682H81.9395V1.77828H82.6543V0.636719H83.5439Z" fill="white"/>
<path d="M85.7324 0H86.6133V2.48145H86.6836C86.8017 2.22213 86.9969 2.00554 87.2426 1.86119C87.4883 1.71684 87.7726 1.65176 88.0566 1.67481C88.2745 1.66295 88.4924 1.69934 88.6947 1.78138C88.897 1.86342 89.0787 1.9891 89.2268 2.14943C89.3749 2.30977 89.4858 2.50082 89.5516 2.70896C89.6174 2.91709 89.6364 3.13718 89.6074 3.35352V6.26075H88.7178V3.57275C88.7178 2.85351 88.3828 2.48925 87.7549 2.48925C87.6022 2.47672 87.4485 2.49772 87.3048 2.55077C87.161 2.60383 87.0305 2.68766 86.9226 2.79639C86.8146 2.90513 86.7316 3.03615 86.6796 3.18029C86.6275 3.32443 86.6076 3.4782 86.6211 3.63085V6.26073H85.7325L85.7324 0Z" fill="white"/>
<path d="M94.7897 5.04597C94.669 5.45751 94.4074 5.81349 94.0507 6.05164C93.694 6.28979 93.2649 6.39494 92.8385 6.3487C92.5419 6.35653 92.2471 6.29971 91.9746 6.18218C91.7021 6.06465 91.4584 5.88923 91.2605 5.6681C91.0626 5.44696 90.9152 5.1854 90.8285 4.90158C90.7418 4.61776 90.7179 4.31847 90.7585 4.02449C90.719 3.7296 90.7433 3.42967 90.8298 3.145C90.9162 2.86033 91.0629 2.59756 91.2598 2.37449C91.4566 2.15141 91.6991 1.97324 91.9708 1.85203C92.2425 1.73083 92.5371 1.66941 92.8346 1.67195C94.0876 1.67195 94.8434 2.52795 94.8434 3.94195V4.25204H91.6637V4.30184C91.6498 4.46709 91.6706 4.63342 91.7247 4.79017C91.7788 4.94692 91.8651 5.09063 91.978 5.21208C92.0909 5.33354 92.228 5.43006 92.3804 5.49546C92.5328 5.56085 92.6971 5.59368 92.8629 5.59184C93.0755 5.61736 93.2909 5.57908 93.4816 5.48188C93.6724 5.38467 93.8299 5.23292 93.9342 5.04594L94.7897 5.04597ZM91.6637 3.5948H93.9381C93.9493 3.44367 93.9288 3.29187 93.8778 3.14915C93.8269 3.00644 93.7466 2.87596 93.6422 2.7661C93.5378 2.65624 93.4116 2.56944 93.2717 2.51126C93.1318 2.45309 92.9812 2.42483 92.8297 2.4283C92.676 2.42637 92.5235 2.45523 92.3811 2.51317C92.2387 2.57112 92.1094 2.65698 92.0008 2.76569C91.8921 2.8744 91.8063 3.00377 91.7484 3.14617C91.6905 3.28856 91.6617 3.4411 91.6637 3.5948H91.6637Z" fill="white"/>
</svg>
