<svg width="116" height="29" viewBox="0 0 116 29" fill="none" xmlns="http://www.w3.org/2000/svg">
<path d="M37.4495 4.37762C37.4677 4.74456 37.411 5.11137 37.2829 5.4557C37.1548 5.80003 36.9579 6.11469 36.7043 6.38052C36.4201 6.67528 36.0769 6.90672 35.6971 7.05969C35.3172 7.21266 34.9094 7.28372 34.5002 7.26822C34.0884 7.2719 33.6801 7.19324 33.2991 7.03685C32.9182 6.88046 32.5724 6.64949 32.2819 6.35753C31.9915 6.06557 31.7624 5.7185 31.6081 5.33672C31.4537 4.95495 31.3772 4.54617 31.3831 4.13442C31.3773 3.72265 31.4538 3.31387 31.6082 2.93209C31.7625 2.55031 31.9916 2.20322 32.282 1.91123C32.5724 1.61924 32.9182 1.38823 33.2992 1.23176C33.6801 1.0753 34.0884 0.996541 34.5002 1.00012C34.9236 0.998837 35.3427 1.08444 35.7317 1.25162C36.093 1.39806 36.4146 1.62776 36.6702 1.92202L36.1428 2.44982C35.9418 2.21327 35.6892 2.02605 35.4044 1.90262C35.1196 1.77919 34.8103 1.72284 34.5002 1.73792C34.1881 1.7363 33.879 1.79769 33.5912 1.9184C33.3034 2.03911 33.0429 2.21666 32.8253 2.44042C32.6078 2.66418 32.4376 2.92955 32.3251 3.22063C32.2125 3.5117 32.1598 3.8225 32.1702 4.13442C32.1628 4.60161 32.2943 5.0605 32.5479 5.45288C32.8016 5.84526 33.1662 6.15347 33.5953 6.33842C34.0243 6.52337 34.4987 6.57673 34.9582 6.49174C35.4176 6.40675 35.8415 6.18723 36.176 5.86102C36.4839 5.52925 36.6624 5.09793 36.6789 4.64562H34.5002V3.92492H37.4075C37.435 4.07426 37.4491 4.22577 37.4495 4.37762Z" fill="white" stroke="white" stroke-width="0.2" stroke-miterlimit="10"/>
<path d="M42.0586 1.87011H39.3262V3.77241H41.7901V4.49321H39.3262V6.39551H42.0586V7.13281H38.5557V1.13281H42.0586V1.87011Z" fill="white" stroke="white" stroke-width="0.2" stroke-miterlimit="10"/>
<path d="M45.3096 7.13281H44.5381V1.87011H42.8623V1.13281H46.9854V1.87011H45.3096V7.13281Z" fill="white" stroke="white" stroke-width="0.2" stroke-miterlimit="10"/>
<path d="M49.9688 7.13281V1.13281H50.7393V7.13281H49.9688Z" fill="white" stroke="white" stroke-width="0.2" stroke-miterlimit="10"/>
<path d="M54.1591 7.13281H53.3876V1.87011H51.7119V1.13281H55.8349V1.87011H54.1591V7.13281Z" fill="white" stroke="white" stroke-width="0.2" stroke-miterlimit="10"/>
<path d="M63.6404 6.3589C63.0564 6.94115 62.2654 7.2681 61.4407 7.2681C60.6161 7.2681 59.825 6.94115 59.241 6.3589C58.9521 6.06627 58.725 5.71854 58.5732 5.33637C58.4213 4.95421 58.3479 4.54541 58.3572 4.1343C58.3479 3.72319 58.4213 3.31439 58.5732 2.93223C58.725 2.55006 58.9521 2.20233 59.241 1.9097C59.5297 1.62097 59.8725 1.392 60.2497 1.2359C60.627 1.0798 61.0313 0.999639 61.4396 1C61.8479 1.00036 62.2521 1.08124 62.629 1.23801C63.006 1.39478 63.3484 1.62435 63.6365 1.9136C63.9257 2.20546 64.1532 2.55241 64.3057 2.93388C64.4582 3.31535 64.5325 3.72356 64.5242 4.1343C64.5333 4.54538 64.4598 4.9541 64.3079 5.33623C64.1561 5.71836 63.9291 6.06612 63.6404 6.3589ZM59.8103 5.8565C60.2429 6.28829 60.8291 6.53081 61.4402 6.53081C62.0514 6.53081 62.6376 6.28829 63.0701 5.8565C63.2919 5.62942 63.4654 5.35973 63.58 5.06372C63.6947 4.76772 63.7481 4.45154 63.7371 4.1343C63.7481 3.81706 63.6947 3.50088 63.58 3.20488C63.4654 2.90887 63.2919 2.63918 63.0701 2.4121C62.6376 1.98031 62.0514 1.73779 61.4402 1.73779C60.8291 1.73779 60.2429 1.98031 59.8103 2.4121C59.5888 2.63936 59.4157 2.90911 59.3012 3.20509C59.1867 3.50106 59.1334 3.81715 59.1443 4.1343C59.1334 4.45145 59.1867 4.76754 59.3012 5.06351C59.4157 5.35949 59.5888 5.62924 59.8103 5.8565Z" fill="white" stroke="white" stroke-width="0.2" stroke-miterlimit="10"/>
<path d="M65.6064 7.13281V1.13281H66.5449L69.4609 5.80031H69.4941L69.4609 4.64401V1.13281H70.2324V7.13281H69.4277L66.3769 2.23921H66.3437L66.3769 3.39551V7.13281H65.6064Z" fill="white" stroke="white" stroke-width="0.2" stroke-miterlimit="10"/>
<path d="M58.1666 15.8845C57.3261 15.8877 56.5054 16.1399 55.8081 16.6091C55.1108 17.0784 54.5682 17.7438 54.2487 18.5212C53.9293 19.2987 53.8473 20.1533 54.0133 20.9773C54.1792 21.8013 54.5856 22.5576 55.181 23.1508C55.7765 23.744 56.5344 24.1475 57.359 24.3103C58.1836 24.4731 59.0379 24.3879 59.8141 24.0655C60.5904 23.7431 61.2537 23.198 61.7203 22.4989C62.1869 21.7998 62.4359 20.9781 62.4359 20.1376C62.4442 19.5754 62.3393 19.0173 62.1274 18.4965C61.9156 17.9757 61.6012 17.5029 61.2029 17.106C60.8046 16.7092 60.3305 16.3966 59.8089 16.1868C59.2873 15.9769 58.7288 15.8741 58.1666 15.8845ZM58.1666 22.7153C57.649 22.7522 57.1323 22.6324 56.6837 22.3715C56.2351 22.1107 55.8754 21.7208 55.6515 21.2526C55.4276 20.7844 55.3499 20.2597 55.4284 19.7468C55.5069 19.2338 55.738 18.7563 56.0917 18.3766C56.4453 17.9968 56.9051 17.7323 57.4112 17.6175C57.9173 17.5027 58.4462 17.5429 58.9291 17.733C59.412 17.923 59.8265 18.254 60.1186 18.6829C60.4108 19.1118 60.567 19.6187 60.567 20.1376C60.5827 20.4655 60.5327 20.7931 60.4199 21.1013C60.307 21.4095 60.1337 21.6921 59.91 21.9323C59.6863 22.1725 59.4168 22.3655 59.1174 22.5C58.818 22.6344 58.4948 22.7077 58.1666 22.7153ZM48.8532 15.8845C48.0127 15.8877 47.192 16.1398 46.4947 16.6091C45.7973 17.0784 45.2547 17.7437 44.9352 18.5212C44.6158 19.2986 44.5338 20.1533 44.6998 20.9773C44.8657 21.8012 45.272 22.5576 45.8675 23.1508C46.4629 23.744 47.2208 24.1475 48.0454 24.3103C48.87 24.4731 49.7244 24.3879 50.5006 24.0655C51.2768 23.7432 51.9401 23.198 52.4068 22.4989C52.8734 21.7998 53.1224 20.9781 53.1224 20.1376C53.1307 19.5754 53.0258 19.0174 52.814 18.4966C52.6021 17.9758 52.2877 17.5029 51.8894 17.1061C51.4911 16.7093 51.017 16.3966 50.4954 16.1868C49.9738 15.9769 49.4154 15.8741 48.8532 15.8845ZM48.8532 22.7153C48.3356 22.7522 47.8189 22.6324 47.3703 22.3715C46.9217 22.1107 46.562 21.7208 46.3381 21.2526C46.1142 20.7844 46.0365 20.2597 46.115 19.7468C46.1935 19.2338 46.4246 18.7563 46.7783 18.3766C47.1319 17.9968 47.5917 17.7323 48.0978 17.6175C48.6039 17.5027 49.1328 17.5429 49.6157 17.733C50.0986 17.923 50.5131 18.254 50.8052 18.6829C51.0974 19.1118 51.2536 19.6187 51.2536 20.1376C51.2693 20.4655 51.2193 20.7931 51.1065 21.1013C50.9936 21.4096 50.8203 21.6921 50.5966 21.9323C50.3729 22.1725 50.1035 22.3655 49.804 22.5C49.5046 22.6345 49.1814 22.7077 48.8532 22.7153ZM37.7744 17.1895V18.9938H42.0921C42.0298 19.8401 41.6835 20.6406 41.1093 21.2654C40.6766 21.7064 40.1563 22.0519 39.5819 22.2794C39.0075 22.5069 38.3918 22.6115 37.7744 22.5864C36.5124 22.5693 35.3079 22.056 34.4215 21.1575C33.5351 20.259 33.0381 19.0477 33.0381 17.7855C33.0381 16.5234 33.5351 15.312 34.4215 14.4135C35.3079 13.515 36.5124 13.0017 37.7744 12.9846C38.9866 12.9688 40.1561 13.4319 41.0288 14.2734L42.3015 13.0007C41.7061 12.4112 40.9989 11.9466 40.2216 11.6339C39.4442 11.3213 38.6122 11.1671 37.7744 11.1802C36.8989 11.1675 36.0296 11.3289 35.217 11.6551C34.4045 11.9814 33.6649 12.4659 33.0412 13.0805C32.4176 13.6951 31.9224 14.4276 31.5844 15.2353C31.2463 16.043 31.0723 16.9099 31.0723 17.7855C31.0723 18.6611 31.2463 19.528 31.5844 20.3357C31.9224 21.1434 32.4176 21.8759 33.0412 22.4905C33.6649 23.1052 34.4045 23.5897 35.217 23.9159C36.0296 24.2421 36.8989 24.4036 37.7744 24.3908C38.6299 24.4263 39.4831 24.2795 40.2775 23.96C41.0719 23.6406 41.7893 23.1559 42.382 22.5381C43.4344 21.3894 43.9954 19.8743 43.9448 18.3172C43.949 17.9391 43.9165 17.5614 43.848 17.1895H37.7744ZM83.0827 18.591C82.8271 17.8207 82.3406 17.1476 81.6892 16.6634C81.0378 16.1792 80.2531 15.9073 79.4417 15.8845C78.8953 15.8879 78.3552 16.0021 77.8541 16.2201C77.353 16.4382 76.9013 16.7555 76.5264 17.1531C76.1514 17.5506 75.861 18.0201 75.6726 18.5331C75.4842 19.046 75.4018 19.5919 75.4303 20.1376C75.418 20.6968 75.5185 21.2527 75.7259 21.7722C75.9332 22.2916 76.2432 22.764 76.6371 23.161C77.0311 23.558 77.5011 23.8715 78.019 24.0828C78.5368 24.2941 79.092 24.3989 79.6512 24.3908C80.3519 24.3947 81.0425 24.2245 81.6611 23.8955C82.2797 23.5665 82.807 23.089 83.1954 22.5059L81.7455 21.5393C81.5283 21.9 81.2211 22.1981 80.8539 22.4043C80.4867 22.6105 80.0723 22.7176 79.6512 22.7153C79.2179 22.7319 78.7896 22.6179 78.4219 22.3881C78.0542 22.1583 77.764 21.8233 77.589 21.4265L83.2761 19.0744L83.0827 18.591ZM77.283 20.0088C77.263 19.6993 77.3049 19.3888 77.4063 19.0957C77.5077 18.8025 77.6666 18.5325 77.8736 18.3015C78.0806 18.0704 78.3316 17.883 78.6119 17.7502C78.8922 17.6173 79.1962 17.5417 79.5061 17.5278C79.8288 17.5066 80.1506 17.5808 80.4314 17.7413C80.7122 17.9017 80.9395 18.1412 81.085 18.43L77.283 20.0088ZM72.6592 24.133H74.528V11.6314H72.6592V24.133ZM69.5982 16.835H69.5338C69.2497 16.5263 68.903 16.2819 68.5168 16.1179C68.1306 15.954 67.7139 15.8744 67.2944 15.8845C66.1977 15.9312 65.1615 16.3997 64.402 17.1922C63.6425 17.9847 63.2184 19.04 63.2184 20.1377C63.2184 21.2354 63.6425 22.2906 64.402 23.0831C65.1615 23.8756 66.1977 24.3441 67.2944 24.3908C67.7155 24.402 68.134 24.3214 68.5207 24.1544C68.9074 23.9875 69.2532 23.7383 69.5338 23.4242H69.5982V24.0364C69.5982 25.6636 68.7283 26.5335 67.3266 26.5335C66.8595 26.5223 66.4063 26.3723 66.0247 26.1026C65.6431 25.8329 65.3505 25.4557 65.184 25.0191L63.5568 25.6958C63.8635 26.4425 64.3862 27.0806 65.0578 27.5283C65.7294 27.9761 66.5194 28.2131 67.3266 28.209C69.5177 28.209 71.3704 26.9202 71.3704 23.7786V16.1422H69.5982V16.835ZM67.4556 22.7153C66.8097 22.6605 66.2079 22.3653 65.7693 21.8879C65.3307 21.4105 65.0873 20.7859 65.0873 20.1377C65.0873 19.4894 65.3307 18.8648 65.7693 18.3874C66.2079 17.9101 66.8097 17.6148 67.4556 17.56C67.777 17.5757 68.0919 17.6559 68.3816 17.7959C68.6713 17.9359 68.9298 18.1328 69.1418 18.3748C69.3537 18.6169 69.5148 18.8991 69.6154 19.2047C69.716 19.5104 69.754 19.8331 69.7271 20.1537C69.7523 20.4724 69.7129 20.7928 69.6113 21.0958C69.5097 21.3989 69.3481 21.6783 69.136 21.9175C68.924 22.1566 68.6659 22.3505 68.3771 22.4876C68.0884 22.6247 67.775 22.7022 67.4556 22.7153ZM91.8366 11.6316H87.3654V24.133H89.2311V19.3966H91.8366C92.3644 19.4256 92.8925 19.3466 93.3887 19.1645C93.8849 18.9825 94.3388 18.7012 94.7226 18.3378C95.1065 17.9745 95.4122 17.5367 95.6211 17.0512C95.83 16.5657 95.9378 16.0427 95.9378 15.5141C95.9378 14.9856 95.83 14.4626 95.6211 13.9771C95.4122 13.4916 95.1065 13.0538 94.7226 12.6904C94.3388 12.327 93.8849 12.0457 93.3887 11.8637C92.8925 11.6817 92.3644 11.6027 91.8366 11.6316ZM91.8848 17.6568H89.2311V13.3715H91.8848C92.1699 13.3656 92.4534 13.4167 92.7185 13.5217C92.9836 13.6267 93.2251 13.7836 93.4289 13.9831C93.6326 14.1827 93.7944 14.4209 93.9049 14.6838C94.0154 14.9467 94.0723 15.229 94.0723 15.5142C94.0723 15.7993 94.0154 16.0816 93.9049 16.3445C93.7944 16.6074 93.6326 16.8456 93.4289 17.0452C93.2251 17.2447 92.9836 17.4016 92.7185 17.5066C92.4534 17.6117 92.1699 17.6627 91.8848 17.6568ZM103.417 15.8615C102.736 15.8218 102.058 15.9817 101.466 16.3217C100.875 16.6617 100.396 17.1669 100.087 17.7754L101.744 18.467C101.908 18.165 102.157 17.9174 102.46 17.7546C102.762 17.5917 103.106 17.5207 103.449 17.5502C103.922 17.504 104.394 17.6474 104.762 17.9488C105.13 18.2503 105.363 18.6853 105.411 19.1585V19.2872C104.812 18.9689 104.143 18.8032 103.465 18.8047C101.68 18.8047 99.8621 19.7858 99.8621 21.6193C99.8795 22.0057 99.9743 22.3847 100.141 22.7338C100.307 23.0829 100.543 23.3949 100.832 23.6514C101.122 23.9079 101.46 24.1037 101.826 24.227C102.193 24.3504 102.58 24.3988 102.966 24.3695C103.436 24.3972 103.905 24.2984 104.323 24.0834C104.742 23.8684 105.095 23.5451 105.347 23.1472H105.411V24.1122H107.212V19.3194C107.212 17.0999 105.556 15.8615 103.417 15.8615ZM103.191 22.7129C102.58 22.7129 101.728 22.4074 101.728 21.6514C101.728 20.6865 102.789 20.3165 103.706 20.3165C104.302 20.3007 104.89 20.4451 105.411 20.7347C105.342 21.277 105.08 21.776 104.672 22.1397C104.264 22.5034 103.738 22.707 103.191 22.7129ZM113.774 16.1349L111.635 21.5549H111.571L109.351 16.1349H107.341L110.67 23.7101L108.772 27.9239H110.718L115.849 16.1349H113.774ZM96.9671 24.133H98.8327V11.6316H96.9671V24.133Z" fill="white"/>
<path d="M0.466434 1.67099C0.13852 2.06306 -0.0270535 2.56569 0.00363445 3.07589V25.192C-0.0271427 25.7022 0.138442 26.2049 0.466434 26.5969L0.540435 26.669L12.9294 14.2801V13.9878L0.540435 1.59839L0.466434 1.67099Z" fill="white"/>
<path d="M17.0591 18.4096L12.9297 14.2782V13.9859L17.0601 9.85547L17.1532 9.90857L22.046 12.6887C23.4436 13.4827 23.4436 14.7819 22.046 15.5764L17.1532 18.3565L17.0591 18.4096Z" fill="white"/>
<path d="M17.1533 18.3567L12.9298 14.1328L0.466797 26.5957C0.751566 26.8469 1.11522 26.9905 1.49476 27.0017C1.87429 27.0129 2.2458 26.891 2.5449 26.6571L17.1533 18.3567Z" fill="white"/>
<path d="M17.1533 9.91133L2.5449 1.61093C2.2458 1.37703 1.87429 1.25512 1.49476 1.26634C1.11522 1.27755 0.751566 1.42118 0.466797 1.67233L12.9298 14.1353L17.1533 9.91133Z" fill="white"/>
<path opacity="0.2" d="M17.0602 18.2649L2.5449 26.5122C2.25731 26.7311 1.90632 26.8506 1.54489 26.8525C1.18345 26.8544 0.831204 26.7387 0.541297 26.5229L0.466797 26.5974L0.540797 26.6695L0.541297 26.669C0.831155 26.885 1.18343 27.0007 1.54489 26.9988C1.90635 26.9969 2.25736 26.8773 2.5449 26.6583L17.1533 18.3579L17.0602 18.2649Z" fill="#071529"/>
<path opacity="0.12" d="M0.466411 26.4513C0.138529 26.0592 -0.0270407 25.5566 0.00361146 25.0464V25.1925C-0.0270591 25.7027 0.138513 26.2053 0.466411 26.5974L0.540912 26.5229L0.466411 26.4513Z" fill="#071529"/>
<path opacity="0.12" d="M22.0455 15.4301L17.0596 18.2633L17.1527 18.3563L22.0455 15.5762C22.3333 15.4513 22.5823 15.2515 22.7667 14.9977C22.9511 14.7438 23.064 14.4451 23.0938 14.1328C23.0319 14.4157 22.9049 14.6802 22.723 14.9054C22.541 15.1306 22.309 15.3102 22.0455 15.4301Z" fill="#071529"/>
<path opacity="0.25" d="M2.54481 1.75616L22.046 12.8362C22.3097 12.956 22.5417 13.1357 22.7237 13.361C22.9057 13.5863 23.0326 13.851 23.0943 14.134C23.0648 13.8215 22.9519 13.5227 22.7675 13.2687C22.5831 13.0147 22.334 12.8149 22.046 12.6901L2.54481 1.61006C1.14721 0.815956 0.00390625 1.47556 0.00390625 3.07636V3.22246C0.00390625 1.62176 1.14721 0.962156 2.54481 1.75616Z" fill="white"/>
</svg>
