<svg width="106" height="46" viewBox="0 0 106 46" fill="none" xmlns="http://www.w3.org/2000/svg">
<path d="M1.5206 35.3H2.3346V43H1.5206V35.3ZM11.2749 35.3V43H10.6039L5.65394 36.752V43H4.83994V35.3H5.51094L10.4719 41.548V35.3H11.2749ZM14.6022 36.004V39.029H18.5842V39.733H14.6022V43H13.7882V35.3H19.0682V36.004H14.6022ZM20.7491 35.3H21.5631V43H20.7491V35.3ZM30.5035 35.3V43H29.8325L24.8825 36.752V43H24.0685V35.3H24.7395L29.7005 41.548V35.3H30.5035ZM33.0167 35.3H33.8307V43H33.0167V35.3ZM37.832 36.004H35.126V35.3H41.352V36.004H38.646V43H37.832V36.004ZM48.0974 42.296V43H42.6524V35.3H47.9324V36.004H43.4664V38.743H47.4484V39.436H43.4664V42.296H48.0974ZM56.2337 43.066C55.4711 43.066 54.7817 42.8973 54.1657 42.56C53.5571 42.2227 53.0767 41.757 52.7247 41.163C52.3801 40.5617 52.2077 39.8907 52.2077 39.15C52.2077 38.4093 52.3801 37.742 52.7247 37.148C53.0767 36.5467 53.5607 36.0773 54.1767 35.74C54.7927 35.4027 55.4821 35.234 56.2447 35.234C56.8167 35.234 57.3447 35.3293 57.8287 35.52C58.3127 35.7107 58.7234 35.9893 59.0607 36.356L58.5437 36.873C57.9424 36.2643 57.1834 35.96 56.2667 35.96C55.6581 35.96 55.1044 36.0993 54.6057 36.378C54.1071 36.6567 53.7147 37.038 53.4287 37.522C53.1501 38.006 53.0107 38.5487 53.0107 39.15C53.0107 39.7513 53.1501 40.294 53.4287 40.778C53.7147 41.262 54.1071 41.6433 54.6057 41.922C55.1044 42.2007 55.6581 42.34 56.2667 42.34C57.1907 42.34 57.9497 42.032 58.5437 41.416L59.0607 41.933C58.7234 42.2997 58.3091 42.582 57.8177 42.78C57.3337 42.9707 56.8057 43.066 56.2337 43.066ZM66.054 43L64.294 40.525C64.096 40.547 63.8907 40.558 63.678 40.558H61.61V43H60.796V35.3H63.678C64.6607 35.3 65.4307 35.5347 65.988 36.004C66.5453 36.4733 66.824 37.1187 66.824 37.94C66.824 38.5413 66.67 39.051 66.362 39.469C66.0613 39.8797 65.6287 40.1767 65.064 40.36L66.945 43H66.054ZM63.656 39.865C64.4187 39.865 65.0017 39.6963 65.405 39.359C65.8083 39.0217 66.01 38.5487 66.01 37.94C66.01 37.3167 65.8083 36.84 65.405 36.51C65.0017 36.1727 64.4187 36.004 63.656 36.004H61.61V39.865H63.656ZM74.1902 42.296V43H68.7452V35.3H74.0252V36.004H69.5592V38.743H73.5412V39.436H69.5592V42.296H74.1902ZM80.9326 40.943H76.6426L75.7186 43H74.8716L78.3916 35.3H79.1946L82.7146 43H81.8566L80.9326 40.943ZM80.6356 40.283L78.7876 36.147L76.9396 40.283H80.6356ZM85.0977 36.004H82.3917V35.3H88.6177V36.004H85.9117V43H85.0977V36.004ZM93.1766 43.066C92.414 43.066 91.721 42.8973 91.0976 42.56C90.4816 42.2153 89.9976 41.746 89.6456 41.152C89.301 40.558 89.1286 39.8907 89.1286 39.15C89.1286 38.4093 89.301 37.742 89.6456 37.148C89.9976 36.554 90.4816 36.0883 91.0976 35.751C91.721 35.4063 92.414 35.234 93.1766 35.234C93.9393 35.234 94.625 35.4027 95.2336 35.74C95.8496 36.0773 96.3336 36.5467 96.6856 37.148C97.0376 37.742 97.2136 38.4093 97.2136 39.15C97.2136 39.8907 97.0376 40.5617 96.6856 41.163C96.3336 41.757 95.8496 42.2227 95.2336 42.56C94.625 42.8973 93.9393 43.066 93.1766 43.066ZM93.1766 42.34C93.7853 42.34 94.3353 42.2043 94.8266 41.933C95.318 41.6543 95.703 41.273 95.9816 40.789C96.2603 40.2977 96.3996 39.7513 96.3996 39.15C96.3996 38.5487 96.2603 38.006 95.9816 37.522C95.703 37.0307 95.318 36.6493 94.8266 36.378C94.3353 36.0993 93.7853 35.96 93.1766 35.96C92.568 35.96 92.0143 36.0993 91.5156 36.378C91.0243 36.6493 90.6356 37.0307 90.3496 37.522C90.071 38.006 89.9316 38.5487 89.9316 39.15C89.9316 39.7513 90.071 40.2977 90.3496 40.789C90.6356 41.273 91.0243 41.6543 91.5156 41.933C92.0143 42.2043 92.568 42.34 93.1766 42.34ZM104.296 43L102.536 40.525C102.338 40.547 102.133 40.558 101.92 40.558H99.8522V43H99.0382V35.3H101.92C102.903 35.3 103.673 35.5347 104.23 36.004C104.788 36.4733 105.066 37.1187 105.066 37.94C105.066 38.5413 104.912 39.051 104.604 39.469C104.304 39.8797 103.871 40.1767 103.306 40.36L105.187 43H104.296ZM101.898 39.865C102.661 39.865 103.244 39.6963 103.647 39.359C104.051 39.0217 104.252 38.5487 104.252 37.94C104.252 37.3167 104.051 36.84 103.647 36.51C103.244 36.1727 102.661 36.004 101.898 36.004H99.8522V39.865H101.898Z" fill="white"/>
<path d="M55.7871 8.01714C55.5555 7.82928 56.9089 5.98867 56.9994 5.85265C57.7068 4.7917 58.5363 3.82109 59.5207 3.00806C61.4179 1.44103 63.7195 0.66495 66.1687 0.866154C70.5602 1.22648 74.3603 4.44011 75.5726 8.67567C76.3602 11.4268 76.05 14.4362 74.7185 16.9656C72.9169 20.3892 69.3953 22.6964 65.5431 22.9756C62.8133 23.1732 60.249 22.1569 58.1484 20.442C56.245 18.8884 54.7715 16.8132 53.21 14.931C52.2154 13.732 51.2336 12.5299 50.2778 11.3001C49.4698 10.2602 48.6632 9.21923 47.8567 8.17779C47.156 7.27289 46.4839 6.35104 45.6405 5.57137C43.9866 4.04232 41.9825 3.23801 39.7393 3.54957C38.184 3.76566 36.7171 4.4632 35.5379 5.499C33.86 6.97364 32.8403 9.12428 32.7417 11.3596C32.6134 14.2725 34.0021 17.0637 36.3654 18.7575C37.9269 19.8764 39.9437 20.5072 41.867 20.3579C44.6367 20.1428 46.7614 18.2863 48.6024 16.3728C48.7189 16.2516 50.0514 14.8032 50.2047 14.9967C50.2896 15.1034 49.9947 15.5392 49.9548 15.6111C49.6594 16.1398 49.3174 16.6433 48.9822 17.1468C47.5316 19.3221 45.4621 21.194 42.8979 21.8885C38.4564 23.0911 33.6223 20.6007 31.4077 16.6972C28.2378 11.1101 30.6502 3.88628 36.3532 1.11715C38.831 -0.0859753 41.7714 -0.386243 44.3812 0.556135C46.8161 1.43538 48.7051 3.16923 50.3335 5.132C52.9841 8.32767 55.5831 11.5382 58.1254 14.8211C59.6582 16.8009 61.3362 18.8822 63.9234 19.415C65.582 19.7563 67.3862 19.3714 68.8679 18.5922C70.9466 17.4989 72.4932 15.4761 73.0278 13.1838C73.6191 10.6477 72.9966 7.94784 71.382 5.9127C70.3169 4.56996 68.8418 3.5547 67.2114 3.03988C64.8025 2.28023 62.4003 2.66263 60.2899 4.05053C59.2493 4.73524 58.3636 5.59241 57.5085 6.49219C57.4042 6.60152 56.0063 8.19525 55.7871 8.01714C55.6787 7.92988 55.8954 8.10491 55.7871 8.01714Z" fill="#3555FF"/>
</svg>
