<svg width="174" height="119" viewBox="0 0 174 119" fill="none" xmlns="http://www.w3.org/2000/svg">
<path d="M2.76098 101.4H4.09298V114H2.76098V101.4ZM18.7226 101.4V114H17.6246L9.52463 103.776V114H8.19263V101.4H9.29063L17.4086 111.624V101.4H18.7226ZM24.1672 102.552V107.502H30.6832V108.654H24.1672V114H22.8352V101.4H31.4752V102.552H24.1672ZM34.2258 101.4H35.5578V114H34.2258V101.4ZM50.1875 101.4V114H49.0895L40.9895 103.776V114H39.6575V101.4H40.7555L48.8735 111.624V101.4H50.1875ZM54.3 101.4H55.632V114H54.3V101.4ZM62.1797 102.552H57.7517V101.4H67.9397V102.552H63.5117V114H62.1797V102.552ZM78.9776 112.848V114H70.0676V101.4H78.7076V102.552H71.3996V107.034H77.9156V108.168H71.3996V112.848H78.9776ZM92.2916 114.108C91.0436 114.108 89.9156 113.832 88.9076 113.28C87.9116 112.728 87.1256 111.966 86.5496 110.994C85.9856 110.01 85.7036 108.912 85.7036 107.7C85.7036 106.488 85.9856 105.396 86.5496 104.424C87.1256 103.44 87.9176 102.672 88.9256 102.12C89.9336 101.568 91.0616 101.292 92.3096 101.292C93.2456 101.292 94.1096 101.448 94.9016 101.76C95.6936 102.072 96.3656 102.528 96.9176 103.128L96.0716 103.974C95.0876 102.978 93.8456 102.48 92.3456 102.48C91.3496 102.48 90.4436 102.708 89.6276 103.164C88.8116 103.62 88.1696 104.244 87.7016 105.036C87.2456 105.828 87.0176 106.716 87.0176 107.7C87.0176 108.684 87.2456 109.572 87.7016 110.364C88.1696 111.156 88.8116 111.78 89.6276 112.236C90.4436 112.692 91.3496 112.92 92.3456 112.92C93.8576 112.92 95.0996 112.416 96.0716 111.408L96.9176 112.254C96.3656 112.854 95.6876 113.316 94.8836 113.64C94.0916 113.952 93.2276 114.108 92.2916 114.108ZM108.361 114L105.481 109.95C105.157 109.986 104.821 110.004 104.473 110.004H101.089V114H99.7571V101.4H104.473C106.081 101.4 107.341 101.784 108.253 102.552C109.165 103.32 109.621 104.376 109.621 105.72C109.621 106.704 109.369 107.538 108.865 108.222C108.373 108.894 107.665 109.38 106.741 109.68L109.819 114H108.361ZM104.437 108.87C105.685 108.87 106.639 108.594 107.299 108.042C107.959 107.49 108.289 106.716 108.289 105.72C108.289 104.7 107.959 103.92 107.299 103.38C106.639 102.828 105.685 102.552 104.437 102.552H101.089V108.87H104.437ZM121.675 112.848V114H112.765V101.4H121.405V102.552H114.097V107.034H120.613V108.168H114.097V112.848H121.675ZM132.708 110.634H125.688L124.176 114H122.79L128.55 101.4H129.864L135.624 114H134.22L132.708 110.634ZM132.222 109.554L129.198 102.786L126.174 109.554H132.222ZM139.523 102.552H135.095V101.4H145.283V102.552H140.855V114H139.523V102.552ZM152.744 114.108C151.496 114.108 150.362 113.832 149.342 113.28C148.334 112.716 147.542 111.948 146.966 110.976C146.402 110.004 146.12 108.912 146.12 107.7C146.12 106.488 146.402 105.396 146.966 104.424C147.542 103.452 148.334 102.69 149.342 102.138C150.362 101.574 151.496 101.292 152.744 101.292C153.992 101.292 155.114 101.568 156.11 102.12C157.118 102.672 157.91 103.44 158.486 104.424C159.062 105.396 159.35 106.488 159.35 107.7C159.35 108.912 159.062 110.01 158.486 110.994C157.91 111.966 157.118 112.728 156.11 113.28C155.114 113.832 153.992 114.108 152.744 114.108ZM152.744 112.92C153.74 112.92 154.64 112.698 155.444 112.254C156.248 111.798 156.878 111.174 157.334 110.382C157.79 109.578 158.018 108.684 158.018 107.7C158.018 106.716 157.79 105.828 157.334 105.036C156.878 104.232 156.248 103.608 155.444 103.164C154.64 102.708 153.74 102.48 152.744 102.48C151.748 102.48 150.842 102.708 150.026 103.164C149.222 103.608 148.586 104.232 148.118 105.036C147.662 105.828 147.434 106.716 147.434 107.7C147.434 108.684 147.662 109.578 148.118 110.382C148.586 111.174 149.222 111.798 150.026 112.254C150.842 112.698 151.748 112.92 152.744 112.92ZM170.939 114L168.059 109.95C167.735 109.986 167.399 110.004 167.051 110.004H163.667V114H162.335V101.4H167.051C168.659 101.4 169.919 101.784 170.831 102.552C171.743 103.32 172.199 104.376 172.199 105.72C172.199 106.704 171.947 107.538 171.443 108.222C170.951 108.894 170.243 109.38 169.319 109.68L172.397 114H170.939ZM167.015 108.87C168.263 108.87 169.217 108.594 169.877 108.042C170.537 107.49 170.867 106.716 170.867 105.72C170.867 104.7 170.537 103.92 169.877 103.38C169.217 102.828 168.263 102.552 167.015 102.552H163.667V108.87H167.015Z" fill="white"/>
<path d="M93.6494 20.5657C93.0555 20.0838 96.5273 15.3622 96.7594 15.0133C98.5739 12.2918 100.702 9.80194 103.227 7.71633C108.094 3.69655 113.998 1.70574 120.281 2.22187C131.546 3.14618 141.294 11.3898 144.404 22.255C146.424 29.3123 145.628 37.032 142.213 43.5205C137.591 52.3027 128.558 58.2211 118.676 58.9374C111.673 59.4443 105.095 56.8373 99.7067 52.4383C94.8242 48.4527 91.0442 43.1294 87.0388 38.3012C84.4874 35.2255 81.9688 32.1418 79.517 28.9871C77.4441 26.3195 75.3752 23.6493 73.3063 20.9778C71.5088 18.6565 69.7847 16.2918 67.6213 14.2918C63.3786 10.3694 58.2378 8.3062 52.4833 9.10542C48.4936 9.65973 44.7307 11.4491 41.706 14.1061C37.4017 17.8889 34.786 23.4058 34.533 29.1398C34.2039 36.6119 37.7661 43.772 43.8287 48.117C47.8341 50.9873 53.0078 52.6055 57.9414 52.2224C65.0463 51.6707 70.4966 46.9083 75.2192 41.9997C75.5181 41.689 78.9362 37.9734 79.3295 38.4698C79.5472 38.7436 78.7906 39.8615 78.6884 40.0458C77.9306 41.402 77.0534 42.6936 76.1933 43.9853C72.4724 49.5653 67.1638 54.3672 60.5859 56.1487C49.1924 59.2336 36.792 52.8451 31.111 42.8319C22.9795 28.4999 29.1679 9.96915 43.7972 2.86573C50.1535 -0.220545 57.6963 -0.990797 64.3908 1.42661C70.6369 3.68206 75.4827 8.12976 79.6599 13.1647C86.4593 21.3623 93.1263 29.598 99.6477 38.0195C103.58 43.0979 107.884 48.4369 114.521 49.8036C118.775 50.6792 123.404 49.6917 127.205 47.693C132.537 44.8885 136.504 39.6995 137.876 33.8193C139.393 27.3136 137.796 20.3879 133.654 15.1674C130.922 11.723 127.138 9.11858 122.955 7.79796C116.776 5.84929 110.614 6.83021 105.2 10.3905C102.531 12.1469 100.259 14.3458 98.0652 16.6539C97.7978 16.9343 94.2119 21.0226 93.6494 20.5657C93.9274 20.7909 93.3715 20.3419 93.6494 20.5657Z" fill="#3555FF"/>
</svg>
