<svg width="44" height="40" viewBox="0 0 44 40" fill="none" xmlns="http://www.w3.org/2000/svg">
<path d="M1.08322 17.1118V0.00292969H0V17.2187V17.789V18.1811H0.541611H0.9749H11.771V17.1118H1.08322Z" fill="#F96C05"/>
<path d="M24.2662 1.24951C22.7858 -0.104942 20.6555 0.00198837 20.4027 0.00198837H13.1813H12.6396V0.536639V0.928717V18.1801H13.7229V9.98214H21.1249C21.1971 9.98214 22.9303 10.0178 24.2301 8.73462C25.1689 7.80789 25.6383 6.48909 25.6383 4.81385C25.6383 3.28118 25.1689 2.10495 24.2662 1.24951ZM20.4388 1.07129C20.5111 1.07129 22.3886 1 23.508 2.03366C24.194 2.67524 24.5551 3.60197 24.5551 4.81385C24.5551 6.20394 24.194 7.27324 23.4719 7.95047C22.497 8.91284 21.161 8.91284 21.1249 8.91284H13.7229V1.07129" fill="#F96C05"/>
<path d="M43.7664 10.3385C43.7664 10.3385 43.297 10.3385 43.1526 10.3385H32.7176V11.4078H42.4666C41.8889 13.4039 40.0835 17.4672 34.8479 17.4672C29.6123 17.4672 26.7599 12.7979 26.7237 9.44745C26.6876 7.30885 27.6625 4.95639 29.2513 3.35243C30.2984 2.31877 32.1037 1.07126 34.8479 1.07126C38.8197 1.07126 40.5168 3.13857 41.0223 3.95837H42.2138C42.2138 3.92273 42.2138 3.92273 42.1777 3.88708C42.1416 3.74451 40.5168 0.00195312 34.8479 0.00195312C32.3926 0.00195312 30.1901 0.893038 28.493 2.60392C26.6876 4.42173 25.6044 7.0237 25.6405 9.44745C25.7127 13.8316 29.2513 18.5365 34.8479 18.5365C41.5639 18.5365 43.297 12.7623 43.6942 10.9801C43.7303 10.8375 43.7664 10.5168 43.7664 10.3385Z" fill="#F96C05"/>
<path d="M20.7293 31.8C20.7293 31.8 20.2599 31.8 20.1155 31.8H9.68047V32.8693H19.4295C18.8517 34.8653 17.0464 38.9286 11.8108 38.9286C6.57523 38.9286 3.72274 34.2594 3.68664 30.9089C3.65053 28.7703 4.62543 26.4178 6.21415 24.8139C7.26127 23.7802 9.06664 22.5327 11.8108 22.5327C15.7826 22.5327 17.4797 24.6 17.9852 25.4198H19.1767C19.1767 25.3842 19.1767 25.3842 19.1406 25.3485C19.1045 25.2059 17.4797 21.4634 11.8108 21.4634C9.3555 21.4634 7.15295 22.3545 5.4559 24.0653C3.65053 25.8832 2.56731 28.4851 2.60341 30.9089C2.67563 35.293 6.21415 39.9979 11.8108 39.9979C18.5268 39.9979 20.2599 34.2237 20.6571 32.4415C20.6932 32.299 20.7293 31.9782 20.7293 31.8Z" fill="#F96C05"/>
<path fill-rule="evenodd" clip-rule="evenodd" d="M31.3806 39.0244C35.9605 39.0244 39.6733 35.3116 39.6733 30.7317C39.6733 26.1517 35.9605 22.439 31.3806 22.439C26.8007 22.439 23.0879 26.1517 23.0879 30.7317C23.0879 35.3116 26.8007 39.0244 31.3806 39.0244ZM31.3806 40C36.4993 40 40.6489 35.8504 40.6489 30.7317C40.6489 25.6129 36.4993 21.4634 31.3806 21.4634C26.2619 21.4634 22.1123 25.6129 22.1123 30.7317C22.1123 35.8504 26.2619 40 31.3806 40Z" fill="#F96C05"/>
</svg>
