<svg width="252" height="30" viewBox="0 0 252 30" fill="none" xmlns="http://www.w3.org/2000/svg">
<path d="M81.261 8.4H82.593V21H81.261V8.4ZM97.2226 8.4V21H96.1246L88.0246 10.776V21H86.6926V8.4H87.7906L95.9086 18.624V8.4H97.2226ZM102.667 9.552V14.502H109.183V15.654H102.667V21H101.335V8.4H109.975V9.552H102.667ZM112.726 8.4H114.058V21H112.726V8.4ZM128.687 8.4V21H127.589L119.489 10.776V21H118.157V8.4H119.255L127.373 18.624V8.4H128.687ZM132.8 8.4H134.132V21H132.8V8.4ZM140.68 9.552H136.252V8.4H146.44V9.552H142.012V21H140.68V9.552ZM157.478 19.848V21H148.568V8.4H157.208V9.552H149.9V14.034H156.416V15.168H149.9V19.848H157.478ZM170.792 21.108C169.544 21.108 168.416 20.832 167.408 20.28C166.412 19.728 165.626 18.966 165.05 17.994C164.486 17.01 164.204 15.912 164.204 14.7C164.204 13.488 164.486 12.396 165.05 11.424C165.626 10.44 166.418 9.672 167.426 9.12C168.434 8.568 169.562 8.292 170.81 8.292C171.746 8.292 172.61 8.448 173.402 8.76C174.194 9.072 174.866 9.528 175.418 10.128L174.572 10.974C173.588 9.978 172.346 9.48 170.846 9.48C169.85 9.48 168.944 9.708 168.128 10.164C167.312 10.62 166.67 11.244 166.202 12.036C165.746 12.828 165.518 13.716 165.518 14.7C165.518 15.684 165.746 16.572 166.202 17.364C166.67 18.156 167.312 18.78 168.128 19.236C168.944 19.692 169.85 19.92 170.846 19.92C172.358 19.92 173.6 19.416 174.572 18.408L175.418 19.254C174.866 19.854 174.188 20.316 173.384 20.64C172.592 20.952 171.728 21.108 170.792 21.108ZM186.861 21L183.981 16.95C183.657 16.986 183.321 17.004 182.973 17.004H179.589V21H178.257V8.4H182.973C184.581 8.4 185.841 8.784 186.753 9.552C187.665 10.32 188.121 11.376 188.121 12.72C188.121 13.704 187.869 14.538 187.365 15.222C186.873 15.894 186.165 16.38 185.241 16.68L188.319 21H186.861ZM182.937 15.87C184.185 15.87 185.139 15.594 185.799 15.042C186.459 14.49 186.789 13.716 186.789 12.72C186.789 11.7 186.459 10.92 185.799 10.38C185.139 9.828 184.185 9.552 182.937 9.552H179.589V15.87H182.937ZM200.175 19.848V21H191.265V8.4H199.905V9.552H192.597V14.034H199.113V15.168H192.597V19.848H200.175ZM211.208 17.634H204.188L202.676 21H201.29L207.05 8.4H208.364L214.124 21H212.72L211.208 17.634ZM210.722 16.554L207.698 9.786L204.674 16.554H210.722ZM218.023 9.552H213.595V8.4H223.783V9.552H219.355V21H218.023V9.552ZM231.244 21.108C229.996 21.108 228.862 20.832 227.842 20.28C226.834 19.716 226.042 18.948 225.466 17.976C224.902 17.004 224.62 15.912 224.62 14.7C224.62 13.488 224.902 12.396 225.466 11.424C226.042 10.452 226.834 9.69 227.842 9.138C228.862 8.574 229.996 8.292 231.244 8.292C232.492 8.292 233.614 8.568 234.61 9.12C235.618 9.672 236.41 10.44 236.986 11.424C237.562 12.396 237.85 13.488 237.85 14.7C237.85 15.912 237.562 17.01 236.986 17.994C236.41 18.966 235.618 19.728 234.61 20.28C233.614 20.832 232.492 21.108 231.244 21.108ZM231.244 19.92C232.24 19.92 233.14 19.698 233.944 19.254C234.748 18.798 235.378 18.174 235.834 17.382C236.29 16.578 236.518 15.684 236.518 14.7C236.518 13.716 236.29 12.828 235.834 12.036C235.378 11.232 234.748 10.608 233.944 10.164C233.14 9.708 232.24 9.48 231.244 9.48C230.248 9.48 229.342 9.708 228.526 10.164C227.722 10.608 227.086 11.232 226.618 12.036C226.162 12.828 225.934 13.716 225.934 14.7C225.934 15.684 226.162 16.578 226.618 17.382C227.086 18.174 227.722 18.798 228.526 19.254C229.342 19.698 230.248 19.92 231.244 19.92ZM249.439 21L246.559 16.95C246.235 16.986 245.899 17.004 245.551 17.004H242.167V21H240.835V8.4H245.551C247.159 8.4 248.419 8.784 249.331 9.552C250.243 10.32 250.699 11.376 250.699 12.72C250.699 13.704 250.447 14.538 249.943 15.222C249.451 15.894 248.743 16.38 247.819 16.68L250.897 21H249.439ZM245.515 15.87C246.763 15.87 247.717 15.594 248.377 15.042C249.037 14.49 249.367 13.716 249.367 12.72C249.367 11.7 249.037 10.92 248.377 10.38C247.717 9.828 246.763 9.552 245.515 9.552H242.167V15.87H245.515Z" fill="black"/>
<path d="M33.6353 10.4571C33.3333 10.2121 35.0986 7.8113 35.2166 7.63389C36.1393 6.25005 37.2213 4.98404 38.5053 3.92356C40.9799 1.8796 43.9819 0.867326 47.1766 1.12977C52.9046 1.59975 57.8612 5.79144 59.4425 11.3161C60.4699 14.9046 60.0652 18.8298 58.3285 22.1291C55.9785 26.5946 51.3852 29.604 46.3606 29.9682C42.7999 30.2259 39.4553 28.9003 36.7153 26.6635C34.2326 24.637 32.3106 21.9302 30.274 19.4752C28.9766 17.9113 27.696 16.3433 26.4493 14.7392C25.3953 13.3828 24.3433 12.0251 23.2913 10.6667C22.3773 9.48637 21.5007 8.28396 20.4007 7.26701C18.2434 5.27259 15.6294 4.22349 12.7034 4.62987C10.6747 4.91173 8.76139 5.82157 7.2234 7.17261C5.03474 9.09606 3.70475 11.9012 3.57608 14.8169C3.40875 18.6162 5.22008 22.2569 8.30273 24.4663C10.3394 25.9258 12.97 26.7486 15.4787 26.5537C19.0914 26.2732 21.8627 23.8517 24.264 21.3558C24.416 21.1978 26.154 19.3085 26.354 19.5609C26.4647 19.7001 26.08 20.2685 26.028 20.3623C25.6427 21.0519 25.1967 21.7086 24.7593 22.3654C22.8673 25.2027 20.168 27.6443 16.8234 28.5502C11.0301 30.1188 4.72474 26.8704 1.83609 21.7789C-2.29856 14.4915 0.848092 5.06906 8.28673 1.45715C11.5187 -0.112142 15.354 -0.503795 18.758 0.725393C21.934 1.87223 24.398 4.13378 26.522 6.69392C29.9793 10.8622 33.3693 15.0499 36.6853 19.3319C38.6846 21.9142 40.8733 24.629 44.2479 25.3239C46.4113 25.7691 48.7646 25.267 50.6972 24.2507C53.4086 22.8247 55.4259 20.1862 56.1232 17.1962C56.8945 13.8883 56.0825 10.3668 53.9766 7.71222C52.5872 5.96082 50.6632 4.63657 48.5366 3.96507C45.3946 2.97422 42.2613 3.47299 39.5086 5.2833C38.1513 6.1764 36.9959 7.29445 35.8806 8.46807C35.7446 8.61068 33.9213 10.6895 33.6353 10.4571C33.494 10.3433 33.7766 10.5716 33.6353 10.4571Z" fill="#3555FF"/>
</svg>
