<svg width="190" height="53" viewBox="0 0 190 53" fill="none" xmlns="http://www.w3.org/2000/svg">
<path d="M42.1036 13.4971C41.7256 13.1904 43.9353 10.1852 44.083 9.96308C45.238 8.23083 46.5924 6.64608 48.1997 5.31861C51.2974 2.76005 55.0552 1.49292 59.0541 1.82143C66.2242 2.40974 72.4288 7.65677 74.4082 14.5724C75.6942 19.0643 75.1877 23.9778 73.0138 28.1077C70.0721 33.6975 64.3224 37.4645 58.0327 37.9204C53.5756 38.243 49.3888 36.5837 45.959 33.7838C42.8513 31.247 40.4454 27.8588 37.896 24.7857C36.272 22.828 34.6689 20.8653 33.1084 18.8573C31.7891 17.1594 30.4722 15.4598 29.1553 13.7594C28.0112 12.282 26.9139 10.7768 25.5369 9.50383C22.8364 7.00728 19.5643 5.69406 15.9017 6.20275C13.3623 6.55557 10.9672 7.69448 9.04202 9.38566C6.30233 11.7934 4.63748 15.3048 4.47642 18.9545C4.26696 23.7104 6.53432 28.2678 10.3931 31.0333C12.9425 32.8603 16.2355 33.8902 19.3757 33.6464C23.8979 33.2952 27.367 30.264 30.3729 27.1397C30.5632 26.942 32.7387 24.577 32.9891 24.8929C33.1276 25.0672 32.6461 25.7787 32.581 25.8961C32.0987 26.7593 31.5404 27.5814 30.9929 28.4035C28.6246 31.9552 25.2457 35.0115 21.0589 36.1454C13.8071 38.109 5.91428 34.0427 2.29836 27.6694C-2.87727 18.5472 1.06161 6.75251 10.3731 2.23124C14.4188 0.266851 19.2197 -0.223408 23.4807 1.31525C27.4563 2.75083 30.5406 5.58176 33.1994 8.78646C37.5271 14.0042 41.7706 19.2462 45.9215 24.6063C48.4242 27.8387 51.1638 31.237 55.3881 32.1069C58.0961 32.6642 61.0419 32.0356 63.4612 30.7635C66.8551 28.9784 69.3803 25.6757 70.2532 21.9329C71.2188 17.7921 70.2023 13.384 67.5661 10.0611C65.827 7.86879 63.4186 6.21113 60.7565 5.37057C56.8235 4.13026 52.9013 4.7546 49.4556 7.02069C47.7565 8.13865 46.3103 9.53819 44.9142 11.0073C44.744 11.1858 42.4616 13.7879 42.1036 13.4971C41.9267 13.3547 42.2805 13.6404 42.1036 13.4971Z" fill="white"/>
<path d="M94.043 14.5277V0.567383H96.0373V14.5277H94.043Z" fill="white"/>
<path d="M101.613 14.5277V0.567383H103.248L112.482 12.0348H111.624V0.567383H113.619V14.5277H111.983L102.75 3.0603H103.607V14.5277H101.613Z" fill="white"/>
<path d="M120.988 7.16863H128.188V8.88375H120.988V7.16863ZM121.188 14.5277H119.193V0.567383H129.045V2.30245H121.188V14.5277Z" fill="white"/>
<path d="M133.249 14.5277V0.567383H135.243V14.5277H133.249Z" fill="white"/>
<path d="M140.819 14.5277V0.567383H142.454L151.688 12.0348H150.83V0.567383H152.825V14.5277H151.189L141.955 3.0603H142.813V14.5277H140.819Z" fill="white"/>
<path d="M158.399 14.5277V0.567383H160.393V14.5277H158.399Z" fill="white"/>
<path d="M168.741 14.5277V2.30245H163.955V0.567383H175.502V2.30245H170.716V14.5277H168.741Z" fill="white"/>
<path d="M180.885 6.59027H188.065V8.28545H180.885V6.59027ZM181.064 12.7926H189.201V14.5277H179.07V0.567383H188.922V2.30245H181.064V12.7926Z" fill="white"/>
<path d="M100.27 38.1217C99.206 38.1217 98.2221 37.9489 97.318 37.6032C96.4272 37.2442 95.6495 36.7456 94.9847 36.1074C94.3332 35.456 93.8213 34.6981 93.449 33.8339C93.0768 32.9697 92.8906 32.0191 92.8906 30.982C92.8906 29.9449 93.0768 28.9943 93.449 28.1301C93.8213 27.2659 94.3398 26.5147 95.0046 25.8765C95.6694 25.225 96.4472 24.7264 97.338 24.3808C98.2421 24.0218 99.226 23.8423 100.29 23.8423C101.367 23.8423 102.357 24.0284 103.261 24.4007C104.179 24.7597 104.956 25.2981 105.595 26.0161L104.298 27.2725C103.766 26.7141 103.168 26.302 102.503 26.0361C101.839 25.7568 101.127 25.6172 100.369 25.6172C99.5849 25.6172 98.8537 25.7502 98.1756 26.0161C97.5108 26.282 96.9325 26.6543 96.4405 27.1329C95.9486 27.6116 95.563 28.1833 95.2838 28.8481C95.0179 29.4995 94.885 30.2109 94.885 30.982C94.885 31.7531 95.0179 32.4711 95.2838 33.1359C95.563 33.7874 95.9486 34.3524 96.4405 34.8311C96.9325 35.3097 97.5108 35.682 98.1756 35.9479C98.8537 36.2138 99.5849 36.3468 100.369 36.3468C101.127 36.3468 101.839 36.2138 102.503 35.9479C103.168 35.6687 103.766 35.2432 104.298 34.6715L105.595 35.9279C104.956 36.6459 104.179 37.191 103.261 37.5633C102.357 37.9356 101.36 38.1217 100.27 38.1217Z" fill="white"/>
<path d="M108.44 37.9622V24.0018H113.884C115.107 24.0018 116.151 24.1946 117.015 24.5802C117.879 24.9658 118.544 25.5242 119.01 26.2554C119.475 26.9867 119.708 27.8575 119.708 28.868C119.708 29.8785 119.475 30.7493 119.01 31.4806C118.544 32.1985 117.879 32.7503 117.015 33.1359C116.151 33.5214 115.107 33.7142 113.884 33.7142H109.536L110.434 32.7968V37.9622H108.44ZM117.773 37.9622L114.223 32.8966H116.357L119.947 37.9622H117.773ZM110.434 32.9963L109.536 32.0191H113.824C115.101 32.0191 116.065 31.7465 116.716 31.2014C117.381 30.643 117.713 29.8652 117.713 28.868C117.713 27.8708 117.381 27.0997 116.716 26.5546C116.065 26.0095 115.101 25.7369 113.824 25.7369H109.536L110.434 24.7397V32.9963Z" fill="white"/>
<path d="M124.744 30.0247H131.924V31.7199H124.744V30.0247ZM124.924 36.2271H133.061V37.9622H122.93V24.0018H132.782V25.7369H124.924V36.2271Z" fill="white"/>
<path d="M134.176 37.9622L140.498 24.0018H142.473L148.815 37.9622H146.72L141.077 25.1187H141.874L136.23 37.9622H134.176ZM136.868 34.4721L137.407 32.8766H145.265L145.843 34.4721H136.868Z" fill="white"/>
<path d="M152.968 37.9622V25.7369H148.182V24.0018H159.729V25.7369H154.942V37.9622H152.968Z" fill="white"/>
<path d="M168.008 38.1217C166.945 38.1217 165.954 37.9422 165.037 37.5832C164.133 37.2243 163.348 36.7257 162.683 36.0875C162.019 35.436 161.5 34.6782 161.128 33.814C160.756 32.9497 160.569 32.0058 160.569 30.982C160.569 29.9582 160.756 29.0143 161.128 28.15C161.5 27.2858 162.019 26.5346 162.683 25.8964C163.348 25.245 164.133 24.7397 165.037 24.3808C165.941 24.0218 166.931 23.8423 168.008 23.8423C169.072 23.8423 170.049 24.0218 170.94 24.3808C171.844 24.7264 172.628 25.225 173.293 25.8765C173.971 26.5147 174.49 27.2659 174.849 28.1301C175.221 28.9943 175.407 29.9449 175.407 30.982C175.407 32.0191 175.221 32.9697 174.849 33.8339C174.49 34.6981 173.971 35.456 173.293 36.1074C172.628 36.7456 171.844 37.2442 170.94 37.6032C170.049 37.9489 169.072 38.1217 168.008 38.1217ZM168.008 36.3468C168.779 36.3468 169.491 36.2138 170.142 35.9479C170.807 35.682 171.379 35.3097 171.857 34.8311C172.349 34.3391 172.728 33.7674 172.994 33.1159C173.273 32.4645 173.413 31.7531 173.413 30.982C173.413 30.2109 173.273 29.4995 172.994 28.8481C172.728 28.1966 172.349 27.6315 171.857 27.1529C171.379 26.6609 170.807 26.282 170.142 26.0161C169.491 25.7502 168.779 25.6172 168.008 25.6172C167.224 25.6172 166.499 25.7502 165.834 26.0161C165.183 26.282 164.611 26.6609 164.119 27.1529C163.627 27.6315 163.242 28.1966 162.963 28.8481C162.697 29.4995 162.564 30.2109 162.564 30.982C162.564 31.7531 162.697 32.4645 162.963 33.1159C163.242 33.7674 163.627 34.3391 164.119 34.8311C164.611 35.3097 165.183 35.682 165.834 35.9479C166.499 36.2138 167.224 36.3468 168.008 36.3468Z" fill="white"/>
<path d="M178.455 37.9622V24.0018H183.9C185.123 24.0018 186.167 24.1946 187.031 24.5802C187.895 24.9658 188.56 25.5242 189.025 26.2554C189.491 26.9867 189.723 27.8575 189.723 28.868C189.723 29.8785 189.491 30.7493 189.025 31.4806C188.56 32.1985 187.895 32.7503 187.031 33.1359C186.167 33.5214 185.123 33.7142 183.9 33.7142H179.552L180.45 32.7968V37.9622H178.455ZM187.789 37.9622L184.239 32.8966H186.373L189.963 37.9622H187.789ZM180.45 32.9963L179.552 32.0191H183.84C185.117 32.0191 186.08 31.7465 186.732 31.2014C187.397 30.643 187.729 29.8652 187.729 28.868C187.729 27.8708 187.397 27.0997 186.732 26.5546C186.08 26.0095 185.117 25.7369 183.84 25.7369H179.552L180.45 24.7397V32.9963Z" fill="white"/>
<path d="M141.893 48.1101H142.81V48.6467C142.909 48.4352 143.041 48.2746 143.206 48.1649C143.37 48.0552 143.55 48.0004 143.746 48.0004C143.885 48.0004 144.03 48.037 144.181 48.1101L143.848 49.0306C143.723 48.968 143.62 48.9366 143.539 48.9366C143.374 48.9366 143.234 49.0385 143.119 49.2422C143.007 49.4459 142.951 49.8454 142.951 50.4408L142.955 50.6484V52.372H141.893V48.1101Z" fill="white"/>
<path d="M149.746 50.5505H146.31C146.36 50.8535 146.492 51.095 146.706 51.2752C146.923 51.4528 147.198 51.5416 147.532 51.5416C147.932 51.5416 148.275 51.4019 148.563 51.1224L149.464 51.5455C149.239 51.8641 148.97 52.1004 148.657 52.2545C148.343 52.406 147.971 52.4817 147.54 52.4817C146.872 52.4817 146.327 52.2715 145.907 51.851C145.486 51.428 145.276 50.8992 145.276 50.2646C145.276 49.6143 145.485 49.075 145.903 48.6467C146.323 48.2158 146.849 48.0004 147.481 48.0004C148.153 48.0004 148.698 48.2158 149.119 48.6467C149.539 49.075 149.75 49.6417 149.75 50.3468L149.746 50.5505ZM148.672 49.7083C148.602 49.4707 148.462 49.2774 148.253 49.1286C148.047 48.9797 147.807 48.9053 147.532 48.9053C147.235 48.9053 146.974 48.9888 146.749 49.156C146.608 49.2604 146.477 49.4446 146.357 49.7083H148.672Z" fill="white"/>
<path d="M154.527 48.1101H155.592V52.372H154.527V51.9216C154.318 52.12 154.108 52.2637 153.896 52.3524C153.687 52.4386 153.46 52.4817 153.215 52.4817C152.664 52.4817 152.187 52.2689 151.785 51.8432C151.383 51.4149 151.182 50.8835 151.182 50.2489C151.182 49.5908 151.376 49.0515 151.765 48.6311C152.154 48.2106 152.627 48.0004 153.183 48.0004C153.439 48.0004 153.679 48.0487 153.904 48.1453C154.129 48.242 154.336 48.3869 154.527 48.5802V48.1101ZM153.403 48.9875C153.071 48.9875 152.795 49.1051 152.576 49.3401C152.357 49.5725 152.247 49.8715 152.247 50.2371C152.247 50.6054 152.358 50.9083 152.58 51.1459C152.805 51.3836 153.08 51.5024 153.407 51.5024C153.743 51.5024 154.023 51.3862 154.245 51.1538C154.467 50.9187 154.578 50.6119 154.578 50.2332C154.578 49.8624 154.467 49.5621 154.245 49.3323C154.023 49.1024 153.742 48.9875 153.403 48.9875Z" fill="white"/>
<path d="M157.322 46.4648H158.391V52.372H157.322V46.4648Z" fill="white"/>
<path d="M167.405 50.5505H163.97C164.02 50.8535 164.152 51.095 164.366 51.2752C164.582 51.4528 164.858 51.5416 165.192 51.5416C165.592 51.5416 165.935 51.4019 166.222 51.1224L167.123 51.5455C166.899 51.8641 166.63 52.1004 166.316 52.2545C166.003 52.406 165.631 52.4817 165.2 52.4817C164.532 52.4817 163.987 52.2715 163.567 51.851C163.146 51.428 162.936 50.8992 162.936 50.2646C162.936 49.6143 163.145 49.075 163.563 48.6467C163.983 48.2158 164.509 48.0004 165.141 48.0004C165.812 48.0004 166.358 48.2158 166.779 48.6467C167.199 49.075 167.409 49.6417 167.409 50.3468L167.405 50.5505ZM166.332 49.7083C166.262 49.4707 166.122 49.2774 165.913 49.1286C165.707 48.9797 165.466 48.9053 165.192 48.9053C164.895 48.9053 164.633 48.9888 164.409 49.156C164.268 49.2604 164.137 49.4446 164.017 49.7083H166.332Z" fill="white"/>
<path d="M171.646 48.7055L170.984 49.3675C170.715 49.1011 170.471 48.968 170.252 48.968C170.131 48.968 170.037 48.9941 169.97 49.0463C169.902 49.0959 169.868 49.1586 169.868 49.2343C169.868 49.2918 169.889 49.3453 169.93 49.3949C169.975 49.4419 170.082 49.5072 170.252 49.5908L170.643 49.7867C171.056 49.9904 171.339 50.198 171.493 50.4095C171.647 50.621 171.724 50.8691 171.724 51.1538C171.724 51.5324 171.585 51.8484 171.305 52.1017C171.028 52.3551 170.656 52.4817 170.189 52.4817C169.567 52.4817 169.071 52.2388 168.7 51.7531L169.358 51.0363C169.484 51.1825 169.63 51.3013 169.797 51.3927C169.967 51.4815 170.117 51.5259 170.248 51.5259C170.389 51.5259 170.502 51.492 170.588 51.4241C170.675 51.3562 170.718 51.2778 170.718 51.189C170.718 51.0245 170.562 50.8639 170.252 50.7072L169.891 50.527C169.202 50.1797 168.857 49.7449 168.857 49.2226C168.857 48.8857 168.986 48.5984 169.245 48.3608C169.506 48.1205 169.839 48.0004 170.244 48.0004C170.521 48.0004 170.78 48.0618 171.023 48.1845C171.269 48.3046 171.476 48.4783 171.646 48.7055Z" fill="white"/>
<path d="M173.462 46.5393H174.527V48.1101H175.162V49.0306H174.527V52.372H173.462V49.0306H172.914V48.1101H173.462V46.5393Z" fill="white"/>
<path d="M179.649 48.1101H180.715V52.372H179.649V51.9216C179.441 52.12 179.23 52.2637 179.019 52.3524C178.81 52.4386 178.583 52.4817 178.337 52.4817C177.786 52.4817 177.31 52.2689 176.907 51.8432C176.505 51.4149 176.304 50.8835 176.304 50.2489C176.304 49.5908 176.499 49.0515 176.888 48.6311C177.277 48.2106 177.75 48.0004 178.306 48.0004C178.562 48.0004 178.802 48.0487 179.027 48.1453C179.251 48.242 179.459 48.3869 179.649 48.5802V48.1101ZM178.525 48.9875C178.194 48.9875 177.918 49.1051 177.699 49.3401C177.479 49.5725 177.37 49.8715 177.37 50.2371C177.37 50.6054 177.481 50.9083 177.703 51.1459C177.927 51.3836 178.203 51.5024 178.529 51.5024C178.866 51.5024 179.145 51.3862 179.367 51.1538C179.589 50.9187 179.7 50.6119 179.7 50.2332C179.7 49.8624 179.589 49.5621 179.367 49.3323C179.145 49.1024 178.865 48.9875 178.525 48.9875Z" fill="white"/>
<path d="M182.688 46.5393H183.753V48.1101H184.388V49.0306H183.753V52.372H182.688V49.0306H182.139V48.1101H182.688V46.5393Z" fill="white"/>
<path d="M189.995 50.5505H186.56C186.61 50.8535 186.741 51.095 186.956 51.2752C187.172 51.4528 187.448 51.5416 187.782 51.5416C188.182 51.5416 188.525 51.4019 188.812 51.1224L189.713 51.5455C189.489 51.8641 189.22 52.1004 188.906 52.2545C188.593 52.406 188.221 52.4817 187.79 52.4817C187.121 52.4817 186.577 52.2715 186.156 51.851C185.736 51.428 185.526 50.8992 185.526 50.2646C185.526 49.6143 185.735 49.075 186.153 48.6467C186.573 48.2158 187.099 48.0004 187.731 48.0004C188.402 48.0004 188.948 48.2158 189.369 48.6467C189.789 49.075 189.999 49.6417 189.999 50.3468L189.995 50.5505ZM188.922 49.7083C188.852 49.4707 188.712 49.2774 188.503 49.1286C188.297 48.9797 188.056 48.9053 187.782 48.9053C187.484 48.9053 187.223 48.9888 186.999 49.156C186.858 49.2604 186.727 49.4446 186.607 49.7083H188.922Z" fill="white"/>
</svg>
