<svg width="357" height="111" viewBox="0 0 357 111" fill="none" xmlns="http://www.w3.org/2000/svg">
<path d="M79.0693 24.5825C78.3593 24.0064 82.5092 18.3627 82.7866 17.9456C84.9556 14.6925 87.4991 11.7164 90.5175 9.22344C96.3349 4.41853 103.392 2.03889 110.902 2.65584C124.367 3.76067 136.019 13.6144 139.736 26.6017C142.152 35.0374 141.2 44.2648 137.118 52.0206C131.593 62.5181 120.796 69.5925 108.984 70.4486C100.613 71.0546 92.7508 67.9384 86.3097 62.6802C80.4735 57.9162 75.9553 51.5532 71.1675 45.782C68.1178 42.1055 65.1072 38.4196 62.1766 34.6487C59.6989 31.4601 57.2259 28.2684 54.7529 25.0751C52.6043 22.3004 50.5434 19.4738 47.9576 17.0832C42.8862 12.3947 36.7412 9.92851 29.8629 10.8838C25.0939 11.5464 20.5961 13.6852 16.9806 16.8612C11.8356 21.3829 8.70906 27.9772 8.40659 34.8312C8.01323 43.7627 12.2713 52.3212 19.5179 57.5149C24.3057 60.9458 30.4898 62.8801 36.3871 62.4221C44.8796 61.7627 51.3944 56.0701 57.0394 50.2029C57.3967 49.8314 61.4823 45.3901 61.9525 45.9834C62.2127 46.3108 61.3084 47.6469 61.1862 47.8673C60.2803 49.4883 59.2319 51.0323 58.2038 52.5762C53.7561 59.2461 47.4106 64.9858 39.5481 67.1152C25.9293 70.8027 11.1068 63.1665 4.31624 51.1975C-5.40342 34.0664 1.99368 11.9163 19.4803 3.42544C27.078 -0.263621 36.094 -1.18431 44.096 1.70524C51.5621 4.40121 57.3544 9.71762 62.3474 15.7359C70.4748 25.5346 78.444 35.3789 86.2391 45.4452C90.9391 51.5154 96.0842 57.8973 104.017 59.531C109.103 60.5775 114.635 59.3972 119.178 57.0081C125.552 53.6558 130.294 47.4534 131.933 40.4246C133.747 32.6483 131.838 24.37 126.887 18.1297C123.621 14.0126 119.098 10.8996 114.099 9.32101C106.713 6.99174 99.347 8.16425 92.8762 12.4199C89.6854 14.5194 86.9694 17.1477 84.3475 19.9066C84.0278 20.2418 79.7416 25.1286 79.0693 24.5825C78.737 24.3149 79.4015 24.8516 79.0693 24.5825Z" fill="white"/>
<path d="M176.61 26.5184V0.30127H180.355V26.5184H176.61Z" fill="white"/>
<path d="M190.826 26.5184V0.30127H193.897L211.237 21.8367H209.627V0.30127H213.372V26.5184H210.301L192.96 4.98289H194.571V26.5184H190.826Z" fill="white"/>
<path d="M227.212 12.6982H240.733V15.9192H227.212V12.6982ZM227.587 26.5184H223.841V0.30127H242.343V3.55968H227.587V26.5184Z" fill="white"/>
<path d="M250.237 26.5184V0.30127H253.982V26.5184H250.237Z" fill="white"/>
<path d="M264.453 26.5184V0.30127H267.524L284.865 21.8367H283.254V0.30127H287V26.5184H283.928L266.588 4.98289H268.198V26.5184H264.453Z" fill="white"/>
<path d="M297.469 26.5184V0.30127H301.214V26.5184H297.469Z" fill="white"/>
<path d="M316.891 26.5184V3.55968H307.902V0.30127H329.587V3.55968H320.598V26.5184H316.891Z" fill="white"/>
<path d="M339.696 11.6121H353.179V14.7956H339.696V11.6121ZM340.033 23.26H355.314V26.5184H336.288V0.30127H354.79V3.55968H340.033V23.26Z" fill="white"/>
<path d="M188.303 70.8251C186.305 70.8251 184.457 70.5005 182.76 69.8514C181.087 69.1772 179.626 68.2409 178.378 67.0424C177.154 65.8189 176.193 64.3957 175.494 62.7727C174.795 61.1498 174.445 59.3645 174.445 57.417C174.445 55.4694 174.795 53.6841 175.494 52.0612C176.193 50.4382 177.167 49.0275 178.415 47.829C179.663 46.6055 181.124 45.6692 182.797 45.02C184.495 44.3459 186.343 44.0088 188.34 44.0088C190.363 44.0088 192.223 44.3584 193.921 45.0575C195.643 45.7316 197.104 46.7429 198.303 48.0912L195.868 50.4507C194.869 49.402 193.746 48.628 192.497 48.1286C191.249 47.6043 189.913 47.3421 188.49 47.3421C187.017 47.3421 185.643 47.5918 184.37 48.0912C183.122 48.5905 182.035 49.2897 181.112 50.1885C180.188 51.0874 179.464 52.1611 178.939 53.4095C178.44 54.633 178.19 55.9688 178.19 57.417C178.19 58.8651 178.44 60.2134 178.939 61.4619C179.464 62.6853 180.188 63.7465 181.112 64.6454C182.035 65.5443 183.122 66.2434 184.37 66.7428C185.643 67.2421 187.017 67.4918 188.49 67.4918C189.913 67.4918 191.249 67.2421 192.497 66.7428C193.746 66.2184 194.869 65.4194 195.868 64.3458L198.303 66.7053C197.104 68.0536 195.643 69.0773 193.921 69.7764C192.223 70.4756 190.35 70.8251 188.303 70.8251Z" fill="white"/>
<path d="M203.645 70.5255V44.3084H213.87C216.167 44.3084 218.127 44.6705 219.75 45.3945C221.373 46.1186 222.622 47.1673 223.496 48.5406C224.369 49.9139 224.806 51.5493 224.806 53.4469C224.806 55.3446 224.369 56.98 223.496 58.3533C222.622 59.7016 221.373 60.7378 219.75 61.4619C218.127 62.186 216.167 62.548 213.87 62.548H205.705L207.391 60.8252V70.5255H203.645ZM221.173 70.5255L214.507 61.0124H218.514L225.256 70.5255H221.173ZM207.391 61.1997L205.705 59.3645H213.758C216.155 59.3645 217.965 58.8527 219.188 57.8289C220.437 56.7803 221.061 55.3196 221.061 53.4469C221.061 51.5743 220.437 50.1261 219.188 49.1024C217.965 48.0787 216.155 47.5668 213.758 47.5668H205.705L207.391 45.6942V61.1997Z" fill="white"/>
<path d="M234.266 55.6192H247.749V58.8027H234.266V55.6192ZM234.603 67.2671H249.884V70.5255H230.857V44.3084H249.359V47.5668H234.603V67.2671Z" fill="white"/>
<path d="M251.978 70.5255L263.851 44.3084H267.558L279.468 70.5255H275.536L264.937 46.4058H266.435L255.836 70.5255H251.978ZM257.034 63.9712L258.045 60.975H272.802L273.888 63.9712H257.034Z" fill="white"/>
<path d="M287.269 70.5255V47.5668H278.28V44.3084H299.965V47.5668H290.976V70.5255H287.269Z" fill="white"/>
<path d="M315.514 70.8251C313.516 70.8251 311.656 70.4881 309.933 69.8139C308.235 69.1397 306.762 68.2034 305.514 67.0049C304.265 65.7815 303.292 64.3582 302.592 62.7353C301.893 61.1123 301.544 59.3395 301.544 57.417C301.544 55.4944 301.893 53.7216 302.592 52.0986C303.292 50.4757 304.265 49.0649 305.514 47.8664C306.762 46.643 308.235 45.6942 309.933 45.02C311.631 44.3459 313.491 44.0088 315.514 44.0088C317.511 44.0088 319.346 44.3459 321.019 45.02C322.717 45.6692 324.19 46.6055 325.439 47.829C326.712 49.0275 327.686 50.4382 328.36 52.0612C329.059 53.6841 329.409 55.4694 329.409 57.417C329.409 59.3645 329.059 61.1498 328.36 62.7727C327.686 64.3957 326.712 65.8189 325.439 67.0424C324.19 68.2409 322.717 69.1772 321.019 69.8514C319.346 70.5005 317.511 70.8251 315.514 70.8251ZM315.514 67.4918C316.962 67.4918 318.298 67.2421 319.521 66.7428C320.77 66.2434 321.843 65.5443 322.742 64.6454C323.666 63.7215 324.378 62.6479 324.877 61.4244C325.401 60.201 325.663 58.8651 325.663 57.417C325.663 55.9688 325.401 54.633 324.877 53.4095C324.378 52.186 323.666 51.1249 322.742 50.226C321.843 49.3021 320.77 48.5905 319.521 48.0912C318.298 47.5918 316.962 47.3421 315.514 47.3421C314.041 47.3421 312.68 47.5918 311.431 48.0912C310.208 48.5905 309.134 49.3021 308.21 50.226C307.287 51.1249 306.562 52.186 306.038 53.4095C305.539 54.633 305.289 55.9688 305.289 57.417C305.289 58.8651 305.539 60.201 306.038 61.4244C306.562 62.6479 307.287 63.7215 308.21 64.6454C309.134 65.5443 310.208 66.2434 311.431 66.7428C312.68 67.2421 314.041 67.4918 315.514 67.4918Z" fill="white"/>
<path d="M335.133 70.5255V44.3084H345.358C347.655 44.3084 349.615 44.6705 351.238 45.3945C352.861 46.1186 354.109 47.1673 354.983 48.5406C355.857 49.9139 356.294 51.5493 356.294 53.4469C356.294 55.3446 355.857 56.98 354.983 58.3533C354.109 59.7016 352.861 60.7378 351.238 61.4619C349.615 62.186 347.655 62.548 345.358 62.548H337.193L338.879 60.8252V70.5255H335.133ZM352.661 70.5255L345.995 61.0124H350.002L356.744 70.5255H352.661ZM338.879 61.1997L337.193 59.3645H345.246C347.643 59.3645 349.453 58.8527 350.676 57.8289C351.925 56.7803 352.549 55.3196 352.549 53.4469C352.549 51.5743 351.925 50.1261 350.676 49.1024C349.453 48.0787 347.643 47.5668 345.246 47.5668H337.193L338.879 45.6942V61.1997Z" fill="white"/>
<path d="M263.221 95.9609H264.478V97.3584C264.853 96.8076 265.248 96.3975 265.664 96.1279C266.08 95.8525 266.514 95.7148 266.965 95.7148C267.305 95.7148 267.668 95.8232 268.055 96.04L267.413 97.0771C267.155 96.9658 266.938 96.9102 266.763 96.9102C266.353 96.9102 265.957 97.0801 265.576 97.4199C265.195 97.7539 264.905 98.2754 264.706 98.9844C264.554 99.5293 264.478 100.631 264.478 102.289V105.523H263.221V95.9609ZM277.151 102.351L278.188 102.896C277.849 103.563 277.456 104.103 277.011 104.513C276.565 104.923 276.064 105.236 275.508 105.453C274.951 105.664 274.321 105.77 273.618 105.77C272.06 105.77 270.841 105.26 269.962 104.24C269.083 103.215 268.644 102.058 268.644 100.769C268.644 99.5557 269.016 98.4746 269.76 97.5254C270.703 96.3184 271.966 95.7148 273.548 95.7148C275.177 95.7148 276.478 96.333 277.45 97.5693C278.142 98.4424 278.493 99.5322 278.505 100.839H269.909C269.933 101.952 270.287 102.866 270.973 103.581C271.658 104.29 272.505 104.645 273.513 104.645C273.999 104.645 274.471 104.56 274.928 104.39C275.391 104.22 275.783 103.994 276.105 103.713C276.428 103.432 276.776 102.978 277.151 102.351ZM277.151 99.7754C276.987 99.1191 276.747 98.5947 276.431 98.2021C276.12 97.8096 275.707 97.4932 275.191 97.2529C274.676 97.0127 274.134 96.8926 273.565 96.8926C272.628 96.8926 271.822 97.1943 271.148 97.7979C270.656 98.2373 270.284 98.8965 270.032 99.7754H277.151ZM290.335 95.9609V105.523H289.122V103.88C288.606 104.507 288.026 104.979 287.382 105.295C286.743 105.611 286.043 105.77 285.281 105.77C283.928 105.77 282.771 105.28 281.81 104.302C280.854 103.317 280.377 102.122 280.377 100.716C280.377 99.3389 280.86 98.1611 281.827 97.1826C282.794 96.2041 283.957 95.7148 285.316 95.7148C286.102 95.7148 286.811 95.8818 287.443 96.2158C288.082 96.5498 288.642 97.0508 289.122 97.7188V95.9609H290.335ZM285.413 96.9014C284.728 96.9014 284.095 97.0713 283.515 97.4111C282.935 97.7451 282.472 98.2168 282.126 98.8262C281.786 99.4355 281.616 100.08 281.616 100.76C281.616 101.434 281.789 102.078 282.135 102.693C282.48 103.309 282.943 103.789 283.523 104.135C284.109 104.475 284.736 104.645 285.404 104.645C286.078 104.645 286.717 104.475 287.32 104.135C287.924 103.795 288.387 103.335 288.709 102.755C289.037 102.175 289.201 101.521 289.201 100.795C289.201 99.6875 288.835 98.7617 288.103 98.0176C287.376 97.2734 286.479 96.9014 285.413 96.9014ZM292.928 92.2695H294.158V105.523H292.928V92.2695ZM309.759 102.351L310.796 102.896C310.456 103.563 310.063 104.103 309.618 104.513C309.173 104.923 308.672 105.236 308.115 105.453C307.559 105.664 306.929 105.77 306.226 105.77C304.667 105.77 303.448 105.26 302.569 104.24C301.69 103.215 301.251 102.058 301.251 100.769C301.251 99.5557 301.623 98.4746 302.367 97.5254C303.311 96.3184 304.573 95.7148 306.155 95.7148C307.784 95.7148 309.085 96.333 310.058 97.5693C310.749 98.4424 311.101 99.5322 311.112 100.839H302.517C302.54 101.952 302.895 102.866 303.58 103.581C304.266 104.29 305.112 104.645 306.12 104.645C306.606 104.645 307.078 104.56 307.535 104.39C307.998 104.22 308.391 103.994 308.713 103.713C309.035 103.432 309.384 102.978 309.759 102.351ZM309.759 99.7754C309.595 99.1191 309.354 98.5947 309.038 98.2021C308.728 97.8096 308.314 97.4932 307.799 97.2529C307.283 97.0127 306.741 96.8926 306.173 96.8926C305.235 96.8926 304.43 97.1943 303.756 97.7979C303.264 98.2373 302.892 98.8965 302.64 99.7754H309.759ZM318.223 97.0068L317.432 97.8242C316.775 97.1855 316.134 96.8662 315.507 96.8662C315.108 96.8662 314.766 96.998 314.479 97.2617C314.197 97.5254 314.057 97.833 314.057 98.1846C314.057 98.4951 314.174 98.791 314.408 99.0723C314.643 99.3594 315.135 99.6963 315.885 100.083C316.799 100.558 317.42 101.015 317.748 101.454C318.07 101.899 318.231 102.4 318.231 102.957C318.231 103.742 317.956 104.407 317.405 104.952C316.854 105.497 316.166 105.77 315.34 105.77C314.789 105.77 314.262 105.649 313.758 105.409C313.26 105.169 312.847 104.838 312.519 104.416L313.292 103.537C313.919 104.246 314.584 104.601 315.287 104.601C315.779 104.601 316.198 104.442 316.544 104.126C316.89 103.81 317.062 103.438 317.062 103.01C317.062 102.658 316.948 102.345 316.72 102.069C316.491 101.8 315.976 101.46 315.173 101.05C314.312 100.604 313.726 100.165 313.415 99.7314C313.104 99.2979 312.949 98.8027 312.949 98.2461C312.949 97.5195 313.195 96.916 313.688 96.4355C314.186 95.9551 314.812 95.7148 315.568 95.7148C316.447 95.7148 317.332 96.1455 318.223 97.0068ZM321.483 92.4102H322.723V95.9609H324.674V97.0156H322.723V105.523H321.483V97.0156H319.805V95.9609H321.483V92.4102ZM336.038 95.9609V105.523H334.825V103.88C334.31 104.507 333.729 104.979 333.085 105.295C332.446 105.611 331.746 105.77 330.984 105.77C329.631 105.77 328.474 105.28 327.513 104.302C326.558 103.317 326.08 102.122 326.08 100.716C326.08 99.3389 326.563 98.1611 327.53 97.1826C328.497 96.2041 329.66 95.7148 331.02 95.7148C331.805 95.7148 332.514 95.8818 333.146 96.2158C333.785 96.5498 334.345 97.0508 334.825 97.7188V95.9609H336.038ZM331.116 96.9014C330.431 96.9014 329.798 97.0713 329.218 97.4111C328.638 97.7451 328.175 98.2168 327.829 98.8262C327.489 99.4355 327.319 100.08 327.319 100.76C327.319 101.434 327.492 102.078 327.838 102.693C328.184 103.309 328.646 103.789 329.227 104.135C329.812 104.475 330.439 104.645 331.107 104.645C331.781 104.645 332.42 104.475 333.023 104.135C333.627 103.795 334.09 103.335 334.412 102.755C334.74 102.175 334.904 101.521 334.904 100.795C334.904 99.6875 334.538 98.7617 333.806 98.0176C333.079 97.2734 332.183 96.9014 331.116 96.9014ZM339.888 92.4102H341.127V95.9609H343.078V97.0156H341.127V105.523H339.888V97.0156H338.209V95.9609H339.888V92.4102ZM352.966 102.351L354.003 102.896C353.663 103.563 353.271 104.103 352.825 104.513C352.38 104.923 351.879 105.236 351.322 105.453C350.766 105.664 350.136 105.77 349.433 105.77C347.874 105.77 346.655 105.26 345.776 104.24C344.897 103.215 344.458 102.058 344.458 100.769C344.458 99.5557 344.83 98.4746 345.574 97.5254C346.518 96.3184 347.78 95.7148 349.362 95.7148C350.991 95.7148 352.292 96.333 353.265 97.5693C353.956 98.4424 354.308 99.5322 354.319 100.839H345.724C345.747 101.952 346.102 102.866 346.787 103.581C347.473 104.29 348.319 104.645 349.327 104.645C349.813 104.645 350.285 104.56 350.742 104.39C351.205 104.22 351.598 103.994 351.92 103.713C352.242 103.432 352.591 102.978 352.966 102.351ZM352.966 99.7754C352.802 99.1191 352.562 98.5947 352.245 98.2021C351.935 97.8096 351.521 97.4932 351.006 97.2529C350.49 97.0127 349.948 96.8926 349.38 96.8926C348.442 96.8926 347.637 97.1943 346.963 97.7979C346.471 98.2373 346.099 98.8965 345.847 99.7754H352.966Z" fill="white"/>
</svg>
