<svg width="151" height="31" viewBox="0 0 151 31" fill="none" xmlns="http://www.w3.org/2000/svg">
<path d="M33.4365 10.577C33.1363 10.3334 34.8912 7.94679 35.0085 7.77042C35.9257 6.39476 37.0013 5.13623 38.2778 4.08202C40.7378 2.05013 43.722 1.04384 46.8978 1.30473C52.5919 1.77194 57.5193 5.93886 59.0913 11.4309C60.1125 14.9981 59.7103 18.9002 57.9839 22.1799C55.6478 26.6191 51.0816 29.6107 46.0866 29.9727C42.547 30.2289 39.2221 28.9112 36.4983 26.6876C34.0303 24.673 32.1197 21.9823 30.0951 19.5418C28.8054 17.9871 27.5323 16.4284 26.293 14.8338C25.2453 13.4854 24.1995 12.1357 23.1537 10.7853C22.2451 9.61196 21.3736 8.41666 20.2801 7.40571C18.1356 5.42307 15.537 4.38017 12.6283 4.78416C10.6116 5.06435 8.70962 5.96881 7.18072 7.31186C5.00499 9.22395 3.68286 12.0125 3.55495 14.911C3.38861 18.6879 5.18923 22.3071 8.25367 24.5033C10.2783 25.9542 12.8934 26.7722 15.3872 26.5785C18.9785 26.2996 21.7335 23.8924 24.1206 21.4113C24.2717 21.2542 25.9994 19.376 26.1983 19.6269C26.3083 19.7654 25.9259 20.3304 25.8742 20.4236C25.4911 21.1091 25.0478 21.762 24.613 22.4149C22.7322 25.2354 20.0488 27.6626 16.724 28.5631C10.9649 30.1225 4.69683 26.8933 1.82524 21.8319C-2.28498 14.5875 0.843081 5.22075 8.23776 1.63018C11.4507 0.0701615 15.2633 -0.319178 18.6472 0.902747C21.8044 2.04281 24.2538 4.29099 26.3653 6.836C29.8022 10.9796 33.1721 15.1426 36.4685 19.3993C38.456 21.9663 40.6318 24.6651 43.9865 25.3559C46.137 25.7985 48.4764 25.2993 50.3977 24.289C53.093 22.8714 55.0984 20.2486 55.7916 17.2763C56.5583 13.9879 55.7512 10.4871 53.6576 7.84829C52.2765 6.10724 50.3639 4.79081 48.2498 4.12328C45.1264 3.13828 42.0115 3.63411 39.2752 5.43372C37.9258 6.32155 36.7773 7.43299 35.6686 8.59968C35.5334 8.74144 33.7209 10.8079 33.4365 10.577C33.296 10.4638 33.577 10.6908 33.4365 10.577Z" fill="#3555FF"/>
<path d="M74.6802 11.3942V0.307617H76.264V11.3942H74.6802Z" fill="white"/>
<path d="M80.6918 11.3942V0.307617H81.9905L89.3235 9.41447H88.6425V0.307617H90.2263V11.3942H88.9276L81.5946 2.28737H82.2756V11.3942H80.6918Z" fill="white"/>
<path d="M96.0788 5.54999H101.796V6.91206H96.0788V5.54999ZM96.2372 11.3942H94.6534V0.307617H102.477V1.68552H96.2372V11.3942Z" fill="white"/>
<path d="M105.815 11.3942V0.307617H107.399V11.3942H105.815Z" fill="white"/>
<path d="M111.827 11.3942V0.307617H113.126L120.459 9.41447H119.778V0.307617H121.362V11.3942H120.063L112.73 2.28737H113.411V11.3942H111.827Z" fill="white"/>
<path d="M125.789 11.3942V0.307617H127.372V11.3942H125.789Z" fill="white"/>
<path d="M134.002 11.3942V1.68552H130.201V0.307617H139.371V1.68552H135.57V11.3942H134.002Z" fill="white"/>
<path d="M143.646 5.09069H149.347V6.43692H143.646V5.09069ZM143.788 10.0163H150.25V11.3942H142.204V0.307617H150.028V1.68552H143.788V10.0163Z" fill="white"/>
<path d="M79.6262 30.1315C78.7815 30.1315 78.0001 29.9942 77.2821 29.7197C76.5747 29.4346 75.957 29.0387 75.4291 28.5319C74.9117 28.0145 74.5052 27.4127 74.2096 26.7263C73.9139 26.04 73.7661 25.2851 73.7661 24.4615C73.7661 23.6379 73.9139 22.883 74.2096 22.1967C74.5052 21.5104 74.917 20.9138 75.4449 20.407C75.9729 19.8896 76.5906 19.4937 77.298 19.2191C78.016 18.934 78.7973 18.7915 79.642 18.7915C80.4973 18.7915 81.2839 18.9393 82.0019 19.235C82.7304 19.5201 83.3481 19.9477 83.8549 20.5178L82.8254 21.5156C82.4031 21.0722 81.928 20.7449 81.4 20.5337C80.8721 20.312 80.3072 20.2011 79.7054 20.2011C79.0824 20.2011 78.5017 20.3067 77.9632 20.5178C77.4352 20.729 76.9759 21.0247 76.5853 21.4048C76.1946 21.7849 75.8884 22.2389 75.6667 22.7668C75.4555 23.2842 75.3499 23.8491 75.3499 24.4615C75.3499 25.0739 75.4555 25.6441 75.6667 26.172C75.8884 26.6894 76.1946 27.1381 76.5853 27.5182C76.9759 27.8983 77.4352 28.194 77.9632 28.4052C78.5017 28.6163 79.0824 28.7219 79.7054 28.7219C80.3072 28.7219 80.8721 28.6163 81.4 28.4052C81.928 28.1834 82.4031 27.8456 82.8254 27.3915L83.8549 28.3893C83.3481 28.9595 82.7304 29.3924 82.0019 29.688C81.2839 29.9837 80.492 30.1315 79.6262 30.1315Z" fill="white"/>
<path d="M86.1143 30.0048V18.9182H90.4381C91.4095 18.9182 92.2383 19.0713 92.9246 19.3775C93.611 19.6837 94.1389 20.1272 94.5084 20.7079C94.878 21.2886 95.0628 21.9802 95.0628 22.7827C95.0628 23.5851 94.878 24.2767 94.5084 24.8575C94.1389 25.4276 93.611 25.8658 92.9246 26.172C92.2383 26.4782 91.4095 26.6313 90.4381 26.6313H86.9854L87.6981 25.9028V30.0048H86.1143ZM93.5265 30.0048L90.7073 25.982H92.402L95.2528 30.0048H93.5265ZM87.6981 26.0611L86.9854 25.2851H90.3906C91.4042 25.2851 92.1697 25.0686 92.6871 24.6357C93.215 24.1923 93.479 23.5746 93.479 22.7827C93.479 21.9908 93.215 21.3784 92.6871 20.9455C92.1697 20.5126 91.4042 20.2961 90.3906 20.2961H86.9854L87.6981 19.5042V26.0611Z" fill="white"/>
<path d="M99.0629 23.7013H104.765V25.0475H99.0629V23.7013ZM99.2054 28.6269H105.667V30.0048H97.6216V18.9182H105.446V20.2961H99.2054V28.6269Z" fill="white"/>
<path d="M106.553 30.0048L111.574 18.9182H113.142L118.178 30.0048H116.515L112.033 19.8051H112.666L108.184 30.0048H106.553ZM108.691 27.2332L109.119 25.9661H115.359L115.818 27.2332H108.691Z" fill="white"/>
<path d="M121.477 30.0048V20.2961H117.675V18.9182H126.846V20.2961H123.045V30.0048H121.477Z" fill="white"/>
<path d="M133.421 30.1315C132.576 30.1315 131.789 29.989 131.061 29.7039C130.343 29.4188 129.72 29.0228 129.192 28.516C128.664 27.9987 128.252 27.3968 127.957 26.7105C127.661 26.0242 127.513 25.2745 127.513 24.4615C127.513 23.6485 127.661 22.8988 127.957 22.2125C128.252 21.5262 128.664 20.9296 129.192 20.4228C129.72 19.9054 130.343 19.5042 131.061 19.2191C131.779 18.934 132.566 18.7915 133.421 18.7915C134.265 18.7915 135.042 18.934 135.749 19.2191C136.467 19.4937 137.09 19.8896 137.618 20.407C138.156 20.9138 138.568 21.5104 138.853 22.1967C139.149 22.883 139.297 23.6379 139.297 24.4615C139.297 25.2851 139.149 26.04 138.853 26.7263C138.568 27.4127 138.156 28.0145 137.618 28.5319C137.09 29.0387 136.467 29.4346 135.749 29.7197C135.042 29.9942 134.265 30.1315 133.421 30.1315ZM133.421 28.7219C134.033 28.7219 134.598 28.6163 135.115 28.4052C135.643 28.194 136.097 27.8983 136.478 27.5182C136.868 27.1276 137.169 26.6735 137.38 26.1562C137.602 25.6388 137.713 25.0739 137.713 24.4615C137.713 23.8491 137.602 23.2842 137.38 22.7668C137.169 22.2495 136.868 21.8007 136.478 21.4206C136.097 21.0299 135.643 20.729 135.115 20.5178C134.598 20.3067 134.033 20.2011 133.421 20.2011C132.798 20.2011 132.222 20.3067 131.694 20.5178C131.177 20.729 130.723 21.0299 130.332 21.4206C129.942 21.8007 129.635 22.2495 129.414 22.7668C129.203 23.2842 129.097 23.8491 129.097 24.4615C129.097 25.0739 129.203 25.6388 129.414 26.1562C129.635 26.6735 129.942 27.1276 130.332 27.5182C130.723 27.8983 131.177 28.194 131.694 28.4052C132.222 28.6163 132.798 28.7219 133.421 28.7219Z" fill="white"/>
<path d="M141.717 30.0048V18.9182H146.041C147.013 18.9182 147.841 19.0713 148.528 19.3775C149.214 19.6837 149.742 20.1272 150.112 20.7079C150.481 21.2886 150.666 21.9802 150.666 22.7827C150.666 23.5851 150.481 24.2767 150.112 24.8575C149.742 25.4276 149.214 25.8658 148.528 26.172C147.841 26.4782 147.013 26.6313 146.041 26.6313H142.589L143.301 25.9028V30.0048H141.717ZM149.13 30.0048L146.31 25.982H148.005L150.856 30.0048H149.13ZM143.301 26.0611L142.589 25.2851H145.994C147.007 25.2851 147.773 25.0686 148.29 24.6357C148.818 24.1923 149.082 23.5746 149.082 22.7827C149.082 21.9908 148.818 21.3784 148.29 20.9455C147.773 20.5126 147.007 20.2961 145.994 20.2961H142.589L143.301 19.5042V26.0611Z" fill="white"/>
</svg>
