<svg width="191" height="39" viewBox="0 0 191 39" fill="none" xmlns="http://www.w3.org/2000/svg">
<path d="M42.6036 13.4532C42.2256 13.1465 44.4353 10.1412 44.583 9.91914C45.738 8.18689 47.0924 6.60214 48.6997 5.27467C51.7974 2.7161 55.5552 1.44897 59.5541 1.77749C66.7242 2.3658 72.9288 7.61282 74.9082 14.5284C76.1942 19.0203 75.6877 23.9338 73.5138 28.0637C70.5721 33.6535 64.8224 37.4206 58.5327 37.8765C54.0756 38.1991 49.8888 36.5398 46.459 33.7398C43.3513 31.2031 40.9454 27.8148 38.396 24.7417C36.772 22.784 35.1689 20.8213 33.6084 18.8134C32.2891 17.1155 30.9722 15.4159 29.6553 13.7155C28.5112 12.238 27.4139 10.7329 26.0369 9.45988C23.3364 6.96334 20.0643 5.65011 16.4017 6.15881C13.8623 6.51163 11.4672 7.65053 9.54202 9.34172C6.80233 11.7494 5.13748 15.2609 4.97642 18.9106C4.76696 23.6665 7.03432 28.2238 10.8931 30.9894C13.4425 32.8163 16.7355 33.8463 19.8757 33.6024C24.3979 33.2513 27.867 30.22 30.8729 27.0958C31.0632 26.898 33.2387 24.533 33.4891 24.849C33.6276 25.0233 33.1461 25.7348 33.081 25.8521C32.5987 26.7153 32.0404 27.5374 31.4929 28.3596C29.1246 31.9112 25.7457 34.9676 21.5589 36.1015C14.3071 38.065 6.41428 33.9988 2.79836 27.6254C-2.37727 18.5033 1.56161 6.70857 10.8731 2.18729C14.9188 0.222906 19.7197 -0.267353 23.9807 1.27131C27.9563 2.70688 31.0406 5.53781 33.6994 8.74251C38.0271 13.9602 42.2706 19.2022 46.4215 24.5624C48.9242 27.7947 51.6638 31.193 55.8881 32.0629C58.5961 32.6202 61.5419 31.9917 63.9612 30.7195C67.3551 28.9345 69.8803 25.6317 70.7532 21.889C71.7188 17.7482 70.7023 13.34 68.0661 10.0172C66.327 7.82485 63.9186 6.16719 61.2565 5.32662C57.3235 4.08631 53.4013 4.71066 49.9556 6.97674C48.2565 8.0947 46.8103 9.49424 45.4142 10.9633C45.244 11.1418 42.9616 13.744 42.6036 13.4532C42.4267 13.3107 42.7805 13.5965 42.6036 13.4532Z" fill="#3555FF"/>
<path d="M94.5431 14.4838V0.523438H96.5374V14.4838H94.5431Z" fill="#3555FF"/>
<path d="M102.113 14.4838V0.523438H103.748L112.982 11.9909H112.125V0.523438H114.119V14.4838H112.484L103.25 3.01635H104.107V14.4838H102.113Z" fill="#3555FF"/>
<path d="M121.488 7.12468H128.688V8.83981H121.488V7.12468ZM121.688 14.4838H119.694V0.523438H129.546V2.25851H121.688V14.4838Z" fill="#3555FF"/>
<path d="M133.749 14.4838V0.523438H135.743V14.4838H133.749Z" fill="#3555FF"/>
<path d="M141.319 14.4838V0.523438H142.954L152.188 11.9909H151.33V0.523438H153.325V14.4838H151.689L142.456 3.01635H143.313V14.4838H141.319Z" fill="#3555FF"/>
<path d="M158.899 14.4838V0.523438H160.894V14.4838H158.899Z" fill="#3555FF"/>
<path d="M169.241 14.4838V2.25851H164.455V0.523438H176.002V2.25851H171.216V14.4838H169.241Z" fill="#3555FF"/>
<path d="M181.385 6.54633H188.565V8.24151H181.385V6.54633ZM181.565 12.7487H189.701V14.4838H179.57V0.523438H189.422V2.25851H181.565V12.7487Z" fill="#3555FF"/>
<path d="M100.77 38.0778C99.706 38.0778 98.7221 37.9049 97.818 37.5592C96.9272 37.2003 96.1495 36.7017 95.4847 36.0635C94.8332 35.412 94.3213 34.6542 93.949 33.7899C93.5768 32.9257 93.3906 31.9751 93.3906 30.9381C93.3906 29.901 93.5768 28.9504 93.949 28.0862C94.3213 27.2219 94.8398 26.4707 95.5046 25.8326C96.1694 25.1811 96.9472 24.6825 97.838 24.3368C98.7421 23.9778 99.726 23.7983 100.79 23.7983C101.867 23.7983 102.857 23.9845 103.761 24.3568C104.679 24.7157 105.456 25.2542 106.095 25.9722L104.798 27.2286C104.266 26.6702 103.668 26.258 103.003 25.9921C102.339 25.7129 101.627 25.5733 100.869 25.5733C100.085 25.5733 99.3537 25.7063 98.6756 25.9722C98.0108 26.2381 97.4325 26.6103 96.9405 27.089C96.4486 27.5676 96.063 28.1393 95.7838 28.8041C95.5179 29.4556 95.385 30.1669 95.385 30.9381C95.385 31.7092 95.5179 32.4272 95.7838 33.0919C96.063 33.7434 96.4486 34.3085 96.9405 34.7871C97.4325 35.2658 98.0108 35.638 98.6756 35.9039C99.3537 36.1699 100.085 36.3028 100.869 36.3028C101.627 36.3028 102.339 36.1699 103.003 35.9039C103.668 35.6247 104.266 35.1993 104.798 34.6276L106.095 35.884C105.456 36.602 104.679 37.1471 103.761 37.5194C102.857 37.8916 101.86 38.0778 100.77 38.0778Z" fill="#3555FF"/>
<path d="M108.94 37.9182V23.9579H114.384C115.607 23.9579 116.651 24.1507 117.515 24.5362C118.379 24.9218 119.044 25.4802 119.51 26.2115C119.975 26.9427 120.208 27.8136 120.208 28.8241C120.208 29.8345 119.975 30.7054 119.51 31.4366C119.044 32.1546 118.379 32.7064 117.515 33.0919C116.651 33.4775 115.607 33.6703 114.384 33.6703H110.036L110.934 32.7529V37.9182H108.94ZM118.273 37.9182L114.723 32.8526H116.857L120.447 37.9182H118.273ZM110.934 32.9523L110.036 31.9751H114.324C115.601 31.9751 116.565 31.7025 117.216 31.1574C117.881 30.599 118.213 29.8212 118.213 28.8241C118.213 27.8269 117.881 27.0558 117.216 26.5106C116.565 25.9655 115.601 25.693 114.324 25.693H110.036L110.934 24.6958V32.9523Z" fill="#3555FF"/>
<path d="M125.244 29.9808H132.424V31.676H125.244V29.9808ZM125.424 36.1831H133.561V37.9182H123.43V23.9579H133.282V25.693H125.424V36.1831Z" fill="#3555FF"/>
<path d="M134.676 37.9182L140.998 23.9579H142.973L149.315 37.9182H147.22L141.577 25.0747H142.374L136.73 37.9182H134.676ZM137.368 34.4281L137.907 32.8327H145.765L146.343 34.4281H137.368Z" fill="#3555FF"/>
<path d="M153.468 37.9182V25.693H148.682V23.9579H160.229V25.693H155.442V37.9182H153.468Z" fill="#3555FF"/>
<path d="M168.508 38.0778C167.445 38.0778 166.454 37.8983 165.537 37.5393C164.633 37.1803 163.848 36.6817 163.183 36.0435C162.519 35.3921 162 34.6342 161.628 33.77C161.256 32.9058 161.069 31.9618 161.069 30.9381C161.069 29.9143 161.256 28.9703 161.628 28.1061C162 27.2419 162.519 26.4907 163.183 25.8525C163.848 25.201 164.633 24.6958 165.537 24.3368C166.441 23.9778 167.431 23.7983 168.508 23.7983C169.572 23.7983 170.549 23.9778 171.44 24.3368C172.344 24.6825 173.128 25.1811 173.793 25.8326C174.471 26.4707 174.99 27.2219 175.349 28.0862C175.721 28.9504 175.907 29.901 175.907 30.9381C175.907 31.9751 175.721 32.9257 175.349 33.7899C174.99 34.6542 174.471 35.412 173.793 36.0635C173.128 36.7017 172.344 37.2003 171.44 37.5592C170.549 37.9049 169.572 38.0778 168.508 38.0778ZM168.508 36.3028C169.279 36.3028 169.991 36.1699 170.642 35.9039C171.307 35.638 171.879 35.2658 172.357 34.7871C172.849 34.2952 173.228 33.7235 173.494 33.072C173.773 32.4205 173.913 31.7092 173.913 30.9381C173.913 30.1669 173.773 29.4556 173.494 28.8041C173.228 28.1526 172.849 27.5876 172.357 27.1089C171.879 26.617 171.307 26.2381 170.642 25.9722C169.991 25.7063 169.279 25.5733 168.508 25.5733C167.724 25.5733 166.999 25.7063 166.334 25.9722C165.683 26.2381 165.111 26.617 164.619 27.1089C164.127 27.5876 163.742 28.1526 163.463 28.8041C163.197 29.4556 163.064 30.1669 163.064 30.9381C163.064 31.7092 163.197 32.4205 163.463 33.072C163.742 33.7235 164.127 34.2952 164.619 34.7871C165.111 35.2658 165.683 35.638 166.334 35.9039C166.999 36.1699 167.724 36.3028 168.508 36.3028Z" fill="#3555FF"/>
<path d="M178.955 37.9182V23.9579H184.4C185.623 23.9579 186.667 24.1507 187.531 24.5362C188.395 24.9218 189.06 25.4802 189.525 26.2115C189.991 26.9427 190.223 27.8136 190.223 28.8241C190.223 29.8345 189.991 30.7054 189.525 31.4366C189.06 32.1546 188.395 32.7064 187.531 33.0919C186.667 33.4775 185.623 33.6703 184.4 33.6703H180.052L180.95 32.7529V37.9182H178.955ZM188.289 37.9182L184.739 32.8526H186.873L190.463 37.9182H188.289ZM180.95 32.9523L180.052 31.9751H184.34C185.617 31.9751 186.58 31.7025 187.232 31.1574C187.897 30.599 188.229 29.8212 188.229 28.8241C188.229 27.8269 187.897 27.0558 187.232 26.5106C186.58 25.9655 185.617 25.693 184.34 25.693H180.052L180.95 24.6958V32.9523Z" fill="#3555FF"/>
</svg>
