<svg width="191" height="53" viewBox="0 0 191 53" fill="none" xmlns="http://www.w3.org/2000/svg">
<path d="M42.6036 13.273C42.2256 12.9663 44.4353 9.96104 44.583 9.73896C45.738 8.00671 47.0924 6.42196 48.6997 5.09449C51.7974 2.53593 55.5552 1.2688 59.5541 1.59731C66.7242 2.18562 72.9288 7.43265 74.9082 14.3482C76.1942 18.8402 75.6877 23.7537 73.5138 27.8836C70.5721 33.4734 64.8224 37.2404 58.5327 37.6963C54.0756 38.0189 49.8888 36.3596 46.459 33.5597C43.3513 31.0229 40.9454 27.6347 38.396 24.5615C36.772 22.6038 35.1689 20.6411 33.6084 18.6332C32.2891 16.9353 30.9722 15.2357 29.6553 13.5353C28.5112 12.0578 27.4139 10.5527 26.0369 9.27971C23.3364 6.78316 20.0643 5.46994 16.4017 5.97863C13.8623 6.33145 11.4672 7.47036 9.54202 9.16154C6.80233 11.5693 5.13748 15.0807 4.97642 18.7304C4.76696 23.4863 7.03432 28.0436 10.8931 30.8092C13.4425 32.6361 16.7355 33.6661 19.8757 33.4222C24.3979 33.0711 27.867 30.0399 30.8729 26.9156C31.0632 26.7178 33.2387 24.3529 33.4891 24.6688C33.6276 24.8431 33.1461 25.5546 33.081 25.6719C32.5987 26.5351 32.0404 27.3573 31.4929 28.1794C29.1246 31.731 25.7457 34.7874 21.5589 35.9213C14.3071 37.8848 6.41428 33.8186 2.79836 27.4453C-2.37727 18.3231 1.56161 6.52839 10.8731 2.00712C14.9188 0.04273 19.7197 -0.447529 23.9807 1.09113C27.9563 2.52671 31.0406 5.35764 33.6994 8.56234C38.0271 13.78 42.2706 19.022 46.4215 24.3822C48.9242 27.6145 51.6638 31.0128 55.8881 31.8827C58.5961 32.44 61.5419 31.8115 63.9612 30.5393C67.3551 28.7543 69.8803 25.4515 70.7532 21.7088C71.7188 17.568 70.7023 13.1599 68.0661 9.83701C66.327 7.64467 63.9186 5.98701 61.2565 5.14645C57.3235 3.90614 53.4013 4.53048 49.9556 6.79657C48.2565 7.91453 46.8103 9.31407 45.4142 10.7832C45.244 10.9617 42.9616 13.5638 42.6036 13.273C42.4267 13.1305 42.7805 13.4163 42.6036 13.273Z" fill="#3555FF"/>
<path d="M94.5431 14.3036V0.343262H96.5374V14.3036H94.5431Z" fill="#3555FF"/>
<path d="M102.113 14.3036V0.343262H103.748L112.982 11.8107H112.125V0.343262H114.119V14.3036H112.484L103.25 2.83618H104.107V14.3036H102.113Z" fill="#3555FF"/>
<path d="M121.488 6.94451H128.688V8.65963H121.488V6.94451ZM121.688 14.3036H119.694V0.343262H129.546V2.07833H121.688V14.3036Z" fill="#3555FF"/>
<path d="M133.749 14.3036V0.343262H135.743V14.3036H133.749Z" fill="#3555FF"/>
<path d="M141.319 14.3036V0.343262H142.954L152.188 11.8107H151.33V0.343262H153.325V14.3036H151.689L142.456 2.83618H143.313V14.3036H141.319Z" fill="#3555FF"/>
<path d="M158.899 14.3036V0.343262H160.894V14.3036H158.899Z" fill="#3555FF"/>
<path d="M169.241 14.3036V2.07833H164.455V0.343262H176.002V2.07833H171.216V14.3036H169.241Z" fill="#3555FF"/>
<path d="M181.385 6.36615H188.565V8.06133H181.385V6.36615ZM181.565 12.5685H189.701V14.3036H179.57V0.343262H189.422V2.07833H181.565V12.5685Z" fill="#3555FF"/>
<path d="M100.77 37.8976C99.706 37.8976 98.7221 37.7247 97.818 37.3791C96.9272 37.0201 96.1495 36.5215 95.4847 35.8833C94.8332 35.2318 94.3213 34.474 93.949 33.6098C93.5768 32.7456 93.3906 31.7949 93.3906 30.7579C93.3906 29.7208 93.5768 28.7702 93.949 27.906C94.3213 27.0418 94.8398 26.2906 95.5046 25.6524C96.1694 25.0009 96.9472 24.5023 97.838 24.1566C98.7421 23.7977 99.726 23.6182 100.79 23.6182C101.867 23.6182 102.857 23.8043 103.761 24.1766C104.679 24.5356 105.456 25.074 106.095 25.792L104.798 27.0484C104.266 26.49 103.668 26.0778 103.003 25.8119C102.339 25.5327 101.627 25.3931 100.869 25.3931C100.085 25.3931 99.3537 25.5261 98.6756 25.792C98.0108 26.0579 97.4325 26.4302 96.9405 26.9088C96.4486 27.3875 96.063 27.9592 95.7838 28.6239C95.5179 29.2754 95.385 29.9867 95.385 30.7579C95.385 31.529 95.5179 32.247 95.7838 32.9118C96.063 33.5632 96.4486 34.1283 96.9405 34.6069C97.4325 35.0856 98.0108 35.4579 98.6756 35.7238C99.3537 35.9897 100.085 36.1226 100.869 36.1226C101.627 36.1226 102.339 35.9897 103.003 35.7238C103.668 35.4446 104.266 35.0191 104.798 34.4474L106.095 35.7038C105.456 36.4218 104.679 36.9669 103.761 37.3392C102.857 37.7115 101.86 37.8976 100.77 37.8976Z" fill="#3555FF"/>
<path d="M108.94 37.738V23.7777H114.384C115.607 23.7777 116.651 23.9705 117.515 24.3561C118.379 24.7416 119.044 25.3001 119.51 26.0313C119.975 26.7626 120.208 27.6334 120.208 28.6439C120.208 29.6543 119.975 30.5252 119.51 31.2565C119.044 31.9744 118.379 32.5262 117.515 32.9118C116.651 33.2973 115.607 33.4901 114.384 33.4901H110.036L110.934 32.5727V37.738H108.94ZM118.273 37.738L114.723 32.6724H116.857L120.447 37.738H118.273ZM110.934 32.7722L110.036 31.7949H114.324C115.601 31.7949 116.565 31.5224 117.216 30.9773C117.881 30.4188 118.213 29.641 118.213 28.6439C118.213 27.6467 117.881 26.8756 117.216 26.3305C116.565 25.7853 115.601 25.5128 114.324 25.5128H110.036L110.934 24.5156V32.7722Z" fill="#3555FF"/>
<path d="M125.244 29.8006H132.424V31.4958H125.244V29.8006ZM125.424 36.003H133.561V37.738H123.43V23.7777H133.282V25.5128H125.424V36.003Z" fill="#3555FF"/>
<path d="M134.676 37.738L140.998 23.7777H142.973L149.315 37.738H147.22L141.577 24.8945H142.374L136.73 37.738H134.676ZM137.368 34.248L137.907 32.6525H145.765L146.343 34.248H137.368Z" fill="#3555FF"/>
<path d="M153.468 37.738V25.5128H148.682V23.7777H160.229V25.5128H155.442V37.738H153.468Z" fill="#3555FF"/>
<path d="M168.508 37.8976C167.445 37.8976 166.454 37.7181 165.537 37.3591C164.633 37.0001 163.848 36.5016 163.183 35.8634C162.519 35.2119 162 34.454 161.628 33.5898C161.256 32.7256 161.069 31.7816 161.069 30.7579C161.069 29.7341 161.256 28.7901 161.628 27.9259C162 27.0617 162.519 26.3105 163.183 25.6723C163.848 25.0208 164.633 24.5156 165.537 24.1566C166.441 23.7977 167.431 23.6182 168.508 23.6182C169.572 23.6182 170.549 23.7977 171.44 24.1566C172.344 24.5023 173.128 25.0009 173.793 25.6524C174.471 26.2906 174.99 27.0418 175.349 27.906C175.721 28.7702 175.907 29.7208 175.907 30.7579C175.907 31.7949 175.721 32.7456 175.349 33.6098C174.99 34.474 174.471 35.2318 173.793 35.8833C173.128 36.5215 172.344 37.0201 171.44 37.3791C170.549 37.7247 169.572 37.8976 168.508 37.8976ZM168.508 36.1226C169.279 36.1226 169.991 35.9897 170.642 35.7238C171.307 35.4579 171.879 35.0856 172.357 34.6069C172.849 34.115 173.228 33.5433 173.494 32.8918C173.773 32.2403 173.913 31.529 173.913 30.7579C173.913 29.9867 173.773 29.2754 173.494 28.6239C173.228 27.9725 172.849 27.4074 172.357 26.9288C171.879 26.4368 171.307 26.0579 170.642 25.792C169.991 25.5261 169.279 25.3931 168.508 25.3931C167.724 25.3931 166.999 25.5261 166.334 25.792C165.683 26.0579 165.111 26.4368 164.619 26.9288C164.127 27.4074 163.742 27.9725 163.463 28.6239C163.197 29.2754 163.064 29.9867 163.064 30.7579C163.064 31.529 163.197 32.2403 163.463 32.8918C163.742 33.5433 164.127 34.115 164.619 34.6069C165.111 35.0856 165.683 35.4579 166.334 35.7238C166.999 35.9897 167.724 36.1226 168.508 36.1226Z" fill="#3555FF"/>
<path d="M178.955 37.738V23.7777H184.4C185.623 23.7777 186.667 23.9705 187.531 24.3561C188.395 24.7416 189.06 25.3001 189.525 26.0313C189.991 26.7626 190.223 27.6334 190.223 28.6439C190.223 29.6543 189.991 30.5252 189.525 31.2565C189.06 31.9744 188.395 32.5262 187.531 32.9118C186.667 33.2973 185.623 33.4901 184.4 33.4901H180.052L180.95 32.5727V37.738H178.955ZM188.289 37.738L184.739 32.6724H186.873L190.463 37.738H188.289ZM180.95 32.7722L180.052 31.7949H184.34C185.617 31.7949 186.58 31.5224 187.232 30.9773C187.897 30.4188 188.229 29.641 188.229 28.6439C188.229 27.6467 187.897 26.8756 187.232 26.3305C186.58 25.7853 185.617 25.5128 184.34 25.5128H180.052L180.95 24.5156V32.7722Z" fill="#3555FF"/>
<path d="M142.393 47.886H143.309V48.4226C143.408 48.2111 143.54 48.0505 143.705 47.9408C143.869 47.8311 144.05 47.7763 144.245 47.7763C144.384 47.7763 144.529 47.8128 144.68 47.886L144.347 48.8065C144.222 48.7438 144.119 48.7125 144.038 48.7125C143.873 48.7125 143.734 48.8143 143.619 49.018C143.506 49.2217 143.45 49.6213 143.45 50.2167L143.454 50.4243V52.1479H142.393V47.886Z" fill="#3555FF"/>
<path d="M150.245 50.3264H146.809C146.859 50.6293 146.991 50.8709 147.205 51.0511C147.422 51.2287 147.697 51.3175 148.032 51.3175C148.431 51.3175 148.775 51.1777 149.062 50.8983L149.963 51.3214C149.738 51.64 149.469 51.8763 149.156 52.0304C148.843 52.1819 148.47 52.2576 148.04 52.2576C147.371 52.2576 146.826 52.0474 146.406 51.6269C145.986 51.2039 145.775 50.675 145.775 50.0404C145.775 49.3902 145.984 48.8509 146.402 48.4226C146.823 47.9917 147.349 47.7763 147.981 47.7763C148.652 47.7763 149.198 47.9917 149.618 48.4226C150.039 48.8509 150.249 49.4176 150.249 50.1227L150.245 50.3264ZM149.172 49.4842C149.101 49.2465 148.961 49.0533 148.752 48.9044C148.546 48.7556 148.306 48.6812 148.032 48.6812C147.734 48.6812 147.473 48.7647 147.248 48.9319C147.107 49.0363 146.977 49.2204 146.857 49.4842H149.172Z" fill="#3555FF"/>
<path d="M155.026 47.886H156.092V52.1479H155.026V51.6974C154.817 51.8959 154.607 52.0395 154.395 52.1283C154.187 52.2145 153.959 52.2576 153.714 52.2576C153.163 52.2576 152.686 52.0448 152.284 51.6191C151.882 51.1908 151.681 50.6594 151.681 50.0248C151.681 49.3667 151.875 48.8274 152.264 48.407C152.654 47.9865 153.126 47.7763 153.683 47.7763C153.938 47.7763 154.179 47.8246 154.403 47.9212C154.628 48.0178 154.835 48.1628 155.026 48.356V47.886ZM153.902 48.7634C153.57 48.7634 153.295 48.8809 153.075 49.116C152.856 49.3484 152.746 49.6474 152.746 50.013C152.746 50.3812 152.857 50.6842 153.079 50.9218C153.304 51.1595 153.579 51.2783 153.906 51.2783C154.243 51.2783 154.522 51.1621 154.744 50.9297C154.966 50.6946 155.077 50.3878 155.077 50.0091C155.077 49.6383 154.966 49.3379 154.744 49.1081C154.522 48.8783 154.241 48.7634 153.902 48.7634Z" fill="#3555FF"/>
<path d="M157.821 46.2407H158.891V52.1479H157.821V46.2407Z" fill="#3555FF"/>
<path d="M167.905 50.3264H164.469C164.519 50.6293 164.651 50.8709 164.865 51.0511C165.082 51.2287 165.357 51.3175 165.692 51.3175C166.091 51.3175 166.434 51.1777 166.722 50.8983L167.623 51.3214C167.398 51.64 167.129 51.8763 166.816 52.0304C166.502 52.1819 166.13 52.2576 165.699 52.2576C165.031 52.2576 164.486 52.0474 164.066 51.6269C163.645 51.2039 163.435 50.675 163.435 50.0404C163.435 49.3902 163.644 48.8509 164.062 48.4226C164.482 47.9917 165.009 47.7763 165.641 47.7763C166.312 47.7763 166.858 47.9917 167.278 48.4226C167.698 48.8509 167.909 49.4176 167.909 50.1227L167.905 50.3264ZM166.831 49.4842C166.761 49.2465 166.621 49.0533 166.412 48.9044C166.206 48.7556 165.966 48.6812 165.692 48.6812C165.394 48.6812 165.133 48.7647 164.908 48.9319C164.767 49.0363 164.636 49.2204 164.516 49.4842H166.831Z" fill="#3555FF"/>
<path d="M172.145 48.4814L171.483 49.1434C171.214 48.877 170.97 48.7438 170.751 48.7438C170.631 48.7438 170.537 48.77 170.469 48.8222C170.401 48.8718 170.367 48.9345 170.367 49.0102C170.367 49.0677 170.388 49.1212 170.43 49.1708C170.474 49.2178 170.581 49.2831 170.751 49.3667L171.143 49.5625C171.555 49.7662 171.839 49.9738 171.993 50.1854C172.147 50.3969 172.224 50.645 172.224 50.9297C172.224 51.3083 172.084 51.6243 171.805 51.8776C171.528 52.1309 171.156 52.2576 170.688 52.2576C170.067 52.2576 169.57 52.0147 169.2 51.529L169.858 50.8121C169.983 50.9584 170.129 51.0772 170.296 51.1686C170.466 51.2574 170.616 51.3018 170.747 51.3018C170.888 51.3018 171.002 51.2678 171.088 51.1999C171.174 51.132 171.217 51.0537 171.217 50.9649C171.217 50.8004 171.062 50.6398 170.751 50.4831L170.39 50.3029C169.701 49.9556 169.356 49.5208 169.356 48.9985C169.356 48.6616 169.486 48.3743 169.744 48.1367C170.005 47.8964 170.338 47.7763 170.743 47.7763C171.02 47.7763 171.28 47.8376 171.523 47.9604C171.768 48.0805 171.976 48.2542 172.145 48.4814Z" fill="#3555FF"/>
<path d="M173.961 46.3152H175.027V47.886H175.661V48.8065H175.027V52.1479H173.961V48.8065H173.413V47.886H173.961V46.3152Z" fill="#3555FF"/>
<path d="M180.149 47.886H181.214V52.1479H180.149V51.6974C179.94 51.8959 179.73 52.0395 179.518 52.1283C179.309 52.2145 179.082 52.2576 178.836 52.2576C178.285 52.2576 177.809 52.0448 177.407 51.6191C177.005 51.1908 176.803 50.6594 176.803 50.0248C176.803 49.3667 176.998 48.8274 177.387 48.407C177.776 47.9865 178.249 47.7763 178.805 47.7763C179.061 47.7763 179.301 47.8246 179.526 47.9212C179.751 48.0178 179.958 48.1628 180.149 48.356V47.886ZM179.025 48.7634C178.693 48.7634 178.417 48.8809 178.198 49.116C177.979 49.3484 177.869 49.6474 177.869 50.013C177.869 50.3812 177.98 50.6842 178.202 50.9218C178.426 51.1595 178.702 51.2783 179.028 51.2783C179.365 51.2783 179.645 51.1621 179.867 50.9297C180.089 50.6946 180.2 50.3878 180.2 50.0091C180.2 49.6383 180.089 49.3379 179.867 49.1081C179.645 48.8783 179.364 48.7634 179.025 48.7634Z" fill="#3555FF"/>
<path d="M183.187 46.3152H184.252V47.886H184.887V48.8065H184.252V52.1479H183.187V48.8065H182.638V47.886H183.187V46.3152Z" fill="#3555FF"/>
<path d="M190.495 50.3264H187.059C187.109 50.6293 187.241 50.8709 187.455 51.0511C187.672 51.2287 187.947 51.3175 188.281 51.3175C188.681 51.3175 189.024 51.1777 189.312 50.8983L190.213 51.3214C189.988 51.64 189.719 51.8763 189.406 52.0304C189.092 52.1819 188.72 52.2576 188.289 52.2576C187.621 52.2576 187.076 52.0474 186.656 51.6269C186.235 51.2039 186.025 50.675 186.025 50.0404C186.025 49.3902 186.234 48.8509 186.652 48.4226C187.072 47.9917 187.598 47.7763 188.23 47.7763C188.902 47.7763 189.447 47.9917 189.868 48.4226C190.288 48.8509 190.499 49.4176 190.499 50.1227L190.495 50.3264ZM189.421 49.4842C189.351 49.2465 189.211 49.0533 189.002 48.9044C188.796 48.7556 188.556 48.6812 188.281 48.6812C187.984 48.6812 187.723 48.7647 187.498 48.9319C187.357 49.0363 187.226 49.2204 187.106 49.4842H189.421Z" fill="#3555FF"/>
</svg>
