<svg width="357" height="111" viewBox="0 0 357 111" fill="none" xmlns="http://www.w3.org/2000/svg">
<path d="M79.0693 24.727C78.3593 24.151 82.5092 18.5072 82.7866 18.0901C84.9556 14.837 87.4991 11.8609 90.5175 9.36797C96.3349 4.56306 103.392 2.18343 110.902 2.80037C124.367 3.9052 136.019 13.759 139.736 26.7462C142.152 35.1819 141.2 44.4093 137.118 52.1652C131.593 62.6626 120.796 69.737 108.984 70.5932C100.613 71.1991 92.7508 68.0829 86.3097 62.8247C80.4735 58.0607 75.9553 51.6977 71.1675 45.9265C68.1178 42.25 65.1072 38.5641 62.1766 34.7932C59.6989 31.6046 57.2259 28.4129 54.7529 25.2196C52.6043 22.4449 50.5434 19.6183 47.9576 17.2277C42.8862 12.5392 36.7412 10.073 29.8629 11.0284C25.0939 11.6909 20.5961 13.8298 16.9806 17.0058C11.8356 21.5274 8.70906 28.1217 8.40659 34.9758C8.01323 43.9073 12.2713 52.4658 19.5179 57.6594C24.3057 61.0904 30.4898 63.0246 36.3871 62.5666C44.8796 61.9072 51.3944 56.2146 57.0394 50.3474C57.3967 49.976 61.4823 45.5346 61.9525 46.1279C62.2127 46.4553 61.3084 47.7915 61.1862 48.0118C60.2803 49.6329 59.2319 51.1768 58.2038 52.7207C53.7561 59.3906 47.4106 65.1304 39.5481 67.2598C25.9293 70.9473 11.1068 63.311 4.31624 51.342C-5.40342 34.2109 1.99368 12.0608 19.4803 3.56997C27.078 -0.11909 36.094 -1.03978 44.096 1.84977C51.5621 4.54575 57.3544 9.86215 62.3474 15.8805C70.4748 25.6792 78.444 35.5235 86.2391 45.5897C90.9391 51.66 96.0842 58.0418 104.017 59.6755C109.103 60.7221 114.635 59.5417 119.178 57.1526C125.552 53.8004 130.294 47.5979 131.933 40.5692C133.747 32.7929 131.838 24.5145 126.887 18.2743C123.621 14.1571 119.098 11.0441 114.099 9.46554C106.713 7.13627 99.347 8.30878 92.8762 12.5644C89.6854 14.6639 86.9694 17.2922 84.3475 20.0511C84.0278 20.3864 79.7416 25.2731 79.0693 24.727C78.737 24.4594 79.4015 24.9961 79.0693 24.727Z" fill="#3555FF"/>
<path d="M176.609 26.6629V0.445801H180.355V26.6629H176.609Z" fill="#3555FF"/>
<path d="M190.826 26.6629V0.445801H193.897L211.237 21.9813H209.627V0.445801H213.372V26.6629H210.301L192.96 5.12742H194.571V26.6629H190.826Z" fill="#3555FF"/>
<path d="M227.212 12.8427H240.733V16.0637H227.212V12.8427ZM227.587 26.6629H223.841V0.445801H242.343V3.70421H227.587V26.6629Z" fill="#3555FF"/>
<path d="M250.237 26.6629V0.445801H253.982V26.6629H250.237Z" fill="#3555FF"/>
<path d="M264.453 26.6629V0.445801H267.524L284.865 21.9813H283.254V0.445801H287V26.6629H283.928L266.588 5.12742H268.198V26.6629H264.453Z" fill="#3555FF"/>
<path d="M297.469 26.6629V0.445801H301.214V26.6629H297.469Z" fill="#3555FF"/>
<path d="M316.891 26.6629V3.70421H307.902V0.445801H329.587V3.70421H320.598V26.6629H316.891Z" fill="#3555FF"/>
<path d="M339.696 11.7566H353.179V14.9401H339.696V11.7566ZM340.033 23.4045H355.314V26.6629H336.288V0.445801H354.79V3.70421H340.033V23.4045Z" fill="#3555FF"/>
<path d="M188.303 70.9697C186.305 70.9697 184.457 70.6451 182.76 69.9959C181.087 69.3217 179.626 68.3854 178.378 67.1869C177.154 65.9634 176.193 64.5402 175.494 62.9173C174.795 61.2943 174.445 59.509 174.445 57.5615C174.445 55.6139 174.795 53.8287 175.494 52.2057C176.193 50.5827 177.167 49.172 178.415 47.9735C179.663 46.7501 181.124 45.8137 182.797 45.1645C184.495 44.4904 186.343 44.1533 188.34 44.1533C190.362 44.1533 192.223 44.5029 193.92 45.202C195.643 45.8762 197.104 46.8874 198.302 48.2357L195.868 50.5952C194.869 49.5466 193.746 48.7725 192.497 48.2731C191.249 47.7488 189.913 47.4866 188.49 47.4866C187.017 47.4866 185.643 47.7363 184.37 48.2357C183.122 48.7351 182.035 49.4342 181.112 50.3331C180.188 51.2319 179.464 52.3056 178.939 53.554C178.44 54.7775 178.19 56.1133 178.19 57.5615C178.19 59.0097 178.44 60.358 178.939 61.6064C179.464 62.8299 180.188 63.891 181.112 64.7899C182.035 65.6888 183.122 66.3879 184.37 66.8873C185.643 67.3867 187.017 67.6363 188.49 67.6363C189.913 67.6363 191.249 67.3867 192.497 66.8873C193.746 66.3629 194.869 65.5639 195.868 64.4903L198.302 66.8498C197.104 68.1981 195.643 69.2219 193.92 69.921C192.223 70.6201 190.35 70.9697 188.303 70.9697Z" fill="#3555FF"/>
<path d="M203.645 70.67V44.4529H213.87C216.167 44.4529 218.127 44.815 219.75 45.5391C221.373 46.2632 222.622 47.3119 223.495 48.6851C224.369 50.0584 224.806 51.6939 224.806 53.5915C224.806 55.4891 224.369 57.1245 223.495 58.4978C222.622 59.8461 221.373 60.8823 219.75 61.6064C218.127 62.3305 216.167 62.6925 213.87 62.6925H205.705L207.391 60.9697V70.67H203.645ZM221.173 70.67L214.507 61.157H218.514L225.256 70.67H221.173ZM207.391 61.3442L205.705 59.509H213.758C216.155 59.509 217.965 58.9972 219.188 57.9735C220.437 56.9248 221.061 55.4641 221.061 53.5915C221.061 51.7188 220.437 50.2706 219.188 49.2469C217.965 48.2232 216.155 47.7114 213.758 47.7114H205.705L207.391 45.8387V61.3442Z" fill="#3555FF"/>
<path d="M234.266 55.7637H247.749V58.9472H234.266V55.7637ZM234.603 67.4116H249.883V70.67H230.857V44.4529H249.359V47.7114H234.603V67.4116Z" fill="#3555FF"/>
<path d="M251.978 70.67L263.85 44.4529H267.558L279.468 70.67H275.536L264.937 46.5503H266.435L255.836 70.67H251.978ZM257.034 64.1158L258.045 61.1195H272.802L273.888 64.1158H257.034Z" fill="#3555FF"/>
<path d="M287.269 70.67V47.7114H278.28V44.4529H299.965V47.7114H290.976V70.67H287.269Z" fill="#3555FF"/>
<path d="M315.514 70.9697C313.516 70.9697 311.656 70.6326 309.933 69.9584C308.235 69.2843 306.762 68.348 305.514 67.1495C304.265 65.926 303.292 64.5028 302.592 62.8798C301.893 61.2569 301.544 59.4841 301.544 57.5615C301.544 55.6389 301.893 53.8661 302.592 52.2432C303.292 50.6202 304.265 49.2095 305.514 48.011C306.762 46.7875 308.235 45.8387 309.933 45.1645C311.631 44.4904 313.491 44.1533 315.514 44.1533C317.511 44.1533 319.346 44.4904 321.019 45.1645C322.717 45.8137 324.19 46.7501 325.439 47.9735C326.712 49.172 327.686 50.5827 328.36 52.2057C329.059 53.8287 329.409 55.6139 329.409 57.5615C329.409 59.509 329.059 61.2943 328.36 62.9173C327.686 64.5402 326.712 65.9634 325.439 67.1869C324.19 68.3854 322.717 69.3217 321.019 69.9959C319.346 70.6451 317.511 70.9697 315.514 70.9697ZM315.514 67.6363C316.962 67.6363 318.298 67.3867 319.521 66.8873C320.77 66.3879 321.843 65.6888 322.742 64.7899C323.666 63.8661 324.378 62.7924 324.877 61.569C325.401 60.3455 325.663 59.0097 325.663 57.5615C325.663 56.1133 325.401 54.7775 324.877 53.554C324.378 52.3306 323.666 51.2694 322.742 50.3705C321.843 49.4467 320.77 48.7351 319.521 48.2357C318.298 47.7363 316.962 47.4866 315.514 47.4866C314.041 47.4866 312.68 47.7363 311.431 48.2357C310.208 48.7351 309.134 49.4467 308.21 50.3705C307.286 51.2694 306.562 52.3306 306.038 53.554C305.539 54.7775 305.289 56.1133 305.289 57.5615C305.289 59.0097 305.539 60.3455 306.038 61.569C306.562 62.7924 307.286 63.8661 308.21 64.7899C309.134 65.6888 310.208 66.3879 311.431 66.8873C312.68 67.3867 314.041 67.6363 315.514 67.6363Z" fill="#3555FF"/>
<path d="M335.133 70.67V44.4529H345.358C347.655 44.4529 349.615 44.815 351.238 45.5391C352.861 46.2632 354.109 47.3119 354.983 48.6851C355.857 50.0584 356.294 51.6939 356.294 53.5915C356.294 55.4891 355.857 57.1245 354.983 58.4978C354.109 59.8461 352.861 60.8823 351.238 61.6064C349.615 62.3305 347.655 62.6925 345.358 62.6925H337.193L338.878 60.9697V70.67H335.133ZM352.661 70.67L345.995 61.157H350.002L356.744 70.67H352.661ZM338.878 61.3442L337.193 59.509H345.245C347.642 59.509 349.453 58.9972 350.676 57.9735C351.925 56.9248 352.549 55.4641 352.549 53.5915C352.549 51.7188 351.925 50.2706 350.676 49.2469C349.453 48.2232 347.642 47.7114 345.245 47.7114H337.193L338.878 45.8387V61.3442Z" fill="#3555FF"/>
<path d="M263.221 88.1055H264.478V89.5029C264.853 88.9521 265.248 88.542 265.664 88.2725C266.08 87.9971 266.514 87.8594 266.965 87.8594C267.305 87.8594 267.668 87.9678 268.055 88.1846L267.413 89.2217C267.155 89.1104 266.938 89.0547 266.763 89.0547C266.353 89.0547 265.957 89.2246 265.576 89.5645C265.195 89.8984 264.905 90.4199 264.706 91.1289C264.554 91.6738 264.478 92.7754 264.478 94.4336V97.668H263.221V88.1055ZM277.151 94.4951L278.188 95.04C277.849 95.708 277.456 96.2471 277.011 96.6572C276.565 97.0674 276.064 97.3809 275.508 97.5977C274.951 97.8086 274.321 97.9141 273.618 97.9141C272.06 97.9141 270.841 97.4043 269.962 96.3848C269.083 95.3594 268.644 94.2021 268.644 92.9131C268.644 91.7002 269.016 90.6191 269.76 89.6699C270.703 88.4629 271.966 87.8594 273.548 87.8594C275.177 87.8594 276.478 88.4775 277.45 89.7139C278.142 90.5869 278.493 91.6768 278.505 92.9834H269.909C269.933 94.0967 270.287 95.0107 270.973 95.7256C271.658 96.4346 272.505 96.7891 273.513 96.7891C273.999 96.7891 274.471 96.7041 274.928 96.5342C275.391 96.3643 275.783 96.1387 276.105 95.8574C276.428 95.5762 276.776 95.1221 277.151 94.4951ZM277.151 91.9199C276.987 91.2637 276.747 90.7393 276.431 90.3467C276.12 89.9541 275.707 89.6377 275.191 89.3975C274.676 89.1572 274.134 89.0371 273.565 89.0371C272.628 89.0371 271.822 89.3389 271.148 89.9424C270.656 90.3818 270.284 91.041 270.032 91.9199H277.151ZM290.335 88.1055V97.668H289.122V96.0244C288.606 96.6514 288.026 97.123 287.382 97.4395C286.743 97.7559 286.043 97.9141 285.281 97.9141C283.928 97.9141 282.771 97.4248 281.81 96.4463C280.854 95.4619 280.377 94.2666 280.377 92.8604C280.377 91.4834 280.86 90.3057 281.827 89.3271C282.794 88.3486 283.957 87.8594 285.316 87.8594C286.102 87.8594 286.811 88.0264 287.443 88.3604C288.082 88.6943 288.642 89.1953 289.122 89.8633V88.1055H290.335ZM285.413 89.0459C284.728 89.0459 284.095 89.2158 283.515 89.5557C282.935 89.8896 282.472 90.3613 282.126 90.9707C281.786 91.5801 281.616 92.2246 281.616 92.9043C281.616 93.5781 281.789 94.2227 282.135 94.8379C282.48 95.4531 282.943 95.9336 283.523 96.2793C284.109 96.6191 284.736 96.7891 285.404 96.7891C286.078 96.7891 286.717 96.6191 287.32 96.2793C287.924 95.9395 288.387 95.4795 288.709 94.8994C289.037 94.3193 289.201 93.666 289.201 92.9395C289.201 91.832 288.835 90.9062 288.103 90.1621C287.376 89.418 286.479 89.0459 285.413 89.0459ZM292.928 84.4141H294.158V97.668H292.928V84.4141ZM309.759 94.4951L310.796 95.04C310.456 95.708 310.063 96.2471 309.618 96.6572C309.173 97.0674 308.672 97.3809 308.115 97.5977C307.559 97.8086 306.929 97.9141 306.226 97.9141C304.667 97.9141 303.448 97.4043 302.569 96.3848C301.69 95.3594 301.251 94.2021 301.251 92.9131C301.251 91.7002 301.623 90.6191 302.367 89.6699C303.311 88.4629 304.573 87.8594 306.155 87.8594C307.784 87.8594 309.085 88.4775 310.058 89.7139C310.749 90.5869 311.101 91.6768 311.112 92.9834H302.517C302.54 94.0967 302.895 95.0107 303.58 95.7256C304.266 96.4346 305.112 96.7891 306.12 96.7891C306.606 96.7891 307.078 96.7041 307.535 96.5342C307.998 96.3643 308.391 96.1387 308.713 95.8574C309.035 95.5762 309.384 95.1221 309.759 94.4951ZM309.759 91.9199C309.595 91.2637 309.354 90.7393 309.038 90.3467C308.728 89.9541 308.314 89.6377 307.799 89.3975C307.283 89.1572 306.741 89.0371 306.173 89.0371C305.235 89.0371 304.43 89.3389 303.756 89.9424C303.264 90.3818 302.892 91.041 302.64 91.9199H309.759ZM318.223 89.1514L317.432 89.9688C316.775 89.3301 316.134 89.0107 315.507 89.0107C315.108 89.0107 314.766 89.1426 314.479 89.4062C314.197 89.6699 314.057 89.9775 314.057 90.3291C314.057 90.6396 314.174 90.9355 314.408 91.2168C314.643 91.5039 315.135 91.8408 315.885 92.2275C316.799 92.7021 317.42 93.1592 317.748 93.5986C318.07 94.0439 318.231 94.5449 318.231 95.1016C318.231 95.8867 317.956 96.5518 317.405 97.0967C316.854 97.6416 316.166 97.9141 315.34 97.9141C314.789 97.9141 314.262 97.7939 313.758 97.5537C313.26 97.3135 312.847 96.9824 312.519 96.5605L313.292 95.6816C313.919 96.3906 314.584 96.7451 315.287 96.7451C315.779 96.7451 316.198 96.5869 316.544 96.2705C316.89 95.9541 317.062 95.582 317.062 95.1543C317.062 94.8027 316.948 94.4893 316.72 94.2139C316.491 93.9443 315.976 93.6045 315.173 93.1943C314.312 92.749 313.726 92.3096 313.415 91.876C313.104 91.4424 312.949 90.9473 312.949 90.3906C312.949 89.6641 313.195 89.0605 313.688 88.5801C314.186 88.0996 314.812 87.8594 315.568 87.8594C316.447 87.8594 317.332 88.29 318.223 89.1514ZM321.483 84.5547H322.723V88.1055H324.674V89.1602H322.723V97.668H321.483V89.1602H319.805V88.1055H321.483V84.5547ZM336.038 88.1055V97.668H334.825V96.0244C334.31 96.6514 333.729 97.123 333.085 97.4395C332.446 97.7559 331.746 97.9141 330.984 97.9141C329.631 97.9141 328.474 97.4248 327.513 96.4463C326.558 95.4619 326.08 94.2666 326.08 92.8604C326.08 91.4834 326.563 90.3057 327.53 89.3271C328.497 88.3486 329.66 87.8594 331.02 87.8594C331.805 87.8594 332.514 88.0264 333.146 88.3604C333.785 88.6943 334.345 89.1953 334.825 89.8633V88.1055H336.038ZM331.116 89.0459C330.431 89.0459 329.798 89.2158 329.218 89.5557C328.638 89.8896 328.175 90.3613 327.829 90.9707C327.489 91.5801 327.319 92.2246 327.319 92.9043C327.319 93.5781 327.492 94.2227 327.838 94.8379C328.184 95.4531 328.646 95.9336 329.227 96.2793C329.812 96.6191 330.439 96.7891 331.107 96.7891C331.781 96.7891 332.42 96.6191 333.023 96.2793C333.627 95.9395 334.09 95.4795 334.412 94.8994C334.74 94.3193 334.904 93.666 334.904 92.9395C334.904 91.832 334.538 90.9062 333.806 90.1621C333.079 89.418 332.183 89.0459 331.116 89.0459ZM339.888 84.5547H341.127V88.1055H343.078V89.1602H341.127V97.668H339.888V89.1602H338.209V88.1055H339.888V84.5547ZM352.966 94.4951L354.003 95.04C353.663 95.708 353.271 96.2471 352.825 96.6572C352.38 97.0674 351.879 97.3809 351.322 97.5977C350.766 97.8086 350.136 97.9141 349.433 97.9141C347.874 97.9141 346.655 97.4043 345.776 96.3848C344.897 95.3594 344.458 94.2021 344.458 92.9131C344.458 91.7002 344.83 90.6191 345.574 89.6699C346.518 88.4629 347.78 87.8594 349.362 87.8594C350.991 87.8594 352.292 88.4775 353.265 89.7139C353.956 90.5869 354.308 91.6768 354.319 92.9834H345.724C345.747 94.0967 346.102 95.0107 346.787 95.7256C347.473 96.4346 348.319 96.7891 349.327 96.7891C349.813 96.7891 350.285 96.7041 350.742 96.5342C351.205 96.3643 351.598 96.1387 351.92 95.8574C352.242 95.5762 352.591 95.1221 352.966 94.4951ZM352.966 91.9199C352.802 91.2637 352.562 90.7393 352.245 90.3467C351.935 89.9541 351.521 89.6377 351.006 89.3975C350.49 89.1572 349.948 89.0371 349.38 89.0371C348.442 89.0371 347.637 89.3389 346.963 89.9424C346.471 90.3818 346.099 91.041 345.847 91.9199H352.966Z" fill="#8094FF"/>
</svg>
