<svg width="151" height="42" viewBox="0 0 151 42" fill="none" xmlns="http://www.w3.org/2000/svg">
<path d="M33.4365 10.8753C33.1363 10.6317 34.8912 8.24513 35.0085 8.06876C35.9257 6.6931 37.0013 5.43457 38.2778 4.38036C40.7378 2.34847 43.722 1.34218 46.8978 1.60307C52.5919 2.07028 57.5193 6.2372 59.0913 11.7292C60.1125 15.2965 59.7103 19.1985 57.9839 22.4783C55.6478 26.9174 51.0816 29.909 46.0866 30.2711C42.547 30.5273 39.2221 29.2095 36.4983 26.986C34.0303 24.9714 32.1197 22.2806 30.0951 19.8401C28.8054 18.2854 27.5323 16.7267 26.293 15.1321C25.2453 13.7837 24.1995 12.434 23.1537 11.0836C22.2451 9.9103 21.3736 8.715 20.2801 7.70405C18.1356 5.72141 15.537 4.67851 12.6283 5.0825C10.6116 5.36269 8.70962 6.26715 7.18072 7.6102C5.00499 9.52229 3.68286 12.3109 3.55495 15.2093C3.38861 18.9862 5.18923 22.6054 8.25367 24.8017C10.2783 26.2525 12.8934 27.0705 15.3872 26.8768C18.9785 26.598 21.7335 24.1907 24.1206 21.7096C24.2717 21.5525 25.9994 19.6744 26.1983 19.9253C26.3083 20.0637 25.9259 20.6288 25.8742 20.7219C25.4911 21.4074 25.0478 22.0603 24.613 22.7132C22.7322 25.5338 20.0488 27.961 16.724 28.8614C10.9649 30.4208 4.69683 27.1916 1.82524 22.1302C-2.28498 14.8858 0.843081 5.51909 8.23776 1.92852C11.4507 0.368501 15.2633 -0.0208377 18.6472 1.20109C21.8044 2.34115 24.2538 4.58933 26.3653 7.13434C29.8022 11.278 33.1721 15.4409 36.4685 19.6977C38.456 22.2647 40.6318 24.9634 43.9865 25.6542C46.137 26.0968 48.4764 25.5977 50.3977 24.5874C53.093 23.1698 55.0984 20.5469 55.7916 17.5746C56.5583 14.2862 55.7512 10.7855 53.6576 8.14663C52.2765 6.40558 50.3639 5.08915 48.2498 4.42162C45.1264 3.43662 42.0115 3.93245 39.2752 5.73206C37.9258 6.61989 36.7773 7.73133 35.6686 8.89802C35.5334 9.03978 33.7209 11.1063 33.4365 10.8753C33.296 10.7622 33.577 10.9891 33.4365 10.8753Z" fill="#3555FF"/>
<path d="M74.6802 11.6926V0.605957H76.264V11.6926H74.6802Z" fill="white"/>
<path d="M80.6918 11.6926V0.605957H81.9905L89.3235 9.71281H88.6425V0.605957H90.2263V11.6926H88.9276L81.5946 2.58571H82.2756V11.6926H80.6918Z" fill="white"/>
<path d="M96.0788 5.84833H101.796V7.2104H96.0788V5.84833ZM96.2372 11.6926H94.6534V0.605957H102.477V1.98386H96.2372V11.6926Z" fill="white"/>
<path d="M105.815 11.6926V0.605957H107.399V11.6926H105.815Z" fill="white"/>
<path d="M111.827 11.6926V0.605957H113.126L120.459 9.71281H119.778V0.605957H121.362V11.6926H120.063L112.73 2.58571H113.411V11.6926H111.827Z" fill="white"/>
<path d="M125.789 11.6926V0.605957H127.372V11.6926H125.789Z" fill="white"/>
<path d="M134.002 11.6926V1.98386H130.201V0.605957H139.371V1.98386H135.57V11.6926H134.002Z" fill="white"/>
<path d="M143.646 5.38903H149.347V6.73526H143.646V5.38903ZM143.788 10.3146H150.25V11.6926H142.204V0.605957H150.028V1.98386H143.788V10.3146Z" fill="white"/>
<path d="M79.6262 30.4298C78.7815 30.4298 78.0001 30.2926 77.2821 30.0181C76.5747 29.733 75.957 29.337 75.4291 28.8302C74.9117 28.3128 74.5052 27.711 74.2096 27.0247C73.9139 26.3384 73.7661 25.5834 73.7661 24.7598C73.7661 23.9363 73.9139 23.1813 74.2096 22.495C74.5052 21.8087 74.917 21.2121 75.4449 20.7053C75.9729 20.1879 76.5906 19.792 77.298 19.5175C78.016 19.2324 78.7973 19.0898 79.642 19.0898C80.4973 19.0898 81.2839 19.2377 82.0019 19.5333C82.7304 19.8184 83.3481 20.246 83.8549 20.8162L82.8254 21.814C82.4031 21.3705 81.928 21.0432 81.4 20.832C80.8721 20.6103 80.3072 20.4994 79.7054 20.4994C79.0824 20.4994 78.5017 20.605 77.9632 20.8162C77.4352 21.0274 76.9759 21.323 76.5853 21.7031C76.1946 22.0832 75.8884 22.5372 75.6667 23.0652C75.4555 23.5826 75.3499 24.1474 75.3499 24.7598C75.3499 25.3722 75.4555 25.9424 75.6667 26.4703C75.8884 26.9877 76.1946 27.4365 76.5853 27.8166C76.9759 28.1967 77.4352 28.4923 77.9632 28.7035C78.5017 28.9147 79.0824 29.0203 79.7054 29.0203C80.3072 29.0203 80.8721 28.9147 81.4 28.7035C81.928 28.4818 82.4031 28.1439 82.8254 27.6899L83.8549 28.6877C83.3481 29.2578 82.7304 29.6907 82.0019 29.9864C81.2839 30.282 80.492 30.4298 79.6262 30.4298Z" fill="white"/>
<path d="M86.1143 30.3031V19.2165H90.4381C91.4095 19.2165 92.2383 19.3696 92.9246 19.6758C93.611 19.9821 94.1389 20.4255 94.5084 21.0062C94.878 21.587 95.0628 22.2786 95.0628 23.081C95.0628 23.8835 94.878 24.5751 94.5084 25.1558C94.1389 25.726 93.611 26.1641 92.9246 26.4703C92.2383 26.7765 91.4095 26.9296 90.4381 26.9296H86.9854L87.6981 26.2011V30.3031H86.1143ZM93.5265 30.3031L90.7073 26.2803H92.402L95.2528 30.3031H93.5265ZM87.6981 26.3595L86.9854 25.5834H90.3906C91.4042 25.5834 92.1697 25.367 92.6871 24.9341C93.215 24.4906 93.479 23.8729 93.479 23.081C93.479 22.2891 93.215 21.6767 92.6871 21.2438C92.1697 20.8109 91.4042 20.5945 90.3906 20.5945H86.9854L87.6981 19.8026V26.3595Z" fill="white"/>
<path d="M99.0629 23.9996H104.765V25.3458H99.0629V23.9996ZM99.2054 28.9252H105.667V30.3031H97.6216V19.2165H105.446V20.5945H99.2054V28.9252Z" fill="white"/>
<path d="M106.553 30.3031L111.574 19.2165H113.142L118.178 30.3031H116.515L112.033 20.1035H112.666L108.184 30.3031H106.553ZM108.691 27.5315L109.119 26.2645H115.359L115.818 27.5315H108.691Z" fill="white"/>
<path d="M121.477 30.3031V20.5945H117.675V19.2165H126.846V20.5945H123.045V30.3031H121.477Z" fill="white"/>
<path d="M133.421 30.4298C132.576 30.4298 131.789 30.2873 131.061 30.0022C130.343 29.7171 129.72 29.3212 129.192 28.8144C128.664 28.297 128.252 27.6952 127.957 27.0088C127.661 26.3225 127.513 25.5729 127.513 24.7598C127.513 23.9468 127.661 23.1972 127.957 22.5108C128.252 21.8245 128.664 21.228 129.192 20.7212C129.72 20.2038 130.343 19.8026 131.061 19.5175C131.779 19.2324 132.566 19.0898 133.421 19.0898C134.265 19.0898 135.042 19.2324 135.749 19.5175C136.467 19.792 137.09 20.1879 137.618 20.7053C138.156 21.2121 138.568 21.8087 138.853 22.495C139.149 23.1813 139.297 23.9363 139.297 24.7598C139.297 25.5834 139.149 26.3384 138.853 27.0247C138.568 27.711 138.156 28.3128 137.618 28.8302C137.09 29.337 136.467 29.733 135.749 30.0181C135.042 30.2926 134.265 30.4298 133.421 30.4298ZM133.421 29.0203C134.033 29.0203 134.598 28.9147 135.115 28.7035C135.643 28.4923 136.097 28.1967 136.478 27.8166C136.868 27.4259 137.169 26.9719 137.38 26.4545C137.602 25.9371 137.713 25.3722 137.713 24.7598C137.713 24.1474 137.602 23.5826 137.38 23.0652C137.169 22.5478 136.868 22.0991 136.478 21.7189C136.097 21.3283 135.643 21.0274 135.115 20.8162C134.598 20.605 134.033 20.4994 133.421 20.4994C132.798 20.4994 132.222 20.605 131.694 20.8162C131.177 21.0274 130.723 21.3283 130.332 21.7189C129.942 22.0991 129.635 22.5478 129.414 23.0652C129.203 23.5826 129.097 24.1474 129.097 24.7598C129.097 25.3722 129.203 25.9371 129.414 26.4545C129.635 26.9719 129.942 27.4259 130.332 27.8166C130.723 28.1967 131.177 28.4923 131.694 28.7035C132.222 28.9147 132.798 29.0203 133.421 29.0203Z" fill="white"/>
<path d="M141.717 30.3031V19.2165H146.041C147.013 19.2165 147.841 19.3696 148.528 19.6758C149.214 19.9821 149.742 20.4255 150.112 21.0062C150.481 21.587 150.666 22.2786 150.666 23.081C150.666 23.8835 150.481 24.5751 150.112 25.1558C149.742 25.726 149.214 26.1641 148.528 26.4703C147.841 26.7765 147.013 26.9296 146.041 26.9296H142.589L143.301 26.2011V30.3031H141.717ZM149.13 30.3031L146.31 26.2803H148.005L150.856 30.3031H149.13ZM143.301 26.3595L142.589 25.5834H145.994C147.007 25.5834 147.773 25.367 148.29 24.9341C148.818 24.4906 149.082 23.8729 149.082 23.081C149.082 22.2891 148.818 21.6767 148.29 21.2438C147.773 20.8109 147.007 20.5945 145.994 20.5945H142.589L143.301 19.8026V26.3595Z" fill="white"/>
<path d="M112.681 38.3613H113.409V38.7874C113.487 38.6195 113.592 38.4919 113.723 38.4048C113.853 38.3177 113.997 38.2741 114.152 38.2741C114.262 38.2741 114.377 38.3032 114.497 38.3613L114.233 39.0923C114.133 39.0425 114.052 39.0176 113.987 39.0176C113.857 39.0176 113.746 39.0985 113.654 39.2603C113.565 39.4221 113.521 39.7394 113.521 40.2122L113.524 40.3771V41.7459H112.681V38.3613Z" fill="white"/>
<path d="M118.917 40.2993H116.188C116.228 40.5399 116.332 40.7317 116.503 40.8748C116.675 41.0159 116.893 41.0864 117.159 41.0864C117.476 41.0864 117.749 40.9754 117.977 40.7535L118.693 41.0895C118.514 41.3425 118.301 41.5302 118.052 41.6526C117.803 41.7728 117.507 41.833 117.165 41.833C116.634 41.833 116.202 41.666 115.868 41.3321C115.534 40.9962 115.367 40.5762 115.367 40.0722C115.367 39.5558 115.533 39.1276 115.865 38.7874C116.199 38.4452 116.617 38.2741 117.119 38.2741C117.652 38.2741 118.085 38.4452 118.419 38.7874C118.753 39.1276 118.92 39.5776 118.92 40.1376L118.917 40.2993ZM118.064 39.6305C118.008 39.4418 117.897 39.2883 117.731 39.1701C117.568 39.0519 117.377 38.9928 117.159 38.9928C116.923 38.9928 116.715 39.0591 116.537 39.1919C116.425 39.2748 116.321 39.421 116.226 39.6305H118.064Z" fill="white"/>
<path d="M122.714 38.3613H123.56V41.7459H122.714V41.3881C122.548 41.5457 122.381 41.6598 122.213 41.7303C122.047 41.7988 121.866 41.833 121.671 41.833C121.234 41.833 120.855 41.664 120.536 41.3259C120.217 40.9858 120.057 40.5637 120.057 40.0598C120.057 39.5372 120.211 39.1089 120.52 38.775C120.829 38.4411 121.205 38.2741 121.647 38.2741C121.85 38.2741 122.041 38.3125 122.219 38.3893C122.397 38.466 122.562 38.5811 122.714 38.7346V38.3613ZM121.821 39.0581C121.557 39.0581 121.339 39.1514 121.164 39.3381C120.99 39.5226 120.903 39.7601 120.903 40.0505C120.903 40.3429 120.991 40.5835 121.167 40.7722C121.346 40.9609 121.565 41.0553 121.824 41.0553C122.091 41.0553 122.313 40.963 122.49 40.7784C122.666 40.5917 122.754 40.3481 122.754 40.0473C122.754 39.7528 122.666 39.5143 122.49 39.3318C122.313 39.1493 122.09 39.0581 121.821 39.0581Z" fill="white"/>
<path d="M124.933 37.0547H125.783V41.7459H124.933V37.0547Z" fill="white"/>
<path d="M132.941 40.2993H130.213C130.252 40.5399 130.357 40.7317 130.527 40.8748C130.699 41.0159 130.918 41.0864 131.184 41.0864C131.501 41.0864 131.774 40.9754 132.002 40.7535L132.717 41.0895C132.539 41.3425 132.325 41.5302 132.076 41.6526C131.827 41.7728 131.532 41.833 131.19 41.833C130.659 41.833 130.226 41.666 129.892 41.3321C129.559 40.9962 129.392 40.5762 129.392 40.0722C129.392 39.5558 129.558 39.1276 129.889 38.7874C130.223 38.4452 130.641 38.2741 131.143 38.2741C131.676 38.2741 132.11 38.4452 132.443 38.7874C132.777 39.1276 132.944 39.5776 132.944 40.1376L132.941 40.2993ZM132.089 39.6305C132.033 39.4418 131.922 39.2883 131.756 39.1701C131.592 39.0519 131.401 38.9928 131.184 38.9928C130.947 38.9928 130.74 39.0591 130.561 39.1919C130.449 39.2748 130.346 39.421 130.25 39.6305H132.089Z" fill="white"/>
<path d="M136.309 38.8341L135.783 39.3598C135.569 39.1483 135.376 39.0425 135.201 39.0425C135.106 39.0425 135.031 39.0633 134.977 39.1048C134.923 39.1442 134.897 39.1939 134.897 39.2541C134.897 39.2997 134.913 39.3422 134.946 39.3816C134.982 39.4189 135.067 39.4708 135.201 39.5372L135.512 39.6927C135.84 39.8545 136.065 40.0193 136.188 40.1873C136.31 40.3553 136.371 40.5523 136.371 40.7784C136.371 41.0791 136.26 41.3301 136.038 41.5312C135.818 41.7324 135.523 41.833 135.152 41.833C134.658 41.833 134.264 41.6401 133.969 41.2544L134.492 40.6851C134.592 40.8012 134.708 40.8956 134.841 40.9682C134.975 41.0387 135.095 41.0739 135.198 41.0739C135.31 41.0739 135.4 41.047 135.469 40.993C135.537 40.9391 135.572 40.8769 135.572 40.8064C135.572 40.6757 135.448 40.5482 135.201 40.4238L134.915 40.2807C134.368 40.0048 134.094 39.6595 134.094 39.2447C134.094 38.9772 134.197 38.7491 134.402 38.5603C134.609 38.3695 134.874 38.2741 135.195 38.2741C135.415 38.2741 135.621 38.3229 135.814 38.4204C136.009 38.5158 136.174 38.6537 136.309 38.8341Z" fill="white"/>
<path d="M137.751 37.1138H138.597V38.3613H139.101V39.0923H138.597V41.7459H137.751V39.0923H137.315V38.3613H137.751V37.1138Z" fill="white"/>
<path d="M142.665 38.3613H143.511V41.7459H142.665V41.3881C142.499 41.5457 142.332 41.6598 142.164 41.7303C141.998 41.7988 141.818 41.833 141.623 41.833C141.185 41.833 140.807 41.664 140.487 41.3259C140.168 40.9858 140.008 40.5637 140.008 40.0598C140.008 39.5372 140.163 39.1089 140.472 38.775C140.781 38.4411 141.156 38.2741 141.598 38.2741C141.801 38.2741 141.992 38.3125 142.17 38.3893C142.348 38.466 142.513 38.5811 142.665 38.7346V38.3613ZM141.772 39.0581C141.509 39.0581 141.29 39.1514 141.116 39.3381C140.941 39.5226 140.854 39.7601 140.854 40.0505C140.854 40.3429 140.942 40.5835 141.119 40.7722C141.297 40.9609 141.516 41.0553 141.775 41.0553C142.043 41.0553 142.264 40.963 142.441 40.7784C142.617 40.5917 142.705 40.3481 142.705 40.0473C142.705 39.7528 142.617 39.5143 142.441 39.3318C142.264 39.1493 142.042 39.0581 141.772 39.0581Z" fill="white"/>
<path d="M145.077 37.1138H145.924V38.3613H146.428V39.0923H145.924V41.7459H145.077V39.0923H144.642V38.3613H145.077V37.1138Z" fill="white"/>
<path d="M150.881 40.2993H148.153C148.192 40.5399 148.297 40.7317 148.467 40.8748C148.639 41.0159 148.858 41.0864 149.123 41.0864C149.441 41.0864 149.713 40.9754 149.941 40.7535L150.657 41.0895C150.479 41.3425 150.265 41.5302 150.016 41.6526C149.767 41.7728 149.472 41.833 149.129 41.833C148.599 41.833 148.166 41.666 147.832 41.3321C147.498 40.9962 147.331 40.5762 147.331 40.0722C147.331 39.5558 147.497 39.1276 147.829 38.7874C148.163 38.4452 148.581 38.2741 149.083 38.2741C149.616 38.2741 150.049 38.4452 150.383 38.7874C150.717 39.1276 150.884 39.5776 150.884 40.1376L150.881 40.2993ZM150.029 39.6305C149.973 39.4418 149.862 39.2883 149.696 39.1701C149.532 39.0519 149.341 38.9928 149.123 38.9928C148.887 38.9928 148.679 39.0591 148.501 39.1919C148.389 39.2748 148.285 39.421 148.19 39.6305H150.029Z" fill="white"/>
</svg>
