<svg width="122" height="122" viewBox="0 0 122 122" fill="none" xmlns="http://www.w3.org/2000/svg">
<path fill-rule="evenodd" clip-rule="evenodd" d="M20 0C8.9543 0 0 8.9543 0 20V102C0 113.046 8.9543 122 20 122H102C113.046 122 122 113.046 122 102V20C122 8.9543 113.046 0 102 0H20ZM23.3494 24.7963V55.7688H42.6978V57.7046H23.1533H22.3689H21.3884V56.9948V55.9623V24.7963H23.3494ZM65.3141 27.0557C62.7702 24.7282 59.1662 24.7844 58.4154 24.7961C58.3752 24.7967 58.3432 24.7972 58.32 24.7972H45.2468H44.2663V25.7651V26.4749V57.7055H46.2272V42.8645H59.6273L59.6377 42.8646C59.8745 42.8661 62.9394 42.8858 65.2488 40.6061C66.9483 38.9285 67.798 36.541 67.798 33.5083C67.798 30.7336 66.9483 28.6043 65.3141 27.0557ZM58.3853 26.733L58.4099 26.7327C58.7461 26.7265 61.9842 26.6677 63.9415 28.4752C65.1834 29.6367 65.8371 31.3144 65.8371 33.5083C65.8371 36.0248 65.1834 37.9606 63.8761 39.1866C62.1112 40.9288 59.6927 40.9288 59.6273 40.9288H46.2272V26.733H58.3853ZM99.5003 43.5097H100.612C100.612 43.8323 100.546 44.413 100.481 44.6711C99.7617 47.8974 96.6242 58.3507 84.4661 58.3507C74.3343 58.3507 67.9285 49.8332 67.7977 41.8965C67.7324 37.5087 69.6934 32.7983 72.9617 29.5075C76.0339 26.4103 80.0212 24.7971 84.4661 24.7971C94.7286 24.7971 97.67 31.5723 97.7354 31.8304C97.8008 31.895 97.8008 31.895 97.8008 31.9595H95.6437C94.7286 30.4754 91.6564 26.7329 84.4661 26.7329C79.4983 26.7329 76.23 28.9913 74.3343 30.8625C71.4582 33.7662 69.6934 38.0249 69.7587 41.8965C69.8241 47.962 74.988 56.4149 84.4661 56.4149C93.9442 56.4149 97.2125 49.0589 98.2583 45.4454H80.6095V43.5097H99.5003ZM58.9061 82.3622H57.7949H38.9041V84.298H56.553C55.5071 87.9114 52.2388 95.2674 42.7607 95.2674C33.2826 95.2674 28.1187 86.8145 28.0534 80.749C27.988 76.8775 29.7529 72.6188 32.629 69.7151C34.5246 67.8438 37.7929 65.5854 42.7607 65.5854C49.951 65.5854 53.0232 69.3279 53.9383 70.812H56.0954C56.0954 70.7847 56.0954 70.7689 56.0904 70.7549C56.0837 70.7359 56.0677 70.7201 56.03 70.683C55.9647 70.4249 53.0232 63.6496 42.7607 63.6496C38.3158 63.6496 34.3285 65.2628 31.2563 68.36C27.988 71.6509 26.027 76.3613 26.0924 80.749C26.2231 88.6857 32.629 97.2032 42.7607 97.2032C54.9188 97.2032 58.0564 86.75 58.7754 83.5237C58.8408 83.2655 58.9061 82.6848 58.9061 82.3622ZM93.2059 80.4282C93.2059 88.7194 86.4846 95.4407 78.1934 95.4407C69.9023 95.4407 63.181 88.7194 63.181 80.4282C63.181 72.1371 69.9023 65.4158 78.1934 65.4158C86.4846 65.4158 93.2059 72.1371 93.2059 80.4282ZM94.972 80.4282C94.972 89.6948 87.46 97.2068 78.1934 97.2068C68.9269 97.2068 61.4148 89.6948 61.4148 80.4282C61.4148 71.1617 68.9269 63.6496 78.1934 63.6496C87.46 63.6496 94.972 71.1617 94.972 80.4282Z" fill="white"/>
</svg>
