<svg width="112" height="69" viewBox="0 0 112 69" fill="none" xmlns="http://www.w3.org/2000/svg">
<path d="M60.7644 14.0313C60.3686 13.7101 62.6822 10.5636 62.8368 10.3311C64.0461 8.51747 65.4641 6.85824 67.1469 5.46838C70.3902 2.78957 74.3246 1.46289 78.5115 1.80684C86.0186 2.4228 92.5148 7.91643 94.5873 15.157C95.9337 19.8601 95.4033 25.0045 93.1273 29.3285C90.0474 35.181 84.0274 39.125 77.4421 39.6024C72.7755 39.9402 68.392 38.2029 64.801 35.2714C61.5472 32.6154 59.0283 29.0679 56.359 25.8503C54.6587 23.8006 52.9803 21.7457 51.3464 19.6433C49.9651 17.8657 48.5863 16.0862 47.2076 14.3059C46.0097 12.759 44.8607 11.1831 43.4191 9.85029C40.5917 7.23641 37.1658 5.86147 33.331 6.39407C30.6723 6.76347 28.1647 7.95591 26.149 9.72657C23.2805 12.2474 21.5374 15.9239 21.3688 19.7451C21.1495 24.7246 23.5234 29.4961 27.5635 32.3916C30.2328 34.3044 33.6805 35.3828 36.9684 35.1275C41.7031 34.7598 45.3352 31.5861 48.4824 28.315C48.6816 28.108 50.9594 25.6318 51.2215 25.9626C51.3665 26.1451 50.8624 26.8901 50.7942 27.0129C50.2892 27.9167 49.7047 28.7775 49.1315 29.6382C46.6519 33.3568 43.1142 36.5568 38.7307 37.744C31.138 39.7998 22.8742 35.5425 19.0884 28.8696C13.6695 19.3187 17.7935 6.96967 27.5426 2.23591C31.7784 0.179199 36.805 -0.334101 41.2662 1.27687C45.4287 2.77992 48.658 5.74389 51.4417 9.09921C55.9728 14.5621 60.4157 20.0505 64.7617 25.6626C67.382 29.0468 70.2504 32.6048 74.6732 33.5156C77.5085 34.0991 80.5928 33.441 83.1257 32.1091C86.6791 30.2401 89.323 26.7822 90.237 22.8635C91.2479 18.5281 90.1837 13.9128 87.4236 10.4338C85.6027 8.13841 83.0811 6.40285 80.2939 5.52278C76.1761 4.22417 72.0695 4.87787 68.4619 7.25045C66.683 8.42095 65.1688 9.88627 63.7071 11.4244C63.5288 11.6113 61.1392 14.3357 60.7644 14.0313C60.9496 14.1813 60.5791 13.8821 60.7644 14.0313Z" fill="white"/>
<path d="M0 68.6065V60.7266H1.12571V68.6065H0Z" fill="white"/>
<path d="M4.27285 68.6065V60.7266H5.19593L10.408 67.1994H9.9239V60.7266H11.0496V68.6065H10.1265L4.9145 62.1337H5.39856V68.6065H4.27285Z" fill="white"/>
<path d="M15.2094 64.4527H19.2732V65.4208H15.2094V64.4527ZM15.3219 68.6065H14.1962V60.7266H19.7572V61.7059H15.3219V68.6065Z" fill="white"/>
<path d="M22.1298 68.6065V60.7266H23.2555V68.6065H22.1298Z" fill="white"/>
<path d="M26.4027 68.6065V60.7266H27.3257L32.5378 67.1994H32.0537V60.7266H33.1794V68.6065H32.2563L27.0443 62.1337H27.5284V68.6065H26.4027Z" fill="white"/>
<path d="M36.326 68.6065V60.7266H37.4517V68.6065H36.326Z" fill="white"/>
<path d="M42.1636 68.6065V61.7059H39.4619V60.7266H45.9798V61.7059H43.2781V68.6065H42.1636Z" fill="white"/>
<path d="M49.0182 64.1262H53.0708V65.0831H49.0182V64.1262ZM49.1195 67.6272H53.7124V68.6065H47.9938V60.7266H53.5548V61.7059H49.1195V67.6272Z" fill="white"/>
<path d="M61.3725 68.7866C60.7721 68.7866 60.2168 68.6891 59.7064 68.4939C59.2036 68.2913 58.7646 68.0099 58.3894 67.6497C58.0216 67.2819 57.7327 66.8542 57.5226 66.3664C57.3124 65.8785 57.2074 65.342 57.2074 64.7566C57.2074 64.1712 57.3124 63.6346 57.5226 63.1468C57.7327 62.659 58.0254 62.235 58.4006 61.8748C58.7759 61.5071 59.2149 61.2256 59.7177 61.0305C60.228 60.8279 60.7834 60.7266 61.3837 60.7266C61.9916 60.7266 62.5507 60.8316 63.061 61.0418C63.5789 61.2444 64.0179 61.5483 64.3781 61.9536L63.6464 62.6628C63.3462 62.3476 63.0085 62.1149 62.6333 61.9648C62.258 61.8072 61.8565 61.7284 61.4288 61.7284C60.986 61.7284 60.5732 61.8035 60.1905 61.9536C59.8153 62.1037 59.4888 62.3138 59.2111 62.584C58.9335 62.8541 58.7158 63.1769 58.5582 63.5521C58.4081 63.9198 58.3331 64.3213 58.3331 64.7566C58.3331 65.1919 58.4081 65.5971 58.5582 65.9724C58.7158 66.3401 58.9335 66.659 59.2111 66.9292C59.4888 67.1994 59.8153 67.4095 60.1905 67.5596C60.5732 67.7097 60.986 67.7847 61.4288 67.7847C61.8565 67.7847 62.258 67.7097 62.6333 67.5596C63.0085 67.402 63.3462 67.1619 63.6464 66.8392L64.3781 67.5483C64.0179 67.9536 63.5789 68.2613 63.061 68.4714C62.5507 68.6816 61.9879 68.7866 61.3725 68.7866Z" fill="white"/>
<path d="M65.984 68.6966V60.8166H69.0572C69.7476 60.8166 70.3367 60.9254 70.8246 61.1431C71.3124 61.3607 71.6876 61.6759 71.9503 62.0887C72.2129 62.5014 72.3443 62.993 72.3443 63.5633C72.3443 64.1337 72.2129 64.6253 71.9503 65.038C71.6876 65.4433 71.3124 65.7547 70.8246 65.9724C70.3367 66.19 69.7476 66.2988 69.0572 66.2988H66.6032L67.1097 65.781V68.6966H65.984ZM71.2523 68.6966L69.2486 65.8373H70.4531L72.4793 68.6966H71.2523ZM67.1097 65.8936L66.6032 65.342H69.0234C69.7439 65.342 70.288 65.1881 70.6557 64.8804C71.0309 64.5652 71.2186 64.1262 71.2186 63.5633C71.2186 63.0005 71.0309 62.5652 70.6557 62.2575C70.288 61.9498 69.7439 61.796 69.0234 61.796H66.6032L67.1097 61.2331V65.8936Z" fill="white"/>
<path d="M75.1874 64.2163H79.2399V65.1731H75.1874V64.2163ZM75.2887 67.7172H79.8816V68.6966H74.163V60.8166H79.724V61.796H75.2887V67.7172Z" fill="white"/>
<path d="M80.5111 68.6966L84.0796 60.8166H85.194L88.7738 68.6966H87.5918L84.406 61.447H84.8563L81.6706 68.6966H80.5111ZM82.0308 66.7266L82.3347 65.826H86.77L87.0965 66.7266H82.0308Z" fill="white"/>
<path d="M91.1182 68.6966V61.796H88.4165V60.8166H94.9344V61.796H92.2327V68.6966H91.1182Z" fill="white"/>
<path d="M99.6077 68.7866C99.0074 68.7866 98.4483 68.6853 97.9304 68.4827C97.4201 68.2801 96.9773 67.9986 96.6021 67.6384C96.2269 67.2707 95.9342 66.8429 95.7241 66.3551C95.5139 65.8673 95.4089 65.3345 95.4089 64.7566C95.4089 64.1787 95.5139 63.6459 95.7241 63.1581C95.9342 62.6703 96.2269 62.2463 96.6021 61.886C96.9773 61.5183 97.4201 61.2331 97.9304 61.0305C98.4408 60.8279 98.9999 60.7266 99.6077 60.7266C100.208 60.7266 100.76 60.8279 101.263 61.0305C101.773 61.2256 102.216 61.5071 102.591 61.8748C102.974 62.235 103.266 62.659 103.469 63.1468C103.679 63.6346 103.784 64.1712 103.784 64.7566C103.784 65.342 103.679 65.8785 103.469 66.3664C103.266 66.8542 102.974 67.2819 102.591 67.6497C102.216 68.0099 101.773 68.2913 101.263 68.4939C100.76 68.6891 100.208 68.7866 99.6077 68.7866ZM99.6077 67.7847C100.043 67.7847 100.445 67.7097 100.812 67.5596C101.187 67.4095 101.51 67.1994 101.78 66.9292C102.058 66.6515 102.272 66.3288 102.422 65.9611C102.58 65.5934 102.658 65.1919 102.658 64.7566C102.658 64.3213 102.58 63.9198 102.422 63.5521C102.272 63.1844 102.058 62.8654 101.78 62.5952C101.51 62.3176 101.187 62.1037 100.812 61.9536C100.445 61.8035 100.043 61.7284 99.6077 61.7284C99.165 61.7284 98.756 61.8035 98.3807 61.9536C98.013 62.1037 97.6903 62.3176 97.4126 62.5952C97.1349 62.8654 96.9173 63.1844 96.7597 63.5521C96.6096 63.9198 96.5346 64.3213 96.5346 64.7566C96.5346 65.1919 96.6096 65.5934 96.7597 65.9611C96.9173 66.3288 97.1349 66.6515 97.4126 66.9292C97.6903 67.1994 98.013 67.4095 98.3807 67.5596C98.756 67.7097 99.165 67.7847 99.6077 67.7847Z" fill="white"/>
<path d="M105.505 68.6966V60.8166H108.578C109.268 60.8166 109.857 60.9254 110.345 61.1431C110.833 61.3607 111.208 61.6759 111.471 62.0887C111.734 62.5014 111.865 62.993 111.865 63.5633C111.865 64.1337 111.734 64.6253 111.471 65.038C111.208 65.4433 110.833 65.7547 110.345 65.9724C109.857 66.19 109.268 66.2988 108.578 66.2988H106.124L106.63 65.781V68.6966H105.505ZM110.773 68.6966L108.769 65.8373H109.974L112 68.6966H110.773ZM106.63 65.8936L106.124 65.342H108.544C109.265 65.342 109.809 65.1881 110.176 64.8804C110.552 64.5652 110.739 64.1262 110.739 63.5633C110.739 63.0005 110.552 62.5652 110.176 62.2575C109.809 61.9498 109.265 61.796 108.544 61.796H106.124L106.63 61.2331V65.8936Z" fill="white"/>
</svg>
