<?xml version="1.0" standalone="no"?>
<!DOCTYPE svg PUBLIC "-//W3C//DTD SVG 20010904//EN"
 "http://www.w3.org/TR/2001/REC-SVG-20010904/DTD/svg10.dtd">
<svg version="1.0" xmlns="http://www.w3.org/2000/svg"
 width="512.000000pt" height="512.000000pt" viewBox="0 0 512.000000 512.000000"
 preserveAspectRatio="xMidYMid meet">
<metadata>
Created by potrace 1.14, written by Peter Selinger 2001-2017
</metadata>
<g transform="translate(0.000000,512.000000) scale(0.100000,-0.100000)"
fill="#000000" stroke="none">
<path d="M866 5104 c-430 -85 -760 -410 -846 -833 -20 -97 -20 -131 -20 -1709
0 -1395 2 -1620 15 -1689 82 -433 408 -766 834 -853 97 -20 131 -20 1709 -20
1395 0 1620 2 1689 15 433 82 766 408 853 834 20 97 20 131 20 1709 0 1395 -2
1620 -15 1689 -82 433 -408 766 -834 853 -97 20 -129 20 -1718 19 -1324 -1
-1630 -3 -1687 -15z m738 -1450 c183 -38 360 -139 535 -308 119 -114 456 -523
960 -1164 115 -147 229 -260 314 -311 165 -98 325 -122 512 -74 289 73 508
292 586 588 29 112 29 288 0 400 -76 285 -278 504 -548 594 -267 90 -519 44
-759 -138 -44 -32 -141 -123 -218 -200 -166 -169 -191 -183 -121 -66 183 303
386 489 628 574 l102 36 175 -1 c161 0 182 -2 263 -27 493 -152 805 -613 757
-1120 -49 -518 -460 -933 -977 -986 -309 -32 -602 87 -863 349 -117 118 -404
466 -768 933 -311 400 -374 464 -529 541 -321 161 -740 26 -946 -305 -209
-335 -149 -766 146 -1045 209 -199 513 -280 762 -204 166 51 290 137 508 349
81 79 150 141 153 138 4 -4 -11 -37 -34 -74 -196 -330 -443 -535 -717 -594
-98 -21 -285 -16 -389 10 -403 103 -707 417 -791 816 -20 96 -23 302 -6 395
116 612 683 1013 1265 894z"/>
</g>
</svg>
